<svg width="19" height="15" viewBox="0 0 19 15" fill="none" xmlns="http://www.w3.org/2000/svg">
<path d="M10.5763 0.397356C10.8308 0.142929 11.1759 0 11.5358 0C11.8957 0 12.2408 0.142929 12.4953 0.397356L18.6025 6.50455C18.8569 6.75906 18.9999 7.10419 18.9999 7.46406C18.9999 7.82393 18.8569 8.16907 18.6025 8.42357L12.4953 14.5308C12.2394 14.778 11.8965 14.9148 11.5407 14.9117C11.1849 14.9086 10.8445 14.7659 10.5928 14.5142C10.3412 14.2626 10.1985 13.9222 10.1954 13.5664C10.1923 13.2105 10.3291 12.8677 10.5763 12.6117L14.2501 8.82122H1.35715C0.997215 8.82122 0.652017 8.67823 0.397501 8.42371C0.142986 8.1692 0 7.824 0 7.46406C0 7.10412 0.142986 6.75892 0.397501 6.50441C0.652017 6.24989 0.997215 6.10691 1.35715 6.10691H14.2501L10.5763 2.31637C10.3219 2.06187 10.179 1.71673 10.179 1.35686C10.179 0.996996 10.3219 0.651861 10.5763 0.397356Z" fill="white"/>
</svg>
