<svg width="17" height="17" viewBox="0 0 17 17" fill="none" xmlns="http://www.w3.org/2000/svg">
<path d="M8.49981 12.6879L8.49981 12.5866M6.476 6.76001C6.47699 6.00762 6.93843 4.51485 8.49981 4.51485C10.2394 4.51485 10.4728 5.95166 10.4728 6.67957C10.4728 7.48337 9.96765 7.96405 9.32541 8.46178C8.68318 8.95952 8.49981 9.39303 8.49981 10.0513L8.49981 10.664M0.758734 8.49999C0.758734 4.22471 4.22453 0.758917 8.49981 0.758918C12.7751 0.758918 16.2409 4.22472 16.2409 8.49999C16.2409 12.7753 12.7751 16.2411 8.49981 16.2411C4.22453 16.2411 0.758734 12.7753 0.758734 8.49999Z" stroke="#19213D" stroke-width="1.5" stroke-linecap="round" stroke-linejoin="round"/>
</svg>
