<svg preserveAspectRatio="none" width="100%" height="100%" overflow="visible" style="display: block;" viewBox="0 0 30 30" fill="none" xmlns="http://www.w3.org/2000/svg">
<g id="material-symbols:local-cafe-outline">
<path id="Vector" d="M5 26.25V23.75H25V26.25H5ZM10 21.25C8.625 21.25 7.44792 20.7604 6.46875 19.7812C5.48958 18.8021 5 17.625 5 16.25V3.75H25C25.6875 3.75 26.2763 3.995 26.7663 4.485C27.2563 4.975 27.5008 5.56333 27.5 6.25V10C27.5 10.6875 27.2554 11.2763 26.7663 11.7663C26.2771 12.2563 25.6883 12.5008 25 12.5H22.5V16.25C22.5 17.625 22.0104 18.8021 21.0313 19.7812C20.0521 20.7604 18.875 21.25 17.5 21.25H10ZM10 18.75H17.5C18.1875 18.75 18.7763 18.5054 19.2663 18.0163C19.7563 17.5271 20.0008 16.9383 20 16.25V6.25H7.5V16.25C7.5 16.9375 7.745 17.5263 8.235 18.0163C8.725 18.5063 9.31333 18.7508 10 18.75ZM22.5 10H25V6.25H22.5V10ZM10 18.75H7.5H20H10Z" fill="var(--fill-0, #474747)"/>
</g>
</svg>
