<svg preserveAspectRatio="none" width="100%" height="100%" overflow="visible" style="display: block;" viewBox="0 0 30 30" fill="none" xmlns="http://www.w3.org/2000/svg">
<g id="ph:park-fill">
<path id="Vector" d="M27.1875 22.5H23.4375V19.6875H26.25C26.3925 19.6875 26.533 19.655 26.6611 19.5925C26.7891 19.53 26.9012 19.4392 26.9888 19.3269C27.0765 19.2146 27.1374 19.0838 27.167 18.9445C27.1965 18.8051 27.1939 18.6609 27.1594 18.5227L23.4094 3.52266C23.3586 3.31994 23.2415 3.14002 23.0767 3.01146C22.912 2.88289 22.709 2.81307 22.5 2.81307C22.291 2.81307 22.088 2.88289 21.9233 3.01146C21.7585 3.14002 21.6414 3.31994 21.5906 3.52266L17.8406 18.5227C17.8061 18.6609 17.8035 18.8051 17.833 18.9445C17.8626 19.0838 17.9235 19.2146 18.0112 19.3269C18.0988 19.4392 18.2109 19.53 18.3389 19.5925C18.467 19.655 18.6075 19.6875 18.75 19.6875H21.5625V22.5H14.0625V20.625H15C15.2486 20.625 15.4871 20.5262 15.6629 20.3504C15.8387 20.1746 15.9375 19.9361 15.9375 19.6875C15.9375 19.4389 15.8387 19.2004 15.6629 19.0246C15.4871 18.8488 15.2486 18.75 15 18.75H14.0625V16.875H15C15.2486 16.875 15.4871 16.7762 15.6629 16.6004C15.8387 16.4246 15.9375 16.1861 15.9375 15.9375C15.9375 15.6889 15.8387 15.4504 15.6629 15.2746C15.4871 15.0988 15.2486 15 15 15H4.6875C4.43886 15 4.2004 15.0988 4.02459 15.2746C3.84877 15.4504 3.75 15.6889 3.75 15.9375C3.75 16.1861 3.84877 16.4246 4.02459 16.6004C4.2004 16.7762 4.43886 16.875 4.6875 16.875H5.625V18.75H4.6875C4.43886 18.75 4.2004 18.8488 4.02459 19.0246C3.84877 19.2004 3.75 19.4389 3.75 19.6875C3.75 19.9361 3.84877 20.1746 4.02459 20.3504C4.2004 20.5262 4.43886 20.625 4.6875 20.625H5.625V22.5H2.8125C2.56386 22.5 2.3254 22.5988 2.14959 22.7746C1.97377 22.9504 1.875 23.1889 1.875 23.4375C1.875 23.6861 1.97377 23.9246 2.14959 24.1004C2.3254 24.2762 2.56386 24.375 2.8125 24.375H27.1875C27.4361 24.375 27.6746 24.2762 27.8504 24.1004C28.0262 23.9246 28.125 23.6861 28.125 23.4375C28.125 23.1889 28.0262 22.9504 27.8504 22.7746C27.6746 22.5988 27.4361 22.5 27.1875 22.5ZM12.1875 22.5H7.5V20.625H12.1875V22.5ZM12.1875 18.75H7.5V16.875H12.1875V18.75ZM13.5938 11.25C14.2427 11.25 14.8771 11.0576 15.4167 10.697C15.9563 10.3365 16.3769 9.824 16.6252 9.22443C16.8736 8.62486 16.9386 7.96511 16.812 7.32861C16.6853 6.69211 16.3728 6.10745 15.9139 5.64856C15.4551 5.18966 14.8704 4.87716 14.2339 4.75055C13.5974 4.62394 12.9376 4.68892 12.3381 4.93727C11.7385 5.18562 11.226 5.60619 10.8655 6.14579C10.5049 6.68538 10.3125 7.31978 10.3125 7.96875C10.3125 8.83899 10.6582 9.67359 11.2736 10.2889C11.8889 10.9043 12.7235 11.25 13.5938 11.25ZM13.5938 6.5625C13.8719 6.5625 14.1438 6.64497 14.375 6.7995C14.6063 6.95402 14.7865 7.17364 14.893 7.4306C14.9994 7.68756 15.0272 7.97031 14.973 8.2431C14.9187 8.51588 14.7848 8.76645 14.5881 8.96312C14.3915 9.15979 14.1409 9.29372 13.8681 9.34798C13.5953 9.40224 13.3126 9.37439 13.0556 9.26796C12.7986 9.16152 12.579 8.98128 12.4245 8.75002C12.27 8.51876 12.1875 8.24688 12.1875 7.96875C12.1875 7.59579 12.3357 7.2381 12.5994 6.97438C12.8631 6.71066 13.2208 6.5625 13.5938 6.5625Z" fill="var(--fill-0, #474747)"/>
</g>
</svg>
