<svg preserveAspectRatio="none" width="100%" height="100%" overflow="visible" style="display: block;" viewBox="0 0 16 22" fill="none" xmlns="http://www.w3.org/2000/svg">
<g id="Group">
<path id="Vector" d="M8.593 20.9874L8.582 20.9894L8.511 21.0244L8.491 21.0284L8.477 21.0244L8.406 20.9894C8.39533 20.986 8.38733 20.9877 8.382 20.9944L8.378 21.0044L8.361 21.4324L8.366 21.4524L8.376 21.4654L8.48 21.5394L8.495 21.5434L8.507 21.5394L8.611 21.4654L8.623 21.4494L8.627 21.4324L8.61 21.0054C8.60733 20.9947 8.60167 20.9887 8.593 20.9874ZM8.858 20.8744L8.845 20.8764L8.66 20.9694L8.65 20.9794L8.647 20.9904L8.665 21.4204L8.67 21.4324L8.678 21.4394L8.879 21.5324C8.89167 21.5357 8.90133 21.533 8.908 21.5244L8.912 21.5104L8.878 20.8964C8.87467 20.8844 8.868 20.877 8.858 20.8744ZM8.143 20.8764C8.13859 20.8737 8.13333 20.8728 8.1283 20.8739C8.12327 20.8751 8.11886 20.8781 8.116 20.8824L8.11 20.8964L8.076 21.5104C8.07667 21.5224 8.08233 21.5304 8.093 21.5344L8.108 21.5324L8.309 21.4394L8.319 21.4314L8.323 21.4204L8.34 20.9904L8.337 20.9784L8.327 20.9684L8.143 20.8764Z" fill="var(--fill-0, #474747)"/>
<path id="Vector_2" d="M10.253 0.020364C10.4564 -0.0134996 10.6646 -0.00505851 10.8646 0.0451598C11.0646 0.0953781 11.2521 0.186295 11.4154 0.312232C11.5787 0.43817 11.7143 0.596422 11.8136 0.777106C11.913 0.95779 11.9741 1.15702 11.993 1.36236L12 1.50036V2.72936H14C14.5046 2.7292 14.9906 2.91977 15.3605 3.26286C15.7305 3.60595 15.9572 4.07621 15.995 4.57936L16 4.72936V14.7294C15.9999 15.2338 15.8092 15.7195 15.4662 16.0893C15.1231 16.459 14.653 16.6855 14.15 16.7234L14 16.7294H12V17.9594C11.9999 18.1655 11.9572 18.3695 11.8748 18.5584C11.7923 18.7474 11.6718 18.9173 11.5207 19.0576C11.3696 19.1979 11.1912 19.3055 10.9967 19.3738C10.8021 19.4421 10.5956 19.4695 10.39 19.4544L10.253 19.4384L1.671 18.0084C1.23121 17.9351 0.828498 17.717 0.526835 17.3887C0.225171 17.0604 0.0418537 16.6408 0.00600005 16.1964L9.82842e-09 16.0354V3.42336C-4.41622e-05 2.97764 0.148805 2.54467 0.422916 2.1932C0.697028 1.84173 1.08069 1.5919 1.513 1.48336L1.671 1.45036L10.253 0.020364ZM10 2.09036L2 3.42336V16.0354L10 17.3684V2.09036ZM14 4.72936H12V14.7294H14V4.72936ZM7.5 8.22936C7.89782 8.22936 8.27936 8.3874 8.56066 8.6687C8.84196 8.95001 9 9.33154 9 9.72936C9 10.1272 8.84196 10.5087 8.56066 10.79C8.27936 11.0713 7.89782 11.2294 7.5 11.2294C7.10218 11.2294 6.72064 11.0713 6.43934 10.79C6.15804 10.5087 6 10.1272 6 9.72936C6 9.33154 6.15804 8.95001 6.43934 8.6687C6.72064 8.3874 7.10218 8.22936 7.5 8.22936Z" fill="var(--fill-0, #474747)"/>
</g>
</svg>
