<svg preserveAspectRatio="none" width="100%" height="100%" overflow="visible" style="display: block;" viewBox="0 0 35 35" fill="none" xmlns="http://www.w3.org/2000/svg">
<g id="mdi:store-search">
<path id="Vector" d="M17.3542 15.8958C15.5812 17.6785 14.5852 20.09 14.5833 22.6042V17.5H5.83333V23.3333H14.5833V22.6042C14.5833 23.8438 14.8312 25.0833 15.3125 26.25H2.91667V17.5H1.45833V14.5833L2.91667 7.29167H26.25L27.5479 13.7958C25.8301 13.1077 23.9478 12.9398 22.1353 13.3132C20.3228 13.6866 18.6601 14.5847 17.3542 15.8958ZM26.25 2.91667H2.91667V5.83333H26.25V2.91667ZM34.1104 30.625L32.0833 32.6521L27.5333 28.175C26.5271 28.8021 25.3313 29.1667 24.0625 29.1667C20.4167 29.1667 17.5 26.25 17.5 22.6042C17.5 18.9583 20.4167 16.0417 24.0625 16.0417C27.7083 16.0417 30.625 18.9583 30.625 22.6042C30.625 23.8875 30.2604 25.0979 29.6187 26.1042L34.1104 30.625ZM27.7083 22.6042C27.7083 21.6372 27.3242 20.7099 26.6405 20.0262C25.9568 19.3424 25.0294 18.9583 24.0625 18.9583C23.0956 18.9583 22.1682 19.3424 21.4845 20.0262C20.8008 20.7099 20.4167 21.6372 20.4167 22.6042C20.4167 23.5711 20.8008 24.4984 21.4845 25.1822C22.1682 25.8659 23.0956 26.25 24.0625 26.25C25.0294 26.25 25.9568 25.8659 26.6405 25.1822C27.3242 24.4984 27.7083 23.5711 27.7083 22.6042Z" fill="var(--fill-0, #474747)"/>
</g>
</svg>
