<svg preserveAspectRatio="none" width="100%" height="100%" overflow="visible" style="display: block;" viewBox="0 0 30 30" fill="none" xmlns="http://www.w3.org/2000/svg">
<g id="material-symbols:chef-hat">
<path id="Vector" d="M11.25 17.5H13.75V11.25H11.25V17.5ZM6.25 20V15.625C5.29167 15.1458 4.53125 14.4533 3.96875 13.5475C3.40625 12.6417 3.125 11.6571 3.125 10.5938C3.125 9.03125 3.66167 7.70833 4.735 6.625C5.80833 5.54167 7.12583 5 8.6875 5C8.9375 5 9.19292 5.02083 9.45375 5.0625C9.71458 5.10417 9.96958 5.15625 10.2188 5.21875C10.7396 4.36458 11.4167 3.69792 12.25 3.21875C13.0833 2.73958 14 2.5 15 2.5C16 2.5 16.9167 2.73958 17.75 3.21875C18.5833 3.69792 19.2604 4.36458 19.7812 5.21875C20.0312 5.15625 20.2812 5.10417 20.5312 5.0625C20.7812 5.02083 21.0417 5 21.3125 5C22.875 5 24.1929 5.54167 25.2662 6.625C26.3396 7.70833 26.8758 9.03125 26.875 10.5938C26.875 11.6563 26.5938 12.6408 26.0313 13.5475C25.4688 14.4542 24.7083 15.1467 23.75 15.625V20H6.25ZM16.25 17.5H18.75V11.25H16.25V17.5ZM6.25 27.5V22.5H23.75V27.5H6.25Z" fill="var(--fill-0, #474747)"/>
</g>
</svg>
