<svg preserveAspectRatio="none" width="100%" height="100%" overflow="visible" style="display: block;" viewBox="0 0 21 20" fill="none" xmlns="http://www.w3.org/2000/svg">
<path id="Vector" d="M14.083 1C17.2007 1 19.6668 3.45469 19.667 6.58301C19.667 8.48254 18.8017 10.1323 17.4883 11.7393C16.1858 13.3327 14.34 15.0047 12.2139 16.9326L12.2129 16.9316L11.0068 18.0312L10.333 18.6436L9.66016 18.0312L8.45312 16.9316C6.32716 15.0038 4.48111 13.3326 3.17871 11.7393C1.86522 10.1323 1 8.4826 1 6.58301C1.00017 3.4548 3.46551 1.00017 6.58301 1C7.9678 1 9.29726 1.50778 10.333 2.34766C11.3687 1.50765 12.6982 1.00008 14.083 1Z" fill="var(--fill-0, white)" stroke="var(--stroke-0, #8C8C8C)" stroke-width="2"/>
</svg>
