<svg width="19" height="15" viewBox="0 0 19 15" fill="none" xmlns="http://www.w3.org/2000/svg">
<path d="M10.5764 0.397362C10.831 0.142931 11.1761 0 11.536 0C11.8958 0 12.241 0.142931 12.4955 0.397362L18.6028 6.50464C18.8572 6.75915 19.0001 7.10429 19.0001 7.46416C19.0001 7.82403 18.8572 8.16917 18.6028 8.42368L12.4955 14.531C12.2395 14.7782 11.8967 14.915 11.5409 14.9119C11.185 14.9088 10.8446 14.7661 10.593 14.5144C10.3413 14.2628 10.1986 13.9224 10.1955 13.5666C10.1924 13.2107 10.3292 12.8679 10.5764 12.6119L14.2503 8.82133H1.35717C0.997228 8.82133 0.652026 8.67834 0.397507 8.42382C0.142987 8.16931 0 7.8241 0 7.46416C0 7.10421 0.142987 6.75901 0.397507 6.50449C0.652026 6.24997 0.997228 6.10699 1.35717 6.10699H14.2503L10.5764 2.3164C10.322 2.0619 10.1791 1.71676 10.1791 1.35688C10.1791 0.997009 10.322 0.651869 10.5764 0.397362Z" fill="white"/>
</svg>
