<svg width="50" height="73" viewBox="0 0 50 73" fill="none" xmlns="http://www.w3.org/2000/svg">
<rect width="50" height="50" rx="25" fill="#AFFFD1"/>
<path d="M30.8685 13.9984H26.6979C25.9443 14.0008 25.9725 15.124 26.6979 15.1174H30.8685V15.6916H26.6979C25.9485 15.685 25.9761 16.8076 26.6979 16.8106H30.8685V17.3974H26.6979C25.9485 17.3974 25.9761 18.5194 26.6979 18.5164H30.8685V19.0756H26.6979C25.9641 19.081 25.9761 20.2042 26.6979 20.2078H30.8685V20.7682H26.6979C25.9641 20.7658 25.9611 21.8872 26.6979 21.8872H30.8685V22.4464H26.6979C25.9641 22.4488 25.9611 23.5714 26.6979 23.566H30.8685V24.139H26.6979C25.9641 24.1324 25.9611 25.2538 26.6979 25.258H30.8685V25.816H26.6979C25.9641 25.8154 25.9761 26.9392 26.6979 26.9356H30.8685V37.831C30.8709 39.4912 33.3927 39.4612 33.3999 37.831V12.334C33.3927 11.5756 32.7699 10.6168 31.7451 10.6138H26.6979C25.9443 10.6144 25.9725 11.7376 26.6979 11.7328L30.8685 11.7466V12.3046H26.6979C25.9455 12.301 25.9737 13.4236 26.6979 13.4242H30.8685V13.9984ZM26.4111 33.3148C26.4087 31.3768 24.3999 29.2924 21.9999 30.6424V23.23L20.4477 11.005C20.4153 10.6816 20.1411 10.6054 19.9569 10.6C19.7667 10.6054 19.3857 10.6816 19.3443 11.005L17.7999 23.23V30.6424C15.3999 29.2924 13.4559 31.39 13.4553 33.2998C13.4559 34.999 14.7639 36.3946 16.5339 36.3904C18.3171 36.3946 19.5999 34.8304 19.5999 33.2998V25.6H20.1999V33.2998C20.1999 35.0134 21.5271 36.2818 23.0019 36.3622C22.9773 37.3018 23.2839 38.6422 23.8611 39.1738C24.5379 39.7978 25.3437 38.9998 25.0131 38.35C24.6939 37.7452 24.3807 37.387 24.6351 36.0664C25.6983 35.5744 26.4087 34.5388 26.4111 33.3148ZM16.6023 34.8394C16.1977 34.8394 15.8097 34.6787 15.5236 34.3926C15.2375 34.1065 15.0768 33.7185 15.0768 33.3139C15.0768 32.9093 15.2375 32.5213 15.5236 32.2352C15.8097 31.9491 16.1977 31.7884 16.6023 31.7884C17.4339 31.7932 18.1113 32.4754 18.1173 33.3148C18.1159 33.717 17.9562 34.1026 17.6726 34.3879C17.3891 34.6732 17.0046 34.8354 16.6023 34.8394ZM21.7449 33.3148C21.7463 32.9122 21.9061 32.5264 22.1897 32.2408C22.4734 31.9552 22.858 31.7926 23.2605 31.7884C23.6631 31.7923 24.0479 31.9548 24.3314 32.2405C24.615 32.5262 24.7746 32.9122 24.7755 33.3148C24.7749 33.7173 24.6154 34.1033 24.3317 34.3888C24.048 34.6743 23.663 34.8362 23.2605 34.8394C22.8582 34.8356 22.4735 34.6735 22.1898 34.3881C21.9062 34.1028 21.7463 33.7171 21.7449 33.3148Z" fill="#24C869"/>
<path d="M5.75852 70V61.2727H9.25284C9.89489 61.2727 10.4304 61.3679 10.8594 61.5582C11.2884 61.7486 11.6108 62.0128 11.8267 62.3509C12.0426 62.6861 12.1506 63.0724 12.1506 63.5099C12.1506 63.8509 12.0824 64.1506 11.946 64.4091C11.8097 64.6648 11.6222 64.875 11.3835 65.0398C11.1477 65.2017 10.8778 65.3168 10.5739 65.3849V65.4702C10.9063 65.4844 11.2173 65.5781 11.5071 65.7514C11.7997 65.9247 12.0369 66.1676 12.2188 66.4801C12.4006 66.7898 12.4915 67.1591 12.4915 67.5881C12.4915 68.0511 12.3764 68.4645 12.1463 68.8281C11.919 69.1889 11.5824 69.4744 11.1364 69.6847C10.6903 69.8949 10.1406 70 9.48722 70H5.75852ZM7.60369 68.4915H9.10795C9.62216 68.4915 9.99716 68.3935 10.233 68.1974C10.4688 67.9986 10.5866 67.7344 10.5866 67.4048C10.5866 67.1634 10.5284 66.9503 10.4119 66.7656C10.2955 66.581 10.1293 66.4361 9.91335 66.331C9.70028 66.2259 9.44602 66.1733 9.15057 66.1733H7.60369V68.4915ZM7.60369 64.9247H8.97159C9.22443 64.9247 9.44886 64.8807 9.64489 64.7926C9.84375 64.7017 10 64.5739 10.1136 64.4091C10.2301 64.2443 10.2884 64.0469 10.2884 63.8168C10.2884 63.5014 10.1761 63.2472 9.9517 63.054C9.73011 62.8608 9.41477 62.7642 9.00568 62.7642H7.60369V64.9247ZM15.5245 70.1236C15.1069 70.1236 14.7347 70.0511 14.408 69.9062C14.0813 69.7585 13.8228 69.5412 13.6325 69.2543C13.445 68.9645 13.3512 68.6037 13.3512 68.1719C13.3512 67.8082 13.418 67.5028 13.5515 67.2557C13.685 67.0085 13.8668 66.8097 14.0969 66.6591C14.3271 66.5085 14.5884 66.3949 14.881 66.3182C15.1765 66.2415 15.4862 66.1875 15.81 66.1562C16.1907 66.1165 16.4975 66.0795 16.7305 66.0455C16.9634 66.0085 17.1325 65.9545 17.2376 65.8835C17.3427 65.8125 17.3952 65.7074 17.3952 65.5682V65.5426C17.3952 65.2727 17.31 65.0639 17.1396 64.9162C16.9719 64.7685 16.7333 64.6946 16.4237 64.6946C16.0969 64.6946 15.837 64.767 15.6438 64.9119C15.4506 65.054 15.3228 65.233 15.2603 65.4489L13.5813 65.3125C13.6665 64.9148 13.8342 64.571 14.0842 64.2812C14.3342 63.9886 14.6566 63.7642 15.0515 63.608C15.4492 63.4489 15.9094 63.3693 16.4322 63.3693C16.7958 63.3693 17.1438 63.4119 17.4762 63.4972C17.8114 63.5824 18.1083 63.7145 18.3668 63.8935C18.6282 64.0724 18.8342 64.3026 18.9847 64.5838C19.1353 64.8622 19.2106 65.196 19.2106 65.5852V70H17.489V69.0923H17.4379C17.3327 69.2969 17.1921 69.4773 17.016 69.6335C16.8398 69.7869 16.6282 69.9077 16.381 69.9957C16.1339 70.081 15.8484 70.1236 15.5245 70.1236ZM16.0444 68.8707C16.3114 68.8707 16.5472 68.8182 16.7518 68.7131C16.9563 68.6051 17.1168 68.4602 17.2333 68.2784C17.3498 68.0966 17.408 67.8906 17.408 67.6605V66.9659C17.3512 67.0028 17.2731 67.0369 17.1737 67.0682C17.0771 67.0966 16.9677 67.1236 16.8455 67.1491C16.7234 67.1719 16.6012 67.1932 16.479 67.2131C16.3569 67.2301 16.2461 67.2457 16.1467 67.2599C15.9336 67.2912 15.7475 67.3409 15.5884 67.4091C15.4293 67.4773 15.3058 67.5696 15.2177 67.6861C15.1296 67.7997 15.0856 67.9418 15.0856 68.1122C15.0856 68.3594 15.1751 68.5483 15.354 68.679C15.5359 68.8068 15.766 68.8707 16.0444 68.8707ZM20.619 70V63.4545H22.3789V64.5966H22.4471C22.5664 64.1903 22.7667 63.8835 23.0479 63.6761C23.3292 63.4659 23.6531 63.3608 24.0195 63.3608C24.1104 63.3608 24.2085 63.3665 24.3136 63.3778C24.4187 63.3892 24.511 63.4048 24.5906 63.4247V65.0355C24.5053 65.0099 24.3874 64.9872 24.2369 64.9673C24.0863 64.9474 23.9485 64.9375 23.8235 64.9375C23.5565 64.9375 23.3178 64.9957 23.1076 65.1122C22.9002 65.2259 22.7354 65.3849 22.6133 65.5895C22.494 65.794 22.4343 66.0298 22.4343 66.2969V70H20.619ZM25.5632 70V61.2727H27.3786V64.554H27.4339C27.5135 64.3778 27.6286 64.1989 27.7791 64.017C27.9325 63.8324 28.1314 63.679 28.3757 63.5568C28.6229 63.4318 28.9297 63.3693 29.2962 63.3693C29.7734 63.3693 30.2138 63.4943 30.6172 63.7443C31.0206 63.9915 31.343 64.3651 31.5845 64.8651C31.826 65.3622 31.9467 65.9858 31.9467 66.7358C31.9467 67.4659 31.8288 68.0824 31.593 68.5852C31.3601 69.0852 31.0419 69.4645 30.6385 69.723C30.2379 69.9787 29.7891 70.1065 29.2919 70.1065C28.9396 70.1065 28.6399 70.0483 28.3928 69.9318C28.1484 69.8153 27.9482 69.669 27.7919 69.4929C27.6357 69.3139 27.5163 69.1335 27.4339 68.9517H27.353V70H25.5632ZM27.3402 66.7273C27.3402 67.1165 27.3942 67.456 27.5021 67.7457C27.6101 68.0355 27.7663 68.2614 27.9709 68.4233C28.1754 68.5824 28.424 68.6619 28.7166 68.6619C29.0121 68.6619 29.2621 68.581 29.4666 68.419C29.6712 68.2543 29.826 68.027 29.9311 67.7372C30.0391 67.4446 30.093 67.108 30.093 66.7273C30.093 66.3494 30.0405 66.017 29.9354 65.7301C29.8303 65.4432 29.6754 65.2187 29.4709 65.0568C29.2663 64.8949 29.0149 64.8139 28.7166 64.8139C28.4212 64.8139 28.1712 64.892 27.9666 65.0483C27.7649 65.2045 27.6101 65.4261 27.5021 65.7131C27.3942 66 27.3402 66.3381 27.3402 66.7273ZM36.141 70.1278C35.4677 70.1278 34.8881 69.9915 34.4023 69.7188C33.9194 69.4432 33.5472 69.054 33.2859 68.5511C33.0245 68.0455 32.8938 67.4474 32.8938 66.7571C32.8938 66.0838 33.0245 65.4929 33.2859 64.9844C33.5472 64.4759 33.9151 64.0795 34.3896 63.7955C34.8668 63.5114 35.4265 63.3693 36.0685 63.3693C36.5004 63.3693 36.9023 63.4389 37.2745 63.5781C37.6495 63.7145 37.9762 63.9205 38.2546 64.196C38.5359 64.4716 38.7546 64.8182 38.9109 65.2358C39.0671 65.6506 39.1452 66.1364 39.1452 66.6932V67.1918H33.6183V66.0668H37.4364C37.4364 65.8054 37.3796 65.5739 37.266 65.3722C37.1523 65.1705 36.9947 65.0128 36.793 64.8991C36.5941 64.7827 36.3626 64.7244 36.0984 64.7244C35.8228 64.7244 35.5785 64.7884 35.3654 64.9162C35.1552 65.0412 34.9904 65.2102 34.8711 65.4233C34.7518 65.6335 34.6907 65.8679 34.6879 66.1264V67.196C34.6879 67.5199 34.7475 67.7997 34.8668 68.0355C34.989 68.2713 35.1609 68.4531 35.3825 68.581C35.604 68.7088 35.8668 68.7727 36.1708 68.7727C36.3725 68.7727 36.5572 68.7443 36.7248 68.6875C36.8924 68.6307 37.0359 68.5455 37.1552 68.4318C37.2745 68.3182 37.3654 68.179 37.4279 68.0142L39.1069 68.125C39.0217 68.5284 38.8469 68.8807 38.5827 69.1818C38.3214 69.4801 37.9833 69.7131 37.5685 69.8807C37.1566 70.0455 36.6808 70.1278 36.141 70.1278ZM40.3299 70V63.4545H42.0898V64.5966H42.158C42.2773 64.1903 42.4776 63.8835 42.7589 63.6761C43.0401 63.4659 43.364 63.3608 43.7305 63.3608C43.8214 63.3608 43.9194 63.3665 44.0245 63.3778C44.1296 63.3892 44.2219 63.4048 44.3015 63.4247V65.0355C44.2163 65.0099 44.0984 64.9872 43.9478 64.9673C43.7972 64.9474 43.6594 64.9375 43.5344 64.9375C43.2674 64.9375 43.0288 64.9957 42.8185 65.1122C42.6112 65.2259 42.4464 65.3849 42.3242 65.5895C42.2049 65.794 42.1452 66.0298 42.1452 66.2969V70H40.3299Z" fill="#383838"/>
</svg>
