<svg width="74" height="68" viewBox="0 0 74 68" fill="none" xmlns="http://www.w3.org/2000/svg">
<rect x="10.8999" y="6" width="52" height="52" rx="26" fill="#0092AC"/>
<rect x="10.8999" y="6" width="52" height="52" rx="26" stroke="white" stroke-width="4"/>
<path d="M27.6699 30C27.2399 30 26.8999 29.66 26.8999 29.23V26.92C26.8999 24.21 29.1099 22 31.8199 22H34.1299C34.5599 22 34.8999 22.34 34.8999 22.77C34.8999 23.2 34.5599 23.54 34.1299 23.54H31.8199C29.9499 23.54 28.4399 25.06 28.4399 26.92V29.23C28.4399 29.66 28.0899 30 27.6699 30Z" fill="white"/>
<path d="M46.1299 30C45.7099 30 45.3599 29.66 45.3599 29.23V26.92C45.3599 25.05 43.8399 23.54 41.9799 23.54H39.6699C39.2399 23.54 38.8999 23.19 38.8999 22.77C38.8999 22.35 39.2399 22 39.6699 22H41.9799C44.6899 22 46.8999 24.21 46.8999 26.92V29.23C46.8999 29.66 46.5599 30 46.1299 30Z" fill="white"/>
<path d="M41.9798 41.9999H40.5898C40.1698 41.9999 39.8198 41.6599 39.8198 41.2299C39.8198 40.8099 40.1598 40.4599 40.5898 40.4599H41.9798C43.8498 40.4599 45.3598 38.9399 45.3598 37.0799V35.6999C45.3598 35.2799 45.6998 34.9299 46.1298 34.9299C46.5498 34.9299 46.8998 35.2699 46.8998 35.6999V37.0799C46.8998 39.7899 44.6898 41.9999 41.9798 41.9999Z" fill="white"/>
<path d="M34.1299 42H31.8199C29.1099 42 26.8999 39.79 26.8999 37.08V34.77C26.8999 34.34 27.2399 34 27.6699 34C28.0999 34 28.4399 34.34 28.4399 34.77V37.08C28.4399 38.95 29.9599 40.46 31.8199 40.46H34.1299C34.5499 40.46 34.8999 40.8 34.8999 41.23C34.8999 41.66 34.5599 42 34.1299 42Z" fill="white"/>
<path d="M43.3599 31.23H41.9999H31.7999H30.4399C30.0099 31.23 29.6699 31.58 29.6699 32C29.6699 32.42 30.0099 32.77 30.4399 32.77H31.7999H41.9999H43.3599C43.7899 32.77 44.1299 32.42 44.1299 32C44.1299 31.58 43.7899 31.23 43.3599 31.23Z" fill="white"/>
<path d="M31.7998 33.94V34.27C31.7998 35.93 33.1398 37.27 34.7998 37.27H38.9998C40.6598 37.27 41.9998 35.93 41.9998 34.27V33.94C41.9998 33.82 41.9098 33.73 41.7898 33.73H32.0098C31.8898 33.73 31.7998 33.82 31.7998 33.94Z" fill="white"/>
<path d="M31.7998 30.06V29.73C31.7998 28.07 33.1398 26.73 34.7998 26.73H38.9998C40.6598 26.73 41.9998 28.07 41.9998 29.73V30.06C41.9998 30.18 41.9098 30.27 41.7898 30.27H32.0098C31.8898 30.27 31.7998 30.18 31.7998 30.06Z" fill="white"/>
</svg>
