<svg width="30" height="30" viewBox="0 0 30 30" fill="none" xmlns="http://www.w3.org/2000/svg">
<path d="M25 26.25V23.75H5V26.25H25ZM20 21.25C21.375 21.25 22.5521 20.7604 23.5312 19.7812C24.5104 18.8021 25 17.625 25 16.25V3.75H5C4.3125 3.75 3.72375 3.995 3.23375 4.485C2.74375 4.975 2.49917 5.56333 2.5 6.25V10C2.5 10.6875 2.74458 11.2763 3.23375 11.7663C3.72292 12.2563 4.31167 12.5008 5 12.5H7.5V16.25C7.5 17.625 7.98958 18.8021 8.96875 19.7812C9.94792 20.7604 11.125 21.25 12.5 21.25H20ZM20 18.75H12.5C11.8125 18.75 11.2238 18.5054 10.7337 18.0163C10.2437 17.5271 9.99917 16.9383 10 16.25V6.25H22.5V16.25C22.5 16.9375 22.255 17.5262 21.765 18.0163C21.275 18.5063 20.6867 18.7508 20 18.75ZM7.5 10H5V6.25H7.5V10ZM20 18.75H22.5H10H20Z" fill="#474747"/>
</svg>
