<svg width="25" height="26" viewBox="0 0 25 26" fill="none" xmlns="http://www.w3.org/2000/svg">
<path d="M1.00003 2H10.8057L12.5052 9.6457L10.3794 11.7714C11.6293 13.7166 13.2831 15.37 15.2286 16.6194L17.3543 14.4948L25 16.1943V26H23.8571C19.4575 26.0075 15.1502 24.7387 11.4572 22.3474C8.73399 20.5851 6.41493 18.266 4.6526 15.5428C2.26131 11.8498 0.992531 7.54247 1.00003 3.14286V2ZM3.3166 4.28571C3.50918 7.85132 4.63172 11.3044 6.5726 14.3017C8.15925 16.7531 10.2469 18.8408 12.6983 20.4274C15.6956 22.3683 19.1487 23.4908 22.7143 23.6834V18.0274L18.0823 16.9988L15.5977 19.4845L14.84 19.0537C11.963 17.4188 9.58121 15.037 7.94631 12.16L7.51545 11.4023L10.0012 8.91771L8.97259 4.28571H3.3166Z" fill="#53575D"/>
</svg>
