<svg width="24" height="24" viewBox="0 0 24 24" fill="none" xmlns="http://www.w3.org/2000/svg">
<path d="M19 5.99893H17.414L16.414 4.9991C15.835 4.4202 14.819 3.99927 14 3.99927H10C9.181 3.99927 8.165 4.4202 7.586 4.9991L6.586 5.99893H5C3.346 5.99893 2 7.3447 2 8.99843V16.9971C2 18.6508 3.346 19.9966 5 19.9966H19C20.654 19.9966 22 18.6508 22 16.9971V8.99843C22 7.3447 20.654 5.99893 19 5.99893ZM12 15.9972C11.0716 15.9971 10.1813 15.6282 9.52492 14.9718C8.86854 14.3153 8.49987 13.4251 8.5 12.4968C8.50013 11.5686 8.86906 10.6784 9.52563 10.0222C10.1822 9.3659 11.0726 8.99729 12.001 8.99742C12.9294 8.99756 13.8197 9.36643 14.4761 10.0229C15.1325 10.6793 15.5011 11.5696 15.501 12.4978C15.5009 13.4261 15.1319 14.3162 14.4754 14.9725C13.8188 15.6288 12.9284 15.9974 12 15.9972ZM18 11.297C17.8293 11.297 17.6602 11.2634 17.5025 11.1981C17.3448 11.1328 17.2015 11.037 17.0808 10.9163C16.96 10.7956 16.8643 10.6524 16.799 10.4947C16.7336 10.337 16.7 10.1679 16.7 9.99726C16.7 9.82657 16.7336 9.65755 16.799 9.49985C16.8643 9.34216 16.96 9.19887 17.0808 9.07817C17.2015 8.95748 17.3448 8.86174 17.5025 8.79642C17.6602 8.7311 17.8293 8.69748 18 8.69748C18.3448 8.69748 18.6754 8.83442 18.9192 9.07817C19.163 9.32193 19.3 9.65253 19.3 9.99726C19.3 10.342 19.163 10.6726 18.9192 10.9163C18.6754 11.1601 18.3448 11.297 18 11.297Z" fill="#A9A9A9"/>
</svg>
