<svg width="60" height="73" viewBox="0 0 60 73" fill="none" xmlns="http://www.w3.org/2000/svg">
<rect x="5" width="50" height="50" rx="25" fill="#FBF8B4"/>
<path d="M32.5938 38.375L27.2812 33.0938L29.0625 31.3125L18.875 16.75L23.75 11.875L41.4375 29.5312L32.5938 38.375ZM32.5938 34.8438L37.875 29.5625L36.125 27.7812L30.8125 33.0938L32.5938 34.8438Z" fill="#D9D22D"/>
<path d="M8.45881 64.3281H6.59233C6.55824 64.0866 6.48864 63.8722 6.38352 63.6847C6.27841 63.4943 6.14347 63.3324 5.97869 63.1989C5.81392 63.0653 5.62358 62.9631 5.40767 62.892C5.1946 62.821 4.96307 62.7855 4.71307 62.7855C4.26136 62.7855 3.8679 62.8977 3.53267 63.1222C3.19744 63.3437 2.9375 63.6676 2.75284 64.0938C2.56818 64.517 2.47585 65.0312 2.47585 65.6364C2.47585 66.2585 2.56818 66.7812 2.75284 67.2045C2.94034 67.6278 3.2017 67.9474 3.53693 68.1634C3.87216 68.3793 4.25994 68.4872 4.70028 68.4872C4.94744 68.4872 5.17614 68.4545 5.38636 68.3892C5.59943 68.3239 5.78835 68.2287 5.95312 68.1037C6.1179 67.9759 6.25426 67.821 6.36222 67.6392C6.47301 67.4574 6.54972 67.25 6.59233 67.017L8.45881 67.0256C8.41051 67.4261 8.28977 67.8125 8.09659 68.1847C7.90625 68.554 7.64915 68.8849 7.32528 69.1776C7.00426 69.4673 6.62074 69.6974 6.17472 69.8679C5.73153 70.0355 5.23011 70.1193 4.67045 70.1193C3.89205 70.1193 3.19602 69.9432 2.58239 69.5909C1.97159 69.2386 1.48864 68.7287 1.13352 68.0611C0.78125 67.3935 0.605114 66.5852 0.605114 65.6364C0.605114 64.6847 0.784091 63.875 1.14205 63.2074C1.5 62.5398 1.9858 62.0312 2.59943 61.6818C3.21307 61.3295 3.90341 61.1534 4.67045 61.1534C5.17614 61.1534 5.64489 61.2244 6.0767 61.3665C6.51136 61.5085 6.89631 61.7159 7.23153 61.9886C7.56676 62.2585 7.83949 62.5895 8.04972 62.9815C8.26278 63.3736 8.39915 63.8224 8.45881 64.3281ZM11.6143 70.1236C11.1967 70.1236 10.8246 70.0511 10.4979 69.9062C10.1712 69.7585 9.91264 69.5412 9.7223 69.2543C9.5348 68.9645 9.44105 68.6037 9.44105 68.1719C9.44105 67.8082 9.50781 67.5028 9.64134 67.2557C9.77486 67.0085 9.95668 66.8097 10.1868 66.6591C10.4169 66.5085 10.6783 66.3949 10.9709 66.3182C11.2663 66.2415 11.576 66.1875 11.8999 66.1562C12.2805 66.1165 12.5874 66.0795 12.8203 66.0455C13.0533 66.0085 13.2223 65.9545 13.3274 65.8835C13.4325 65.8125 13.4851 65.7074 13.4851 65.5682V65.5426C13.4851 65.2727 13.3999 65.0639 13.2294 64.9162C13.0618 64.7685 12.8232 64.6946 12.5135 64.6946C12.1868 64.6946 11.9268 64.767 11.7337 64.9119C11.5405 65.054 11.4126 65.233 11.3501 65.4489L9.67116 65.3125C9.75639 64.9148 9.92401 64.571 10.174 64.2812C10.424 63.9886 10.7464 63.7642 11.1413 63.608C11.5391 63.4489 11.9993 63.3693 12.522 63.3693C12.8857 63.3693 13.2337 63.4119 13.5661 63.4972C13.9013 63.5824 14.1982 63.7145 14.4567 63.8935C14.718 64.0724 14.924 64.3026 15.0746 64.5838C15.2251 64.8622 15.3004 65.196 15.3004 65.5852V70H13.5788V69.0923H13.5277C13.4226 69.2969 13.282 69.4773 13.1058 69.6335C12.9297 69.7869 12.718 69.9077 12.4709 69.9957C12.2237 70.081 11.9382 70.1236 11.6143 70.1236ZM12.1342 68.8707C12.4013 68.8707 12.6371 68.8182 12.8416 68.7131C13.0462 68.6051 13.2067 68.4602 13.3232 68.2784C13.4396 68.0966 13.4979 67.8906 13.4979 67.6605V66.9659C13.4411 67.0028 13.3629 67.0369 13.2635 67.0682C13.1669 67.0966 13.0575 67.1236 12.9354 67.1491C12.8132 67.1719 12.6911 67.1932 12.5689 67.2131C12.4467 67.2301 12.3359 67.2457 12.2365 67.2599C12.0234 67.2912 11.8374 67.3409 11.6783 67.4091C11.5192 67.4773 11.3956 67.5696 11.3075 67.6861C11.2195 67.7997 11.1754 67.9418 11.1754 68.1122C11.1754 68.3594 11.2649 68.5483 11.4439 68.679C11.6257 68.8068 11.8558 68.8707 12.1342 68.8707ZM16.7088 70V63.4545H18.4688V64.5966H18.5369C18.6563 64.1903 18.8565 63.8835 19.1378 63.6761C19.419 63.4659 19.7429 63.3608 20.1094 63.3608C20.2003 63.3608 20.2983 63.3665 20.4034 63.3778C20.5085 63.3892 20.6009 63.4048 20.6804 63.4247V65.0355C20.5952 65.0099 20.4773 64.9872 20.3267 64.9673C20.1761 64.9474 20.0384 64.9375 19.9134 64.9375C19.6463 64.9375 19.4077 64.9957 19.1974 65.1122C18.9901 65.2259 18.8253 65.3849 18.7031 65.5895C18.5838 65.794 18.5241 66.0298 18.5241 66.2969V70H16.7088ZM21.619 72.4545V63.4545H23.4087V64.554H23.4897C23.5692 64.3778 23.6843 64.1989 23.8349 64.017C23.9883 63.8324 24.1871 63.679 24.4315 63.5568C24.6786 63.4318 24.9854 63.3693 25.3519 63.3693C25.8292 63.3693 26.2695 63.4943 26.6729 63.7443C27.0763 63.9915 27.3988 64.3651 27.6403 64.8651C27.8817 65.3622 28.0025 65.9858 28.0025 66.7358C28.0025 67.4659 27.8846 68.0824 27.6488 68.5852C27.4158 69.0852 27.0977 69.4645 26.6942 69.723C26.2937 69.9787 25.8448 70.1065 25.3477 70.1065C24.9954 70.1065 24.6957 70.0483 24.4485 69.9318C24.2042 69.8153 24.0039 69.669 23.8477 69.4929C23.6914 69.3139 23.5721 69.1335 23.4897 68.9517H23.4343V72.4545H21.619ZM23.396 66.7273C23.396 67.1165 23.4499 67.456 23.5579 67.7457C23.6658 68.0355 23.8221 68.2614 24.0266 68.4233C24.2312 68.5824 24.4798 68.6619 24.7724 68.6619C25.0678 68.6619 25.3178 68.581 25.5224 68.419C25.7269 68.2543 25.8817 68.027 25.9869 67.7372C26.0948 67.4446 26.1488 67.108 26.1488 66.7273C26.1488 66.3494 26.0962 66.017 25.9911 65.7301C25.886 65.4432 25.7312 65.2187 25.5266 65.0568C25.3221 64.8949 25.0707 64.8139 24.7724 64.8139C24.4769 64.8139 24.2269 64.892 24.0224 65.0483C23.8207 65.2045 23.6658 65.4261 23.5579 65.7131C23.4499 66 23.396 66.3381 23.396 66.7273ZM32.1957 70.1278C31.5224 70.1278 30.9428 69.9915 30.457 69.7188C29.9741 69.4432 29.6019 69.054 29.3406 68.5511C29.0792 68.0455 28.9485 67.4474 28.9485 66.7571C28.9485 66.0838 29.0792 65.4929 29.3406 64.9844C29.6019 64.4759 29.9698 64.0795 30.4442 63.7955C30.9215 63.5114 31.4812 63.3693 32.1232 63.3693C32.555 63.3693 32.957 63.4389 33.3292 63.5781C33.7042 63.7145 34.0309 63.9205 34.3093 64.196C34.5906 64.4716 34.8093 64.8182 34.9656 65.2358C35.1218 65.6506 35.1999 66.1364 35.1999 66.6932V67.1918H29.6729V66.0668H33.4911C33.4911 65.8054 33.4343 65.5739 33.3207 65.3722C33.207 65.1705 33.0494 65.0128 32.8477 64.8991C32.6488 64.7827 32.4173 64.7244 32.1531 64.7244C31.8775 64.7244 31.6332 64.7884 31.4201 64.9162C31.2099 65.0412 31.0451 65.2102 30.9258 65.4233C30.8065 65.6335 30.7454 65.8679 30.7425 66.1264V67.196C30.7425 67.5199 30.8022 67.7997 30.9215 68.0355C31.0437 68.2713 31.2156 68.4531 31.4371 68.581C31.6587 68.7088 31.9215 68.7727 32.2255 68.7727C32.4272 68.7727 32.6119 68.7443 32.7795 68.6875C32.9471 68.6307 33.0906 68.5455 33.2099 68.4318C33.3292 68.3182 33.4201 68.179 33.4826 68.0142L35.1616 68.125C35.0763 68.5284 34.9016 68.8807 34.6374 69.1818C34.3761 69.4801 34.038 69.7131 33.6232 69.8807C33.2113 70.0455 32.7354 70.1278 32.1957 70.1278ZM38.1999 66.2159V70H36.3846V63.4545H38.1147V64.6094H38.1914C38.3363 64.2287 38.5792 63.9276 38.9201 63.706C39.261 63.4815 39.6744 63.3693 40.1602 63.3693C40.6147 63.3693 41.011 63.4688 41.3491 63.6676C41.6871 63.8665 41.9499 64.1506 42.1374 64.5199C42.3249 64.8864 42.4187 65.3239 42.4187 65.8324V70H40.6033V66.1562C40.6062 65.7557 40.5039 65.4432 40.2965 65.2188C40.0891 64.9915 39.8036 64.8778 39.44 64.8778C39.1957 64.8778 38.9798 64.9304 38.7923 65.0355C38.6076 65.1406 38.4627 65.294 38.3576 65.4957C38.2553 65.6946 38.2028 65.9347 38.1999 66.2159ZM47.331 63.4545V64.8182H43.3892V63.4545H47.331ZM44.2841 61.8864H46.0994V67.9886C46.0994 68.1562 46.125 68.2869 46.1761 68.3807C46.2273 68.4716 46.2983 68.5355 46.3892 68.5724C46.483 68.6094 46.5909 68.6278 46.7131 68.6278C46.7983 68.6278 46.8835 68.6207 46.9688 68.6065C47.054 68.5895 47.1193 68.5767 47.1648 68.5682L47.4503 69.919C47.3594 69.9474 47.2315 69.9801 47.0668 70.017C46.902 70.0568 46.7017 70.081 46.4659 70.0895C46.0284 70.1065 45.6449 70.0483 45.3153 69.9148C44.9886 69.7812 44.7344 69.5739 44.5526 69.2926C44.3707 69.0114 44.2813 68.6562 44.2841 68.2273V61.8864ZM51.4261 70.1278C50.7528 70.1278 50.1733 69.9915 49.6875 69.7188C49.2045 69.4432 48.8324 69.054 48.571 68.5511C48.3097 68.0455 48.179 67.4474 48.179 66.7571C48.179 66.0838 48.3097 65.4929 48.571 64.9844C48.8324 64.4759 49.2003 64.0795 49.6747 63.7955C50.152 63.5114 50.7116 63.3693 51.3537 63.3693C51.7855 63.3693 52.1875 63.4389 52.5597 63.5781C52.9347 63.7145 53.2614 63.9205 53.5398 64.196C53.821 64.4716 54.0398 64.8182 54.196 65.2358C54.3523 65.6506 54.4304 66.1364 54.4304 66.6932V67.1918H48.9034V66.0668H52.7216C52.7216 65.8054 52.6648 65.5739 52.5511 65.3722C52.4375 65.1705 52.2798 65.0128 52.0781 64.8991C51.8793 64.7827 51.6477 64.7244 51.3835 64.7244C51.108 64.7244 50.8636 64.7884 50.6506 64.9162C50.4403 65.0412 50.2756 65.2102 50.1562 65.4233C50.0369 65.6335 49.9759 65.8679 49.973 66.1264V67.196C49.973 67.5199 50.0327 67.7997 50.152 68.0355C50.2741 68.2713 50.446 68.4531 50.6676 68.581C50.8892 68.7088 51.152 68.7727 51.456 68.7727C51.6577 68.7727 51.8423 68.7443 52.0099 68.6875C52.1776 68.6307 52.321 68.5455 52.4403 68.4318C52.5597 68.3182 52.6506 68.179 52.7131 68.0142L54.392 68.125C54.3068 68.5284 54.1321 68.8807 53.8679 69.1818C53.6065 69.4801 53.2685 69.7131 52.8537 69.8807C52.4418 70.0455 51.9659 70.1278 51.4261 70.1278ZM55.6151 70V63.4545H57.375V64.5966H57.4432C57.5625 64.1903 57.7628 63.8835 58.044 63.6761C58.3253 63.4659 58.6491 63.3608 59.0156 63.3608C59.1065 63.3608 59.2045 63.3665 59.3097 63.3778C59.4148 63.3892 59.5071 63.4048 59.5866 63.4247V65.0355C59.5014 65.0099 59.3835 64.9872 59.233 64.9673C59.0824 64.9474 58.9446 64.9375 58.8196 64.9375C58.5526 64.9375 58.3139 64.9957 58.1037 65.1122C57.8963 65.2259 57.7315 65.3849 57.6094 65.5895C57.4901 65.794 57.4304 66.0298 57.4304 66.2969V70H55.6151Z" fill="#383838"/>
</svg>
