<svg width="56" height="47" viewBox="0 0 56 47" fill="none" xmlns="http://www.w3.org/2000/svg">
<path d="M9.20714 10.1207L10.3354 8.99251L28.3868 27.0439L27.2586 28.1721L9.20714 10.1207Z" fill="white"/>
<path d="M27.0771 9.02576L28.2053 10.154L10.1539 28.2054L9.02571 27.0772L27.0771 9.02576Z" fill="white"/>
<path d="M18.7843 22.25C18.2655 22.25 17.778 22.1515 17.3218 21.9545C16.8655 21.7575 16.4686 21.4904 16.1311 21.1531C15.7936 20.8159 15.5265 20.419 15.3298 19.9625C15.133 19.506 15.0345 19.0185 15.0343 18.5C15.034 17.9815 15.1325 17.494 15.3298 17.0375C15.527 16.581 15.7941 16.1841 16.1311 15.8469C16.4681 15.5096 16.865 15.2425 17.3218 15.0455C17.7785 14.8485 18.266 14.75 18.7843 14.75C19.3025 14.75 19.79 14.8485 20.2468 15.0455C20.7035 15.2425 21.1004 15.5096 21.4374 15.8469C21.7744 16.1841 22.0416 16.581 22.2391 17.0375C22.4366 17.494 22.535 17.9815 22.5343 18.5C22.5335 19.0185 22.435 19.506 22.2388 19.9625C22.0425 20.419 21.7754 20.8159 21.4374 21.1531C21.0994 21.4904 20.7025 21.7576 20.2468 21.9549C19.791 22.1521 19.3035 22.2505 18.7843 22.25Z" fill="#FFDE59"/>
</svg>
