<svg width="20" height="20" viewBox="0 0 20 20" fill="none" xmlns="http://www.w3.org/2000/svg">
<path d="M18.3333 14.1V16.6C18.3343 16.8321 18.2867 17.0618 18.1937 17.2744C18.1008 17.487 17.9645 17.6778 17.7934 17.8348C17.6223 17.9917 17.4205 18.1112 17.2005 18.1855C16.9805 18.2599 16.7467 18.2875 16.5167 18.2667C13.9522 17.9882 11.4891 17.1118 9.32499 15.7084C7.31151 14.4288 5.60449 12.7218 4.32499 10.7084C2.91666 8.53435 2.04019 6.05916 1.76666 3.48335C1.74583 3.25384 1.77321 3.02046 1.84707 2.80078C1.92094 2.5811 2.03963 2.37932 2.19565 2.20803C2.35167 2.03673 2.54169 1.89985 2.75351 1.80632C2.96534 1.71279 3.19441 1.66463 3.42499 1.66668H5.92499C6.32945 1.66268 6.72334 1.80586 7.02981 2.06918C7.33628 2.3325 7.53322 2.69977 7.59166 3.10001C7.69718 3.90001 7.89286 4.68669 8.17499 5.44168C8.2872 5.73995 8.31137 6.06405 8.24491 6.37435C8.17844 6.68465 8.02404 6.96858 7.79999 7.19168L6.74166 8.25001C7.92795 10.3446 9.65536 12.072 11.75 13.2584L12.8083 12.2C13.0314 11.976 13.3154 11.8216 13.6257 11.7551C13.936 11.6887 14.2601 11.7128 14.5583 11.825C15.3133 12.1071 16.1 12.3028 16.9 12.4084C17.3049 12.4675 17.6765 12.6696 17.9388 12.9835C18.2012 13.2975 18.3379 13.6988 18.3333 14.1Z" stroke="#3E7290" stroke-width="2" stroke-linecap="round" stroke-linejoin="round"/>
</svg>