<svg width="26" height="26" viewBox="0 0 26 26" fill="none" xmlns="http://www.w3.org/2000/svg">
<g clip-path="url(#clip0_1952_4030)">
<path d="M9.20901 1.32225C6.71112 2.18879 4.55695 3.83352 3.0629 6.01484C1.56885 8.19616 0.813682 10.7991 0.908313 13.4413C1.00294 16.0836 1.94239 18.6258 3.58865 20.6947C5.23492 22.7635 7.50124 24.2499 10.0547 24.9355C12.1249 25.4697 14.2938 25.4932 16.375 25.0039C18.2604 24.5804 20.0035 23.6745 21.4336 22.375C22.9221 20.9811 24.0024 19.208 24.5586 17.2461C25.1632 15.1126 25.2707 12.869 24.8731 10.6875H13.2481V15.5098H19.9805C19.8459 16.2789 19.5576 17.0129 19.1327 17.668C18.7079 18.3231 18.1552 18.8857 17.5078 19.3223C16.6857 19.8661 15.759 20.232 14.7871 20.3965C13.8124 20.5777 12.8126 20.5777 11.8379 20.3965C10.85 20.1922 9.91545 19.7845 9.09378 19.1992C7.77376 18.2648 6.7826 16.9373 6.26175 15.4062C5.73209 13.8465 5.73209 12.1555 6.26175 10.5957C6.6325 9.50236 7.24541 8.50689 8.05472 7.68358C8.98087 6.7241 10.1534 6.03826 11.4437 5.70131C12.734 5.36436 14.0921 5.38931 15.3692 5.77343C16.3668 6.07966 17.279 6.61471 18.0332 7.33593C18.7923 6.58072 19.5502 5.82356 20.3067 5.06444C20.6973 4.65624 21.1231 4.26757 21.5078 3.8496C20.3566 2.77826 19.0053 1.94463 17.5313 1.39647C14.8471 0.421844 11.9101 0.395652 9.20901 1.32225Z" fill="white"/>
<path d="M9.20898 1.32226C11.9099 0.395025 14.8469 0.420528 17.5312 1.39452C19.0055 1.94641 20.3562 2.78405 21.5059 3.85937C21.1152 4.27734 20.7031 4.66796 20.3047 5.07421C19.5469 5.83072 18.7897 6.58463 18.0332 7.33593C17.279 6.61471 16.3667 6.07966 15.3691 5.77343C14.0925 5.38796 12.7344 5.36157 11.4438 5.69714C10.1532 6.03272 8.97991 6.7173 8.05273 7.67577C7.24342 8.49908 6.63052 9.49456 6.25977 10.5879L2.21094 7.45312C3.66017 4.57921 6.16943 2.3809 9.20898 1.32226Z" fill="#E33629"/>
<path d="M1.13671 10.5586C1.35433 9.48007 1.71563 8.4356 2.21093 7.45312L6.25976 10.5957C5.7301 12.1555 5.7301 13.8465 6.25976 15.4062C4.9108 16.4479 3.56119 17.4948 2.21093 18.5469C0.970992 16.0787 0.592832 13.2666 1.13671 10.5586Z" fill="#F8BD00"/>
<path d="M13.2479 10.6855H24.8729C25.2706 12.8671 25.163 15.1107 24.5585 17.2441C24.0023 19.206 22.9219 20.9792 21.4335 22.373C20.1268 21.3535 18.8143 20.3418 17.5077 19.3223C18.1555 18.8853 18.7084 18.3221 19.1333 17.6663C19.5582 17.0105 19.8463 16.2757 19.9804 15.5059H13.2479C13.246 13.9004 13.2479 12.293 13.2479 10.6855Z" fill="#587DBD"/>
<path d="M2.20898 18.5469C3.55924 17.5052 4.90885 16.4583 6.25781 15.4062C6.7797 16.9379 7.77228 18.2654 9.09375 19.1992C9.91798 19.7818 10.8546 20.1862 11.8438 20.3867C12.8185 20.568 13.8182 20.568 14.793 20.3867C15.7648 20.2222 16.6916 19.8563 17.5137 19.3125C18.8203 20.332 20.1328 21.3438 21.4395 22.3633C20.0096 23.6635 18.2664 24.5701 16.3809 24.9941C14.2996 25.4834 12.1307 25.46 10.0605 24.9258C8.42325 24.4886 6.8939 23.718 5.56836 22.6621C4.16535 21.5482 3.01944 20.1445 2.20898 18.5469Z" fill="#319F43"/>
</g>
<defs>
<clipPath id="clip0_1952_4030">
<rect width="25" height="25" fill="white" transform="translate(0.5 0.5)"/>
</clipPath>
</defs>
</svg>
