<svg width="20" height="20" viewBox="0 0 20 20" fill="none" xmlns="http://www.w3.org/2000/svg">
<path d="M14.1667 2.5C14.3857 2.28105 14.6454 2.10744 14.9312 1.98836C15.2169 1.86928 15.5238 1.80709 15.8342 1.80709C16.1446 1.80709 16.4515 1.86928 16.7372 1.98836C17.023 2.10744 17.2827 2.28105 17.5017 2.5C17.7206 2.71895 17.8942 2.97863 18.0133 3.26438C18.1324 3.55014 18.1946 3.85705 18.1946 4.16745C18.1946 4.47785 18.1324 4.78476 18.0133 5.07052C17.8942 5.35628 17.7206 5.61595 17.5017 5.8349L6.25 17.0833L1.66666 18.3333L2.91666 13.75L14.1667 2.5Z" stroke="#3E7290" stroke-width="2" stroke-linecap="round" stroke-linejoin="round"/>
</svg>