<svg width="63" height="73" viewBox="0 0 63 73" fill="none" xmlns="http://www.w3.org/2000/svg">
<rect x="6.5" width="50" height="50" rx="25" fill="#F6DFC5"/>
<path d="M41.1001 18.4H38.1001V11.7514C38.1001 11.1154 37.5631 10.6 36.9001 10.6C36.2371 10.6 35.7001 11.1154 35.7001 11.7514V18.4H26.1001V11.7514C26.1001 11.1154 25.5631 10.6 24.8995 10.6C24.2359 10.6 23.7001 11.1154 23.7001 11.7514V18.4H20.7001C20.3683 18.4 20.1001 18.9214 20.1001 19.2394V22.12C20.1001 25.5754 26.1001 29.5876 26.1001 35.1376V37H28.5001V39.4H33.3001V37H35.7001V35.1376C35.7001 29.5876 41.7001 25.5748 41.7001 22.12V19.2394C41.7001 18.9214 41.4319 18.4 41.1001 18.4ZM30.2443 28.2328C30.2833 28.1068 30.2041 28 30.0667 28H27.7357C27.5977 28 27.5587 27.922 27.6463 27.8206C27.6463 27.8206 32.4493 21.7252 32.5429 21.6076C32.6137 21.496 32.6917 21.535 32.6671 21.6634C32.6299 21.826 31.6045 25.9846 31.6045 25.9846C31.5547 26.107 31.6267 26.2 31.7629 26.2H34.0951C34.2325 26.2 34.2763 26.2924 34.1923 26.3968C34.1923 26.3968 29.3821 32.638 29.2957 32.7424C29.2093 32.8468 29.1283 32.815 29.1721 32.6374L30.2443 28.2328Z" fill="#FEA138"/>
<path d="M0.758523 70V61.2727H6.6392V62.794H2.60369V64.8736H6.33665V66.3949H2.60369V68.4787H6.65625V70H0.758523ZM9.88743 61.2727V70H8.07209V61.2727H9.88743ZM14.3246 70.1278C13.6513 70.1278 13.0717 69.9915 12.5859 69.7188C12.103 69.4432 11.7308 69.054 11.4695 68.5511C11.2081 68.0455 11.0774 67.4474 11.0774 66.7571C11.0774 66.0838 11.2081 65.4929 11.4695 64.9844C11.7308 64.4759 12.0987 64.0795 12.5732 63.7955C13.0504 63.5114 13.6101 63.3693 14.2521 63.3693C14.6839 63.3693 15.0859 63.4389 15.4581 63.5781C15.8331 63.7145 16.1598 63.9205 16.4382 64.196C16.7195 64.4716 16.9382 64.8182 17.0945 65.2358C17.2507 65.6506 17.3288 66.1364 17.3288 66.6932V67.1918H11.8018V66.0668H15.62C15.62 65.8054 15.5632 65.5739 15.4496 65.3722C15.3359 65.1705 15.1783 65.0128 14.9766 64.8991C14.7777 64.7827 14.5462 64.7244 14.282 64.7244C14.0064 64.7244 13.7621 64.7884 13.549 64.9162C13.3388 65.0412 13.174 65.2102 13.0547 65.4233C12.9354 65.6335 12.8743 65.8679 12.8714 66.1264V67.196C12.8714 67.5199 12.9311 67.7997 13.0504 68.0355C13.1726 68.2713 13.3445 68.4531 13.5661 68.581C13.7876 68.7088 14.0504 68.7727 14.3544 68.7727C14.5561 68.7727 14.7408 68.7443 14.9084 68.6875C15.076 68.6307 15.2195 68.5455 15.3388 68.4318C15.4581 68.3182 15.549 68.179 15.6115 68.0142L17.2905 68.125C17.2053 68.5284 17.0305 68.8807 16.7663 69.1818C16.505 69.4801 16.1669 69.7131 15.7521 69.8807C15.3402 70.0455 14.8643 70.1278 14.3246 70.1278ZM21.4709 70.1278C20.8004 70.1278 20.2237 69.9858 19.7408 69.7017C19.2607 69.4148 18.8913 69.017 18.6328 68.5085C18.3771 68 18.2493 67.4148 18.2493 66.7528C18.2493 66.0824 18.3786 65.4943 18.6371 64.9886C18.8984 64.4801 19.2692 64.0838 19.7493 63.7997C20.2294 63.5128 20.8004 63.3693 21.4624 63.3693C22.0334 63.3693 22.5334 63.473 22.9624 63.6804C23.3913 63.8878 23.7308 64.179 23.9808 64.554C24.2308 64.929 24.3686 65.3693 24.3942 65.875H22.6811C22.6328 65.5483 22.505 65.2855 22.2976 65.0866C22.093 64.8849 21.8246 64.7841 21.4922 64.7841C21.2109 64.7841 20.9652 64.8608 20.755 65.0142C20.5476 65.1648 20.3857 65.3849 20.2692 65.6747C20.1527 65.9645 20.0945 66.3153 20.0945 66.7273C20.0945 67.1449 20.1513 67.5 20.2649 67.7926C20.3814 68.0852 20.5447 68.3082 20.755 68.4616C20.9652 68.6151 21.2109 68.6918 21.4922 68.6918C21.6996 68.6918 21.8857 68.6491 22.0504 68.5639C22.218 68.4787 22.3558 68.3551 22.4638 68.1932C22.5746 68.0284 22.647 67.831 22.6811 67.6009H24.3942C24.3658 68.1009 24.2294 68.5412 23.9851 68.9219C23.7436 69.2997 23.4098 69.5952 22.9837 69.8082C22.5575 70.0213 22.0533 70.1278 21.4709 70.1278ZM29.038 63.4545V64.8182H25.0962V63.4545H29.038ZM25.9911 61.8864H27.8065V67.9886C27.8065 68.1562 27.832 68.2869 27.8832 68.3807C27.9343 68.4716 28.0053 68.5355 28.0962 68.5724C28.19 68.6094 28.2979 68.6278 28.4201 68.6278C28.5053 68.6278 28.5906 68.6207 28.6758 68.6065C28.761 68.5895 28.8263 68.5767 28.8718 68.5682L29.1573 69.919C29.0664 69.9474 28.9386 69.9801 28.7738 70.017C28.609 70.0568 28.4087 70.081 28.1729 70.0895C27.7354 70.1065 27.3519 70.0483 27.0224 69.9148C26.6957 69.7812 26.4414 69.5739 26.2596 69.2926C26.0778 69.0114 25.9883 68.6562 25.9911 68.2273V61.8864ZM30.2205 70V63.4545H31.9805V64.5966H32.0487C32.168 64.1903 32.3683 63.8835 32.6495 63.6761C32.9308 63.4659 33.2546 63.3608 33.6211 63.3608C33.712 63.3608 33.81 63.3665 33.9151 63.3778C34.0202 63.3892 34.1126 63.4048 34.1921 63.4247V65.0355C34.1069 65.0099 33.989 64.9872 33.8384 64.9673C33.6879 64.9474 33.5501 64.9375 33.4251 64.9375C33.158 64.9375 32.9194 64.9957 32.7092 65.1122C32.5018 65.2259 32.337 65.3849 32.2148 65.5895C32.0955 65.794 32.0359 66.0298 32.0359 66.2969V70H30.2205ZM35.1307 70V63.4545H36.946V70H35.1307ZM36.0426 62.6108C35.7727 62.6108 35.5412 62.5213 35.348 62.3423C35.1577 62.1605 35.0625 61.9432 35.0625 61.6903C35.0625 61.4403 35.1577 61.2259 35.348 61.0469C35.5412 60.8651 35.7727 60.7741 36.0426 60.7741C36.3125 60.7741 36.5426 60.8651 36.733 61.0469C36.9261 61.2259 37.0227 61.4403 37.0227 61.6903C37.0227 61.9432 36.9261 62.1605 36.733 62.3423C36.5426 62.5213 36.3125 62.6108 36.0426 62.6108ZM41.3576 70.1278C40.6871 70.1278 40.1104 69.9858 39.6275 69.7017C39.1474 69.4148 38.7781 69.017 38.5195 68.5085C38.2638 68 38.136 67.4148 38.136 66.7528C38.136 66.0824 38.2653 65.4943 38.5238 64.9886C38.7852 64.4801 39.1559 64.0838 39.636 63.7997C40.1161 63.5128 40.6871 63.3693 41.3491 63.3693C41.9201 63.3693 42.4201 63.473 42.8491 63.6804C43.2781 63.8878 43.6175 64.179 43.8675 64.554C44.1175 64.929 44.2553 65.3693 44.2809 65.875H42.5678C42.5195 65.5483 42.3917 65.2855 42.1843 65.0866C41.9798 64.8849 41.7113 64.7841 41.3789 64.7841C41.0977 64.7841 40.8519 64.8608 40.6417 65.0142C40.4343 65.1648 40.2724 65.3849 40.1559 65.6747C40.0394 65.9645 39.9812 66.3153 39.9812 66.7273C39.9812 67.1449 40.038 67.5 40.1516 67.7926C40.2681 68.0852 40.4315 68.3082 40.6417 68.4616C40.8519 68.6151 41.0977 68.6918 41.3789 68.6918C41.5863 68.6918 41.7724 68.6491 41.9371 68.5639C42.1048 68.4787 42.2425 68.3551 42.3505 68.1932C42.4613 68.0284 42.5337 67.831 42.5678 67.6009H44.2809C44.2525 68.1009 44.1161 68.5412 43.8718 68.9219C43.6303 69.2997 43.2965 69.5952 42.8704 69.8082C42.4442 70.0213 41.94 70.1278 41.3576 70.1278ZM45.4432 70V63.4545H47.2585V70H45.4432ZM46.3551 62.6108C46.0852 62.6108 45.8537 62.5213 45.6605 62.3423C45.4702 62.1605 45.375 61.9432 45.375 61.6903C45.375 61.4403 45.4702 61.2259 45.6605 61.0469C45.8537 60.8651 46.0852 60.7741 46.3551 60.7741C46.625 60.7741 46.8551 60.8651 47.0455 61.0469C47.2386 61.2259 47.3352 61.4403 47.3352 61.6903C47.3352 61.9432 47.2386 62.1605 47.0455 62.3423C46.8551 62.5213 46.625 62.6108 46.3551 62.6108ZM50.5792 70.1236C50.1616 70.1236 49.7894 70.0511 49.4627 69.9062C49.136 69.7585 48.8775 69.5412 48.6871 69.2543C48.4996 68.9645 48.4059 68.6037 48.4059 68.1719C48.4059 67.8082 48.4727 67.5028 48.6062 67.2557C48.7397 67.0085 48.9215 66.8097 49.1516 66.6591C49.3817 66.5085 49.6431 66.3949 49.9357 66.3182C50.2312 66.2415 50.5408 66.1875 50.8647 66.1562C51.2454 66.1165 51.5522 66.0795 51.7852 66.0455C52.0181 66.0085 52.1871 65.9545 52.2923 65.8835C52.3974 65.8125 52.4499 65.7074 52.4499 65.5682V65.5426C52.4499 65.2727 52.3647 65.0639 52.1942 64.9162C52.0266 64.7685 51.788 64.6946 51.4783 64.6946C51.1516 64.6946 50.8917 64.767 50.6985 64.9119C50.5053 65.054 50.3775 65.233 50.315 65.4489L48.636 65.3125C48.7212 64.9148 48.8888 64.571 49.1388 64.2812C49.3888 63.9886 49.7113 63.7642 50.1062 63.608C50.5039 63.4489 50.9641 63.3693 51.4869 63.3693C51.8505 63.3693 52.1985 63.4119 52.5309 63.4972C52.8661 63.5824 53.163 63.7145 53.4215 63.8935C53.6829 64.0724 53.8888 64.3026 54.0394 64.5838C54.19 64.8622 54.2653 65.196 54.2653 65.5852V70H52.5437V69.0923H52.4925C52.3874 69.2969 52.2468 69.4773 52.0707 69.6335C51.8945 69.7869 51.6829 69.9077 51.4357 69.9957C51.1886 70.081 50.9031 70.1236 50.5792 70.1236ZM51.0991 68.8707C51.3661 68.8707 51.6019 68.8182 51.8065 68.7131C52.011 68.6051 52.1715 68.4602 52.288 68.2784C52.4045 68.0966 52.4627 67.8906 52.4627 67.6605V66.9659C52.4059 67.0028 52.3278 67.0369 52.2283 67.0682C52.1317 67.0966 52.0224 67.1236 51.9002 67.1491C51.7781 67.1719 51.6559 67.1932 51.5337 67.2131C51.4116 67.2301 51.3008 67.2457 51.2013 67.2599C50.9883 67.2912 50.8022 67.3409 50.6431 67.4091C50.484 67.4773 50.3604 67.5696 50.2724 67.6861C50.1843 67.7997 50.1403 67.9418 50.1403 68.1122C50.1403 68.3594 50.2298 68.5483 50.4087 68.679C50.5906 68.8068 50.8207 68.8707 51.0991 68.8707ZM57.489 66.2159V70H55.6737V63.4545H57.4038V64.6094H57.4805C57.6254 64.2287 57.8683 63.9276 58.2092 63.706C58.5501 63.4815 58.9634 63.3693 59.4492 63.3693C59.9038 63.3693 60.3001 63.4688 60.6381 63.6676C60.9762 63.8665 61.239 64.1506 61.4265 64.5199C61.614 64.8864 61.7077 65.3239 61.7077 65.8324V70H59.8924V66.1562C59.8952 65.7557 59.793 65.4432 59.5856 65.2188C59.3782 64.9915 59.0927 64.8778 58.729 64.8778C58.4847 64.8778 58.2688 64.9304 58.0813 65.0355C57.8967 65.1406 57.7518 65.294 57.6467 65.4957C57.5444 65.6946 57.4918 65.9347 57.489 66.2159Z" fill="#383838"/>
</svg>
