<svg width="20" height="20" viewBox="0 0 20 20" fill="none" xmlns="http://www.w3.org/2000/svg">
<path d="M18.3333 9.23333C18.3381 10.7 17.976 12.1421 17.2865 13.4166C16.597 14.6912 15.6038 15.7545 14.4072 16.5006C13.2106 17.2467 11.8515 17.6518 10.4619 17.6775C9.07225 17.7032 7.69845 17.3488 6.47499 16.65L1.66666 18.3333L3.34999 13.525C2.65132 12.3016 2.29692 10.9278 2.32261 9.53817C2.3483 8.14852 2.75344 6.78942 3.49951 5.59281C4.24558 4.3962 5.30888 3.40304 6.58344 2.71351C7.858 2.02398 9.29997 1.66189 10.7667 1.66666H11.1667C13.0464 1.76003 14.8261 2.56552 16.1654 3.90481C17.5047 5.24409 18.31 7.02383 18.4033 8.90333L18.3333 9.23333Z" stroke="#3E7290" stroke-width="2" stroke-linecap="round" stroke-linejoin="round"/>
</svg>