<svg width="30" height="25" viewBox="0 0 30 25" fill="none" xmlns="http://www.w3.org/2000/svg">
<path d="M10.9468 5.20832C10.6242 5.20832 10.3149 5.31807 10.0868 5.51342C9.85865 5.70877 9.7305 5.97372 9.7305 6.24999C9.7305 6.52626 9.85865 6.79121 10.0868 6.98656C10.3149 7.18191 10.6242 7.29166 10.9468 7.29166C11.2694 7.29166 11.5788 7.18191 11.8069 6.98656C12.035 6.79121 12.1631 6.52626 12.1631 6.24999C12.1631 5.97372 12.035 5.70877 11.8069 5.51342C11.5788 5.31807 11.2694 5.20832 10.9468 5.20832ZM7.50464 5.20832C7.75594 4.59839 8.22195 4.07023 8.83846 3.69664C9.45496 3.32306 10.1916 3.12244 10.9468 3.12244C11.702 3.12244 12.4387 3.32306 13.0552 3.69664C13.6717 4.07023 14.1377 4.59839 14.389 5.20832H23.11C23.4326 5.20832 23.742 5.31807 23.9701 5.51342C24.1982 5.70877 24.3263 5.97372 24.3263 6.24999C24.3263 6.52626 24.1982 6.79121 23.9701 6.98656C23.742 7.18191 23.4326 7.29166 23.11 7.29166H14.389C14.1377 7.90159 13.6717 8.42975 13.0552 8.80333C12.4387 9.17692 11.702 9.37754 10.9468 9.37754C10.1916 9.37754 9.45496 9.17692 8.83846 8.80333C8.22195 8.42975 7.75594 7.90159 7.50464 7.29166H6.08155C5.75896 7.29166 5.44959 7.18191 5.22149 6.98656C4.99338 6.79121 4.86523 6.52626 4.86523 6.24999C4.86523 5.97372 4.99338 5.70877 5.22149 5.51342C5.44959 5.31807 5.75896 5.20832 6.08155 5.20832H7.50464ZM18.2447 11.4583C17.9221 11.4583 17.6128 11.5681 17.3847 11.7634C17.1566 11.9588 17.0284 12.2237 17.0284 12.5C17.0284 12.7763 17.1566 13.0412 17.3847 13.2366C17.6128 13.4319 17.9221 13.5417 18.2447 13.5417C18.5673 13.5417 18.8767 13.4319 19.1048 13.2366C19.3329 13.0412 19.461 12.7763 19.461 12.5C19.461 12.2237 19.3329 11.9588 19.1048 11.7634C18.8767 11.5681 18.5673 11.4583 18.2447 11.4583ZM14.8025 11.4583C15.0538 10.8484 15.5199 10.3202 16.1364 9.94664C16.7529 9.57306 17.4895 9.37244 18.2447 9.37244C19 9.37244 19.7366 9.57306 20.3531 9.94664C20.9696 10.3202 21.4356 10.8484 21.6869 11.4583H23.11C23.4326 11.4583 23.742 11.5681 23.9701 11.7634C24.1982 11.9588 24.3263 12.2237 24.3263 12.5C24.3263 12.7763 24.1982 13.0412 23.9701 13.2366C23.742 13.4319 23.4326 13.5417 23.11 13.5417H21.6869C21.4356 14.1516 20.9696 14.6797 20.3531 15.0533C19.7366 15.4269 19 15.6275 18.2447 15.6275C17.4895 15.6275 16.7529 15.4269 16.1364 15.0533C15.5199 14.6797 15.0538 14.1516 14.8025 13.5417H6.08155C5.75896 13.5417 5.44959 13.4319 5.22149 13.2366C4.99338 13.0412 4.86523 12.7763 4.86523 12.5C4.86523 12.2237 4.99338 11.9588 5.22149 11.7634C5.44959 11.5681 5.75896 11.4583 6.08155 11.4583H14.8025ZM10.9468 17.7083C10.6242 17.7083 10.3149 17.8181 10.0868 18.0134C9.85865 18.2088 9.7305 18.4737 9.7305 18.75C9.7305 19.0263 9.85865 19.2912 10.0868 19.4866C10.3149 19.6819 10.6242 19.7917 10.9468 19.7917C11.2694 19.7917 11.5788 19.6819 11.8069 19.4866C12.035 19.2912 12.1631 19.0263 12.1631 18.75C12.1631 18.4737 12.035 18.2088 11.8069 18.0134C11.5788 17.8181 11.2694 17.7083 10.9468 17.7083ZM7.50464 17.7083C7.75594 17.0984 8.22195 16.5702 8.83846 16.1966C9.45496 15.8231 10.1916 15.6224 10.9468 15.6224C11.702 15.6224 12.4387 15.8231 13.0552 16.1966C13.6717 16.5702 14.1377 17.0984 14.389 17.7083H23.11C23.4326 17.7083 23.742 17.8181 23.9701 18.0134C24.1982 18.2088 24.3263 18.4737 24.3263 18.75C24.3263 19.0263 24.1982 19.2912 23.9701 19.4866C23.742 19.6819 23.4326 19.7917 23.11 19.7917H14.389C14.1377 20.4016 13.6717 20.9297 13.0552 21.3033C12.4387 21.6769 11.702 21.8775 10.9468 21.8775C10.1916 21.8775 9.45496 21.6769 8.83846 21.3033C8.22195 20.9297 7.75594 20.4016 7.50464 19.7917H6.08155C5.75896 19.7917 5.44959 19.6819 5.22149 19.4866C4.99338 19.2912 4.86523 19.0263 4.86523 18.75C4.86523 18.4737 4.99338 18.2088 5.22149 18.0134C5.44959 17.8181 5.75896 17.7083 6.08155 17.7083H7.50464Z" fill="#AAAAAA"/>
</svg>
