<svg width="25" height="25" viewBox="0 0 25 25" fill="none" xmlns="http://www.w3.org/2000/svg">
<path d="M9.37484 5.20844C9.09857 5.20844 8.83362 5.31819 8.63827 5.51354C8.44292 5.70889 8.33317 5.97384 8.33317 6.25011C8.33317 6.52638 8.44292 6.79133 8.63827 6.98668C8.83362 7.18203 9.09857 7.29178 9.37484 7.29178C9.6511 7.29178 9.91606 7.18203 10.1114 6.98668C10.3068 6.79133 10.4165 6.52638 10.4165 6.25011C10.4165 5.97384 10.3068 5.70889 10.1114 5.51354C9.91606 5.31819 9.6511 5.20844 9.37484 5.20844ZM6.42692 5.20844C6.64213 4.59851 7.04123 4.07035 7.56921 3.69677C8.09719 3.32318 8.72805 3.12256 9.37484 3.12256C10.0216 3.12256 10.6525 3.32318 11.1805 3.69677C11.7084 4.07035 12.1075 4.59851 12.3228 5.20844H19.7915C20.0678 5.20844 20.3327 5.31819 20.5281 5.51354C20.7234 5.70889 20.8332 5.97384 20.8332 6.25011C20.8332 6.52638 20.7234 6.79133 20.5281 6.98668C20.3327 7.18203 20.0678 7.29178 19.7915 7.29178H12.3228C12.1075 7.90171 11.7084 8.42987 11.1805 8.80346C10.6525 9.17704 10.0216 9.37766 9.37484 9.37766C8.72805 9.37766 8.09719 9.17704 7.56921 8.80346C7.04123 8.42987 6.64213 7.90171 6.42692 7.29178H5.20817C4.9319 7.29178 4.66695 7.18203 4.4716 6.98668C4.27625 6.79133 4.1665 6.52638 4.1665 6.25011C4.1665 5.97384 4.27625 5.70889 4.4716 5.51354C4.66695 5.31819 4.9319 5.20844 5.20817 5.20844H6.42692ZM15.6248 11.4584C15.3486 11.4584 15.0836 11.5682 14.8883 11.7635C14.6929 11.9589 14.5832 12.2238 14.5832 12.5001C14.5832 12.7764 14.6929 13.0413 14.8883 13.2367C15.0836 13.432 15.3486 13.5418 15.6248 13.5418C15.9011 13.5418 16.1661 13.432 16.3614 13.2367C16.5568 13.0413 16.6665 12.7764 16.6665 12.5001C16.6665 12.2238 16.5568 11.9589 16.3614 11.7635C16.1661 11.5682 15.9011 11.4584 15.6248 11.4584ZM12.6769 11.4584C12.8921 10.8485 13.2912 10.3204 13.8192 9.94677C14.3472 9.57318 14.9781 9.37256 15.6248 9.37256C16.2716 9.37256 16.9025 9.57318 17.4305 9.94677C17.9584 10.3204 18.3575 10.8485 18.5728 11.4584H19.7915C20.0678 11.4584 20.3327 11.5682 20.5281 11.7635C20.7234 11.9589 20.8332 12.2238 20.8332 12.5001C20.8332 12.7764 20.7234 13.0413 20.5281 13.2367C20.3327 13.432 20.0678 13.5418 19.7915 13.5418H18.5728C18.3575 14.1517 17.9584 14.6799 17.4305 15.0535C16.9025 15.427 16.2716 15.6277 15.6248 15.6277C14.9781 15.6277 14.3472 15.427 13.8192 15.0535C13.2912 14.6799 12.8921 14.1517 12.6769 13.5418H5.20817C4.9319 13.5418 4.66695 13.432 4.4716 13.2367C4.27625 13.0413 4.1665 12.7764 4.1665 12.5001C4.1665 12.2238 4.27625 11.9589 4.4716 11.7635C4.66695 11.5682 4.9319 11.4584 5.20817 11.4584H12.6769ZM9.37484 17.7084C9.09857 17.7084 8.83362 17.8182 8.63827 18.0135C8.44292 18.2089 8.33317 18.4738 8.33317 18.7501C8.33317 19.0264 8.44292 19.2913 8.63827 19.4867C8.83362 19.682 9.09857 19.7918 9.37484 19.7918C9.6511 19.7918 9.91606 19.682 10.1114 19.4867C10.3068 19.2913 10.4165 19.0264 10.4165 18.7501C10.4165 18.4738 10.3068 18.2089 10.1114 18.0135C9.91606 17.8182 9.6511 17.7084 9.37484 17.7084ZM6.42692 17.7084C6.64213 17.0985 7.04123 16.5704 7.56921 16.1968C8.09719 15.8232 8.72805 15.6226 9.37484 15.6226C10.0216 15.6226 10.6525 15.8232 11.1805 16.1968C11.7084 16.5704 12.1075 17.0985 12.3228 17.7084H19.7915C20.0678 17.7084 20.3327 17.8182 20.5281 18.0135C20.7234 18.2089 20.8332 18.4738 20.8332 18.7501C20.8332 19.0264 20.7234 19.2913 20.5281 19.4867C20.3327 19.682 20.0678 19.7918 19.7915 19.7918H12.3228C12.1075 20.4017 11.7084 20.9299 11.1805 21.3035C10.6525 21.677 10.0216 21.8777 9.37484 21.8777C8.72805 21.8777 8.09719 21.677 7.56921 21.3035C7.04123 20.9299 6.64213 20.4017 6.42692 19.7918H5.20817C4.9319 19.7918 4.66695 19.682 4.4716 19.4867C4.27625 19.2913 4.1665 19.0264 4.1665 18.7501C4.1665 18.4738 4.27625 18.2089 4.4716 18.0135C4.66695 17.8182 4.9319 17.7084 5.20817 17.7084H6.42692Z" fill="#373737"/>
</svg>
