<svg width="34" height="38" viewBox="0 0 34 38" fill="none" xmlns="http://www.w3.org/2000/svg">
<path d="M10.5564 35.6307C10.472 36.2639 10.683 36.9394 11.1685 37.3827C11.3638 37.5783 11.5958 37.7336 11.8511 37.8395C12.1065 37.9454 12.3802 38 12.6567 38C12.9331 38 13.2068 37.9454 13.4622 37.8395C13.7176 37.7336 13.9495 37.5783 14.1448 37.3827L22.6092 28.9183C22.8393 28.6931 23.0142 28.4179 23.1204 28.114C23.2266 27.8101 23.2611 27.4857 23.2213 27.1663L23.2213 16.3589L33.3322 3.41953C33.6749 2.97949 33.8296 2.42166 33.7624 1.86793C33.6951 1.3142 33.4115 0.809598 32.9733 0.464381C32.5723 0.168866 32.129 0 31.6646 0L2.1131 0C1.64872 0 1.20545 0.168866 0.80439 0.464381C0.366254 0.809598 0.0825762 1.3142 0.0153363 1.86793C-0.0518998 2.42166 0.102767 2.97949 0.445549 3.41953L10.5564 16.3589L10.5564 35.6307ZM27.3585 4.22165L18.9997 14.9024V26.5541L14.778 30.7758L14.778 14.8813L6.41918 4.22165L27.3585 4.22165Z" fill="#FFCD29"/>
</svg>
