<svg width="24" height="24" viewBox="0 0 24 24" fill="none" xmlns="http://www.w3.org/2000/svg">
<path fill-rule="evenodd" clip-rule="evenodd" d="M11 4C7.13401 4 4 7.13401 4 11C4 14.866 7.13401 18 11 18C14.866 18 18 14.866 18 11C18 7.13401 14.866 4 11 4ZM2 11C2 6.02944 6.02944 2 11 2C15.9706 2 20 6.02944 20 11C20 15.9706 15.9706 20 11 20C6.02944 20 2 15.9706 2 11Z" fill="#484C52"/>
<path fill-rule="evenodd" clip-rule="evenodd" d="M15.3229 15.3229C15.7534 14.8924 16.4514 14.8924 16.8819 15.3229L21.6772 20.1182C22.1077 20.5487 22.1077 21.2466 21.6772 21.6772C21.2466 22.1077 20.5487 22.1077 20.1182 21.6772L15.3229 16.8819C14.8924 16.4514 14.8924 15.7534 15.3229 15.3229Z" fill="#484C52"/>
</svg>