<svg width="24" height="24" viewBox="0 0 24 24" fill="none" xmlns="http://www.w3.org/2000/svg">
<path fill-rule="evenodd" clip-rule="evenodd" d="M9.38606 1.21065C9.74717 0.929682 10.2528 0.929682 10.6139 1.21065L19.6139 8.21065C19.8575 8.4001 20 8.69141 20 9V20C20 20.7957 19.6839 21.5587 19.1213 22.1213C18.5587 22.6839 17.7957 23 17 23H3C2.20435 23 1.44129 22.6839 0.87868 22.1213C0.31607 21.5587 0 20.7957 0 20V9C0 8.69141 0.142473 8.4001 0.386059 8.21065L9.38606 1.21065ZM2 9.48908V20C2 20.2652 2.10536 20.5196 2.29289 20.7071C2.48043 20.8946 2.73478 21 3 21H17C17.2652 21 17.5196 20.8946 17.7071 20.7071C17.8946 20.5196 18 20.2652 18 20V9.48908L10 3.26686L2 9.48908Z" fill="#484C52"/>
<path fill-rule="evenodd" clip-rule="evenodd" d="M8 12C8 11.4477 8.44772 11 9 11H15C15.5523 11 16 11.4477 16 12V22C16 22.5523 15.5523 23 15 23C14.4477 23 14 22.5523 14 22V13H10V22C10 22.5523 9.55228 23 9 23C8.44772 23 8 22.5523 8 22V12Z" fill="#484C52"/>
</svg>