<svg width="56" height="56" viewBox="0 0 56 56" fill="none" xmlns="http://www.w3.org/2000/svg">
<rect x="2" y="2" width="52" height="52" rx="26" fill="#0092AC"/>
<rect x="2" y="2" width="52" height="52" rx="26" stroke="white" stroke-width="4"/>
<path d="M18.77 26C18.34 26 18 25.66 18 25.23V22.92C18 20.21 20.21 18 22.92 18H25.23C25.66 18 26 18.34 26 18.77C26 19.2 25.66 19.54 25.23 19.54H22.92C21.05 19.54 19.54 21.06 19.54 22.92V25.23C19.54 25.66 19.19 26 18.77 26Z" fill="white"/>
<path d="M37.23 26C36.81 26 36.46 25.66 36.46 25.23V22.92C36.46 21.05 34.94 19.54 33.08 19.54H30.77C30.34 19.54 30 19.19 30 18.77C30 18.35 30.34 18 30.77 18H33.08C35.79 18 38 20.21 38 22.92V25.23C38 25.66 37.66 26 37.23 26Z" fill="white"/>
<path d="M33.0799 37.9999H31.6899C31.2699 37.9999 30.9199 37.6599 30.9199 37.2299C30.9199 36.8099 31.2599 36.4599 31.6899 36.4599H33.0799C34.9499 36.4599 36.4599 34.9399 36.4599 33.0799V31.6999C36.4599 31.2799 36.7999 30.9299 37.2299 30.9299C37.6499 30.9299 37.9999 31.2699 37.9999 31.6999V33.0799C37.9999 35.7899 35.7899 37.9999 33.0799 37.9999Z" fill="white"/>
<path d="M25.23 38H22.92C20.21 38 18 35.79 18 33.08V30.77C18 30.34 18.34 30 18.77 30C19.2 30 19.54 30.34 19.54 30.77V33.08C19.54 34.95 21.06 36.46 22.92 36.46H25.23C25.65 36.46 26 36.8 26 37.23C26 37.66 25.66 38 25.23 38Z" fill="white"/>
<path d="M34.46 27.23H33.1H22.9H21.54C21.11 27.23 20.77 27.58 20.77 28C20.77 28.42 21.11 28.77 21.54 28.77H22.9H33.1H34.46C34.89 28.77 35.23 28.42 35.23 28C35.23 27.58 34.89 27.23 34.46 27.23Z" fill="white"/>
<path d="M22.8999 29.94V30.27C22.8999 31.93 24.2399 33.27 25.8999 33.27H30.0999C31.7599 33.27 33.0999 31.93 33.0999 30.27V29.94C33.0999 29.82 33.0099 29.73 32.8899 29.73H23.1099C22.9899 29.73 22.8999 29.82 22.8999 29.94Z" fill="white"/>
<path d="M22.8999 26.06V25.73C22.8999 24.07 24.2399 22.73 25.8999 22.73H30.0999C31.7599 22.73 33.0999 24.07 33.0999 25.73V26.06C33.0999 26.18 33.0099 26.27 32.8899 26.27H23.1099C22.9899 26.27 22.8999 26.18 22.8999 26.06Z" fill="white"/>
</svg>
