<svg width="24" height="24" viewBox="0 0 24 24" fill="none" xmlns="http://www.w3.org/2000/svg">
<path fill-rule="evenodd" clip-rule="evenodd" d="M4.46447 4.46447C5.40215 3.52678 6.67392 3 8 3H16C17.3261 3 18.5979 3.52678 19.5355 4.46447C20.4732 5.40215 21 6.67392 21 8V10C21 10.5523 20.5523 11 20 11C19.4477 11 19 10.5523 19 10V8C19 7.20435 18.6839 6.44129 18.1213 5.87868C17.5587 5.31607 16.7956 5 16 5H8C7.20435 5 6.44129 5.31607 5.87868 5.87868C5.31607 6.44129 5 7.20435 5 8V10C5 10.5523 4.55228 11 4 11C3.44772 11 3 10.5523 3 10V8C3 6.67392 3.52678 5.40215 4.46447 4.46447Z" fill="#484C52"/>
<path fill-rule="evenodd" clip-rule="evenodd" d="M12 16C10.3431 16 9 17.3431 9 19C9 20.6569 10.3431 22 12 22C13.6569 22 15 20.6569 15 19C15 17.3431 13.6569 16 12 16ZM7 19C7 16.2386 9.23858 14 12 14C14.7614 14 17 16.2386 17 19C17 21.7614 14.7614 24 12 24C9.23858 24 7 21.7614 7 19Z" fill="#484C52"/>
</svg>