<svg width="25" height="25" viewBox="0 0 25 25" fill="none" xmlns="http://www.w3.org/2000/svg">
<path d="M8.4067 0.684333C5.87932 1.5611 3.69972 3.22524 2.18804 5.43231C0.676352 7.63937 -0.0877317 10.273 0.00801607 12.9465C0.103764 15.6199 1.0543 18.1921 2.72 20.2854C4.3857 22.3787 6.67876 23.8826 9.26238 24.5763C11.357 25.1168 13.5515 25.1406 15.6573 24.6455C17.5649 24.217 19.3286 23.3005 20.7756 21.9856C22.2816 20.5753 23.3748 18.7812 23.9375 16.7961C24.5492 14.6375 24.658 12.3674 24.2557 10.1601H12.4934V15.0393H19.3053C19.1692 15.8175 18.8774 16.5602 18.4476 17.223C18.0177 17.8859 17.4585 18.4551 16.8035 18.8968C15.9717 19.447 15.034 19.8173 14.0507 19.9837C13.0644 20.1671 12.0529 20.1671 11.0666 19.9837C10.0671 19.777 9.12148 19.3645 8.2901 18.7723C6.9545 17.8269 5.95164 16.4837 5.42464 14.9346C4.88873 13.3564 4.88873 11.6454 5.42464 10.0672C5.79977 8.961 6.41991 7.95378 7.23877 7.12075C8.17586 6.14995 9.36224 5.45601 10.6678 5.11508C11.9733 4.77415 13.3475 4.79939 14.6396 5.18805C15.6489 5.49789 16.572 6.03926 17.3351 6.76899C18.1032 6.00487 18.8699 5.23877 19.6354 4.47069C20.0306 4.05767 20.4614 3.66441 20.8507 3.24151C19.6859 2.15753 18.3186 1.31406 16.8272 0.759428C14.1113 -0.226706 11.1397 -0.253207 8.4067 0.684333Z" fill="white"/>
</svg>
