<svg width="20" height="10" viewBox="0 0 20 10" fill="none" xmlns="http://www.w3.org/2000/svg">
<path d="M0 3.16013C1.35864 2.11199 2.71663 1.05862 4.07397 0C4.5991 1.54115 5.59783 2.87692 6.92751 3.81652C7.75687 4.40268 8.69925 4.80962 9.69459 5.01139C10.6754 5.19376 11.6813 5.19376 12.6621 5.01139C13.64 4.84586 14.5725 4.47769 15.3997 3.9305C16.7145 4.95637 18.0351 5.97437 19.3499 7.00023C17.9111 8.30855 16.1572 9.22073 14.2599 9.64742C12.1657 10.1397 9.98333 10.1161 7.90031 9.57864C6.25285 9.13876 4.714 8.36332 3.38023 7.30091C1.96852 6.1801 0.815492 4.76765 0 3.16013Z" fill="#319F43"/>
</svg>
