<svg width="20" height="10" viewBox="0 0 20 10" fill="none" xmlns="http://www.w3.org/2000/svg">
<path d="M7.03821 0.681186C9.75462 -0.251368 12.7084 -0.225719 15.4082 0.753867C16.891 1.30892 18.2494 2.15137 19.4057 3.23286C19.0128 3.65323 18.5983 4.04609 18.1976 4.45467C17.4354 5.21553 16.6739 5.97376 15.9131 6.72937C15.1545 6.00402 14.237 5.4659 13.2337 5.15791C11.9498 4.77023 10.5839 4.74368 9.28584 5.08118C7.98781 5.41869 6.80782 6.10719 5.87533 7.07117C5.06137 7.89921 4.44495 8.90039 4.07207 9.99999L0 6.84723C1.45755 3.95684 3.98121 1.7459 7.03821 0.681186Z" fill="#E33629"/>
</svg>
