<svg width="25" height="25" viewBox="0 0 25 25" fill="none" xmlns="http://www.w3.org/2000/svg">
<path d="M8.40669 0.684333C5.87932 1.5611 3.69972 3.22523 2.18803 5.4323C0.676352 7.63936 -0.0877316 10.273 0.00801606 12.9464C0.103764 15.6199 1.0543 18.1921 2.71999 20.2854C4.38569 22.3786 6.67875 23.8826 9.26237 24.5763C11.357 25.1168 13.5515 25.1405 15.6573 24.6455C17.5649 24.217 19.3286 23.3004 20.7756 21.9855C22.2816 20.5752 23.3747 18.7811 23.9375 16.7961C24.5491 14.6375 24.658 12.3674 24.2556 10.1601H12.4934V15.0393H19.3053C19.1692 15.8175 18.8774 16.5602 18.4475 17.223C18.0177 17.8858 17.4585 18.4551 16.8035 18.8968C15.9717 19.447 15.034 19.8172 14.0506 19.9837C13.0644 20.1671 12.0528 20.1671 11.0666 19.9837C10.067 19.777 9.12147 19.3645 8.29009 18.7723C6.95449 17.8269 5.95163 16.4837 5.42463 14.9345C4.88872 13.3564 4.88872 11.6454 5.42463 10.0672C5.79976 8.96099 6.4199 7.95377 7.23877 7.12074C8.17585 6.14994 9.36223 5.456 10.6677 5.11507C11.9733 4.77414 13.3474 4.79939 14.6395 5.18804C15.6489 5.49789 16.5719 6.03925 17.3351 6.76898C18.1031 6.00486 18.8699 5.23876 19.6353 4.47069C20.0306 4.05767 20.4614 3.66441 20.8507 3.24151C19.6858 2.15753 18.3186 1.31406 16.8272 0.759427C14.1113 -0.226705 11.1397 -0.253207 8.40669 0.684333Z" fill="white"/>
</svg>
