<svg preserveAspectRatio="none" width="100%" height="100%" overflow="visible" style="display: block;" viewBox="0 0 30 30" fill="none" xmlns="http://www.w3.org/2000/svg">
<g id="gg:gym">
<path id="Vector" d="M25.3425 12.3363L21.04 6.1925L23.0888 4.75875L27.39 10.9025L25.3425 12.3363ZM22.9875 15.5113L20.8375 12.4375L10.5975 19.6075L12.7475 22.6787L10.7 24.1138L4.965 15.9213L7.0125 14.4875L9.1625 17.56L19.4025 10.39L17.2525 7.3175L19.3 5.88375L25.035 14.0762L22.9875 15.5113ZM25.9562 8.85375L28.0037 7.42L26.57 5.3725L24.5225 6.80625L25.9562 8.85375ZM8.96 23.8075L4.6575 17.6637L2.61 19.0975L6.91125 25.2413L8.96 23.8075ZM5.4775 23.1938L3.43 24.6275L1.99625 22.58L4.04375 21.1462L5.4775 23.1938Z" fill="var(--fill-0, #474747)"/>
</g>
</svg>
