<svg width="30" height="30" viewBox="0 0 30 30" fill="none" xmlns="http://www.w3.org/2000/svg">
<path d="M4.65766 12.3363L8.96016 6.19254L6.91141 4.75879L2.61016 10.9025L4.65766 12.3363ZM7.01266 15.5113L9.16266 12.4375L19.4027 19.6075L17.2527 22.6788L19.3002 24.1138L25.0352 15.9213L22.9877 14.4875L20.8377 17.56L10.5977 10.39L12.7477 7.31754L10.7002 5.88379L4.96516 14.0763L7.01266 15.5113ZM4.04391 8.85379L1.99641 7.42004L3.43016 5.37254L5.47766 6.80629L4.04391 8.85379ZM21.0402 23.8075L25.3427 17.6638L27.3902 19.0975L23.0889 25.2413L21.0402 23.8075ZM24.5227 23.1938L26.5702 24.6275L28.0039 22.58L25.9564 21.1463L24.5227 23.1938Z" fill="#474747"/>
</svg>
