<svg preserveAspectRatio="none" width="100%" height="100%" overflow="visible" style="display: block;" viewBox="0 0 30 30" fill="none" xmlns="http://www.w3.org/2000/svg">
<g id="bx:clinic">
<path id="Vector" d="M15.8838 2.86625C15.6493 2.63191 15.3315 2.50027 15 2.50027C14.6685 2.50027 14.3507 2.63191 14.1163 2.86625L2.86625 14.1163C2.69149 14.2911 2.57248 14.5138 2.52427 14.7562C2.47606 14.9987 2.50082 15.2499 2.5954 15.4783C2.68999 15.7067 2.85016 15.9019 3.05568 16.0393C3.26119 16.1766 3.50281 16.2499 3.75 16.25H5V25C5 26.3788 6.12125 27.5 7.5 27.5H22.5C23.8788 27.5 25 26.3788 25 25V16.25H26.25C26.4975 16.2505 26.7395 16.1776 26.9454 16.0403C27.1513 15.9031 27.3118 15.7077 27.4065 15.4791C27.5012 15.2505 27.5258 14.9989 27.4772 14.7562C27.4287 14.5136 27.3091 14.2908 27.1338 14.1163L15.8838 2.86625ZM22.5012 25H7.5V13.0175L15 5.5175L22.5 13.0175V18.75L22.5012 25Z" fill="var(--fill-0, #474747)"/>
<path id="Vector_2" d="M16.25 12.5H13.75V16.25H10V18.75H13.75V22.5H16.25V18.75H20V16.25H16.25V12.5Z" fill="var(--fill-0, #474747)"/>
</g>
</svg>
