<svg width="50" height="50" viewBox="0 0 50 50" fill="none" xmlns="http://www.w3.org/2000/svg">
<rect width="50" height="50" rx="25" fill="#EFEFEF"/>
<path d="M25.884 12.8662C25.6496 12.6319 25.3317 12.5002 25.0002 12.5002C24.6688 12.5002 24.3509 12.6319 24.1165 12.8662L12.8665 24.1162C12.6917 24.291 12.5727 24.5137 12.5245 24.7562C12.4763 24.9986 12.501 25.2499 12.5956 25.4783C12.6902 25.7067 12.8504 25.9019 13.0559 26.0392C13.2614 26.1766 13.503 26.2499 13.7502 26.25H15.0002V35C15.0002 36.3787 16.1215 37.5 17.5002 37.5H32.5002C33.879 37.5 35.0002 36.3787 35.0002 35V26.25H36.2502C36.4977 26.2505 36.7397 26.1775 36.9456 26.0403C37.1515 25.903 37.312 25.7077 37.4067 25.4791C37.5014 25.2504 37.526 24.9988 37.4775 24.7562C37.4289 24.5136 37.3093 24.2908 37.134 24.1162L25.884 12.8662ZM32.5015 35H17.5002V23.0175L25.0002 15.5175L32.5002 23.0175V28.75L32.5015 35Z" fill="#474747"/>
<path d="M26.25 22.5H23.75V26.25H20V28.75H23.75V32.5H26.25V28.75H30V26.25H26.25V22.5Z" fill="#474747"/>
</svg>
