<svg width="20" height="20" viewBox="0 0 20 20" fill="none" xmlns="http://www.w3.org/2000/svg">
<path d="M17 3H3.66667C2.74167 3 2.00833 3.74167 2.00833 4.66667L2 14.6667C2 15.5917 2.74167 16.3333 3.66667 16.3333H17C17.925 16.3333 18.6667 15.5917 18.6667 14.6667V4.66667C18.6667 3.74167 17.925 3 17 3ZM16.1667 14.6667H4.5C4.04167 14.6667 3.66667 14.2917 3.66667 13.8333V9.66667H17V13.8333C17 14.2917 16.625 14.6667 16.1667 14.6667ZM17 6.33333H3.66667V5.5C3.66667 5.04167 4.04167 4.66667 4.5 4.66667H16.1667C16.625 4.66667 17 5.04167 17 5.5V6.33333Z" fill="#575757"/>
</svg>
