<svg width="20" height="21" viewBox="0 0 20 21" fill="none" xmlns="http://www.w3.org/2000/svg">
<path fill-rule="evenodd" clip-rule="evenodd" d="M1.83333 2C1.61232 2 1.40036 2.0878 1.24408 2.24408C1.0878 2.40036 1 2.61232 1 2.83333V14.5C1 15.6283 1.7475 16.5817 2.77417 16.8933C2.927 17.3975 3.2352 17.8405 3.65477 18.1591C4.07434 18.4777 4.58383 18.6556 5.11052 18.6674C5.63722 18.6793 6.15418 18.5244 6.58763 18.225C7.02108 17.9255 7.34885 17.4968 7.52417 17H12.8092C12.9845 17.4968 13.3123 17.9255 13.7457 18.225C14.1792 18.5244 14.6961 18.6793 15.2228 18.6674C15.7495 18.6556 16.259 18.4777 16.6786 18.1591C17.0981 17.8405 17.4063 17.3975 17.5592 16.8933C18.0725 16.7376 18.5222 16.4208 18.8417 15.9898C19.1612 15.5588 19.3335 15.0365 19.3333 14.5V11.1667C19.3333 10.6195 19.2256 10.0777 19.0162 9.57215C18.8068 9.06663 18.4999 8.6073 18.1129 8.22039C17.726 7.83348 17.2667 7.52656 16.7612 7.31717C16.2557 7.10777 15.7138 7 15.1667 7H11.8333V2.83333C11.8333 2.61232 11.7455 2.40036 11.5893 2.24408C11.433 2.0878 11.221 2 11 2H1.83333ZM12.8092 15.3333H11.8333V8.66667H15.1667C15.8297 8.66667 16.4656 8.93006 16.9344 9.3989C17.4033 9.86774 17.6667 10.5036 17.6667 11.1667V14.5C17.6666 14.721 17.5788 14.9329 17.4225 15.0892C17.2095 14.6429 16.8688 14.2698 16.4437 14.0171C16.0186 13.7644 15.5281 13.6435 15.0342 13.6696C14.5404 13.6958 14.0654 13.8678 13.6693 14.1639C13.2732 14.4601 12.9739 14.867 12.8092 15.3333ZM4.5775 15.5775C4.65437 15.4979 4.74633 15.4344 4.848 15.3907C4.94967 15.3471 5.05902 15.3241 5.16967 15.3231C5.28031 15.3222 5.39005 15.3432 5.49246 15.3851C5.59487 15.427 5.68792 15.4889 5.76616 15.5672C5.84441 15.6454 5.90628 15.7385 5.94818 15.8409C5.99009 15.9433 6.01117 16.053 6.01021 16.1637C6.00925 16.2743 5.98626 16.3837 5.94258 16.4853C5.89891 16.587 5.83542 16.679 5.75583 16.7558C5.59866 16.9076 5.38816 16.9916 5.16967 16.9897C4.95117 16.9878 4.74216 16.9002 4.58765 16.7457C4.43314 16.5912 4.3455 16.3822 4.3436 16.1637C4.34171 15.9452 4.4257 15.7347 4.5775 15.5775ZM14.3333 16.1667C14.3333 15.9457 14.4211 15.7337 14.5774 15.5774C14.7337 15.4211 14.9457 15.3333 15.1667 15.3333C15.3877 15.3333 15.5996 15.4211 15.7559 15.5774C15.9122 15.7337 16 15.9457 16 16.1667C16 16.3877 15.9122 16.5996 15.7559 16.7559C15.5996 16.9122 15.3877 17 15.1667 17C14.9457 17 14.7337 16.9122 14.5774 16.7559C14.4211 16.5996 14.3333 16.3877 14.3333 16.1667Z" fill="#575757"/>
</svg>
