<svg width="17" height="12" viewBox="0 0 17 12" fill="none" xmlns="http://www.w3.org/2000/svg">
<path fill-rule="evenodd" clip-rule="evenodd" d="M0.849996 0C1.05819 2.74638e-05 1.25913 0.0764622 1.41471 0.214807C1.57029 0.353151 1.66968 0.543784 1.69404 0.750546L1.69999 0.849996V6.79997H7.64996V2.54999C7.64999 2.3418 7.72642 2.14085 7.86477 1.98527C8.00311 1.8297 8.19375 1.7303 8.40051 1.70594L8.49996 1.69999H14.4499C15.1004 1.69996 15.7262 1.94847 16.1994 2.39468C16.6727 2.84089 16.9575 3.45107 16.9957 4.10038L16.9999 4.24998V11.0499C16.9997 11.2666 16.9167 11.475 16.768 11.6325C16.6193 11.79 16.416 11.8848 16.1997 11.8975C15.9835 11.9102 15.7705 11.8399 15.6044 11.7008C15.4382 11.5618 15.3315 11.3645 15.3059 11.1494L15.2999 11.0499V8.49996H1.69999V11.0499C1.69975 11.2666 1.61679 11.475 1.46807 11.6325C1.31935 11.79 1.11608 11.8848 0.89981 11.8975C0.683536 11.9102 0.470575 11.8399 0.304441 11.7008C0.138306 11.5618 0.0315379 11.3645 0.00594994 11.1494L0 11.0499V0.849996C0 0.624563 0.0895528 0.408363 0.248958 0.248958C0.408363 0.089553 0.624563 0 0.849996 0ZM4.67498 1.69999C5.23856 1.69999 5.77906 1.92387 6.17757 2.32239C6.57608 2.7209 6.79997 3.2614 6.79997 3.82498C6.79997 4.38856 6.57608 4.92906 6.17757 5.32758C5.77906 5.72609 5.23856 5.94997 4.67498 5.94997C4.11139 5.94997 3.5709 5.72609 3.17238 5.32758C2.77387 4.92906 2.54999 4.38856 2.54999 3.82498C2.54999 3.2614 2.77387 2.7209 3.17238 2.32239C3.5709 1.92387 4.11139 1.69999 4.67498 1.69999Z" fill="#FF5E5E"/>
</svg>
