<svg width="25" height="25" viewBox="0 0 25 25" fill="none" xmlns="http://www.w3.org/2000/svg">
<path d="M6.66659 12.5L11.6666 16.6667L18.3333 8.33337M12.4999 24.1667C10.9678 24.1667 9.45074 23.8649 8.03528 23.2786C6.61981 22.6923 5.33369 21.833 4.25034 20.7496C3.16699 19.6663 2.30763 18.3801 1.72132 16.9647C1.13502 15.5492 0.833252 14.0321 0.833252 12.5C0.833252 10.968 1.13502 9.45087 1.72132 8.0354C2.30763 6.61994 3.16699 5.33381 4.25034 4.25046C5.33369 3.16711 6.61981 2.30775 8.03528 1.72145C9.45074 1.13514 10.9678 0.833374 12.4999 0.833374C15.5941 0.833374 18.5616 2.06254 20.7495 4.25046C22.9374 6.43839 24.1666 9.40585 24.1666 12.5C24.1666 15.5942 22.9374 18.5617 20.7495 20.7496C18.5616 22.9375 15.5941 24.1667 12.4999 24.1667Z" stroke="#7E7E7E" stroke-width="1.66667"/>
</svg>
