<svg width="16" height="17" viewBox="0 0 16 17" fill="none" xmlns="http://www.w3.org/2000/svg">
<path d="M5.74359 17C4.31275 17 3.0556 16.5221 1.97213 15.5661C0.888657 14.6101 0.233305 13.4235 0.00607144 12.0063C-0.022262 11.7513 0.0485716 11.528 0.218572 11.3365C0.388572 11.1449 0.601073 11.0495 0.856074 11.05H9.80235L10.7373 2.25251C10.8082 1.615 11.081 1.08007 11.5559 0.647703C12.0308 0.215335 12.6008 -0.000565555 13.2661 1.11257e-06C13.9744 1.11257e-06 14.5765 0.247918 15.0724 0.743753C15.5682 1.23959 15.8161 1.84167 15.8161 2.55001V2.76251C15.8161 3.00334 15.7345 3.20536 15.5713 3.36856C15.4081 3.53176 15.2064 3.61308 14.9661 3.61251C14.7258 3.61194 14.5241 3.53034 14.3609 3.36771C14.1977 3.20508 14.1161 3.00334 14.1161 2.76251V2.55001C14.1161 2.30917 14.0345 2.10744 13.8713 1.94481C13.7081 1.78217 13.5064 1.70057 13.2661 1.70001C13.0394 1.70001 12.8482 1.77452 12.6924 1.92356C12.5365 2.07259 12.4444 2.25307 12.4161 2.46501L11.4386 11.7088C11.2828 13.2104 10.6665 14.4679 9.58984 15.4811C8.51318 16.4943 7.23109 17.0006 5.74359 17ZM2.70483 9.77502C2.46399 9.77502 2.29399 9.70759 2.19483 9.57272C2.09566 9.43786 2.06024 9.25737 2.08858 9.03127C2.10274 8.90377 2.11351 8.80092 2.12088 8.72272C2.12824 8.64452 2.13164 8.57029 2.13108 8.50002C2.13108 8.07502 1.98941 7.53669 1.70608 6.88502C1.42274 6.23335 1.28107 5.7446 1.28107 5.41876C1.28107 5.29126 1.28816 5.16036 1.30232 5.02606C1.31649 4.89176 1.35899 4.76058 1.42983 4.63251C1.48649 4.51918 1.56441 4.4271 1.66358 4.35626C1.76274 4.28543 1.86899 4.25001 1.98233 4.25001C2.20899 4.25001 2.38268 4.31716 2.50338 4.45146C2.62408 4.58576 2.65581 4.76653 2.59858 4.99376C2.57024 5.12126 2.55608 5.26293 2.55608 5.41876C2.55608 5.7446 2.69774 6.23335 2.98108 6.88502C3.26441 7.53669 3.40608 8.07502 3.40608 8.50002C3.40608 8.71252 3.39191 8.88961 3.36358 9.03127C3.33525 9.17294 3.29983 9.29336 3.25733 9.39252C3.20066 9.50586 3.12275 9.59794 3.02358 9.66877C2.92441 9.73961 2.81816 9.77502 2.70483 9.77502ZM8.22984 9.77502C7.98901 9.77502 7.81901 9.70759 7.71984 9.57272C7.62067 9.43786 7.58526 9.25737 7.61359 9.03127C7.62776 8.90377 7.63852 8.80092 7.64589 8.72272C7.65326 8.64452 7.65666 8.57029 7.65609 8.50002C7.65609 8.07502 7.51442 7.53669 7.23109 6.88502C6.94776 6.23335 6.80609 5.7446 6.80609 5.41876C6.80609 5.29126 6.81317 5.16036 6.82734 5.02606C6.8415 4.89176 6.88401 4.76058 6.95484 4.63251C7.01151 4.51918 7.08942 4.4271 7.18859 4.35626C7.28776 4.28543 7.39401 4.25001 7.50734 4.25001C7.73401 4.25001 7.90769 4.31716 8.02839 4.45146C8.14909 4.58576 8.18083 4.76653 8.12359 4.99376C8.09526 5.12126 8.08109 5.26293 8.08109 5.41876C8.08109 5.7446 8.22276 6.23335 8.50609 6.88502C8.78943 7.53669 8.93109 8.07502 8.93109 8.50002C8.93109 8.71252 8.91693 8.88961 8.88859 9.03127C8.86026 9.17294 8.82484 9.29336 8.78234 9.39252C8.72568 9.50586 8.64776 9.59794 8.54859 9.66877C8.44943 9.73961 8.34318 9.77502 8.22984 9.77502ZM5.46734 9.77502C5.2265 9.77502 5.0565 9.70759 4.95733 9.57272C4.85817 9.43786 4.82275 9.25737 4.85108 9.03127C4.86525 8.90377 4.87602 8.80092 4.88338 8.72272C4.89075 8.64452 4.89415 8.57029 4.89358 8.50002C4.89358 8.07502 4.75192 7.53669 4.46858 6.88502C4.18525 6.23335 4.04358 5.7446 4.04358 5.41876C4.04358 5.29126 4.05067 5.16036 4.06483 5.02606C4.079 4.89176 4.1215 4.76058 4.19233 4.63251C4.249 4.51918 4.32692 4.4271 4.42608 4.35626C4.52525 4.28543 4.6315 4.25001 4.74483 4.25001C4.9715 4.25001 5.14518 4.31716 5.26588 4.45146C5.38658 4.58576 5.41832 4.76653 5.36108 4.99376C5.33275 5.12126 5.31859 5.26293 5.31859 5.41876C5.31859 5.7446 5.46025 6.23335 5.74359 6.88502C6.02692 7.53669 6.16859 8.07502 6.16859 8.50002C6.16859 8.71252 6.15442 8.88961 6.12609 9.03127C6.09775 9.17294 6.06234 9.29336 6.01984 9.39252C5.96317 9.50586 5.88525 9.59794 5.78609 9.66877C5.68692 9.73961 5.58067 9.77502 5.46734 9.77502Z" fill="#FF5E5E"/>
</svg>
