<svg width="17" height="21" viewBox="0 0 17 21" fill="none" xmlns="http://www.w3.org/2000/svg">
<path d="M11.1195 0.619499C10.7205 0.220499 10.185 0 9.62848 0H2.1C0.944998 0 0 0.944998 0 2.1V18.9C0 20.055 0.934498 21 2.0895 21H14.7C15.855 21 16.8 20.055 16.8 18.9V7.17149C16.8 6.61499 16.5795 6.07949 16.1805 5.69099L11.1195 0.619499ZM11.55 16.8H5.24999C4.67249 16.8 4.19999 16.3275 4.19999 15.75C4.19999 15.1725 4.67249 14.7 5.24999 14.7H11.55C12.1275 14.7 12.6 15.1725 12.6 15.75C12.6 16.3275 12.1275 16.8 11.55 16.8ZM11.55 12.6H5.24999C4.67249 12.6 4.19999 12.1275 4.19999 11.55C4.19999 10.9725 4.67249 10.5 5.24999 10.5H11.55C12.1275 10.5 12.6 10.9725 12.6 11.55C12.6 12.1275 12.1275 12.6 11.55 12.6ZM9.44998 6.29999V1.575L15.225 7.34999H10.5C9.92248 7.34999 9.44998 6.87749 9.44998 6.29999Z" fill="#4D4D4D"/>
</svg>
