<svg width="19" height="20" viewBox="0 0 19 20" fill="none" xmlns="http://www.w3.org/2000/svg">
<path d="M9.99709 12.9794L11.9853 12.9794M9.99709 15.9618H12.9794M9.99709 9.99708H12.9794M9.99709 4.03239H12.9794M9.99709 7.01473H11.9853M1.05005 18.9441H5.02651M3.03828 18.9441L3.03828 1.05004M1.05005 1.05004H5.02651M9.99709 2.16842C9.99709 1.55107 10.5061 1.05004 11.1334 1.05004L16.8137 1.05004C16.9618 1.04886 17.1086 1.07685 17.2458 1.13242C17.3831 1.18798 17.508 1.27004 17.6135 1.37389C17.719 1.47774 17.803 1.60136 17.8608 1.73769C17.9185 1.87401 17.9488 2.02038 17.95 2.16842L17.95 17.95C17.95 18.2137 17.8453 18.4665 17.6588 18.6529C17.4724 18.8394 17.2196 18.9441 16.9559 18.9441L11.1334 18.9441C10.5061 18.9441 9.99709 18.4431 9.99709 17.8257L9.99709 2.16842Z" stroke="#7E7E7E" stroke-width="2" stroke-linecap="round" stroke-linejoin="round"/>
</svg>
