<svg width="21" height="19" viewBox="0 0 21 19" fill="none" xmlns="http://www.w3.org/2000/svg">
<path d="M10.5 16.9241H12.4091V4.51506L18.5124 7.13051C18.6843 7.20417 18.8307 7.32665 18.9335 7.48277C19.0363 7.63888 19.0911 7.82176 19.0909 8.00869V16.9241H21V18.8332H0V16.9241H1.90909V4.18097C1.90907 3.99628 1.96262 3.81555 2.06326 3.66069C2.1639 3.50583 2.30731 3.3835 2.47609 3.30851L9.82895 0.0411064C9.90155 0.00885483 9.98104 -0.00476681 10.0602 0.00147646C10.1394 0.00771973 10.2158 0.0336305 10.2825 0.0768595C10.3491 0.120088 10.4039 0.179268 10.4419 0.249033C10.4799 0.318798 10.4998 0.396942 10.5 0.476379V16.9241Z" fill="#7E7E7E"/>
</svg>
