<svg width="21" height="17" viewBox="0 0 21 17" fill="none" xmlns="http://www.w3.org/2000/svg">
<path d="M2.36251 0C1.73593 0 1.13502 0.248907 0.691963 0.691963C0.248906 1.13502 0 1.73593 0 2.36251V4.98752C0 5.6141 0.248906 6.21501 0.691963 6.65807C1.13502 7.10112 1.73593 7.35003 2.36251 7.35003H4.98752C5.6141 7.35003 6.21501 7.10112 6.65807 6.65807C7.10112 6.21501 7.35003 5.6141 7.35003 4.98752V2.36251C7.35003 1.73593 7.10112 1.13502 6.65807 0.691963C6.21501 0.248907 5.6141 0 4.98752 0H2.36251ZM9.71254 1.05C9.50368 1.05 9.30338 1.13297 9.15569 1.28066C9.008 1.42834 8.92503 1.62865 8.92503 1.83751C8.92503 2.04637 9.008 2.24667 9.15569 2.39436C9.30338 2.54204 9.50368 2.62501 9.71254 2.62501H20.2126C20.4214 2.62501 20.6217 2.54204 20.7694 2.39436C20.9171 2.24667 21.0001 2.04637 21.0001 1.83751C21.0001 1.62865 20.9171 1.42834 20.7694 1.28066C20.6217 1.13297 20.4214 1.05 20.2126 1.05H9.71254ZM9.71254 4.20002C9.50368 4.20002 9.30338 4.28299 9.15569 4.43067C9.008 4.57836 8.92503 4.77866 8.92503 4.98752C8.92503 5.19638 9.008 5.39668 9.15569 5.54437C9.30338 5.69205 9.50368 5.77502 9.71254 5.77502H17.0626C17.2714 5.77502 17.4717 5.69205 17.6194 5.54437C17.7671 5.39668 17.8501 5.19638 17.8501 4.98752C17.8501 4.77866 17.7671 4.57836 17.6194 4.43067C17.4717 4.28299 17.2714 4.20002 17.0626 4.20002H9.71254ZM2.36251 9.45004C1.73593 9.45004 1.13502 9.69894 0.691963 10.142C0.248906 10.5851 0 11.186 0 11.8125V14.4376C0 14.7478 0.0611081 15.055 0.179835 15.3416C0.298563 15.6283 0.472584 15.8887 0.691963 16.1081C0.911342 16.3275 1.17178 16.5015 1.45842 16.6202C1.74505 16.739 2.05226 16.8001 2.36251 16.8001H4.98752C5.29777 16.8001 5.60498 16.739 5.89161 16.6202C6.17825 16.5015 6.43869 16.3275 6.65807 16.1081C6.87744 15.8887 7.05147 15.6283 7.17019 15.3416C7.28892 15.055 7.35003 14.7478 7.35003 14.4376V11.8125C7.35003 11.186 7.10112 10.5851 6.65807 10.142C6.21501 9.69894 5.6141 9.45004 4.98752 9.45004H2.36251ZM9.71254 10.5C9.50368 10.5 9.30338 10.583 9.15569 10.7307C9.008 10.8784 8.92503 11.0787 8.92503 11.2875C8.92503 11.4964 9.008 11.6967 9.15569 11.8444C9.30338 11.9921 9.50368 12.075 9.71254 12.075H20.2126C20.4214 12.075 20.6217 11.9921 20.7694 11.8444C20.9171 11.6967 21.0001 11.4964 21.0001 11.2875C21.0001 11.0787 20.9171 10.8784 20.7694 10.7307C20.6217 10.583 20.4214 10.5 20.2126 10.5H9.71254ZM9.71254 13.6501C9.50368 13.6501 9.30338 13.733 9.15569 13.8807C9.008 14.0284 8.92503 14.2287 8.92503 14.4376C8.92503 14.6464 9.008 14.8467 9.15569 14.9944C9.30338 15.1421 9.50368 15.2251 9.71254 15.2251H17.0626C17.2714 15.2251 17.4717 15.1421 17.6194 14.9944C17.7671 14.8467 17.8501 14.6464 17.8501 14.4376C17.8501 14.2287 17.7671 14.0284 17.6194 13.8807C17.4717 13.733 17.2714 13.6501 17.0626 13.6501H9.71254Z" fill="#4D4D4D"/>
</svg>
