<svg width="15" height="19" viewBox="0 0 15 19" fill="none" xmlns="http://www.w3.org/2000/svg">
<path d="M13.3767 8.65581C13.1339 8.33913 12.8383 8.06468 12.5639 7.79023C11.8566 7.15688 11.0544 6.70297 10.3788 6.03795C8.80597 4.4968 8.45763 1.95283 9.46044 0C8.45763 0.242785 7.58149 0.79169 6.83203 1.39337C4.09806 3.58899 3.02136 7.463 4.30917 10.7881C4.3514 10.8937 4.39362 10.9992 4.39362 11.1364C4.39362 11.3687 4.23528 11.5798 4.02417 11.6642C3.78138 11.7698 3.52804 11.7065 3.32748 11.5376C3.26757 11.4874 3.21746 11.4265 3.1797 11.3581C1.98688 9.84862 1.79688 7.68467 2.59912 5.95351C0.836295 7.38911 -0.124288 9.81695 0.012938 12.1076C0.0762732 12.6354 0.139608 13.1632 0.319058 13.691C0.46684 14.3243 0.751849 14.9577 1.06852 15.5171C2.20856 17.3433 4.1825 18.6522 6.30423 18.9161C8.56319 19.2011 10.9805 18.7894 12.7116 17.2272C14.6434 15.4749 15.3189 12.667 14.3267 10.2603L14.1895 9.98585C13.9678 9.50028 13.3767 8.65581 13.3767 8.65581ZM10.041 15.306C9.74545 15.5593 9.25988 15.8338 8.87986 15.9394C7.69761 16.3616 6.51535 15.7705 5.81866 15.0738C7.07481 14.7782 7.82428 13.8493 8.04595 12.9098C8.2254 12.0654 7.88761 11.3687 7.75039 10.5559C7.62372 9.77473 7.64483 9.10971 7.92984 8.38136C8.1304 8.78248 8.34151 9.1836 8.59486 9.50028C9.40766 10.5559 10.6849 11.0203 10.9594 12.4559C11.0016 12.6037 11.0227 12.7515 11.0227 12.9098C11.0544 13.7754 10.6744 14.7254 10.041 15.306Z" fill="#F24822"/>
</svg>
