<svg width="17" height="21" viewBox="0 0 17 21" fill="none" xmlns="http://www.w3.org/2000/svg">
<path d="M14.7 0C15.2569 0 15.7911 0.221249 16.1849 0.615074C16.5787 1.0089 16.8 1.54304 16.8 2.1V18.9C16.8 19.4569 16.5787 19.9911 16.1849 20.3849C15.7911 20.7787 15.2569 21 14.7 21H2.1C1.54304 21 1.0089 20.7787 0.615074 20.3849C0.221249 19.9911 0 19.4569 0 18.9V2.1C0 1.54304 0.221249 1.0089 0.615074 0.615074C1.0089 0.221249 1.54304 0 2.1 0H14.7ZM8.39998 11.55H5.24999C4.97151 11.55 4.70444 11.6606 4.50753 11.8575C4.31062 12.0544 4.19999 12.3215 4.19999 12.6C4.19999 12.8785 4.31062 13.1455 4.50753 13.3424C4.70444 13.5393 4.97151 13.65 5.24999 13.65H8.39998C8.67846 13.65 8.94553 13.5393 9.14244 13.3424C9.33936 13.1455 9.44998 12.8785 9.44998 12.6C9.44998 12.3215 9.33936 12.0544 9.14244 11.8575C8.94553 11.6606 8.67846 11.55 8.39998 11.55ZM11.55 6.29999H5.24999C4.98237 6.30029 4.72496 6.40276 4.53035 6.58648C4.33575 6.7702 4.21864 7.02129 4.20296 7.28845C4.18728 7.55561 4.2742 7.81868 4.44597 8.02391C4.61774 8.22913 4.86139 8.36103 5.12714 8.39263L5.24999 8.39998H11.55C11.8176 8.39969 12.075 8.29721 12.2696 8.11349C12.4642 7.92978 12.5813 7.67868 12.597 7.41152C12.6127 7.14436 12.5258 6.88129 12.354 6.67606C12.1822 6.47084 11.9386 6.33895 11.6728 6.30734L11.55 6.29999Z" fill="#7E7E7E"/>
</svg>
