<svg width="17" height="21" viewBox="0 0 17 21" fill="none" xmlns="http://www.w3.org/2000/svg">
<path d="M7.65772 0.307429C7.85463 0.110582 8.12166 0 8.40008 0C8.67851 0 8.94553 0.110582 9.14244 0.307429L12.2925 3.45746C12.4837 3.65549 12.5896 3.92073 12.5872 4.19604C12.5848 4.47135 12.4744 4.7347 12.2797 4.92938C12.085 5.12406 11.8216 5.23449 11.5463 5.23688C11.271 5.23928 11.0058 5.13344 10.8078 4.94217L9.45009 3.58451V13.6499C9.45009 13.9284 9.33947 14.1955 9.14255 14.3924C8.94564 14.5893 8.67856 14.6999 8.40008 14.6999C8.1216 14.6999 7.85453 14.5893 7.65761 14.3924C7.4607 14.1955 7.35007 13.9284 7.35007 13.6499V3.58451L5.99241 4.94217C5.79437 5.13344 5.52914 5.23928 5.25383 5.23688C4.97852 5.23449 4.71516 5.12406 4.52048 4.92938C4.3258 4.7347 4.21538 4.47135 4.21298 4.19604C4.21059 3.92073 4.31643 3.65549 4.50769 3.45746L7.65772 0.307429ZM0 9.44987C0 8.89291 0.221251 8.35876 0.615082 7.96493C1.00891 7.5711 1.54306 7.34985 2.10002 7.34985H4.20004C4.47852 7.34985 4.74559 7.46047 4.94251 7.65739C5.13942 7.8543 5.25005 8.12138 5.25005 8.39986C5.25005 8.67834 5.13942 8.94541 4.94251 9.14233C4.74559 9.33924 4.47852 9.44987 4.20004 9.44987H2.10002V18.9H14.7001V9.44987H12.6001C12.3216 9.44987 12.0546 9.33924 11.8577 9.14233C11.6607 8.94541 11.5501 8.67834 11.5501 8.39986C11.5501 8.12138 11.6607 7.8543 11.8577 7.65739C12.0546 7.46047 12.3216 7.34985 12.6001 7.34985H14.7001C15.2571 7.34985 15.7913 7.5711 16.1851 7.96493C16.5789 8.35876 16.8002 8.89291 16.8002 9.44987V18.9C16.8002 19.4569 16.5789 19.9911 16.1851 20.3849C15.7913 20.7787 15.2571 21 14.7001 21H2.10002C1.54306 21 1.00891 20.7787 0.615082 20.3849C0.221251 19.9911 0 19.4569 0 18.9V9.44987Z" fill="white"/>
</svg>
