<svg width="17" height="15" viewBox="0 0 17 15" fill="none" xmlns="http://www.w3.org/2000/svg">
<path d="M0.833238 7.49992H1.66656M1.66656 7.49992H14.9997M1.66656 7.49992V9.16656C1.66656 10.1149 2.15238 11.8732 3.95402 12.3673M14.9997 7.49992C15.2207 7.49992 15.4326 7.41212 15.5889 7.25584C15.7452 7.09957 15.833 6.88761 15.833 6.6666V3.33332C15.833 2.5 15.333 0.83336 13.333 0.83336C11.3331 0.83336 10.8331 2.5 10.8331 3.33332M14.9997 7.49992V9.16656C14.9997 10.1149 14.5138 11.8732 12.7122 12.3673M10.8331 3.33332H9.16644M10.8331 3.33332H12.4997M12.7122 12.3673C12.3712 12.4584 12.0194 12.503 11.6664 12.4998H4.99984C4.60984 12.4998 4.26235 12.4523 3.95402 12.3673M12.7122 12.3673L13.333 14.1665M3.95402 12.3673L3.3332 14.1665" stroke="#FF5E5E" stroke-width="1.66667" stroke-linecap="round" stroke-linejoin="round"/>
</svg>
