<svg width="17" height="18" viewBox="0 0 17 18" fill="none" xmlns="http://www.w3.org/2000/svg">
<path d="M8.92496 11.4749H10.6249M8.92496 14.0249H11.4749M8.92496 8.92496H11.4749M8.92496 3.82498H11.4749M8.92496 6.37497H10.6249M1.27499 16.5749H4.67498M2.97499 16.5749L2.97499 1.27499M1.27499 1.27499H4.67498M8.92496 2.23124C8.92496 1.70339 9.36015 1.27499 9.8965 1.27499L14.7534 1.27499C15.2897 1.27499 15.7249 1.70339 15.7249 2.23124L15.7249 15.7249C15.7249 15.9504 15.6354 16.1666 15.476 16.326C15.3166 16.4854 15.1004 16.5749 14.8749 16.5749H9.8965C9.36015 16.5749 8.92496 16.1465 8.92496 15.6187L8.92496 2.23124Z" stroke="#FF5E5E" stroke-width="2.5" stroke-linecap="round" stroke-linejoin="round"/>
</svg>
