<svg width="50" height="73" viewBox="0 0 50 73" fill="none" xmlns="http://www.w3.org/2000/svg">
<rect width="50" height="50" rx="25" fill="#DFD3E3"/>
<path d="M36.025 24.0667L26.4583 19.8084V17.7084C26.4583 16.9063 25.8021 16.25 25 16.25C24.1979 16.25 23.5417 15.5938 23.5417 14.7917C23.5417 13.9896 24.1979 13.3334 25 13.3334C25.5542 13.3334 26.05 13.6542 26.2833 14.1063C26.5167 14.5584 27.0271 14.7917 27.5229 14.7917C28.6021 14.7917 29.3604 13.6396 28.85 12.6917C27.975 11.0875 26.1375 10.0959 24.125 10.4896C22.4187 10.825 21.0333 12.2396 20.7125 13.9459C20.2896 16.2209 21.6021 18.2188 23.5417 18.9042V19.8229L13.975 24.0813C12.6917 24.6354 11.875 25.9042 11.875 27.2896V27.3042C11.875 29.2584 13.45 30.8334 15.4042 30.8334H17.7083V36.6667C17.7083 38.2709 19.0208 39.5834 20.625 39.5834H29.375C30.9792 39.5834 32.2917 38.2709 32.2917 36.6667V30.8334H34.5958C36.55 30.8334 38.125 29.2584 38.125 27.3042V27.2896C38.125 25.9042 37.3083 24.6354 36.025 24.0667ZM34.5958 27.9167H31.8833C31.3729 27.0417 30.4542 26.4584 29.375 26.4584H20.625C19.5458 26.4584 18.6125 27.0417 18.1167 27.9167H15.4042C14.7333 27.9167 14.5583 26.9688 15.1562 26.7354L25 22.3604L34.8438 26.7354C35.4563 27.0125 35.2521 27.9167 34.5958 27.9167Z" fill="#B325E3"/>
<path d="M1.25852 70V61.2727H3.10369V68.4787H6.84517V70H1.25852ZM9.8995 70.1236C9.48189 70.1236 9.10973 70.0511 8.78303 69.9062C8.45632 69.7585 8.1978 69.5412 8.00746 69.2543C7.81996 68.9645 7.72621 68.6037 7.72621 68.1719C7.72621 67.8082 7.79297 67.5028 7.92649 67.2557C8.06001 67.0085 8.24183 66.8097 8.47195 66.6591C8.70206 66.5085 8.96342 66.3949 9.25604 66.3182C9.55149 66.2415 9.86115 66.1875 10.185 66.1562C10.5657 66.1165 10.8725 66.0795 11.1055 66.0455C11.3384 66.0085 11.5075 65.9545 11.6126 65.8835C11.7177 65.8125 11.7702 65.7074 11.7702 65.5682V65.5426C11.7702 65.2727 11.685 65.0639 11.5146 64.9162C11.3469 64.7685 11.1083 64.6946 10.7987 64.6946C10.4719 64.6946 10.212 64.767 10.0188 64.9119C9.82564 65.054 9.6978 65.233 9.6353 65.4489L7.95632 65.3125C8.04155 64.9148 8.20916 64.571 8.45916 64.2812C8.70916 63.9886 9.03161 63.7642 9.42649 63.608C9.82422 63.4489 10.2844 63.3693 10.8072 63.3693C11.1708 63.3693 11.5188 63.4119 11.8512 63.4972C12.1864 63.5824 12.4833 63.7145 12.7418 63.8935C13.0032 64.0724 13.2092 64.3026 13.3597 64.5838C13.5103 64.8622 13.5856 65.196 13.5856 65.5852V70H11.864V69.0923H11.8129C11.7077 69.2969 11.5671 69.4773 11.391 69.6335C11.2148 69.7869 11.0032 69.9077 10.756 69.9957C10.5089 70.081 10.2234 70.1236 9.8995 70.1236ZM10.4194 68.8707C10.6864 68.8707 10.9222 68.8182 11.1268 68.7131C11.3313 68.6051 11.4918 68.4602 11.6083 68.2784C11.7248 68.0966 11.783 67.8906 11.783 67.6605V66.9659C11.7262 67.0028 11.6481 67.0369 11.5487 67.0682C11.4521 67.0966 11.3427 67.1236 11.2205 67.1491C11.0984 67.1719 10.9762 67.1932 10.854 67.2131C10.7319 67.2301 10.6211 67.2457 10.5217 67.2599C10.3086 67.2912 10.1225 67.3409 9.96342 67.4091C9.80433 67.4773 9.68075 67.5696 9.59268 67.6861C9.50462 67.7997 9.46058 67.9418 9.46058 68.1122C9.46058 68.3594 9.55007 68.5483 9.72905 68.679C9.91087 68.8068 10.141 68.8707 10.4194 68.8707ZM19.1914 67.2131V63.4545H21.0067V70H19.2638V68.8111H19.1957C19.0479 69.1946 18.8022 69.5028 18.4585 69.7358C18.1175 69.9687 17.7013 70.0852 17.2099 70.0852C16.7724 70.0852 16.3874 69.9858 16.055 69.7869C15.7227 69.5881 15.4627 69.3054 15.2752 68.9389C15.0906 68.5724 14.9968 68.1335 14.994 67.6222V63.4545H16.8093V67.2983C16.8121 67.6847 16.9158 67.9901 17.1204 68.2145C17.3249 68.4389 17.5991 68.5511 17.9428 68.5511C18.1616 68.5511 18.3661 68.5014 18.5565 68.402C18.7468 68.2997 18.9002 68.1491 19.0167 67.9503C19.136 67.7514 19.1942 67.5057 19.1914 67.2131ZM24.2741 66.2159V70H22.4588V63.4545H24.1889V64.6094H24.2656C24.4105 64.2287 24.6534 63.9276 24.9943 63.706C25.3352 63.4815 25.7486 63.3693 26.2344 63.3693C26.6889 63.3693 27.0852 63.4688 27.4233 63.6676C27.7614 63.8665 28.0241 64.1506 28.2116 64.5199C28.3991 64.8864 28.4929 65.3239 28.4929 65.8324V70H26.6776V66.1562C26.6804 65.7557 26.5781 65.4432 26.3707 65.2188C26.1634 64.9915 25.8778 64.8778 25.5142 64.8778C25.2699 64.8778 25.054 64.9304 24.8665 65.0355C24.6818 65.1406 24.5369 65.294 24.4318 65.4957C24.3295 65.6946 24.277 65.9347 24.2741 66.2159ZM32.3356 70.1065C31.8384 70.1065 31.3881 69.9787 30.9847 69.723C30.5842 69.4645 30.266 69.0852 30.0302 68.5852C29.7972 68.0824 29.6808 67.4659 29.6808 66.7358C29.6808 65.9858 29.8015 65.3622 30.043 64.8651C30.2844 64.3651 30.6055 63.9915 31.006 63.7443C31.4094 63.4943 31.8512 63.3693 32.3313 63.3693C32.6978 63.3693 33.0032 63.4318 33.2475 63.5568C33.4947 63.679 33.6935 63.8324 33.8441 64.017C33.9975 64.1989 34.114 64.3778 34.1935 64.554H34.2489V61.2727H36.06V70H34.2702V68.9517H34.1935C34.1083 69.1335 33.9876 69.3139 33.8313 69.4929C33.6779 69.669 33.4776 69.8153 33.2305 69.9318C32.9862 70.0483 32.6879 70.1065 32.3356 70.1065ZM32.9109 68.6619C33.2035 68.6619 33.4506 68.5824 33.6523 68.4233C33.8569 68.2614 34.0131 68.0355 34.1211 67.7457C34.2319 67.456 34.2873 67.1165 34.2873 66.7273C34.2873 66.3381 34.2333 66 34.1254 65.7131C34.0174 65.4261 33.8612 65.2045 33.6566 65.0483C33.4521 64.892 33.2035 64.8139 32.9109 64.8139C32.6126 64.8139 32.3612 64.8949 32.1566 65.0568C31.9521 65.2187 31.7972 65.4432 31.6921 65.7301C31.587 66.017 31.5344 66.3494 31.5344 66.7273C31.5344 67.108 31.587 67.4446 31.6921 67.7372C31.8001 68.027 31.9549 68.2543 32.1566 68.419C32.3612 68.581 32.6126 68.6619 32.9109 68.6619ZM37.5526 70V63.4545H39.3125V64.5966H39.3807C39.5 64.1903 39.7003 63.8835 39.9815 63.6761C40.2628 63.4659 40.5866 63.3608 40.9531 63.3608C41.044 63.3608 41.142 63.3665 41.2472 63.3778C41.3523 63.3892 41.4446 63.4048 41.5241 63.4247V65.0355C41.4389 65.0099 41.321 64.9872 41.1705 64.9673C41.0199 64.9474 40.8821 64.9375 40.7571 64.9375C40.4901 64.9375 40.2514 64.9957 40.0412 65.1122C39.8338 65.2259 39.669 65.3849 39.5469 65.5895C39.4276 65.794 39.3679 66.0298 39.3679 66.2969V70H37.5526ZM43.7827 72.4545C43.5526 72.4545 43.3366 72.4361 43.1349 72.3991C42.9361 72.3651 42.7713 72.321 42.6406 72.267L43.0497 70.9119C43.2628 70.9773 43.4545 71.0128 43.625 71.0185C43.7983 71.0241 43.9474 70.9844 44.0724 70.8991C44.2003 70.8139 44.304 70.669 44.3835 70.4645L44.4901 70.1875L42.142 63.4545H44.0511L45.4062 68.2614H45.4744L46.8423 63.4545H48.7642L46.2202 70.7074C46.098 71.0597 45.9318 71.3665 45.7216 71.6278C45.5142 71.892 45.2514 72.0952 44.9332 72.2372C44.6151 72.3821 44.2315 72.4545 43.7827 72.4545Z" fill="#383838"/>
</svg>
