<svg preserveAspectRatio="none" width="100%" height="100%" overflow="visible" style="display: block;" viewBox="0 0 12 15" fill="none" xmlns="http://www.w3.org/2000/svg">
<path id="Vector" d="M5.91964 0C7.48963 0 8.99531 0.623675 10.1055 1.73382C11.2156 2.84397 11.8393 4.34966 11.8393 5.91964C11.8393 8.42107 10.0816 11.1471 6.61179 14.127C6.41885 14.2927 6.17286 14.3838 5.91851 14.3835C5.66416 14.3833 5.41832 14.2919 5.22568 14.1258L4.99618 13.9266C1.67996 11.0245 0 8.36521 0 5.91964C0 4.34966 0.623675 2.84397 1.73382 1.73382C2.84397 0.623675 4.34966 0 5.91964 0ZM5.91964 0.910714C4.59119 0.910714 3.31715 1.43844 2.3778 2.3778C1.43844 3.31715 0.910714 4.59119 0.910714 5.91964C0.910714 8.04586 2.45771 10.4957 5.59421 13.24L5.82068 13.4361C5.84821 13.4597 5.88333 13.4728 5.91964 13.4728C5.95596 13.4728 5.99107 13.4597 6.01861 13.4361C9.30689 10.6116 10.9286 8.09625 10.9286 5.91964C10.9286 5.26186 10.799 4.61052 10.5473 4.00281C10.2956 3.3951 9.92661 2.84292 9.46149 2.3778C8.99637 1.91267 8.44419 1.54372 7.83648 1.292C7.22877 1.04027 6.57742 0.910714 5.91964 0.910714ZM5.91964 3.64286C6.52348 3.64286 7.10259 3.88273 7.52957 4.30971C7.95655 4.73669 8.19643 5.3158 8.19643 5.91964C8.19643 6.52348 7.95655 7.10259 7.52957 7.52957C7.10259 7.95655 6.52348 8.19643 5.91964 8.19643C5.3158 8.19643 4.73669 7.95655 4.30971 7.52957C3.88273 7.10259 3.64286 6.52348 3.64286 5.91964C3.64286 5.3158 3.88273 4.73669 4.30971 4.30971C4.73669 3.88273 5.3158 3.64286 5.91964 3.64286ZM5.91964 4.55357C5.55734 4.55357 5.20987 4.6975 4.95368 4.95368C4.6975 5.20987 4.55357 5.55734 4.55357 5.91964C4.55357 6.28195 4.6975 6.62941 4.95368 6.8856C5.20987 7.14179 5.55734 7.28571 5.91964 7.28571C6.28195 7.28571 6.62941 7.14179 6.8856 6.8856C7.14179 6.62941 7.28571 6.28195 7.28571 5.91964C7.28571 5.55734 7.14179 5.20987 6.8856 4.95368C6.62941 4.6975 6.28195 4.55357 5.91964 4.55357Z" fill="var(--fill-0, #FF0000)"/>
</svg>
