<svg width="17" height="17" viewBox="0 0 17 17" fill="none" xmlns="http://www.w3.org/2000/svg">
<path d="M8.49997 1.36609C10.07 1.36609 11.5756 1.98976 12.6858 3.09991C13.7959 4.21006 14.4196 5.71574 14.4196 7.28573C14.4196 9.78716 12.6619 12.5132 9.19211 15.4931C8.99917 15.6588 8.75318 15.7499 8.49883 15.7496C8.24448 15.7494 7.99865 15.658 7.806 15.4919L7.5765 15.2927C4.26029 12.3906 2.58032 9.7313 2.58032 7.28573C2.58032 5.71574 3.204 4.21006 4.31415 3.09991C5.42429 1.98976 6.92998 1.36609 8.49997 1.36609ZM8.49997 2.2768C7.17151 2.2768 5.89747 2.80453 4.95812 3.74388C4.01876 4.68324 3.49104 5.95728 3.49104 7.28573C3.49104 9.41195 5.03804 11.8618 8.17454 14.6061L8.401 14.8022C8.42854 14.8258 8.46365 14.8389 8.49997 14.8389C8.53628 14.8389 8.57139 14.8258 8.59893 14.8022C11.8872 11.9777 13.5089 9.46234 13.5089 7.28573C13.5089 6.62795 13.3793 5.97661 13.1276 5.3689C12.8759 4.76119 12.5069 4.20901 12.0418 3.74388C11.5767 3.27876 11.0245 2.90981 10.4168 2.65809C9.80909 2.40636 9.15775 2.2768 8.49997 2.2768ZM8.49997 5.00895C9.10381 5.00895 9.68292 5.24882 10.1099 5.6758C10.5369 6.10278 10.7768 6.68189 10.7768 7.28573C10.7768 7.88957 10.5369 8.46868 10.1099 8.89566C9.68292 9.32264 9.10381 9.56252 8.49997 9.56252C7.89612 9.56252 7.31701 9.32264 6.89003 8.89566C6.46305 8.46868 6.22318 7.88957 6.22318 7.28573C6.22318 6.68189 6.46305 6.10278 6.89003 5.6758C7.31701 5.24882 7.89612 5.00895 8.49997 5.00895ZM8.49997 5.91966C8.13766 5.91966 7.79019 6.06359 7.53401 6.31977C7.27782 6.57596 7.13389 6.92343 7.13389 7.28573C7.13389 7.64804 7.27782 7.9955 7.53401 8.25169C7.79019 8.50788 8.13766 8.6518 8.49997 8.6518C8.86227 8.6518 9.20974 8.50788 9.46592 8.25169C9.72211 7.9955 9.86604 7.64804 9.86604 7.28573C9.86604 6.92343 9.72211 6.57596 9.46592 6.31977C9.20974 6.06359 8.86227 5.91966 8.49997 5.91966Z" fill="#FF0000"/>
</svg>
