<svg width="15" height="20" viewBox="0 0 15 20" fill="none" xmlns="http://www.w3.org/2000/svg">
<path fill-rule="evenodd" clip-rule="evenodd" d="M7.99431 19.4902L7.98514 19.492L7.92598 19.5241L7.90931 19.5278L7.89764 19.5241L7.83848 19.492C7.82959 19.4889 7.82292 19.4905 7.81848 19.4966L7.81514 19.5058L7.80098 19.8982L7.80514 19.9165L7.81348 19.9284L7.90014 19.9963L7.91264 19.9999L7.92264 19.9963L8.00931 19.9284L8.01931 19.9137L8.02264 19.8982L8.00848 19.5067C8.00625 19.4969 8.00153 19.4914 7.99431 19.4902ZM8.21514 19.3866L8.20431 19.3884L8.05014 19.4737L8.04181 19.4828L8.03931 19.4929L8.05431 19.8872L8.05848 19.8982L8.06514 19.9046L8.23264 19.9898C8.2432 19.9929 8.25125 19.9905 8.25681 19.9825L8.26014 19.9697L8.23181 19.4067C8.22903 19.3957 8.22348 19.389 8.21514 19.3866ZM7.61931 19.3884C7.61564 19.3859 7.61125 19.3852 7.60706 19.3862C7.60286 19.3872 7.59919 19.39 7.59681 19.3939L7.59181 19.4067L7.56348 19.9697C7.56403 19.9807 7.56875 19.988 7.57764 19.9917L7.59014 19.9898L7.75764 19.9046L7.76598 19.8972L7.76931 19.8872L7.78348 19.4929L7.78098 19.4819L7.77264 19.4727L7.61931 19.3884Z" fill="white"/>
<path fill-rule="evenodd" clip-rule="evenodd" d="M7.5 0C9.48912 0 11.3968 0.869363 12.8033 2.41684C14.2098 3.96431 15 6.06314 15 8.25161C15 11.07 13.6033 13.3768 12.1317 15.0317C11.3964 15.8496 10.5941 16.5911 9.735 17.2468L9.38 17.5127L9.21333 17.6346L8.89917 17.8546L8.61917 18.0426L8.2725 18.2645C8.0372 18.4122 7.77094 18.49 7.5 18.49C7.22906 18.49 6.9628 18.4122 6.7275 18.2645L6.38083 18.0426L5.9475 17.7492L5.7875 17.6346L5.44583 17.3843C4.51903 16.6944 3.65575 15.9064 2.86833 15.0317C1.39667 13.3759 0 11.07 0 8.25161C0 6.06314 0.790176 3.96431 2.1967 2.41684C3.60322 0.869363 5.51088 0 7.5 0ZM7.5 1.83369C5.9529 1.83369 4.46917 2.50986 3.37521 3.71345C2.28125 4.91705 1.66667 6.54947 1.66667 8.25161C1.66667 10.3805 2.72667 12.249 4.05917 13.749C4.63211 14.3871 5.25138 14.9728 5.91083 15.5002L6.2925 15.7991C6.41583 15.8938 6.53444 15.9818 6.64833 16.0631L6.97333 16.2923L7.25917 16.484L7.5 16.6389L7.87917 16.3923L8.185 16.1814C8.34778 16.0677 8.52194 15.9403 8.7075 15.7991L9.08917 15.5002C9.74862 14.9728 10.3679 14.3871 10.9408 13.749C12.2733 12.25 13.3333 10.3805 13.3333 8.25161C13.3333 6.54947 12.7188 4.91705 11.6248 3.71345C10.5308 2.50986 9.0471 1.83369 7.5 1.83369ZM7.5 4.58422C8.38406 4.58422 9.2319 4.97061 9.85702 5.65838C10.4821 6.34614 10.8333 7.27895 10.8333 8.25161C10.8333 9.22425 10.4821 10.1571 9.85702 10.8448C9.2319 11.5326 8.38406 11.919 7.5 11.919C6.61594 11.919 5.7681 11.5326 5.14298 10.8448C4.51786 10.1571 4.16667 9.22425 4.16667 8.25161C4.16667 7.27895 4.51786 6.34614 5.14298 5.65838C5.7681 4.97061 6.61594 4.58422 7.5 4.58422ZM7.5 6.41791C7.05797 6.41791 6.63405 6.61111 6.32149 6.95499C6.00893 7.29887 5.83333 7.76528 5.83333 8.25161C5.83333 8.73793 6.00893 9.20434 6.32149 9.54822C6.63405 9.8921 7.05797 10.0853 7.5 10.0853C7.94203 10.0853 8.36595 9.8921 8.67851 9.54822C8.99107 9.20434 9.16667 8.73793 9.16667 8.25161C9.16667 7.76528 8.99107 7.29887 8.67851 6.95499C8.36595 6.61111 7.94203 6.41791 7.5 6.41791Z" fill="white"/>
</svg>
