<svg width="17" height="17" viewBox="0 0 17 17" fill="none" xmlns="http://www.w3.org/2000/svg">
<path d="M8.50021 1.36597C10.0702 1.36597 11.5759 1.98964 12.686 3.09979C13.7962 4.20994 14.4199 5.71562 14.4199 7.28561C14.4199 9.78704 12.6622 12.5131 9.19235 15.493C8.99942 15.6587 8.75342 15.7497 8.49907 15.7495C8.24472 15.7493 7.99889 15.6578 7.80625 15.4918L7.57675 15.2926C4.26053 12.3905 2.58057 9.73118 2.58057 7.28561C2.58057 5.71562 3.20424 4.20994 4.31439 3.09979C5.42454 1.98964 6.93022 1.36597 8.50021 1.36597ZM8.50021 2.27668C7.17176 2.27668 5.89772 2.80441 4.95836 3.74376C4.01901 4.68312 3.49128 5.95716 3.49128 7.28561C3.49128 9.41182 5.03828 11.8616 8.17478 14.6059L8.40125 14.802C8.42878 14.8257 8.46389 14.8387 8.50021 14.8387C8.53653 14.8387 8.57164 14.8257 8.59917 14.802C11.8875 11.9776 13.5091 9.46222 13.5091 7.28561C13.5091 6.62783 13.3796 5.97649 13.1279 5.36878C12.8761 4.76106 12.5072 4.20888 12.0421 3.74376C11.5769 3.27864 11.0248 2.90969 10.417 2.65796C9.80933 2.40624 9.15799 2.27668 8.50021 2.27668ZM8.50021 5.00882C9.10405 5.00882 9.68316 5.2487 10.1101 5.67568C10.5371 6.10266 10.777 6.68177 10.777 7.28561C10.777 7.88945 10.5371 8.46856 10.1101 8.89554C9.68316 9.32252 9.10405 9.5624 8.50021 9.5624C7.89637 9.5624 7.31726 9.32252 6.89028 8.89554C6.4633 8.46856 6.22342 7.88945 6.22342 7.28561C6.22342 6.68177 6.4633 6.10266 6.89028 5.67568C7.31726 5.2487 7.89637 5.00882 8.50021 5.00882ZM8.50021 5.91954C8.1379 5.91954 7.79044 6.06346 7.53425 6.31965C7.27806 6.57584 7.13414 6.92331 7.13414 7.28561C7.13414 7.64791 7.27806 7.99538 7.53425 8.25157C7.79044 8.50776 8.1379 8.65168 8.50021 8.65168C8.86251 8.65168 9.20998 8.50776 9.46617 8.25157C9.72236 7.99538 9.86628 7.64791 9.86628 7.28561C9.86628 6.92331 9.72236 6.57584 9.46617 6.31965C9.20998 6.06346 8.86251 5.91954 8.50021 5.91954Z" fill="#FF0000"/>
</svg>
