<svg width="189" height="57" viewBox="0 0 189 57" fill="none" xmlns="http://www.w3.org/2000/svg">
<g filter="url(#filter0_d_0_772)">
<path d="M29.1887 18.0839C30.4324 18.0839 31.4215 18.3954 32.1558 19.0175C32.8909 19.64 33.3811 20.3944 33.626 21.2804C33.8704 22.1668 33.8613 23.0623 33.5976 23.9675C33.3339 24.8727 32.8341 25.6368 32.0991 26.2589C31.3648 26.8809 30.3944 27.1924 29.1887 27.1924C27.9814 27.1924 27.0102 26.8809 26.2751 26.2589C25.5408 25.6368 25.0511 24.8823 24.8066 23.9959C24.5617 23.1099 24.5617 22.214 24.8066 21.3088C25.0511 20.4036 25.5408 19.64 26.2751 19.0175C27.0102 18.3954 27.9814 18.0839 29.1887 18.0839Z" fill="#FFDE59"/>
<path d="M10 16.8527V10.3422H21.7831V42.8479H15.3233V16.8527H10Z" fill="#044870" fill-opacity="0.302"/>
<path d="M10 15.2025V8.69198H21.7831V41.1976H15.3233V15.2025H10Z" fill="#073A6A"/>
<path d="M10 13.5522V7.04172H21.7831V39.5474H15.3233V13.5522H10Z" fill="white"/>
<path d="M52.0552 19.7809C51.6347 19.5496 51.1249 19.3292 50.5266 19.1196C49.928 18.9092 49.1349 18.804 48.147 18.804C46.8641 18.804 45.7707 19.0512 44.8662 19.5454C43.9626 20.0397 43.2379 20.6972 42.6918 21.5174C42.1453 22.3369 41.7778 23.2356 41.5888 24.2141C41.3994 25.1918 41.3994 26.1695 41.5888 27.1479C41.7778 28.1256 42.1453 29.0244 42.6918 29.8446C43.2379 30.6653 43.9626 31.3224 44.8662 31.8167C45.7707 32.3109 46.8641 32.558 48.147 32.558C49.1349 32.558 50.0014 32.4424 50.7469 32.2107C51.4933 31.9795 52.0769 31.7582 52.4974 31.5478L53.0965 36.2165C52.4023 36.4904 51.6034 36.7171 50.7002 36.8961C49.7966 37.0744 48.9455 37.1633 48.147 37.1633C46.2333 37.1633 44.5617 36.8427 43.1324 36.2015C41.7039 35.5595 40.5112 34.6916 39.5546 33.5983C38.5988 32.5054 37.8846 31.2807 37.4119 29.9248C36.9388 28.5681 36.7027 27.1638 36.7027 25.7119C36.7027 24.2605 36.9388 22.8566 37.4119 21.5007C37.8846 20.144 38.5988 18.9188 39.5546 17.8255C40.5112 16.7327 41.7039 15.8652 43.1324 15.224C44.5617 14.582 46.2333 14.2606 48.147 14.2606C49.7857 14.2606 51.2667 14.5553 52.5909 15.1439L52.0552 19.7809Z" fill="#0E165B"/>
<path d="M52.0552 18.6373C51.6347 18.4061 51.1249 18.1857 50.5266 17.9761C49.928 17.7657 49.1349 17.6605 48.147 17.6605C46.8641 17.6605 45.7707 17.9076 44.8662 18.4019C43.9626 18.8961 43.2379 19.5536 42.6918 20.3739C42.1453 21.1933 41.7778 22.0921 41.5888 23.0706C41.3994 24.0483 41.3994 25.0259 41.5888 26.0044C41.7778 26.9821 42.1453 27.8808 42.6918 28.7011C43.2379 29.5218 43.9626 30.1789 44.8662 30.6731C45.7707 31.1674 46.8641 31.4145 48.147 31.4145C49.1349 31.4145 50.0014 31.2989 50.7469 31.0672C51.4933 30.8359 52.0769 30.6147 52.4974 30.4043L53.0965 35.073C52.4023 35.3468 51.6034 35.5735 50.7002 35.7526C49.7966 35.9309 48.9455 36.0198 48.147 36.0198C46.2333 36.0198 44.5617 35.6992 43.1324 35.058C41.7039 34.4159 40.5112 33.5481 39.5546 32.4548C38.5988 31.3619 37.8846 30.1371 37.4119 28.7813C36.9388 27.4246 36.7027 26.0203 36.7027 24.5684C36.7027 23.1169 36.9388 21.7131 37.4119 20.3572C37.8846 19.0005 38.5988 17.7753 39.5546 16.682C40.5112 15.5891 41.7039 14.7217 43.1324 14.0805C44.5617 13.4385 46.2333 13.117 48.147 13.117C49.7857 13.117 51.2667 13.4117 52.5909 14.0003L52.0552 18.6373Z" fill="#093066"/>
<path d="M52.0552 17.4938C51.6347 17.2625 51.1249 17.0421 50.5266 16.8326C49.928 16.6222 49.1349 16.517 48.147 16.517C46.8641 16.517 45.7707 16.7641 44.8662 17.2584C43.9626 17.7526 43.2379 18.4101 42.6918 19.2304C42.1453 20.0498 41.7778 20.9486 41.5888 21.9271C41.3994 22.9047 41.3994 23.8824 41.5888 24.8609C41.7778 25.8385 42.1453 26.7373 42.6918 27.5576C43.2379 28.3783 43.9626 29.0353 44.8662 29.5296C45.7707 30.0238 46.8641 30.271 48.147 30.271C49.1349 30.271 50.0014 30.1553 50.7469 29.9237C51.4933 29.6924 52.0769 29.4712 52.4974 29.2608L53.0965 33.9295C52.4023 34.2033 51.6034 34.43 50.7002 34.6091C49.7966 34.7873 48.9455 34.8762 48.147 34.8762C46.2333 34.8762 44.5617 34.5556 43.1324 33.9144C41.7039 33.2724 40.5112 32.4045 39.5546 31.3113C38.5988 30.2184 37.8846 28.9936 37.4119 27.6377C36.9388 26.281 36.7027 24.8767 36.7027 23.4249C36.7027 21.9734 36.9388 20.5695 37.4119 19.2137C37.8846 17.857 38.5988 16.6318 39.5546 15.5385C40.5112 14.4456 41.7039 13.5782 43.1324 12.937C44.5617 12.2949 46.2333 11.9735 48.147 11.9735C49.7857 11.9735 51.2667 12.2682 52.5909 12.8568L52.0552 17.4938Z" fill="white"/>
<path d="M66.3266 39.0643C64.0946 39.0643 62.1364 38.6882 60.4509 37.9355C58.7655 37.1833 57.3645 36.1701 56.249 34.8965C55.1342 33.6233 54.2974 32.1856 53.7392 30.5835C53.1818 28.9817 52.9031 27.3374 52.9031 25.6509C52.9031 23.9645 53.1818 22.321 53.7392 20.7201C54.2974 19.1183 55.1342 17.6806 56.249 16.407C57.3645 15.1326 58.7655 14.119 60.4509 13.3663C62.1364 12.6141 64.0946 12.2376 66.3266 12.2376C68.5569 12.2376 70.5152 12.6141 72.2006 13.3663C73.8861 14.119 75.2866 15.1326 76.4026 16.407C77.5181 17.6806 78.355 19.1183 78.9124 20.7201C79.4706 22.321 79.7501 23.9645 79.7501 25.6509C79.7501 27.3374 79.4706 28.9817 78.9124 30.5835C78.355 32.1856 77.5181 33.6233 76.4026 34.8965C75.2866 36.1701 73.8861 37.1833 72.2006 37.9355C70.5152 38.6882 68.5569 39.0643 66.3266 39.0643ZM66.3266 33.6776C67.806 33.6776 69.0792 33.3866 70.1464 32.8043C71.2131 32.2211 72.0613 31.4501 72.6912 30.4916C73.322 29.5332 73.7463 28.4841 73.9645 27.3441C74.1835 26.2032 74.1835 25.0627 73.9645 23.9227C73.7463 22.7818 73.322 21.732 72.6912 20.7735C72.0613 19.815 71.2131 19.0449 70.1464 18.4625C69.0792 17.8806 67.806 17.5892 66.3266 17.5892C64.8468 17.5892 63.5736 17.8806 62.5068 18.4625C61.4396 19.0449 60.5911 19.815 59.9603 20.7735C59.3295 21.732 58.9048 22.7818 58.687 23.9227C58.4688 25.0627 58.4688 26.2032 58.687 27.3441C58.9048 28.4841 59.3295 29.5332 59.9603 30.4916C60.5911 31.4501 61.4396 32.2211 62.5068 32.8043C63.5736 33.3866 64.8468 33.6776 66.3266 33.6776Z" fill="#0E165B"/>
<path d="M66.3266 37.7449C64.0946 37.7449 62.1364 37.3687 60.4509 36.6161C58.7655 35.8638 57.3645 34.8507 56.249 33.5771C55.1342 32.3039 54.2974 30.8662 53.7392 29.264C53.1818 27.6623 52.9031 26.018 52.9031 24.3315C52.9031 22.645 53.1818 21.0015 53.7392 19.4006C54.2974 17.7989 55.1342 16.3612 56.249 15.0876C57.3645 13.8131 58.7655 12.7996 60.4509 12.0469C62.1364 11.2947 64.0946 10.9181 66.3266 10.9181C68.5569 10.9181 70.5152 11.2947 72.2006 12.0469C73.8861 12.7996 75.2866 13.8131 76.4026 15.0876C77.5181 16.3612 78.355 17.7989 78.9124 19.4006C79.4706 21.0015 79.7501 22.645 79.7501 24.3315C79.7501 26.018 79.4706 27.6623 78.9124 29.264C78.355 30.8662 77.5181 32.3039 76.4026 33.5771C75.2866 34.8507 73.8861 35.8638 72.2006 36.6161C70.5152 37.3687 68.5569 37.7449 66.3266 37.7449ZM66.3266 32.3581C67.806 32.3581 69.0792 32.0672 70.1464 31.4848C71.2131 30.9017 72.0613 30.1306 72.6912 29.1722C73.322 28.2137 73.7463 27.1647 73.9645 26.0246C74.1835 24.8838 74.1835 23.7433 73.9645 22.6033C73.7463 21.4624 73.322 20.4125 72.6912 19.4541C72.0613 18.4956 71.2131 17.7254 70.1464 17.1431C69.0792 16.5612 67.806 16.2698 66.3266 16.2698C64.8468 16.2698 63.5736 16.5612 62.5068 17.1431C61.4396 17.7254 60.5911 18.4956 59.9603 19.4541C59.3295 20.4125 58.9048 21.4624 58.687 22.6033C58.4688 23.7433 58.4688 24.8838 58.687 26.0246C58.9048 27.1647 59.3295 28.2137 59.9603 29.1722C60.5911 30.1306 61.4396 30.9017 62.5068 31.4848C63.5736 32.0672 64.8468 32.3581 66.3266 32.3581Z" fill="#093066"/>
<path d="M66.3266 36.4254C64.0946 36.4254 62.1364 36.0493 60.4509 35.2966C58.7655 34.5444 57.3645 33.5312 56.249 32.2576C55.1342 30.9844 54.2974 29.5467 53.7392 27.9446C53.1818 26.3428 52.9031 24.6985 52.9031 23.012C52.9031 21.3256 53.1818 19.6821 53.7392 18.0812C54.2974 16.4794 55.1342 15.0417 56.249 13.7681C57.3645 12.4937 58.7655 11.4801 60.4509 10.7274C62.1364 9.9752 64.0946 9.59867 66.3266 9.59867C68.5569 9.59867 70.5152 9.9752 72.2006 10.7274C73.8861 11.4801 75.2866 12.4937 76.4026 13.7681C77.5181 15.0417 78.355 16.4794 78.9124 18.0812C79.4706 19.6821 79.7501 21.3256 79.7501 23.012C79.7501 24.6985 79.4706 26.3428 78.9124 27.9446C78.355 29.5467 77.5181 30.9844 76.4026 32.2576C75.2866 33.5312 73.8861 34.5444 72.2006 35.2966C70.5152 36.0493 68.5569 36.4254 66.3266 36.4254ZM66.3266 31.0387C67.806 31.0387 69.0792 30.7477 70.1464 30.1654C71.2131 29.5822 72.0613 28.8112 72.6912 27.8527C73.322 26.8943 73.7463 25.8452 73.9645 24.7052C74.1835 23.5643 74.1835 22.4238 73.9645 21.2838C73.7463 20.1429 73.322 19.0931 72.6912 18.1346C72.0613 17.1761 71.2131 16.406 70.1464 15.8236C69.0792 15.2417 67.806 14.9503 66.3266 14.9503C64.8468 14.9503 63.5736 15.2417 62.5068 15.8236C61.4396 16.406 60.5911 17.1761 59.9603 18.1346C59.3295 19.0931 58.9048 20.1429 58.687 21.2838C58.4688 22.4238 58.4688 23.5643 58.687 24.7052C58.9048 25.8452 59.3295 26.8943 59.9603 27.8527C60.5911 28.8112 61.4396 29.5822 62.5068 30.1654C63.5736 30.7477 64.8468 31.0387 66.3266 31.0387Z" fill="white"/>
<path d="M87.3513 24.8645V42.3271H80.9366V9.55592H82.6404L98.8374 28.4111V10.2739H105.297V43H103.593L87.3513 24.8645Z" fill="#0E175C"/>
<path d="M87.3513 23.2372V40.6997H80.9366V7.92859H82.6404L98.8374 26.7838V8.6466H105.297V41.3727H103.593L87.3513 23.2372Z" fill="#073A6A"/>
<path d="M87.3513 21.6098V39.0724H80.9366V6.30127H82.6404L98.8374 25.1565V7.01928H105.297V39.7453H103.593L87.3513 21.6098Z" fill="white"/>
<path d="M113.268 24.5632V42.0258H106.853V9.25468H108.557L124.754 28.1099V9.97269H131.214V42.6988H129.51L113.268 24.5632Z" fill="#0E175C"/>
<path d="M113.268 22.9359V40.3985H106.853V7.62734H108.557L124.754 26.4825V8.34535H131.214V41.0714H129.51L113.268 22.9359Z" fill="#073A6A"/>
<path d="M113.268 21.3086V38.7712H106.853V6H108.557L124.754 24.8552V6.71801H131.214V39.4441H129.51L113.268 21.3086Z" fill="white"/>
<path d="M146.027 38.7003H132.567V12.6751H145.59V17.8798H137.768V23.0845H144.607V28.2892H137.768V33.4956H146.027V38.7003Z" fill="#0E165B"/>
<path d="M146.027 37.3808H132.567V11.3556H145.59V16.5603H137.768V21.765H144.607V26.9697H137.768V32.1761H146.027V37.3808Z" fill="#093066"/>
<path d="M146.027 36.0614H132.567V10.0361H145.59V15.2408H137.768V20.4456H144.607V25.6503H137.768V30.8567H146.027V36.0614Z" fill="white"/>
<path d="M161.861 19.7809C161.441 19.5496 160.931 19.3292 160.333 19.1196C159.734 18.9092 158.941 18.804 157.953 18.804C156.67 18.804 155.577 19.0512 154.672 19.5454C153.768 20.0397 153.044 20.6972 152.498 21.5174C151.951 22.3369 151.584 23.2356 151.395 24.2141C151.205 25.1918 151.205 26.1695 151.395 27.1479C151.584 28.1256 151.951 29.0244 152.498 29.8446C153.044 30.6653 153.768 31.3224 154.672 31.8167C155.577 32.3109 156.67 32.558 157.953 32.558C158.941 32.558 159.807 32.4424 160.553 32.2107C161.299 31.9795 161.883 31.7582 162.303 31.5478L162.902 36.2165C162.208 36.4904 161.409 36.7171 160.506 36.8961C159.602 37.0744 158.751 37.1633 157.953 37.1633C156.039 37.1633 154.368 36.8427 152.938 36.2015C151.51 35.5595 150.317 34.6916 149.36 33.5983C148.405 32.5054 147.69 31.2807 147.218 29.9248C146.745 28.5681 146.509 27.1638 146.509 25.7119C146.509 24.2605 146.745 22.8566 147.218 21.5007C147.69 20.144 148.405 18.9188 149.36 17.8255C150.317 16.7327 151.51 15.8652 152.938 15.224C154.368 14.582 156.039 14.2606 157.953 14.2606C159.592 14.2606 161.073 14.5553 162.397 15.1439L161.861 19.7809Z" fill="#0E165B"/>
<path d="M161.861 18.6373C161.441 18.4061 160.931 18.1857 160.333 17.9761C159.734 17.7657 158.941 17.6605 157.953 17.6605C156.67 17.6605 155.577 17.9076 154.672 18.4019C153.768 18.8961 153.044 19.5536 152.498 20.3739C151.951 21.1933 151.584 22.0921 151.395 23.0706C151.205 24.0483 151.205 25.0259 151.395 26.0044C151.584 26.9821 151.951 27.8808 152.498 28.7011C153.044 29.5218 153.768 30.1789 154.672 30.6731C155.577 31.1674 156.67 31.4145 157.953 31.4145C158.941 31.4145 159.807 31.2989 160.553 31.0672C161.299 30.8359 161.883 30.6147 162.303 30.4043L162.902 35.073C162.208 35.3468 161.409 35.5735 160.506 35.7526C159.602 35.9309 158.751 36.0198 157.953 36.0198C156.039 36.0198 154.368 35.6992 152.938 35.058C151.51 34.4159 150.317 33.5481 149.36 32.4548C148.405 31.3619 147.69 30.1371 147.218 28.7813C146.745 27.4246 146.509 26.0203 146.509 24.5684C146.509 23.1169 146.745 21.7131 147.218 20.3572C147.69 19.0005 148.405 17.7753 149.36 16.682C150.317 15.5891 151.51 14.7217 152.938 14.0805C154.368 13.4385 156.039 13.117 157.953 13.117C159.592 13.117 161.073 13.4117 162.397 14.0003L161.861 18.6373Z" fill="#093066"/>
<path d="M161.861 17.4938C161.441 17.2625 160.931 17.0421 160.333 16.8326C159.734 16.6222 158.941 16.517 157.953 16.517C156.67 16.517 155.577 16.7641 154.672 17.2584C153.768 17.7526 153.044 18.4101 152.498 19.2304C151.951 20.0498 151.584 20.9486 151.395 21.9271C151.205 22.9047 151.205 23.8824 151.395 24.8609C151.584 25.8385 151.951 26.7373 152.498 27.5576C153.044 28.3783 153.768 29.0353 154.672 29.5296C155.577 30.0238 156.67 30.271 157.953 30.271C158.941 30.271 159.807 30.1553 160.553 29.9237C161.299 29.6924 161.883 29.4712 162.303 29.2608L162.902 33.9295C162.208 34.2033 161.409 34.43 160.506 34.6091C159.602 34.7873 158.751 34.8762 157.953 34.8762C156.039 34.8762 154.368 34.5556 152.938 33.9144C151.51 33.2724 150.317 32.4045 149.36 31.3113C148.405 30.2184 147.69 28.9936 147.218 27.6377C146.745 26.281 146.509 24.8767 146.509 23.4249C146.509 21.9734 146.745 20.5695 147.218 19.2137C147.69 17.857 148.405 16.6318 149.36 15.5385C150.317 14.4456 151.51 13.5782 152.938 12.937C154.368 12.2949 156.039 11.9735 157.953 11.9735C159.592 11.9735 161.073 12.2682 162.397 12.8568L161.861 17.4938Z" fill="white"/>
<path d="M173.388 37.0829H168.881V19.0393H163.269V14.5592H179V19.0393H173.388V37.0829Z" fill="#0E165B"/>
<path d="M173.388 35.9394H168.881V17.8957H163.269V13.4157H179V17.8957H173.388V35.9394Z" fill="#093066"/>
<path d="M173.388 34.7959H168.881V16.7522H163.269V12.2722H179V16.7522H173.388V34.7959Z" fill="white"/>
</g>
<defs>
<filter id="filter0_d_0_772" x="0" y="0" width="189" height="57" filterUnits="userSpaceOnUse" color-interpolation-filters="sRGB">
<feFlood flood-opacity="0" result="BackgroundImageFix"/>
<feColorMatrix in="SourceAlpha" type="matrix" values="0 0 0 0 0 0 0 0 0 0 0 0 0 0 0 0 0 0 127 0" result="hardAlpha"/>
<feOffset dy="4"/>
<feGaussianBlur stdDeviation="5"/>
<feComposite in2="hardAlpha" operator="out"/>
<feColorMatrix type="matrix" values="0 0 0 0 0 0 0 0 0 0 0 0 0 0 0 0 0 0 0.25 0"/>
<feBlend mode="normal" in2="BackgroundImageFix" result="effect1_dropShadow_0_772"/>
<feBlend mode="normal" in="SourceGraphic" in2="effect1_dropShadow_0_772" result="shape"/>
</filter>
</defs>
</svg>
