<svg width="50" height="73" viewBox="0 0 50 73" fill="none" xmlns="http://www.w3.org/2000/svg">
<rect width="50" height="50" rx="25" fill="#BDD0FF"/>
<path d="M34.2 13.4L35.975 15.175L28.825 22.3125C30.1625 24.2375 30.35 26.55 29.225 28.05L21.325 20.15C22.825 19.025 25.1375 19.2125 27.0625 20.55L34.2 13.4ZM17.4125 31.9625C14.9 29.45 13.3625 26.45 12.9375 23.65L19.0375 21.0375L28.3375 30.3375L25.725 36.4375C22.925 36.0125 19.925 34.475 17.4125 31.9625Z" fill="#3D74FF"/>
<path d="M11.2585 61.2727H13.5341L15.9375 67.1364H16.0398L18.4432 61.2727H20.7188V70H18.929V64.3196H18.8565L16.598 69.9574H15.3793L13.1207 64.2983H13.0483V70H11.2585V61.2727ZM24.0714 70.1236C23.6538 70.1236 23.2816 70.0511 22.9549 69.9062C22.6282 69.7585 22.3697 69.5412 22.1793 69.2543C21.9918 68.9645 21.8981 68.6037 21.8981 68.1719C21.8981 67.8082 21.9648 67.5028 22.0984 67.2557C22.2319 67.0085 22.4137 66.8097 22.6438 66.6591C22.8739 66.5085 23.1353 66.3949 23.4279 66.3182C23.7234 66.2415 24.033 66.1875 24.3569 66.1562C24.7376 66.1165 25.0444 66.0795 25.2773 66.0455C25.5103 66.0085 25.6793 65.9545 25.7844 65.8835C25.8896 65.8125 25.9421 65.7074 25.9421 65.5682V65.5426C25.9421 65.2727 25.8569 65.0639 25.6864 64.9162C25.5188 64.7685 25.2802 64.6946 24.9705 64.6946C24.6438 64.6946 24.3839 64.767 24.1907 64.9119C23.9975 65.054 23.8697 65.233 23.8072 65.4489L22.1282 65.3125C22.2134 64.9148 22.381 64.571 22.631 64.2812C22.881 63.9886 23.2035 63.7642 23.5984 63.608C23.9961 63.4489 24.4563 63.3693 24.979 63.3693C25.3427 63.3693 25.6907 63.4119 26.0231 63.4972C26.3583 63.5824 26.6552 63.7145 26.9137 63.8935C27.1751 64.0724 27.381 64.3026 27.5316 64.5838C27.6822 64.8622 27.7575 65.196 27.7575 65.5852V70H26.0359V69.0923H25.9847C25.8796 69.2969 25.739 69.4773 25.5629 69.6335C25.3867 69.7869 25.1751 69.9077 24.9279 69.9957C24.6808 70.081 24.3952 70.1236 24.0714 70.1236ZM24.5913 68.8707C24.8583 68.8707 25.0941 68.8182 25.2987 68.7131C25.5032 68.6051 25.6637 68.4602 25.7802 68.2784C25.8967 68.0966 25.9549 67.8906 25.9549 67.6605V66.9659C25.8981 67.0028 25.82 67.0369 25.7205 67.0682C25.6239 67.0966 25.5146 67.1236 25.3924 67.1491C25.2702 67.1719 25.1481 67.1932 25.0259 67.2131C24.9038 67.2301 24.793 67.2457 24.6935 67.2599C24.4805 67.2912 24.2944 67.3409 24.1353 67.4091C23.9762 67.4773 23.8526 67.5696 23.7646 67.6861C23.6765 67.7997 23.6325 67.9418 23.6325 68.1122C23.6325 68.3594 23.7219 68.5483 23.9009 68.679C24.0827 68.8068 24.3129 68.8707 24.5913 68.8707ZM29.1658 70V63.4545H30.9812V70H29.1658ZM30.0778 62.6108C29.8079 62.6108 29.5763 62.5213 29.3832 62.3423C29.1928 62.1605 29.0977 61.9432 29.0977 61.6903C29.0977 61.4403 29.1928 61.2259 29.3832 61.0469C29.5763 60.8651 29.8079 60.7741 30.0778 60.7741C30.3477 60.7741 30.5778 60.8651 30.7681 61.0469C30.9613 61.2259 31.0579 61.4403 31.0579 61.6903C31.0579 61.9432 30.9613 62.1605 30.7681 62.3423C30.5778 62.5213 30.3477 62.6108 30.0778 62.6108ZM34.8473 70.1065C34.3501 70.1065 33.8999 69.9787 33.4964 69.723C33.0959 69.4645 32.7777 69.0852 32.5419 68.5852C32.3089 68.0824 32.1925 67.4659 32.1925 66.7358C32.1925 65.9858 32.3132 65.3622 32.5547 64.8651C32.7962 64.3651 33.1172 63.9915 33.5178 63.7443C33.9212 63.4943 34.3629 63.3693 34.843 63.3693C35.2095 63.3693 35.5149 63.4318 35.7592 63.5568C36.0064 63.679 36.2053 63.8324 36.3558 64.017C36.5092 64.1989 36.6257 64.3778 36.7053 64.554H36.7607V61.2727H38.5717V70H36.782V68.9517H36.7053C36.62 69.1335 36.4993 69.3139 36.343 69.4929C36.1896 69.669 35.9893 69.8153 35.7422 69.9318C35.4979 70.0483 35.1996 70.1065 34.8473 70.1065ZM35.4226 68.6619C35.7152 68.6619 35.9624 68.5824 36.1641 68.4233C36.3686 68.2614 36.5249 68.0355 36.6328 67.7457C36.7436 67.456 36.799 67.1165 36.799 66.7273C36.799 66.3381 36.745 66 36.6371 65.7131C36.5291 65.4261 36.3729 65.2045 36.1683 65.0483C35.9638 64.892 35.7152 64.8139 35.4226 64.8139C35.1243 64.8139 34.8729 64.8949 34.6683 65.0568C34.4638 65.2187 34.3089 65.4432 34.2038 65.7301C34.0987 66.017 34.0462 66.3494 34.0462 66.7273C34.0462 67.108 34.0987 67.4446 34.2038 67.7372C34.3118 68.027 34.4666 68.2543 34.6683 68.419C34.8729 68.581 35.1243 68.6619 35.4226 68.6619Z" fill="#383838"/>
</svg>
