<svg width="19" height="15" viewBox="0 0 19 15" fill="none" xmlns="http://www.w3.org/2000/svg">
<path d="M10.5764 0.397359C10.8309 0.14293 11.176 0 11.5359 0C11.8958 0 12.2409 0.14293 12.4954 0.397359L18.6026 6.5046C18.8571 6.7591 19 7.10424 19 7.46411C19 7.82398 18.8571 8.16912 18.6026 8.42362L12.4954 14.5309C12.2394 14.7781 11.8966 14.9149 11.5408 14.9118C11.1849 14.9087 10.8445 14.766 10.5929 14.5143C10.3413 14.2627 10.1985 13.9223 10.1955 13.5665C10.1924 13.2106 10.3292 12.8678 10.5764 12.6118L14.2502 8.82127H1.35716C0.997221 8.82127 0.652022 8.67829 0.397504 8.42377C0.142986 8.16925 0 7.82405 0 7.46411C0 7.10417 0.142986 6.75897 0.397504 6.50445C0.652022 6.24993 0.997221 6.10695 1.35716 6.10695H14.2502L10.5764 2.31639C10.3219 2.06188 10.179 1.71674 10.179 1.35687C10.179 0.997003 10.3219 0.651865 10.5764 0.397359Z" fill="white"/>
</svg>
