<svg width="25" height="25" viewBox="0 0 25 25" fill="none" xmlns="http://www.w3.org/2000/svg">
<path d="M7.03596 0L16.7017 4.4089L23.9074 0.651925V10.1478H21.5167V4.68563L17.9306 6.55539V10.1478H15.5398V6.60027L8.3676 3.32943V16.8578L11.1707 18.3187L10.1009 20.55L7.22482 19.0492L0 23.5678V5.13687L7.03596 0ZM5.97686 16.9214V3.81557L2.39074 6.43324V19.1638L5.97686 16.9214ZM18.2294 14.5106C18.8793 14.5106 19.5147 14.7116 20.0551 15.088C20.5956 15.4644 21.0169 15.9995 21.2659 16.6255C21.5148 17.2516 21.5802 17.9405 21.4538 18.6053C21.3274 19.2701 21.0148 19.8809 20.5556 20.3605L20.546 20.3705C20.163 20.7677 19.6919 21.0604 19.1745 21.2225C18.6571 21.3847 18.1094 21.4114 17.5797 21.3003C17.0501 21.1892 16.5549 20.9437 16.1379 20.5854C15.7209 20.2272 15.395 19.7673 15.1891 19.2465C14.9831 18.7257 14.9035 18.1599 14.9571 17.5993C15.0108 17.0388 15.1961 16.5006 15.4967 16.0325C15.7973 15.5644 16.2039 15.1807 16.6805 14.9155C17.1572 14.6503 17.6892 14.5116 18.2294 14.5119M23.0013 21.1495C23.7612 19.9211 24.0585 18.443 23.8358 16.9998C23.6132 15.5566 22.8865 14.2502 21.7956 13.3322C20.7047 12.4143 19.3267 11.9495 17.9269 12.0275C16.527 12.1056 15.2044 12.7208 14.2135 13.7548C13.2226 14.7888 12.6336 16.1685 12.5597 17.6282C12.4859 19.088 12.9326 20.5246 13.8136 21.6616C14.6947 22.7985 15.948 23.5554 17.3322 23.7865C18.7164 24.0176 20.1336 23.7066 21.3111 22.9133L23.3074 25L25 23.2399L23.0013 21.1495Z" fill="black"/>
</svg>
