<svg width="25" height="25" viewBox="0 0 25 25" fill="none" xmlns="http://www.w3.org/2000/svg">
<g clip-path="url(#clip0_3933_6510)">
<path d="M2.08333 21.875C1.51042 21.875 1.02014 21.6712 0.6125 21.2635C0.204861 20.8559 0.000694444 20.3653 0 19.7917V5.20833C0 4.63542 0.204167 4.14514 0.6125 3.7375C1.02083 3.32986 1.51111 3.12569 2.08333 3.125H22.9167C23.4896 3.125 23.9802 3.32917 24.3885 3.7375C24.7969 4.14583 25.0007 4.63611 25 5.20833V19.7917C25 20.3646 24.7962 20.8552 24.3885 21.2635C23.9809 21.6719 23.4903 21.8757 22.9167 21.875H2.08333ZM9.375 14.5833C10.2431 14.5833 10.9809 14.2795 11.5885 13.6719C12.1962 13.0642 12.5 12.3264 12.5 11.4583C12.5 10.5903 12.1962 9.85243 11.5885 9.24479C10.9809 8.63715 10.2431 8.33333 9.375 8.33333C8.50694 8.33333 7.7691 8.63715 7.16146 9.24479C6.55382 9.85243 6.25 10.5903 6.25 11.4583C6.25 12.3264 6.55382 13.0642 7.16146 13.6719C7.7691 14.2795 8.50694 14.5833 9.375 14.5833ZM19.7917 18.75L21.875 16.6667L20.3125 14.5833H18.5938C18.4896 14.2708 18.4028 13.9368 18.3333 13.5812C18.2639 13.2257 18.2292 12.8653 18.2292 12.5C18.2292 12.1347 18.2639 11.7833 18.3333 11.4458C18.4028 11.1083 18.4896 10.7653 18.5938 10.4167H20.3125L21.875 8.33333L19.7917 6.25C18.8542 6.97917 18.099 7.90382 17.526 9.02396C16.9531 10.1441 16.6667 11.3028 16.6667 12.5C16.6667 13.6972 16.9531 14.8562 17.526 15.9771C18.099 17.0979 18.8542 18.0222 19.7917 18.75ZM2.1875 19.7917H16.5625C15.8333 18.4896 14.8264 17.4698 13.5417 16.7323C12.2569 15.9948 10.8681 15.6257 9.375 15.625C7.88194 15.6243 6.49306 15.9934 5.20833 16.7323C3.92361 17.4712 2.91667 18.491 2.1875 19.7917Z" fill="#474747"/>
</g>
<defs>
<clipPath id="clip0_3933_6510">
<rect width="25" height="25" fill="white"/>
</clipPath>
</defs>
</svg>
