<svg width="20" height="21" viewBox="0 0 20 21" fill="none" xmlns="http://www.w3.org/2000/svg">
<path d="M4.97917 18.6667C4.53472 18.6667 4.16306 18.5 3.86417 18.1667C3.56528 17.8333 3.44389 17.4444 3.5 17H6.89583L7.72917 13.6667H9.39583L10.6458 8.66667H4.54167L4.77083 6.79167C4.82639 6.375 5.01389 6.02778 5.33333 5.75C5.65278 5.47222 6.02083 5.33333 6.4375 5.33333H8.08333C8.19444 4.29167 8.55222 3.47583 9.15667 2.88583C9.76111 2.29583 10.5839 2.00056 11.625 2C12.5139 2 13.2536 2.33 13.8442 2.99C14.4347 3.65 14.7228 4.43111 14.7083 5.33333H16.8333C17.3333 5.33333 17.75 5.52083 18.0833 5.89583C18.4167 6.27083 18.5486 6.70833 18.4792 7.20833L17.2292 17.2083C17.1736 17.625 16.9894 17.9722 16.6767 18.25C16.3639 18.5278 15.9994 18.6667 15.5833 18.6667H4.97917ZM1 15.3333L1.41667 13.6667H6L5.58333 15.3333H1ZM2.66667 12L3.08333 10.3333H8.5L8.08333 12H2.66667ZM9.75 5.33333H13.0625C13.0764 4.875 12.9203 4.48278 12.5942 4.15667C12.2681 3.83056 11.8756 3.66722 11.4167 3.66667C10.9306 3.66667 10.545 3.81611 10.26 4.115C9.975 4.41389 9.805 4.82 9.75 5.33333Z" fill="#575757"/>
</svg>
