<svg width="98" height="98" viewBox="0 0 98 98" fill="none" xmlns="http://www.w3.org/2000/svg">
<path d="M94.9846 94.9846L64.3282 64.3282M38.7812 54.1094V54.1605M3.01538 38.7812C3.01538 43.478 3.9405 48.1289 5.7379 52.4682C7.5353 56.8075 10.1698 60.7503 13.4909 64.0714C16.8121 67.3926 20.7549 70.0271 25.0942 71.8245C29.4335 73.6219 34.0844 74.547 38.7812 74.547C43.478 74.547 48.1289 73.6219 52.4682 71.8245C56.8075 70.0271 60.7503 67.3926 64.0714 64.0714C67.3926 60.7503 70.0271 56.8075 71.8245 52.4682C73.6219 48.1289 74.547 43.478 74.547 38.7812C74.547 34.0844 73.6219 29.4335 71.8245 25.0942C70.0271 20.7549 67.3926 16.8121 64.0714 13.4909C60.7503 10.1698 56.8075 7.53529 52.4682 5.73789C48.1289 3.94049 43.478 3.01538 38.7812 3.01538C34.0844 3.01538 29.4335 3.94049 25.0942 5.73789C20.7549 7.53529 16.8121 10.1698 13.4909 13.4909C10.1698 16.8121 7.5353 20.7549 5.7379 25.0942C3.9405 29.4335 3.01538 34.0844 3.01538 38.7812Z" stroke="#3195AB" stroke-width="6" stroke-linecap="round" stroke-linejoin="round"/>
</svg>
