<svg width="122" height="122" viewBox="0 0 122 122" fill="none" xmlns="http://www.w3.org/2000/svg">
<rect x="1" y="1.5" width="101" height="102" rx="20" fill="#EEF2F5"/>
<path d="M106.75 105.75L76.25 75.25M50.8333 65.0833V65.1342M15.25 49.8333C15.25 54.5062 16.1704 59.1333 17.9586 63.4505C19.7469 67.7677 22.3679 71.6903 25.6721 74.9945C28.9763 78.2988 32.899 80.9198 37.2162 82.708C41.5334 84.4963 46.1605 85.4167 50.8333 85.4167C55.5062 85.4167 60.1333 84.4963 64.4505 82.708C68.7677 80.9198 72.6903 78.2988 75.9945 74.9945C79.2988 71.6903 81.9198 67.7677 83.708 63.4505C85.4963 59.1333 86.4167 54.5062 86.4167 49.8333C86.4167 45.1605 85.4963 40.5334 83.708 36.2162C81.9198 31.899 79.2988 27.9763 75.9945 24.6721C72.6903 21.3679 68.7677 18.7468 64.4505 16.9586C60.1333 15.1704 55.5062 14.25 50.8333 14.25C46.1605 14.25 41.5334 15.1704 37.2162 16.9586C32.899 18.7468 28.9763 21.3679 25.6721 24.6721C22.3679 27.9763 19.7469 31.899 17.9586 36.2162C16.1704 40.5334 15.25 45.1605 15.25 49.8333Z" stroke="#3195AB" stroke-width="6" stroke-linecap="round" stroke-linejoin="round"/>
<path d="M49.929 58C52.1212 58.0011 54.2785 57.4532 56.2021 56.4069C58.1257 55.3605 59.7537 53.8494 60.9363 52.0125C62.1188 50.1757 62.8178 48.0723 62.9689 45.896C63.12 43.7198 62.7183 41.5407 61.8009 39.5595C60.8834 37.5783 59.4797 35.8587 57.719 34.559C55.9583 33.2594 53.8973 32.4215 51.7257 32.1226C49.5542 31.8237 47.3419 32.0734 45.2928 32.8486C43.2436 33.6238 41.4235 34.8997 40 36.5587" stroke="#3195AB" stroke-width="6" stroke-linecap="round" stroke-linejoin="round"/>
</svg>
