<svg width="32" height="38" viewBox="0 0 32 38" fill="none" xmlns="http://www.w3.org/2000/svg">
<path fill-rule="evenodd" clip-rule="evenodd" d="M16 3.07158e-08C15.4904 -6.59942e-05 14.9867 0.106311 14.5231 0.311923C14.0595 0.517534 13.6468 0.817575 13.3129 1.19171C12.9791 1.56585 12.732 2.00533 12.5883 2.48039C12.4446 2.95544 12.4076 3.45496 12.48 3.94509C9.90289 4.68349 7.64096 6.21244 6.03235 8.30338C4.42373 10.3943 3.55484 12.9349 3.55556 15.5455V29.3636H1.77778C1.30628 29.3636 0.854097 29.5456 0.520699 29.8695C0.187301 30.1935 0 30.6328 0 31.0909C0 31.549 0.187301 31.9883 0.520699 32.3123C0.854097 32.6362 1.30628 32.8182 1.77778 32.8182H30.2222C30.6937 32.8182 31.1459 32.6362 31.4793 32.3123C31.8127 31.9883 32 31.549 32 31.0909C32 30.6328 31.8127 30.1935 31.4793 29.8695C31.1459 29.5456 30.6937 29.3636 30.2222 29.3636H28.4444V15.5455C28.4452 12.9349 27.5763 10.3943 25.9677 8.30338C24.359 6.21244 22.0971 4.68349 19.52 3.94509C19.5437 3.78388 19.5556 3.62036 19.5556 3.45455C19.5556 2.53834 19.181 1.65967 18.5142 1.01181C17.8474 0.36396 16.943 3.07158e-08 16 3.07158e-08ZM19.5556 36.2727C19.5556 36.7308 19.3683 37.1702 19.0349 37.4941C18.7015 37.818 18.2493 38 17.7778 38H14.2222C13.7507 38 13.2985 37.818 12.9651 37.4941C12.6317 37.1702 12.4444 36.7308 12.4444 36.2727C12.4444 35.8146 12.6317 35.3753 12.9651 35.0514C13.2985 34.7274 13.7507 34.5455 14.2222 34.5455H17.7778C18.2493 34.5455 18.7015 34.7274 19.0349 35.0514C19.3683 35.3753 19.5556 35.8146 19.5556 36.2727Z" fill="#FFCD29"/>
</svg>
