<svg width="19" height="21" viewBox="0 0 19 21" fill="none" xmlns="http://www.w3.org/2000/svg">
<path d="M15.75 21C14.875 21 14.1312 20.6937 13.5187 20.0812C12.9062 19.4687 12.6 18.725 12.6 17.85C12.6 17.745 12.6262 17.5 12.6787 17.115L5.30249 12.81C5.02249 13.0725 4.69874 13.2783 4.33124 13.4274C3.96374 13.5765 3.56999 13.6507 3.14999 13.65C2.275 13.65 1.53125 13.3437 0.918748 12.7312C0.306249 12.1187 0 11.375 0 10.5C0 9.62498 0.306249 8.88123 0.918748 8.26873C1.53125 7.65623 2.275 7.34999 3.14999 7.34999C3.56999 7.34999 3.96374 7.42454 4.33124 7.57364C4.69874 7.72274 5.02249 7.92818 5.30249 8.18998L12.6787 3.88499C12.6437 3.76249 12.622 3.64454 12.6136 3.53114C12.6052 3.41774 12.6007 3.29069 12.6 3.14999C12.6 2.275 12.9062 1.53125 13.5187 0.918748C14.1312 0.306249 14.875 0 15.75 0C16.625 0 17.3687 0.306249 17.9812 0.918748C18.5937 1.53125 18.9 2.275 18.9 3.14999C18.9 4.02499 18.5937 4.76874 17.9812 5.38124C17.3687 5.99374 16.625 6.29999 15.75 6.29999C15.33 6.29999 14.9362 6.22544 14.5687 6.07634C14.2012 5.92724 13.8775 5.72179 13.5975 5.45999L6.22124 9.76498C6.25624 9.88748 6.27829 10.0058 6.28739 10.1199C6.29649 10.234 6.30069 10.3607 6.29999 10.5C6.29929 10.6393 6.29509 10.7663 6.28739 10.8811C6.27969 10.9959 6.25764 11.1139 6.22124 11.235L13.5975 15.54C13.8775 15.2775 14.2012 15.072 14.5687 14.9236C14.9362 14.7752 15.33 14.7007 15.75 14.7C16.625 14.7 17.3687 15.0062 17.9812 15.6187C18.5937 16.2312 18.9 16.975 18.9 17.85C18.9 18.725 18.5937 19.4687 17.9812 20.0812C17.3687 20.6937 16.625 21 15.75 21ZM15.75 18.9C16.0475 18.9 16.297 18.7995 16.4986 18.5986C16.7002 18.3977 16.8007 18.1482 16.8 17.85C16.7993 17.5518 16.6985 17.3026 16.4976 17.1024C16.2967 16.9022 16.0475 16.8014 15.75 16.8C15.4525 16.7986 15.2033 16.8994 15.0024 17.1024C14.8015 17.3054 14.7007 17.5546 14.7 17.85C14.6993 18.1454 14.8001 18.3949 15.0024 18.5986C15.2047 18.8023 15.4539 18.9028 15.75 18.9ZM3.14999 11.55C3.44749 11.55 3.69704 11.4492 3.89864 11.2476C4.10024 11.046 4.20069 10.7968 4.19999 10.5C4.19929 10.2032 4.09849 9.95398 3.89759 9.75238C3.69669 9.55078 3.44749 9.44998 3.14999 9.44998C2.85249 9.44998 2.6033 9.55078 2.4024 9.75238C2.2015 9.95398 2.1007 10.2032 2.1 10.5C2.0993 10.7968 2.2001 11.0463 2.4024 11.2486C2.60469 11.4509 2.85389 11.5514 3.14999 11.55ZM15.75 4.19999C16.0475 4.19999 16.297 4.09919 16.4986 3.89759C16.7002 3.69599 16.8007 3.44679 16.8 3.14999C16.7993 2.85319 16.6985 2.60399 16.4976 2.4024C16.2967 2.2008 16.0475 2.1 15.75 2.1C15.4525 2.1 15.2033 2.2008 15.0024 2.4024C14.8015 2.60399 14.7007 2.85319 14.7 3.14999C14.6993 3.44679 14.8001 3.69634 15.0024 3.89864C15.2047 4.10094 15.4539 4.20139 15.75 4.19999Z" fill="#156385"/>
</svg>
