<svg width="46" height="21" viewBox="0 0 46 21" fill="none" xmlns="http://www.w3.org/2000/svg">
<path d="M17.5 14.8725H19.25V16.6222H1.75V14.8725H3.5V8.74852C3.5 6.89231 4.2375 5.11214 5.55025 3.7996C6.86301 2.48707 8.64348 1.74969 10.5 1.74969C12.3565 1.74969 14.137 2.48707 15.4497 3.7996C16.7625 5.11214 17.5 6.89231 17.5 8.74852V14.8725ZM7.875 18.3719H13.125V20.1216H7.875V18.3719Z" fill="#FFCD29"/>
<path d="M44.05 5.35171L36 0.704163L27.95 5.35171V14.6451L36 19.2927L44.05 14.6451V5.35171ZM36 13.3312C35.1159 13.3312 34.268 12.9801 33.6429 12.3551C33.0178 11.73 32.6666 10.8823 32.6666 9.99843C32.6666 9.11452 33.0178 8.26682 33.6429 7.6418C34.268 7.01679 35.1159 6.66566 36 6.66566C36.884 6.66566 37.7319 7.01679 38.357 7.6418C38.9821 8.26682 39.3333 9.11452 39.3333 9.99843C39.3333 10.8823 38.9821 11.73 38.357 12.3551C37.7319 12.9801 36.884 13.3312 36 13.3312Z" fill="white"/>
</svg>
