<svg width="13" height="12" viewBox="0 0 13 12" fill="none" xmlns="http://www.w3.org/2000/svg">
<path d="M0 1.5C0 1.08516 0.383036 0.75 0.857143 0.75H3C5.12946 0.75 6.85714 2.26172 6.85714 4.125C6.85714 5.50313 5.91429 6.68672 4.56161 7.21172L5.93839 10.2211C6.11518 10.6055 5.90089 11.0414 5.46161 11.1961C5.02232 11.3508 4.52411 11.1633 4.34732 10.7789L2.84732 7.5H1.71429V10.5C1.71429 10.9148 1.33125 11.25 0.857143 11.25C0.383036 11.25 0 10.9148 0 10.5V1.5ZM1.71429 6H3C4.18393 6 5.14286 5.16094 5.14286 4.125C5.14286 3.08906 4.18393 2.25 3 2.25H1.71429V6ZM8.58482 6.38437C8.56071 6.525 8.58482 6.58828 8.59554 6.61406C8.60625 6.63984 8.63304 6.675 8.70804 6.72891C8.90089 6.8625 9.20893 6.96328 9.72321 7.12266L9.75803 7.13437C10.1866 7.26562 10.7946 7.45312 11.25 7.79297C11.5045 7.98281 11.7295 8.22891 11.8687 8.55C12.0054 8.87109 12.0321 9.21797 11.9705 9.58125C11.858 10.2398 11.4214 10.7367 10.7973 11.0086C10.2054 11.2664 9.50893 11.3016 8.83661 11.1961H8.83125C8.58214 11.1539 8.28214 11.0625 8.04643 10.9852C7.88571 10.9313 7.70893 10.8703 7.57232 10.8234C7.50536 10.8 7.44911 10.7812 7.40357 10.7648C6.96161 10.6148 6.74464 10.1789 6.91607 9.79453C7.0875 9.41016 7.58304 9.21797 8.025 9.36797C8.09464 9.39141 8.16429 9.41484 8.23661 9.44062C8.36518 9.48516 8.49911 9.53203 8.64911 9.58125C8.88482 9.65859 9.05893 9.70781 9.15 9.72187C9.57054 9.7875 9.86518 9.74063 10.0312 9.66797C10.1652 9.60938 10.2455 9.52734 10.275 9.36328C10.3018 9.20156 10.2804 9.11719 10.2616 9.075C10.2455 9.03516 10.2134 8.99062 10.1411 8.93672C9.95625 8.80078 9.65357 8.69297 9.15268 8.53828L9.07232 8.5125C8.65714 8.38594 8.08125 8.20781 7.64464 7.90547C7.39018 7.72969 7.15446 7.49297 7.00982 7.17891C6.8625 6.86484 6.83303 6.52266 6.89196 6.16641C7.11696 4.82812 8.68661 4.33828 10.0232 4.55156C10.208 4.58203 10.7545 4.6875 10.9714 4.74844C11.4241 4.87031 11.6759 5.29219 11.5366 5.68828C11.3973 6.08437 10.9152 6.30469 10.4625 6.18281C10.3366 6.15 9.86518 6.05391 9.71518 6.03047C9.32411 5.96719 9.02411 6.02109 8.84196 6.10547C8.67321 6.18281 8.60357 6.28359 8.5875 6.38672L8.58482 6.38437Z" fill="#1E1E1E"/>
</svg>
