<svg width="238" height="68" viewBox="0 0 238 68" fill="none" xmlns="http://www.w3.org/2000/svg">
<g filter="url(#filter0_d_2922_7953)">
<path d="M34.7478 21.6763C36.3517 21.6763 37.6274 22.0803 38.5743 22.8872C39.5223 23.6946 40.1545 24.6732 40.4704 25.8223C40.7857 26.972 40.7738 28.1336 40.4338 29.3077C40.0937 30.4817 39.4492 31.4727 38.5011 32.2796C37.5542 33.0865 36.3027 33.4905 34.7478 33.4905C33.1907 33.4905 31.9381 33.0865 30.9901 32.2796C30.0431 31.4727 29.4115 30.4942 29.0962 29.3445C28.7803 28.1953 28.7803 27.0332 29.0962 25.8592C29.4115 24.6851 30.0431 23.6946 30.9901 22.8872C31.9381 22.0803 33.1907 21.6763 34.7478 21.6763Z" fill="#FFDE59"/>
</g>
<g filter="url(#filter1_d_2922_7953)">
<path d="M10.0006 20.0792V11.6334H25.1971V53.8018H16.8661V20.0792H10.0006Z" fill="#044870" fill-opacity="0.302"/>
</g>
<g filter="url(#filter2_d_2922_7953)">
<path d="M10.0006 17.9385V9.49268H25.1971V51.661H16.8661V17.9385H10.0006Z" fill="#073A6A"/>
</g>
<g filter="url(#filter3_d_2922_7953)">
<path d="M10.0006 15.7976V7.35179H25.1971V49.5201H16.8661V15.7976H10.0006Z" fill="white"/>
</g>
<g filter="url(#filter4_d_2922_7953)">
<path d="M64.2384 23.8778C63.696 23.5778 63.0385 23.2919 62.267 23.02C61.4949 22.7471 60.4721 22.6106 59.198 22.6106C57.5435 22.6106 56.1333 22.9312 54.9668 23.5724C53.8014 24.2136 52.8669 25.0665 52.1626 26.1306C51.4577 27.1936 50.9837 28.3596 50.74 29.6289C50.4957 30.8972 50.4957 32.1655 50.74 33.4348C50.9837 34.7031 51.4577 35.8691 52.1626 36.9332C52.8669 37.9978 53.8014 38.8502 54.9668 39.4914C56.1333 40.1326 57.5435 40.4532 59.198 40.4532C60.4721 40.4532 61.5896 40.3032 62.5511 40.0026C63.5136 39.7026 64.2664 39.4156 64.8087 39.1426L65.5813 45.1992C64.686 45.5544 63.6557 45.8485 62.4908 46.0808C61.3254 46.312 60.2278 46.4274 59.198 46.4274C56.73 46.4274 54.5741 46.0115 52.7307 45.1797C50.8885 44.3468 49.3502 43.2209 48.1165 41.8027C46.8838 40.3849 45.9627 38.7961 45.3531 37.0371C44.743 35.2772 44.4384 33.4554 44.4384 31.572C44.4384 29.689 44.743 27.8679 45.3531 26.1089C45.9627 24.3489 46.8838 22.7595 48.1165 21.3413C49.3502 19.9235 50.8885 18.7982 52.7307 17.9664C54.5741 17.1335 56.73 16.7165 59.198 16.7165C61.3114 16.7165 63.2215 17.0989 64.9292 17.8624L64.2384 23.8778Z" fill="#0E165B"/>
</g>
<g filter="url(#filter5_d_2922_7953)">
<path d="M64.2384 22.3943C63.696 22.0943 63.0385 21.8084 62.267 21.5365C61.4949 21.2636 60.4721 21.1271 59.198 21.1271C57.5435 21.1271 56.1333 21.4477 54.9668 22.0889C53.8014 22.7301 52.8669 23.583 52.1626 24.6471C51.4577 25.7101 50.9837 26.8761 50.74 28.1454C50.4957 29.4137 50.4957 30.682 50.74 31.9514C50.9837 33.2196 51.4577 34.3856 52.1626 35.4497C52.8669 36.5143 53.8014 37.3667 54.9668 38.0079C56.1333 38.6491 57.5435 38.9697 59.198 38.9697C60.4721 38.9697 61.5896 38.8197 62.5511 38.5191C63.5136 38.2191 64.2664 37.9321 64.8087 37.6591L65.5813 43.7157C64.686 44.0709 63.6557 44.365 62.4908 44.5973C61.3254 44.8285 60.2278 44.9439 59.198 44.9439C56.73 44.9439 54.5741 44.528 52.7307 43.6962C50.8885 42.8633 49.3502 41.7375 48.1165 40.3192C46.8838 38.9014 45.9627 37.3126 45.3531 35.5537C44.743 33.7937 44.4384 31.9719 44.4384 30.0885C44.4384 28.2055 44.743 26.3844 45.3531 24.6254C45.9627 22.8655 46.8838 21.276 48.1165 19.8578C49.3502 18.44 50.8885 17.3147 52.7307 16.4829C54.5741 15.65 56.73 15.233 59.198 15.233C61.3114 15.233 63.2215 15.6154 64.9292 16.3789L64.2384 22.3943Z" fill="#093066"/>
</g>
<g filter="url(#filter6_d_2922_7953)">
<path d="M64.2384 20.9109C63.696 20.6109 63.0385 20.325 62.267 20.0532C61.4949 19.7802 60.4721 19.6437 59.198 19.6437C57.5435 19.6437 56.1333 19.9643 54.9668 20.6055C53.8014 21.2467 52.8669 22.0996 52.1626 23.1637C51.4577 24.2268 50.9837 25.3927 50.74 26.6621C50.4957 27.9303 50.4957 29.1986 50.74 30.468C50.9837 31.7363 51.4577 32.9022 52.1626 33.9663C52.8669 35.031 53.8014 35.8833 54.9668 36.5245C56.1333 37.1657 57.5435 37.4863 59.198 37.4863C60.4721 37.4863 61.5896 37.3363 62.5511 37.0357C63.5136 36.7357 64.2664 36.4487 64.8087 36.1758L65.5813 42.2323C64.686 42.5876 63.6557 42.8816 62.4908 43.1139C61.3254 43.3452 60.2278 43.4605 59.198 43.4605C56.73 43.4605 54.5741 43.0446 52.7307 42.2128C50.8885 41.3799 49.3502 40.2541 48.1165 38.8358C46.8838 37.4181 45.9627 35.8292 45.3531 34.0703C44.743 32.3103 44.4384 30.4886 44.4384 28.6051C44.4384 26.7222 44.743 24.901 45.3531 23.1421C45.9627 21.3821 46.8838 19.7927 48.1165 18.3744C49.3502 16.9566 50.8885 15.8313 52.7307 14.9995C54.5741 14.1667 56.73 13.7497 59.198 13.7497C61.3114 13.7497 63.2215 14.132 64.9292 14.8956L64.2384 20.9109Z" fill="white"/>
</g>
<g filter="url(#filter7_d_2922_7953)">
<path d="M82.6434 48.8935C79.7649 48.8935 77.2393 48.4056 75.0656 47.4292C72.8919 46.4533 71.0852 45.139 69.6465 43.4868C68.2088 41.8351 67.1295 39.9701 66.4096 37.8917C65.6908 35.8138 65.3314 33.6807 65.3314 31.4929C65.3314 29.3051 65.6908 27.173 66.4096 25.0962C67.1295 23.0184 68.2088 21.1533 69.6465 19.5011C71.0852 17.8478 72.8919 16.5329 75.0656 15.5565C77.2393 14.5807 79.7649 14.0922 82.6434 14.0922C85.5198 14.0922 88.0454 14.5807 90.2191 15.5565C92.3928 16.5329 94.199 17.8478 95.6382 19.5011C97.077 21.1533 98.1563 23.0184 98.8751 25.0962C99.595 27.173 99.9555 29.3051 99.9555 31.4929C99.9555 33.6807 99.595 35.8138 98.8751 37.8917C98.1563 39.9701 97.077 41.8351 95.6382 43.4868C94.199 45.139 92.3928 46.4533 90.2191 47.4292C88.0454 48.4056 85.5198 48.8935 82.6434 48.8935ZM82.6434 41.9055C84.5513 41.9055 86.1934 41.5281 87.5697 40.7726C88.9455 40.0161 90.0394 39.0159 90.8518 37.7725C91.6653 36.5291 92.2125 35.1683 92.4939 33.6893C92.7764 32.2093 92.7764 30.7298 92.4939 29.2509C92.2125 27.7709 91.6653 26.4089 90.8518 25.1656C90.0394 23.9222 88.9455 22.9231 87.5697 22.1676C86.1934 21.4127 84.5513 21.0347 82.6434 21.0347C80.735 21.0347 79.0929 21.4127 77.7171 22.1676C76.3408 22.9231 75.2464 23.9222 74.4329 25.1656C73.6194 26.4089 73.0717 27.7709 72.7908 29.2509C72.5094 30.7298 72.5094 32.2093 72.7908 33.6893C73.0717 35.1683 73.6194 36.5291 74.4329 37.7725C75.2464 39.0159 76.3408 40.0161 77.7171 40.7726C79.0929 41.5281 80.735 41.9055 82.6434 41.9055Z" fill="#0E165B"/>
</g>
<g filter="url(#filter8_d_2922_7953)">
<path d="M82.6434 47.1818C79.7649 47.1818 77.2393 46.6939 75.0656 45.7175C72.8919 44.7417 71.0852 43.4274 69.6465 41.7751C68.2088 40.1235 67.1295 38.2584 66.4096 36.18C65.6908 34.1021 65.3314 31.969 65.3314 29.7812C65.3314 27.5934 65.6908 25.4614 66.4096 23.3846C67.1295 21.3067 68.2088 19.4417 69.6465 17.7894C71.0852 16.1361 72.8919 14.8213 75.0656 13.8449C77.2393 12.869 79.7649 12.3806 82.6434 12.3806C85.5198 12.3806 88.0454 12.869 90.2191 13.8449C92.3928 14.8213 94.199 16.1361 95.6382 17.7894C97.077 19.4417 98.1563 21.3067 98.8751 23.3846C99.595 25.4614 99.9555 27.5934 99.9555 29.7812C99.9555 31.969 99.595 34.1021 98.8751 36.18C98.1563 38.2584 97.077 40.1235 95.6382 41.7751C94.199 43.4274 92.3928 44.7417 90.2191 45.7175C88.0454 46.6939 85.5198 47.1818 82.6434 47.1818ZM82.6434 40.1939C84.5513 40.1939 86.1934 39.8164 87.5697 39.061C88.9455 38.3044 90.0394 37.3042 90.8518 36.0609C91.6653 34.8175 92.2125 33.4566 92.4939 31.9777C92.7764 30.4977 92.7764 29.0182 92.4939 27.5392C92.2125 26.0592 91.6653 24.6973 90.8518 23.4539C90.0394 22.2105 88.9455 21.2114 87.5697 20.4559C86.1934 19.701 84.5513 19.3231 82.6434 19.3231C80.735 19.3231 79.0929 19.701 77.7171 20.4559C76.3408 21.2114 75.2464 22.2105 74.4329 23.4539C73.6194 24.6973 73.0717 26.0592 72.7908 27.5392C72.5094 29.0182 72.5094 30.4977 72.7908 31.9777C73.0717 33.4566 73.6194 34.8175 74.4329 36.0609C75.2464 37.3042 76.3408 38.3044 77.7171 39.061C79.0929 39.8164 80.735 40.1939 82.6434 40.1939Z" fill="#093066"/>
</g>
<g filter="url(#filter9_d_2922_7953)">
<path d="M82.6434 45.4701C79.7649 45.4701 77.2393 44.9821 75.0656 44.0058C72.8919 43.0299 71.0852 41.7156 69.6465 40.0634C68.2088 38.4117 67.1295 36.5466 66.4096 34.4682C65.6908 32.3903 65.3314 30.2572 65.3314 28.0694C65.3314 25.8816 65.6908 23.7496 66.4096 21.6728C67.1295 19.5949 68.2088 17.7299 69.6465 16.0776C71.0852 14.4243 72.8919 13.1095 75.0656 12.1331C77.2393 11.1572 79.7649 10.6688 82.6434 10.6688C85.5198 10.6688 88.0454 11.1572 90.2191 12.1331C92.3928 13.1095 94.199 14.4243 95.6382 16.0776C97.077 17.7299 98.1563 19.5949 98.8751 21.6728C99.595 23.7496 99.9555 25.8816 99.9555 28.0694C99.9555 30.2572 99.595 32.3903 98.8751 34.4682C98.1563 36.5466 97.077 38.4117 95.6382 40.0634C94.199 41.7156 92.3928 43.0299 90.2191 44.0058C88.0454 44.9821 85.5198 45.4701 82.6434 45.4701ZM82.6434 38.4821C84.5513 38.4821 86.1934 38.1046 87.5697 37.3492C88.9455 36.5927 90.0394 35.5924 90.8518 34.3491C91.6653 33.1057 92.2125 31.7448 92.4939 30.2659C92.7764 28.7859 92.7764 27.3064 92.4939 25.8275C92.2125 24.3474 91.6653 22.9855 90.8518 21.7421C90.0394 20.4987 88.9455 19.4996 87.5697 18.7442C86.1934 17.9893 84.5513 17.6113 82.6434 17.6113C80.735 17.6113 79.0929 17.9893 77.7171 18.7442C76.3408 19.4996 75.2464 20.4987 74.4329 21.7421C73.6194 22.9855 73.0717 24.3474 72.7908 25.8275C72.5094 27.3064 72.5094 28.7859 72.7908 30.2659C73.0717 31.7448 73.6194 33.1057 74.4329 34.3491C75.2464 35.5924 76.3408 36.5927 77.7171 37.3492C79.0929 38.1046 80.735 38.4821 82.6434 38.4821Z" fill="white"/>
</g>
<g filter="url(#filter10_d_2922_7953)">
<path d="M109.759 30.4726V53.1261H101.486V10.6134H103.683L124.572 35.0735V11.5448H132.903V53.9991H130.706L109.759 30.4726Z" fill="#0E175C"/>
</g>
<g filter="url(#filter11_d_2922_7953)">
<path d="M109.759 28.3616V51.0152H101.486V8.50238H103.683L124.572 32.9625V9.43382H132.903V51.8881H130.706L109.759 28.3616Z" fill="#073A6A"/>
</g>
<g filter="url(#filter12_d_2922_7953)">
<path d="M109.759 26.2505V48.9041H101.486V6.39128H103.683L124.572 30.8514V7.32272H132.903V49.777H130.706L109.759 26.2505Z" fill="white"/>
</g>
<g filter="url(#filter13_d_2922_7953)">
<path d="M143.183 30.0818V52.7354H134.91V10.2226H137.107L157.996 34.6827V11.154H166.327V53.6083H164.13L143.183 30.0818Z" fill="#0E175C"/>
</g>
<g filter="url(#filter14_d_2922_7953)">
<path d="M143.183 27.9707V50.6243H134.91V8.11149H137.107L157.996 32.5716V9.04293H166.327V51.4972H164.13L143.183 27.9707Z" fill="#073A6A"/>
</g>
<g filter="url(#filter15_d_2922_7953)">
<path d="M143.183 25.8596V48.5132H134.91V6.00039H137.107L157.996 30.4605V6.93183H166.327V49.3861H164.13L143.183 25.8596Z" fill="white"/>
</g>
<g filter="url(#filter16_d_2922_7953)">
<path d="M185.432 48.4213H168.072V14.6598H184.868V21.4116H174.781V28.1635H183.6V34.9154H174.781V41.6694H185.432V48.4213Z" fill="#0E165B"/>
</g>
<g filter="url(#filter17_d_2922_7953)">
<path d="M185.432 46.7095H168.072V12.948H184.868V19.6999H174.781V26.4517H183.6V33.2036H174.781V39.9576H185.432V46.7095Z" fill="#093066"/>
</g>
<g filter="url(#filter18_d_2922_7953)">
<path d="M185.432 44.9979H168.072V11.2363H184.868V17.9882H174.781V24.7401H183.6V31.4919H174.781V38.246H185.432V44.9979Z" fill="white"/>
</g>
<g filter="url(#filter19_d_2922_7953)">
<path d="M205.854 23.8778C205.312 23.5778 204.654 23.2919 203.883 23.02C203.111 22.7471 202.088 22.6106 200.814 22.6106C199.159 22.6106 197.749 22.9312 196.582 23.5724C195.417 24.2136 194.482 25.0665 193.778 26.1306C193.073 27.1936 192.599 28.3596 192.356 29.6289C192.111 30.8972 192.111 32.1655 192.356 33.4348C192.599 34.7031 193.073 35.8691 193.778 36.9332C194.482 37.9978 195.417 38.8502 196.582 39.4914C197.749 40.1326 199.159 40.4532 200.814 40.4532C202.088 40.4532 203.205 40.3032 204.167 40.0026C205.129 39.7026 205.882 39.4156 206.424 39.1426L207.197 45.1992C206.302 45.5544 205.271 45.8485 204.106 46.0808C202.941 46.312 201.843 46.4274 200.814 46.4274C198.346 46.4274 196.19 46.0115 194.346 45.1797C192.504 44.3468 190.966 43.2209 189.732 41.8027C188.499 40.3849 187.578 38.7961 186.969 37.0371C186.359 35.2772 186.054 33.4554 186.054 31.572C186.054 29.689 186.359 27.8679 186.969 26.1089C187.578 24.3489 188.499 22.7595 189.732 21.3413C190.966 19.9235 192.504 18.7982 194.346 17.9664C196.19 17.1335 198.346 16.7165 200.814 16.7165C202.927 16.7165 204.837 17.0989 206.545 17.8624L205.854 23.8778Z" fill="#0E165B"/>
</g>
<g filter="url(#filter20_d_2922_7953)">
<path d="M205.854 22.3943C205.312 22.0943 204.654 21.8084 203.883 21.5365C203.111 21.2636 202.088 21.1271 200.814 21.1271C199.159 21.1271 197.749 21.4477 196.582 22.0889C195.417 22.7301 194.482 23.583 193.778 24.6471C193.073 25.7101 192.599 26.8761 192.356 28.1454C192.111 29.4137 192.111 30.682 192.356 31.9514C192.599 33.2196 193.073 34.3856 193.778 35.4497C194.482 36.5143 195.417 37.3667 196.582 38.0079C197.749 38.6491 199.159 38.9697 200.814 38.9697C202.088 38.9697 203.205 38.8197 204.167 38.5191C205.129 38.2191 205.882 37.9321 206.424 37.6591L207.197 43.7157C206.302 44.0709 205.271 44.365 204.106 44.5973C202.941 44.8285 201.843 44.9439 200.814 44.9439C198.346 44.9439 196.19 44.528 194.346 43.6962C192.504 42.8633 190.966 41.7375 189.732 40.3192C188.499 38.9014 187.578 37.3126 186.969 35.5537C186.359 33.7937 186.054 31.9719 186.054 30.0885C186.054 28.2055 186.359 26.3844 186.969 24.6254C187.578 22.8655 188.499 21.276 189.732 19.8578C190.966 18.44 192.504 17.3147 194.346 16.4829C196.19 15.65 198.346 15.233 200.814 15.233C202.927 15.233 204.837 15.6154 206.545 16.3789L205.854 22.3943Z" fill="#093066"/>
</g>
<g filter="url(#filter21_d_2922_7953)">
<path d="M205.854 20.9109C205.312 20.6109 204.654 20.325 203.883 20.0532C203.111 19.7802 202.088 19.6437 200.814 19.6437C199.159 19.6437 197.749 19.9643 196.582 20.6055C195.417 21.2467 194.482 22.0996 193.778 23.1637C193.073 24.2268 192.599 25.3927 192.356 26.6621C192.111 27.9303 192.111 29.1986 192.356 30.468C192.599 31.7363 193.073 32.9022 193.778 33.9663C194.482 35.031 195.417 35.8833 196.582 36.5245C197.749 37.1657 199.159 37.4863 200.814 37.4863C202.088 37.4863 203.205 37.3363 204.167 37.0357C205.129 36.7357 205.882 36.4487 206.424 36.1758L207.197 42.2323C206.302 42.5876 205.271 42.8816 204.106 43.1139C202.941 43.3452 201.843 43.4605 200.814 43.4605C198.346 43.4605 196.19 43.0446 194.346 42.2128C192.504 41.3799 190.966 40.2541 189.732 38.8358C188.499 37.4181 187.578 35.8292 186.969 34.0703C186.359 32.3103 186.054 30.4886 186.054 28.6051C186.054 26.7222 186.359 24.901 186.969 23.1421C187.578 21.3821 188.499 19.7927 189.732 18.3744C190.966 16.9566 192.504 15.8313 194.346 14.9995C196.19 14.1667 198.346 13.7497 200.814 13.7497C202.927 13.7497 204.837 14.132 206.545 14.8956L205.854 20.9109Z" fill="white"/>
</g>
<g filter="url(#filter22_d_2922_7953)">
<path d="M220.719 46.3231H214.906V22.9158H207.669V17.104H227.957V22.9158H220.719V46.3231Z" fill="#0E165B"/>
</g>
<g filter="url(#filter23_d_2922_7953)">
<path d="M220.719 44.8397H214.906V21.4323H207.669V15.6205H227.957V21.4323H220.719V44.8397Z" fill="#093066"/>
</g>
<g filter="url(#filter24_d_2922_7953)">
<path d="M220.719 43.3563H214.906V19.9489H207.669V14.1371H227.957V19.9489H220.719V43.3563Z" fill="white"/>
</g>
<defs>
<filter id="filter0_d_2922_7953" x="18.8586" y="15.6759" width="31.8399" height="31.8154" filterUnits="userSpaceOnUse" color-interpolation-filters="sRGB">
<feFlood flood-opacity="0" result="BackgroundImageFix"/>
<feColorMatrix in="SourceAlpha" type="matrix" values="0 0 0 0 0 0 0 0 0 0 0 0 0 0 0 0 0 0 127 0" result="hardAlpha"/>
<feOffset dy="4"/>
<feGaussianBlur stdDeviation="5"/>
<feComposite in2="hardAlpha" operator="out"/>
<feColorMatrix type="matrix" values="0 0 0 0 0 0 0 0 0 0 0 0 0 0 0 0 0 0 0.25 0"/>
<feBlend mode="normal" in2="BackgroundImageFix" result="effect1_dropShadow_2922_7953"/>
<feBlend mode="normal" in="SourceGraphic" in2="effect1_dropShadow_2922_7953" result="shape"/>
</filter>
<filter id="filter1_d_2922_7953" x="0" y="5.63305" width="35.1976" height="62.1697" filterUnits="userSpaceOnUse" color-interpolation-filters="sRGB">
<feFlood flood-opacity="0" result="BackgroundImageFix"/>
<feColorMatrix in="SourceAlpha" type="matrix" values="0 0 0 0 0 0 0 0 0 0 0 0 0 0 0 0 0 0 127 0" result="hardAlpha"/>
<feOffset dy="4"/>
<feGaussianBlur stdDeviation="5"/>
<feComposite in2="hardAlpha" operator="out"/>
<feColorMatrix type="matrix" values="0 0 0 0 0 0 0 0 0 0 0 0 0 0 0 0 0 0 0.25 0"/>
<feBlend mode="normal" in2="BackgroundImageFix" result="effect1_dropShadow_2922_7953"/>
<feBlend mode="normal" in="SourceGraphic" in2="effect1_dropShadow_2922_7953" result="shape"/>
</filter>
<filter id="filter2_d_2922_7953" x="0" y="3.49229" width="35.1976" height="62.1697" filterUnits="userSpaceOnUse" color-interpolation-filters="sRGB">
<feFlood flood-opacity="0" result="BackgroundImageFix"/>
<feColorMatrix in="SourceAlpha" type="matrix" values="0 0 0 0 0 0 0 0 0 0 0 0 0 0 0 0 0 0 127 0" result="hardAlpha"/>
<feOffset dy="4"/>
<feGaussianBlur stdDeviation="5"/>
<feComposite in2="hardAlpha" operator="out"/>
<feColorMatrix type="matrix" values="0 0 0 0 0 0 0 0 0 0 0 0 0 0 0 0 0 0 0.25 0"/>
<feBlend mode="normal" in2="BackgroundImageFix" result="effect1_dropShadow_2922_7953"/>
<feBlend mode="normal" in="SourceGraphic" in2="effect1_dropShadow_2922_7953" result="shape"/>
</filter>
<filter id="filter3_d_2922_7953" x="0" y="1.35141" width="35.1976" height="62.1697" filterUnits="userSpaceOnUse" color-interpolation-filters="sRGB">
<feFlood flood-opacity="0" result="BackgroundImageFix"/>
<feColorMatrix in="SourceAlpha" type="matrix" values="0 0 0 0 0 0 0 0 0 0 0 0 0 0 0 0 0 0 127 0" result="hardAlpha"/>
<feOffset dy="4"/>
<feGaussianBlur stdDeviation="5"/>
<feComposite in2="hardAlpha" operator="out"/>
<feColorMatrix type="matrix" values="0 0 0 0 0 0 0 0 0 0 0 0 0 0 0 0 0 0 0.25 0"/>
<feBlend mode="normal" in2="BackgroundImageFix" result="effect1_dropShadow_2922_7953"/>
<feBlend mode="normal" in="SourceGraphic" in2="effect1_dropShadow_2922_7953" result="shape"/>
</filter>
<filter id="filter4_d_2922_7953" x="34.4378" y="10.7161" width="41.1443" height="49.7122" filterUnits="userSpaceOnUse" color-interpolation-filters="sRGB">
<feFlood flood-opacity="0" result="BackgroundImageFix"/>
<feColorMatrix in="SourceAlpha" type="matrix" values="0 0 0 0 0 0 0 0 0 0 0 0 0 0 0 0 0 0 127 0" result="hardAlpha"/>
<feOffset dy="4"/>
<feGaussianBlur stdDeviation="5"/>
<feComposite in2="hardAlpha" operator="out"/>
<feColorMatrix type="matrix" values="0 0 0 0 0 0 0 0 0 0 0 0 0 0 0 0 0 0 0.25 0"/>
<feBlend mode="normal" in2="BackgroundImageFix" result="effect1_dropShadow_2922_7953"/>
<feBlend mode="normal" in="SourceGraphic" in2="effect1_dropShadow_2922_7953" result="shape"/>
</filter>
<filter id="filter5_d_2922_7953" x="34.4378" y="9.23265" width="41.1443" height="49.7122" filterUnits="userSpaceOnUse" color-interpolation-filters="sRGB">
<feFlood flood-opacity="0" result="BackgroundImageFix"/>
<feColorMatrix in="SourceAlpha" type="matrix" values="0 0 0 0 0 0 0 0 0 0 0 0 0 0 0 0 0 0 127 0" result="hardAlpha"/>
<feOffset dy="4"/>
<feGaussianBlur stdDeviation="5"/>
<feComposite in2="hardAlpha" operator="out"/>
<feColorMatrix type="matrix" values="0 0 0 0 0 0 0 0 0 0 0 0 0 0 0 0 0 0 0.25 0"/>
<feBlend mode="normal" in2="BackgroundImageFix" result="effect1_dropShadow_2922_7953"/>
<feBlend mode="normal" in="SourceGraphic" in2="effect1_dropShadow_2922_7953" result="shape"/>
</filter>
<filter id="filter6_d_2922_7953" x="34.4378" y="7.74928" width="41.1443" height="49.7122" filterUnits="userSpaceOnUse" color-interpolation-filters="sRGB">
<feFlood flood-opacity="0" result="BackgroundImageFix"/>
<feColorMatrix in="SourceAlpha" type="matrix" values="0 0 0 0 0 0 0 0 0 0 0 0 0 0 0 0 0 0 127 0" result="hardAlpha"/>
<feOffset dy="4"/>
<feGaussianBlur stdDeviation="5"/>
<feComposite in2="hardAlpha" operator="out"/>
<feColorMatrix type="matrix" values="0 0 0 0 0 0 0 0 0 0 0 0 0 0 0 0 0 0 0.25 0"/>
<feBlend mode="normal" in2="BackgroundImageFix" result="effect1_dropShadow_2922_7953"/>
<feBlend mode="normal" in="SourceGraphic" in2="effect1_dropShadow_2922_7953" result="shape"/>
</filter>
<filter id="filter7_d_2922_7953" x="55.3307" y="8.09183" width="54.6256" height="54.8026" filterUnits="userSpaceOnUse" color-interpolation-filters="sRGB">
<feFlood flood-opacity="0" result="BackgroundImageFix"/>
<feColorMatrix in="SourceAlpha" type="matrix" values="0 0 0 0 0 0 0 0 0 0 0 0 0 0 0 0 0 0 127 0" result="hardAlpha"/>
<feOffset dy="4"/>
<feGaussianBlur stdDeviation="5"/>
<feComposite in2="hardAlpha" operator="out"/>
<feColorMatrix type="matrix" values="0 0 0 0 0 0 0 0 0 0 0 0 0 0 0 0 0 0 0.25 0"/>
<feBlend mode="normal" in2="BackgroundImageFix" result="effect1_dropShadow_2922_7953"/>
<feBlend mode="normal" in="SourceGraphic" in2="effect1_dropShadow_2922_7953" result="shape"/>
</filter>
<filter id="filter8_d_2922_7953" x="55.3307" y="6.38017" width="54.6256" height="54.8026" filterUnits="userSpaceOnUse" color-interpolation-filters="sRGB">
<feFlood flood-opacity="0" result="BackgroundImageFix"/>
<feColorMatrix in="SourceAlpha" type="matrix" values="0 0 0 0 0 0 0 0 0 0 0 0 0 0 0 0 0 0 127 0" result="hardAlpha"/>
<feOffset dy="4"/>
<feGaussianBlur stdDeviation="5"/>
<feComposite in2="hardAlpha" operator="out"/>
<feColorMatrix type="matrix" values="0 0 0 0 0 0 0 0 0 0 0 0 0 0 0 0 0 0 0.25 0"/>
<feBlend mode="normal" in2="BackgroundImageFix" result="effect1_dropShadow_2922_7953"/>
<feBlend mode="normal" in="SourceGraphic" in2="effect1_dropShadow_2922_7953" result="shape"/>
</filter>
<filter id="filter9_d_2922_7953" x="55.3307" y="4.66839" width="54.6256" height="54.8026" filterUnits="userSpaceOnUse" color-interpolation-filters="sRGB">
<feFlood flood-opacity="0" result="BackgroundImageFix"/>
<feColorMatrix in="SourceAlpha" type="matrix" values="0 0 0 0 0 0 0 0 0 0 0 0 0 0 0 0 0 0 127 0" result="hardAlpha"/>
<feOffset dy="4"/>
<feGaussianBlur stdDeviation="5"/>
<feComposite in2="hardAlpha" operator="out"/>
<feColorMatrix type="matrix" values="0 0 0 0 0 0 0 0 0 0 0 0 0 0 0 0 0 0 0.25 0"/>
<feBlend mode="normal" in2="BackgroundImageFix" result="effect1_dropShadow_2922_7953"/>
<feBlend mode="normal" in="SourceGraphic" in2="effect1_dropShadow_2922_7953" result="shape"/>
</filter>
<filter id="filter10_d_2922_7953" x="91.4854" y="4.61297" width="51.4193" height="63.387" filterUnits="userSpaceOnUse" color-interpolation-filters="sRGB">
<feFlood flood-opacity="0" result="BackgroundImageFix"/>
<feColorMatrix in="SourceAlpha" type="matrix" values="0 0 0 0 0 0 0 0 0 0 0 0 0 0 0 0 0 0 127 0" result="hardAlpha"/>
<feOffset dy="4"/>
<feGaussianBlur stdDeviation="5"/>
<feComposite in2="hardAlpha" operator="out"/>
<feColorMatrix type="matrix" values="0 0 0 0 0 0 0 0 0 0 0 0 0 0 0 0 0 0 0.25 0"/>
<feBlend mode="normal" in2="BackgroundImageFix" result="effect1_dropShadow_2922_7953"/>
<feBlend mode="normal" in="SourceGraphic" in2="effect1_dropShadow_2922_7953" result="shape"/>
</filter>
<filter id="filter11_d_2922_7953" x="91.4854" y="2.50199" width="51.4193" height="63.387" filterUnits="userSpaceOnUse" color-interpolation-filters="sRGB">
<feFlood flood-opacity="0" result="BackgroundImageFix"/>
<feColorMatrix in="SourceAlpha" type="matrix" values="0 0 0 0 0 0 0 0 0 0 0 0 0 0 0 0 0 0 127 0" result="hardAlpha"/>
<feOffset dy="4"/>
<feGaussianBlur stdDeviation="5"/>
<feComposite in2="hardAlpha" operator="out"/>
<feColorMatrix type="matrix" values="0 0 0 0 0 0 0 0 0 0 0 0 0 0 0 0 0 0 0.25 0"/>
<feBlend mode="normal" in2="BackgroundImageFix" result="effect1_dropShadow_2922_7953"/>
<feBlend mode="normal" in="SourceGraphic" in2="effect1_dropShadow_2922_7953" result="shape"/>
</filter>
<filter id="filter12_d_2922_7953" x="91.4854" y="0.390894" width="51.4193" height="63.387" filterUnits="userSpaceOnUse" color-interpolation-filters="sRGB">
<feFlood flood-opacity="0" result="BackgroundImageFix"/>
<feColorMatrix in="SourceAlpha" type="matrix" values="0 0 0 0 0 0 0 0 0 0 0 0 0 0 0 0 0 0 127 0" result="hardAlpha"/>
<feOffset dy="4"/>
<feGaussianBlur stdDeviation="5"/>
<feComposite in2="hardAlpha" operator="out"/>
<feColorMatrix type="matrix" values="0 0 0 0 0 0 0 0 0 0 0 0 0 0 0 0 0 0 0.25 0"/>
<feBlend mode="normal" in2="BackgroundImageFix" result="effect1_dropShadow_2922_7953"/>
<feBlend mode="normal" in="SourceGraphic" in2="effect1_dropShadow_2922_7953" result="shape"/>
</filter>
<filter id="filter13_d_2922_7953" x="124.909" y="4.2222" width="51.4193" height="63.387" filterUnits="userSpaceOnUse" color-interpolation-filters="sRGB">
<feFlood flood-opacity="0" result="BackgroundImageFix"/>
<feColorMatrix in="SourceAlpha" type="matrix" values="0 0 0 0 0 0 0 0 0 0 0 0 0 0 0 0 0 0 127 0" result="hardAlpha"/>
<feOffset dy="4"/>
<feGaussianBlur stdDeviation="5"/>
<feComposite in2="hardAlpha" operator="out"/>
<feColorMatrix type="matrix" values="0 0 0 0 0 0 0 0 0 0 0 0 0 0 0 0 0 0 0.25 0"/>
<feBlend mode="normal" in2="BackgroundImageFix" result="effect1_dropShadow_2922_7953"/>
<feBlend mode="normal" in="SourceGraphic" in2="effect1_dropShadow_2922_7953" result="shape"/>
</filter>
<filter id="filter14_d_2922_7953" x="124.909" y="2.1111" width="51.4193" height="63.387" filterUnits="userSpaceOnUse" color-interpolation-filters="sRGB">
<feFlood flood-opacity="0" result="BackgroundImageFix"/>
<feColorMatrix in="SourceAlpha" type="matrix" values="0 0 0 0 0 0 0 0 0 0 0 0 0 0 0 0 0 0 127 0" result="hardAlpha"/>
<feOffset dy="4"/>
<feGaussianBlur stdDeviation="5"/>
<feComposite in2="hardAlpha" operator="out"/>
<feColorMatrix type="matrix" values="0 0 0 0 0 0 0 0 0 0 0 0 0 0 0 0 0 0 0.25 0"/>
<feBlend mode="normal" in2="BackgroundImageFix" result="effect1_dropShadow_2922_7953"/>
<feBlend mode="normal" in="SourceGraphic" in2="effect1_dropShadow_2922_7953" result="shape"/>
</filter>
<filter id="filter15_d_2922_7953" x="124.909" y="0" width="51.4193" height="63.387" filterUnits="userSpaceOnUse" color-interpolation-filters="sRGB">
<feFlood flood-opacity="0" result="BackgroundImageFix"/>
<feColorMatrix in="SourceAlpha" type="matrix" values="0 0 0 0 0 0 0 0 0 0 0 0 0 0 0 0 0 0 127 0" result="hardAlpha"/>
<feOffset dy="4"/>
<feGaussianBlur stdDeviation="5"/>
<feComposite in2="hardAlpha" operator="out"/>
<feColorMatrix type="matrix" values="0 0 0 0 0 0 0 0 0 0 0 0 0 0 0 0 0 0 0.25 0"/>
<feBlend mode="normal" in2="BackgroundImageFix" result="effect1_dropShadow_2922_7953"/>
<feBlend mode="normal" in="SourceGraphic" in2="effect1_dropShadow_2922_7953" result="shape"/>
</filter>
<filter id="filter16_d_2922_7953" x="158.072" y="8.65937" width="37.3598" height="53.7629" filterUnits="userSpaceOnUse" color-interpolation-filters="sRGB">
<feFlood flood-opacity="0" result="BackgroundImageFix"/>
<feColorMatrix in="SourceAlpha" type="matrix" values="0 0 0 0 0 0 0 0 0 0 0 0 0 0 0 0 0 0 127 0" result="hardAlpha"/>
<feOffset dy="4"/>
<feGaussianBlur stdDeviation="5"/>
<feComposite in2="hardAlpha" operator="out"/>
<feColorMatrix type="matrix" values="0 0 0 0 0 0 0 0 0 0 0 0 0 0 0 0 0 0 0.25 0"/>
<feBlend mode="normal" in2="BackgroundImageFix" result="effect1_dropShadow_2922_7953"/>
<feBlend mode="normal" in="SourceGraphic" in2="effect1_dropShadow_2922_7953" result="shape"/>
</filter>
<filter id="filter17_d_2922_7953" x="158.072" y="6.94759" width="37.3598" height="53.7629" filterUnits="userSpaceOnUse" color-interpolation-filters="sRGB">
<feFlood flood-opacity="0" result="BackgroundImageFix"/>
<feColorMatrix in="SourceAlpha" type="matrix" values="0 0 0 0 0 0 0 0 0 0 0 0 0 0 0 0 0 0 127 0" result="hardAlpha"/>
<feOffset dy="4"/>
<feGaussianBlur stdDeviation="5"/>
<feComposite in2="hardAlpha" operator="out"/>
<feColorMatrix type="matrix" values="0 0 0 0 0 0 0 0 0 0 0 0 0 0 0 0 0 0 0.25 0"/>
<feBlend mode="normal" in2="BackgroundImageFix" result="effect1_dropShadow_2922_7953"/>
<feBlend mode="normal" in="SourceGraphic" in2="effect1_dropShadow_2922_7953" result="shape"/>
</filter>
<filter id="filter18_d_2922_7953" x="158.072" y="5.23593" width="37.3598" height="53.7629" filterUnits="userSpaceOnUse" color-interpolation-filters="sRGB">
<feFlood flood-opacity="0" result="BackgroundImageFix"/>
<feColorMatrix in="SourceAlpha" type="matrix" values="0 0 0 0 0 0 0 0 0 0 0 0 0 0 0 0 0 0 127 0" result="hardAlpha"/>
<feOffset dy="4"/>
<feGaussianBlur stdDeviation="5"/>
<feComposite in2="hardAlpha" operator="out"/>
<feColorMatrix type="matrix" values="0 0 0 0 0 0 0 0 0 0 0 0 0 0 0 0 0 0 0.25 0"/>
<feBlend mode="normal" in2="BackgroundImageFix" result="effect1_dropShadow_2922_7953"/>
<feBlend mode="normal" in="SourceGraphic" in2="effect1_dropShadow_2922_7953" result="shape"/>
</filter>
<filter id="filter19_d_2922_7953" x="176.053" y="10.7161" width="41.1433" height="49.7122" filterUnits="userSpaceOnUse" color-interpolation-filters="sRGB">
<feFlood flood-opacity="0" result="BackgroundImageFix"/>
<feColorMatrix in="SourceAlpha" type="matrix" values="0 0 0 0 0 0 0 0 0 0 0 0 0 0 0 0 0 0 127 0" result="hardAlpha"/>
<feOffset dy="4"/>
<feGaussianBlur stdDeviation="5"/>
<feComposite in2="hardAlpha" operator="out"/>
<feColorMatrix type="matrix" values="0 0 0 0 0 0 0 0 0 0 0 0 0 0 0 0 0 0 0.25 0"/>
<feBlend mode="normal" in2="BackgroundImageFix" result="effect1_dropShadow_2922_7953"/>
<feBlend mode="normal" in="SourceGraphic" in2="effect1_dropShadow_2922_7953" result="shape"/>
</filter>
<filter id="filter20_d_2922_7953" x="176.053" y="9.23265" width="41.1433" height="49.7122" filterUnits="userSpaceOnUse" color-interpolation-filters="sRGB">
<feFlood flood-opacity="0" result="BackgroundImageFix"/>
<feColorMatrix in="SourceAlpha" type="matrix" values="0 0 0 0 0 0 0 0 0 0 0 0 0 0 0 0 0 0 127 0" result="hardAlpha"/>
<feOffset dy="4"/>
<feGaussianBlur stdDeviation="5"/>
<feComposite in2="hardAlpha" operator="out"/>
<feColorMatrix type="matrix" values="0 0 0 0 0 0 0 0 0 0 0 0 0 0 0 0 0 0 0.25 0"/>
<feBlend mode="normal" in2="BackgroundImageFix" result="effect1_dropShadow_2922_7953"/>
<feBlend mode="normal" in="SourceGraphic" in2="effect1_dropShadow_2922_7953" result="shape"/>
</filter>
<filter id="filter21_d_2922_7953" x="176.053" y="7.74928" width="41.1433" height="49.7122" filterUnits="userSpaceOnUse" color-interpolation-filters="sRGB">
<feFlood flood-opacity="0" result="BackgroundImageFix"/>
<feColorMatrix in="SourceAlpha" type="matrix" values="0 0 0 0 0 0 0 0 0 0 0 0 0 0 0 0 0 0 127 0" result="hardAlpha"/>
<feOffset dy="4"/>
<feGaussianBlur stdDeviation="5"/>
<feComposite in2="hardAlpha" operator="out"/>
<feColorMatrix type="matrix" values="0 0 0 0 0 0 0 0 0 0 0 0 0 0 0 0 0 0 0.25 0"/>
<feBlend mode="normal" in2="BackgroundImageFix" result="effect1_dropShadow_2922_7953"/>
<feBlend mode="normal" in="SourceGraphic" in2="effect1_dropShadow_2922_7953" result="shape"/>
</filter>
<filter id="filter22_d_2922_7953" x="197.668" y="11.1036" width="40.2897" height="49.2205" filterUnits="userSpaceOnUse" color-interpolation-filters="sRGB">
<feFlood flood-opacity="0" result="BackgroundImageFix"/>
<feColorMatrix in="SourceAlpha" type="matrix" values="0 0 0 0 0 0 0 0 0 0 0 0 0 0 0 0 0 0 127 0" result="hardAlpha"/>
<feOffset dy="4"/>
<feGaussianBlur stdDeviation="5"/>
<feComposite in2="hardAlpha" operator="out"/>
<feColorMatrix type="matrix" values="0 0 0 0 0 0 0 0 0 0 0 0 0 0 0 0 0 0 0.25 0"/>
<feBlend mode="normal" in2="BackgroundImageFix" result="effect1_dropShadow_2922_7953"/>
<feBlend mode="normal" in="SourceGraphic" in2="effect1_dropShadow_2922_7953" result="shape"/>
</filter>
<filter id="filter23_d_2922_7953" x="197.668" y="9.62013" width="40.2897" height="49.2205" filterUnits="userSpaceOnUse" color-interpolation-filters="sRGB">
<feFlood flood-opacity="0" result="BackgroundImageFix"/>
<feColorMatrix in="SourceAlpha" type="matrix" values="0 0 0 0 0 0 0 0 0 0 0 0 0 0 0 0 0 0 127 0" result="hardAlpha"/>
<feOffset dy="4"/>
<feGaussianBlur stdDeviation="5"/>
<feComposite in2="hardAlpha" operator="out"/>
<feColorMatrix type="matrix" values="0 0 0 0 0 0 0 0 0 0 0 0 0 0 0 0 0 0 0.25 0"/>
<feBlend mode="normal" in2="BackgroundImageFix" result="effect1_dropShadow_2922_7953"/>
<feBlend mode="normal" in="SourceGraphic" in2="effect1_dropShadow_2922_7953" result="shape"/>
</filter>
<filter id="filter24_d_2922_7953" x="197.668" y="8.13676" width="40.2897" height="49.2205" filterUnits="userSpaceOnUse" color-interpolation-filters="sRGB">
<feFlood flood-opacity="0" result="BackgroundImageFix"/>
<feColorMatrix in="SourceAlpha" type="matrix" values="0 0 0 0 0 0 0 0 0 0 0 0 0 0 0 0 0 0 127 0" result="hardAlpha"/>
<feOffset dy="4"/>
<feGaussianBlur stdDeviation="5"/>
<feComposite in2="hardAlpha" operator="out"/>
<feColorMatrix type="matrix" values="0 0 0 0 0 0 0 0 0 0 0 0 0 0 0 0 0 0 0.25 0"/>
<feBlend mode="normal" in2="BackgroundImageFix" result="effect1_dropShadow_2922_7953"/>
<feBlend mode="normal" in="SourceGraphic" in2="effect1_dropShadow_2922_7953" result="shape"/>
</filter>
</defs>
</svg>
