<svg width="24" height="24" viewBox="0 0 24 24" fill="none" xmlns="http://www.w3.org/2000/svg">
<path d="M12.5932 23.2582L12.5822 23.2602L12.5112 23.2952L12.4912 23.2992L12.4772 23.2952L12.4062 23.2602C12.3955 23.2568 12.3875 23.2585 12.3822 23.2652L12.3782 23.2752L12.3612 23.7032L12.3662 23.7232L12.3762 23.7362L12.4802 23.8102L12.4952 23.8142L12.5072 23.8102L12.6112 23.7362L12.6232 23.7202L12.6272 23.7032L12.6102 23.2762C12.6075 23.2655 12.6018 23.2595 12.5932 23.2582ZM12.8582 23.1452L12.8452 23.1472L12.6602 23.2402L12.6502 23.2502L12.6472 23.2612L12.6652 23.6912L12.6702 23.7032L12.6782 23.7102L12.8792 23.8032C12.8918 23.8065 12.9015 23.8038 12.9082 23.7952L12.9122 23.7812L12.8782 23.1672C12.8748 23.1552 12.8682 23.1478 12.8582 23.1452ZM12.1432 23.1472C12.1388 23.1445 12.1335 23.1436 12.1285 23.1448C12.1234 23.1459 12.119 23.1489 12.1162 23.1532L12.1102 23.1672L12.0762 23.7812C12.0768 23.7932 12.0825 23.8012 12.0932 23.8052L12.1082 23.8032L12.3092 23.7102L12.3192 23.7022L12.3232 23.6912L12.3402 23.2612L12.3372 23.2492L12.3272 23.2392L12.1432 23.1472Z" fill="#474747"/>
<path d="M14.253 2.29112C14.4564 2.25725 14.6646 2.26569 14.8646 2.31591C15.0646 2.36613 15.2521 2.45705 15.4154 2.58298C15.5787 2.70892 15.7143 2.86717 15.8136 3.04786C15.913 3.22854 15.9741 3.42778 15.993 3.63312L16 3.77112V5.00012H18C18.5046 4.99996 18.9906 5.19052 19.3605 5.53361C19.7305 5.8767 19.9572 6.34696 19.995 6.85012L20 7.00012V17.0001C19.9999 17.5045 19.8092 17.9903 19.4662 18.36C19.1231 18.7298 18.653 18.9563 18.15 18.9941L18 19.0001H16V20.2301C15.9999 20.4363 15.9572 20.6402 15.8748 20.8292C15.7923 21.0181 15.6718 21.1881 15.5207 21.3283C15.3696 21.4686 15.1912 21.5763 14.9967 21.6445C14.8021 21.7128 14.5956 21.7402 14.39 21.7251L14.253 21.7091L5.671 20.2791C5.23121 20.2059 4.8285 19.9878 4.52683 19.6595C4.22517 19.3312 4.04185 18.9115 4.006 18.4671L4 18.3061V5.69412C3.99996 5.24839 4.1488 4.81543 4.42292 4.46396C4.69703 4.11248 5.08069 3.86265 5.513 3.75412L5.671 3.72112L14.253 2.29112ZM14 4.36112L6 5.69412V18.3061L14 19.6391V4.36112ZM18 7.00012H16V17.0001H18V7.00012ZM11.5 10.5001C11.8978 10.5001 12.2794 10.6582 12.5607 10.9395C12.842 11.2208 13 11.6023 13 12.0001C13 12.3979 12.842 12.7795 12.5607 13.0608C12.2794 13.3421 11.8978 13.5001 11.5 13.5001C11.1022 13.5001 10.7206 13.3421 10.4393 13.0608C10.158 12.7795 10 12.3979 10 12.0001C10 11.6023 10.158 11.2208 10.4393 10.9395C10.7206 10.6582 11.1022 10.5001 11.5 10.5001Z" fill="#474747"/>
</svg>
