<svg width="50" height="73" viewBox="0 0 50 73" fill="none" xmlns="http://www.w3.org/2000/svg">
<rect width="50" height="50" rx="25" fill="#CCEBBC"/>
<path d="M15.3906 15.625H17.0312V13.5156C17.0312 13.126 17.3447 12.8125 17.7344 12.8125H35.0781C35.4678 12.8125 35.7812 13.126 35.7812 13.5156V21.4844C35.7812 21.874 35.4678 22.1875 35.0781 22.1875H17.7344C17.3447 22.1875 17.0312 21.874 17.0312 21.4844V17.5H16.0938V23.3594H26.377C27.0244 23.3594 27.5488 23.8838 27.5488 24.5312V28.5156H28.8379C28.9668 28.5156 29.0723 28.6211 29.0723 28.75V35.4297C29.0723 35.4619 29.0664 35.4941 29.0547 35.5205C29.0664 35.5674 29.0723 35.6143 29.0723 35.6641C29.0723 37.0234 27.9707 38.125 26.6113 38.125C25.252 38.125 24.1504 37.0234 24.1504 35.6641C24.1504 35.6143 24.1562 35.5674 24.168 35.5205C24.1562 35.4912 24.1504 35.4619 24.1504 35.4297V28.75C24.1504 28.6211 24.2559 28.5156 24.3848 28.5156H25.6738V25.2344H15.3906C14.7432 25.2344 14.2188 24.71 14.2188 24.0625V16.7969C14.2188 16.1494 14.7432 15.625 15.3906 15.625Z" fill="#61A23F"/>
<path d="M4.75852 70V61.2727H8.2017C8.86364 61.2727 9.42756 61.3991 9.89347 61.652C10.3594 61.902 10.7145 62.25 10.9588 62.696C11.206 63.1392 11.3295 63.6506 11.3295 64.2301C11.3295 64.8097 11.2045 65.321 10.9545 65.7642C10.7045 66.2074 10.3423 66.5526 9.8679 66.7997C9.39631 67.0469 8.82528 67.1705 8.15483 67.1705H5.96023V65.6918H7.85653C8.21165 65.6918 8.50426 65.6307 8.73438 65.5085C8.96733 65.3835 9.14063 65.2116 9.25426 64.9929C9.37074 64.7713 9.42898 64.517 9.42898 64.2301C9.42898 63.9403 9.37074 63.6875 9.25426 63.4716C9.14063 63.2528 8.96733 63.0838 8.73438 62.9645C8.50142 62.8423 8.20597 62.7812 7.84801 62.7812H6.60369V70H4.75852ZM14.1847 70.1236C13.767 70.1236 13.3949 70.0511 13.0682 69.9062C12.7415 69.7585 12.483 69.5412 12.2926 69.2543C12.1051 68.9645 12.0114 68.6037 12.0114 68.1719C12.0114 67.8082 12.0781 67.5028 12.2116 67.2557C12.3452 67.0085 12.527 66.8097 12.7571 66.6591C12.9872 66.5085 13.2486 66.3949 13.5412 66.3182C13.8366 66.2415 14.1463 66.1875 14.4702 66.1562C14.8509 66.1165 15.1577 66.0795 15.3906 66.0455C15.6236 66.0085 15.7926 65.9545 15.8977 65.8835C16.0028 65.8125 16.0554 65.7074 16.0554 65.5682V65.5426C16.0554 65.2727 15.9702 65.0639 15.7997 64.9162C15.6321 64.7685 15.3935 64.6946 15.0838 64.6946C14.7571 64.6946 14.4972 64.767 14.304 64.9119C14.1108 65.054 13.983 65.233 13.9205 65.4489L12.2415 65.3125C12.3267 64.9148 12.4943 64.571 12.7443 64.2812C12.9943 63.9886 13.3168 63.7642 13.7116 63.608C14.1094 63.4489 14.5696 63.3693 15.0923 63.3693C15.456 63.3693 15.804 63.4119 16.1364 63.4972C16.4716 63.5824 16.7685 63.7145 17.027 63.8935C17.2884 64.0724 17.4943 64.3026 17.6449 64.5838C17.7955 64.8622 17.8707 65.196 17.8707 65.5852V70H16.1491V69.0923H16.098C15.9929 69.2969 15.8523 69.4773 15.6761 69.6335C15.5 69.7869 15.2884 69.9077 15.0412 69.9957C14.794 70.081 14.5085 70.1236 14.1847 70.1236ZM14.7045 68.8707C14.9716 68.8707 15.2074 68.8182 15.4119 68.7131C15.6165 68.6051 15.777 68.4602 15.8935 68.2784C16.0099 68.0966 16.0682 67.8906 16.0682 67.6605V66.9659C16.0114 67.0028 15.9332 67.0369 15.8338 67.0682C15.7372 67.0966 15.6278 67.1236 15.5057 67.1491C15.3835 67.1719 15.2614 67.1932 15.1392 67.2131C15.017 67.2301 14.9062 67.2457 14.8068 67.2599C14.5938 67.2912 14.4077 67.3409 14.2486 67.4091C14.0895 67.4773 13.9659 67.5696 13.8778 67.6861C13.7898 67.7997 13.7457 67.9418 13.7457 68.1122C13.7457 68.3594 13.8352 68.5483 14.0142 68.679C14.196 68.8068 14.4261 68.8707 14.7045 68.8707ZM19.2791 70V63.4545H21.0945V70H19.2791ZM20.1911 62.6108C19.9212 62.6108 19.6896 62.5213 19.4964 62.3423C19.3061 62.1605 19.2109 61.9432 19.2109 61.6903C19.2109 61.4403 19.3061 61.2259 19.4964 61.0469C19.6896 60.8651 19.9212 60.7741 20.1911 60.7741C20.4609 60.7741 20.6911 60.8651 20.8814 61.0469C21.0746 61.2259 21.1712 61.4403 21.1712 61.6903C21.1712 61.9432 21.0746 62.1605 20.8814 62.3423C20.6911 62.5213 20.4609 62.6108 20.1911 62.6108ZM24.364 66.2159V70H22.5487V63.4545H24.2788V64.6094H24.3555C24.5004 64.2287 24.7433 63.9276 25.0842 63.706C25.4251 63.4815 25.8384 63.3693 26.3242 63.3693C26.7788 63.3693 27.1751 63.4688 27.5131 63.6676C27.8512 63.8665 28.114 64.1506 28.3015 64.5199C28.489 64.8864 28.5827 65.3239 28.5827 65.8324V70H26.7674V66.1562C26.7702 65.7557 26.668 65.4432 26.4606 65.2188C26.2532 64.9915 25.9677 64.8778 25.604 64.8778C25.3597 64.8778 25.1438 64.9304 24.9563 65.0355C24.7717 65.1406 24.6268 65.294 24.5217 65.4957C24.4194 65.6946 24.3668 65.9347 24.364 66.2159ZM33.495 63.4545V64.8182H29.5533V63.4545H33.495ZM30.4482 61.8864H32.2635V67.9886C32.2635 68.1562 32.2891 68.2869 32.3402 68.3807C32.3913 68.4716 32.4624 68.5355 32.5533 68.5724C32.647 68.6094 32.755 68.6278 32.8771 68.6278C32.9624 68.6278 33.0476 68.6207 33.1328 68.6065C33.218 68.5895 33.2834 68.5767 33.3288 68.5682L33.6143 69.919C33.5234 69.9474 33.3956 69.9801 33.2308 70.017C33.0661 70.0568 32.8658 70.081 32.63 70.0895C32.1925 70.1065 31.8089 70.0483 31.4794 69.9148C31.1527 69.7812 30.8984 69.5739 30.7166 69.2926C30.5348 69.0114 30.4453 68.6562 30.4482 68.2273V61.8864ZM37.5902 70.1278C36.9169 70.1278 36.3374 69.9915 35.8516 69.7188C35.3686 69.4432 34.9964 69.054 34.7351 68.5511C34.4737 68.0455 34.343 67.4474 34.343 66.7571C34.343 66.0838 34.4737 65.4929 34.7351 64.9844C34.9964 64.4759 35.3643 64.0795 35.8388 63.7955C36.3161 63.5114 36.8757 63.3693 37.5178 63.3693C37.9496 63.3693 38.3516 63.4389 38.7237 63.5781C39.0987 63.7145 39.4254 63.9205 39.7038 64.196C39.9851 64.4716 40.2038 64.8182 40.3601 65.2358C40.5163 65.6506 40.5945 66.1364 40.5945 66.6932V67.1918H35.0675V66.0668H38.8857C38.8857 65.8054 38.8288 65.5739 38.7152 65.3722C38.6016 65.1705 38.4439 65.0128 38.2422 64.8991C38.0433 64.7827 37.8118 64.7244 37.5476 64.7244C37.272 64.7244 37.0277 64.7884 36.8146 64.9162C36.6044 65.0412 36.4396 65.2102 36.3203 65.4233C36.201 65.6335 36.1399 65.8679 36.1371 66.1264V67.196C36.1371 67.5199 36.1967 67.7997 36.3161 68.0355C36.4382 68.2713 36.6101 68.4531 36.8317 68.581C37.0533 68.7088 37.3161 68.7727 37.62 68.7727C37.8217 68.7727 38.0064 68.7443 38.174 68.6875C38.3416 68.6307 38.4851 68.5455 38.6044 68.4318C38.7237 68.3182 38.8146 68.179 38.8771 68.0142L40.5561 68.125C40.4709 68.5284 40.2962 68.8807 40.032 69.1818C39.7706 69.4801 39.4325 69.7131 39.0178 69.8807C38.6058 70.0455 38.13 70.1278 37.5902 70.1278ZM41.7791 70V63.4545H43.5391V64.5966H43.6072C43.7266 64.1903 43.9268 63.8835 44.2081 63.6761C44.4893 63.4659 44.8132 63.3608 45.1797 63.3608C45.2706 63.3608 45.3686 63.3665 45.4737 63.3778C45.5788 63.3892 45.6712 63.4048 45.7507 63.4247V65.0355C45.6655 65.0099 45.5476 64.9872 45.397 64.9673C45.2464 64.9474 45.1087 64.9375 44.9837 64.9375C44.7166 64.9375 44.478 64.9957 44.2678 65.1122C44.0604 65.2259 43.8956 65.3849 43.7734 65.5895C43.6541 65.794 43.5945 66.0298 43.5945 66.2969V70H41.7791Z" fill="#383838"/>
</svg>
