<svg width="28" height="23" viewBox="0 0 28 23" fill="none" xmlns="http://www.w3.org/2000/svg">
<path d="M27 20.9999H23V17.9999H26C26.152 17.9998 26.3019 17.9652 26.4385 17.8985C26.575 17.8319 26.6946 17.735 26.7881 17.6152C26.8816 17.4954 26.9466 17.3559 26.9781 17.2073C27.0096 17.0586 27.0068 16.9048 26.97 16.7573L22.97 0.756915C22.9158 0.540682 22.7909 0.348756 22.6152 0.21162C22.4394 0.0744833 22.2229 0 22 0C21.7771 0 21.5606 0.0744833 21.3848 0.21162C21.2091 0.348756 21.0842 0.540682 21.03 0.756915L17.03 16.7573C16.9932 16.9048 16.9904 17.0586 17.0219 17.2073C17.0534 17.3559 17.1184 17.4954 17.2119 17.6152C17.3054 17.735 17.425 17.8319 17.5615 17.8985C17.6981 17.9652 17.848 17.9998 18 17.9999H21V20.9999H13V18.9999H14C14.2652 18.9999 14.5196 18.8945 14.7071 18.707C14.8946 18.5195 15 18.2651 15 17.9999C15 17.7346 14.8946 17.4803 14.7071 17.2927C14.5196 17.1052 14.2652 16.9998 14 16.9998H13V14.9998H14C14.2652 14.9998 14.5196 14.8944 14.7071 14.7069C14.8946 14.5193 15 14.265 15 13.9998C15 13.7345 14.8946 13.4802 14.7071 13.2926C14.5196 13.1051 14.2652 12.9997 14 12.9997H3C2.73478 12.9997 2.48043 13.1051 2.29289 13.2926C2.10536 13.4802 2 13.7345 2 13.9998C2 14.265 2.10536 14.5193 2.29289 14.7069C2.48043 14.8944 2.73478 14.9998 3 14.9998H4V16.9998H3C2.73478 16.9998 2.48043 17.1052 2.29289 17.2927C2.10536 17.4803 2 17.7346 2 17.9999C2 18.2651 2.10536 18.5195 2.29289 18.707C2.48043 18.8945 2.73478 18.9999 3 18.9999H4V20.9999H1C0.734784 20.9999 0.48043 21.1053 0.292893 21.2928C0.105357 21.4804 0 21.7348 0 22C0 22.2652 0.105357 22.5196 0.292893 22.7071C0.48043 22.8946 0.734784 23 1 23H27C27.2652 23 27.5196 22.8946 27.7071 22.7071C27.8946 22.5196 28 22.2652 28 22C28 21.7348 27.8946 21.4804 27.7071 21.2928C27.5196 21.1053 27.2652 20.9999 27 20.9999ZM11 20.9999H6V18.9999H11V20.9999ZM11 16.9998H6V14.9998H11V16.9998ZM12.5 8.99963C13.1922 8.99963 13.8689 8.79436 14.4445 8.40976C15.0201 8.02517 15.4687 7.47853 15.7336 6.83897C15.9985 6.19941 16.0678 5.49566 15.9327 4.81671C15.7977 4.13775 15.4644 3.5141 14.9749 3.0246C14.4854 2.5351 13.8617 2.20175 13.1828 2.0667C12.5039 1.93165 11.8001 2.00096 11.1606 2.26588C10.5211 2.53079 9.97444 2.97941 9.58986 3.55499C9.20527 4.13058 9 4.80729 9 5.49954C9 6.42782 9.36875 7.31808 10.0251 7.97448C10.6815 8.63087 11.5717 8.99963 12.5 8.99963ZM12.5 3.9995C12.7967 3.9995 13.0867 4.08748 13.3334 4.2523C13.58 4.41713 13.7723 4.6514 13.8858 4.9255C13.9994 5.1996 14.0291 5.5012 13.9712 5.79218C13.9133 6.08316 13.7704 6.35044 13.5607 6.56023C13.3509 6.77001 13.0836 6.91288 12.7926 6.97076C12.5017 7.02864 12.2001 6.99893 11.926 6.8854C11.6519 6.77186 11.4176 6.5796 11.2528 6.33292C11.088 6.08624 11 5.79622 11 5.49954C11 5.10171 11.158 4.72016 11.4393 4.43885C11.7206 4.15754 12.1022 3.9995 12.5 3.9995Z" fill="#474747"/>
</svg>
