<svg width="30" height="30" viewBox="0 0 30 30" fill="none" xmlns="http://www.w3.org/2000/svg">
<path d="M27.1875 22.4999H23.4375V19.6874H26.25C26.3925 19.6874 26.533 19.6549 26.6611 19.5924C26.7891 19.53 26.9012 19.4391 26.9888 19.3268C27.0765 19.2145 27.1374 19.0837 27.167 18.9444C27.1965 18.805 27.1939 18.6608 27.1594 18.5226L23.4094 3.52258C23.3586 3.31986 23.2415 3.13994 23.0767 3.01138C22.912 2.88281 22.709 2.81299 22.5 2.81299C22.291 2.81299 22.088 2.88281 21.9233 3.01138C21.7585 3.13994 21.6414 3.31986 21.5906 3.52258L17.8406 18.5226C17.8061 18.6608 17.8035 18.805 17.833 18.9444C17.8626 19.0837 17.9235 19.2145 18.0112 19.3268C18.0988 19.4391 18.2109 19.53 18.3389 19.5924C18.467 19.6549 18.6075 19.6874 18.75 19.6874H21.5625V22.4999H14.0625V20.6249H15C15.2486 20.6249 15.4871 20.5261 15.6629 20.3503C15.8387 20.1745 15.9375 19.9361 15.9375 19.6874C15.9375 19.4388 15.8387 19.2003 15.6629 19.0245C15.4871 18.8487 15.2486 18.7499 15 18.7499H14.0625V16.8749H15C15.2486 16.8749 15.4871 16.7761 15.6629 16.6003C15.8387 16.4245 15.9375 16.1861 15.9375 15.9374C15.9375 15.6888 15.8387 15.4503 15.6629 15.2745C15.4871 15.0987 15.2486 14.9999 15 14.9999H4.6875C4.43886 14.9999 4.2004 15.0987 4.02459 15.2745C3.84877 15.4503 3.75 15.6888 3.75 15.9374C3.75 16.1861 3.84877 16.4245 4.02459 16.6003C4.2004 16.7761 4.43886 16.8749 4.6875 16.8749H5.625V18.7499H4.6875C4.43886 18.7499 4.2004 18.8487 4.02459 19.0245C3.84877 19.2003 3.75 19.4388 3.75 19.6874C3.75 19.9361 3.84877 20.1745 4.02459 20.3503C4.2004 20.5261 4.43886 20.6249 4.6875 20.6249H5.625V22.4999H2.8125C2.56386 22.4999 2.3254 22.5987 2.14959 22.7745C1.97377 22.9503 1.875 23.1888 1.875 23.4374C1.875 23.6861 1.97377 23.9245 2.14959 24.1003C2.3254 24.2761 2.56386 24.3749 2.8125 24.3749H27.1875C27.4361 24.3749 27.6746 24.2761 27.8504 24.1003C28.0262 23.9245 28.125 23.6861 28.125 23.4374C28.125 23.1888 28.0262 22.9503 27.8504 22.7745C27.6746 22.5987 27.4361 22.4999 27.1875 22.4999ZM12.1875 22.4999H7.5V20.6249H12.1875V22.4999ZM12.1875 18.7499H7.5V16.8749H12.1875V18.7499ZM13.5938 11.2499C14.2427 11.2499 14.8771 11.0575 15.4167 10.6969C15.9563 10.3364 16.3769 9.82392 16.6252 9.22435C16.8736 8.62478 16.9386 7.96503 16.812 7.32853C16.6853 6.69203 16.3728 6.10737 15.9139 5.64848C15.4551 5.18959 14.8704 4.87708 14.2339 4.75047C13.5974 4.62386 12.9376 4.68884 12.3381 4.93719C11.7385 5.18554 11.226 5.60611 10.8655 6.14571C10.5049 6.68531 10.3125 7.3197 10.3125 7.96867C10.3125 8.83891 10.6582 9.67351 11.2736 10.2889C11.8889 10.9042 12.7235 11.2499 13.5938 11.2499ZM13.5938 6.56242C13.8719 6.56242 14.1438 6.6449 14.375 6.79942C14.6063 6.95394 14.7865 7.17356 14.893 7.43052C14.9994 7.68748 15.0272 7.97023 14.973 8.24302C14.9187 8.5158 14.7848 8.76637 14.5881 8.96304C14.3915 9.15971 14.1409 9.29364 13.8681 9.3479C13.5953 9.40216 13.3126 9.37431 13.0556 9.26788C12.7986 9.16144 12.579 8.9812 12.4245 8.74994C12.27 8.51868 12.1875 8.2468 12.1875 7.96867C12.1875 7.59571 12.3357 7.23803 12.5994 6.9743C12.8631 6.71058 13.2208 6.56242 13.5938 6.56242Z" fill="#474747"/>
</svg>
