<svg width="50" height="73" viewBox="0 0 50 73" fill="none" xmlns="http://www.w3.org/2000/svg">
<rect width="50" height="50" rx="25" fill="#AFDEFF"/>
<path d="M37.5827 36.6376C37.5827 35.4412 35.3999 32.0974 35.3999 32.0974C35.3999 32.0974 33.1841 35.4412 33.1841 36.6376C33.1841 37.8316 34.1693 38.8 35.3837 38.8C36.5981 38.8 37.5827 37.8316 37.5827 36.6376ZM21.7997 17.9026H17.4011V13.5664H18.6005V11.2H10.6001V13.5664H11.8001V20.2684C11.8001 22.0108 13.2329 23.4226 14.9999 23.4226H21.7997V24.6058H24.2003V16.7206H21.7997V17.9026ZM38.1989 27.7594V21.0574C38.1989 19.3156 36.7667 17.9032 35.0015 17.9032H28.2005V16.7212H25.7999V24.607H28.2005V23.4232H32.5997V27.7594H31.4015V30.1258H39.4001V27.7594H38.1989Z" fill="#1389DD"/>
<path d="M0.758523 70V61.2727H4.2017C4.86364 61.2727 5.42756 61.3991 5.89347 61.652C6.35938 61.902 6.71449 62.25 6.95881 62.696C7.20597 63.1392 7.32955 63.6506 7.32955 64.2301C7.32955 64.8097 7.20455 65.321 6.95455 65.7642C6.70455 66.2074 6.34233 66.5526 5.8679 66.7997C5.39631 67.0469 4.82528 67.1705 4.15483 67.1705H1.96023V65.6918H3.85653C4.21165 65.6918 4.50426 65.6307 4.73438 65.5085C4.96733 65.3835 5.14063 65.2116 5.25426 64.9929C5.37074 64.7713 5.42898 64.517 5.42898 64.2301C5.42898 63.9403 5.37074 63.6875 5.25426 63.4716C5.14063 63.2528 4.96733 63.0838 4.73438 62.9645C4.50142 62.8423 4.20597 62.7812 3.84801 62.7812H2.60369V70H0.758523ZM10.3093 61.2727V70H8.49396V61.2727H10.3093ZM15.9609 67.2131V63.4545H17.7763V70H16.0334V68.8111H15.9652C15.8175 69.1946 15.5717 69.5028 15.228 69.7358C14.8871 69.9687 14.4709 70.0852 13.9794 70.0852C13.5419 70.0852 13.157 69.9858 12.8246 69.7869C12.4922 69.5881 12.2322 69.3054 12.0447 68.9389C11.8601 68.5724 11.7663 68.1335 11.7635 67.6222V63.4545H13.5788V67.2983C13.5817 67.6847 13.6854 67.9901 13.8899 68.2145C14.0945 68.4389 14.3686 68.5511 14.7124 68.5511C14.9311 68.5511 15.1357 68.5014 15.326 68.402C15.5163 68.2997 15.6697 68.1491 15.7862 67.9503C15.9055 67.7514 15.9638 67.5057 15.9609 67.2131ZM19.2283 70V63.4545H20.9585V64.6094H21.0352C21.1715 64.2259 21.3988 63.9233 21.717 63.7017C22.0352 63.4801 22.4158 63.3693 22.859 63.3693C23.3079 63.3693 23.69 63.4815 24.0053 63.706C24.3207 63.9276 24.5309 64.2287 24.636 64.6094H24.7042C24.8377 64.2344 25.0792 63.9347 25.4286 63.7102C25.7809 63.483 26.1971 63.3693 26.6772 63.3693C27.288 63.3693 27.7837 63.5639 28.1644 63.9531C28.5479 64.3395 28.7397 64.8878 28.7397 65.598V70H26.9286V65.956C26.9286 65.5923 26.832 65.3196 26.6388 65.1378C26.4457 64.956 26.2042 64.8651 25.9144 64.8651C25.5849 64.8651 25.3278 64.9702 25.1431 65.1804C24.9585 65.3878 24.8661 65.6619 24.8661 66.0028V70H23.1062V65.9176C23.1062 65.5966 23.0138 65.3409 22.8292 65.1506C22.6474 64.9602 22.4073 64.8651 22.109 64.8651C21.9073 64.8651 21.7255 64.9162 21.5636 65.0185C21.4045 65.1179 21.2781 65.2585 21.1843 65.4403C21.0906 65.6193 21.0437 65.8295 21.0437 66.071V70H19.2283ZM30.2077 70V61.2727H32.0231V64.554H32.0785C32.158 64.3778 32.2731 64.1989 32.4237 64.017C32.5771 63.8324 32.7759 63.679 33.0202 63.5568C33.2674 63.4318 33.5742 63.3693 33.9407 63.3693C34.418 63.3693 34.8583 63.4943 35.2617 63.7443C35.6651 63.9915 35.9876 64.3651 36.229 64.8651C36.4705 65.3622 36.5913 65.9858 36.5913 66.7358C36.5913 67.4659 36.4734 68.0824 36.2376 68.5852C36.0046 69.0852 35.6864 69.4645 35.283 69.723C34.8825 69.9787 34.4336 70.1065 33.9364 70.1065C33.5842 70.1065 33.2844 70.0483 33.0373 69.9318C32.793 69.8153 32.5927 69.669 32.4364 69.4929C32.2802 69.3139 32.1609 69.1335 32.0785 68.9517H31.9975V70H30.2077ZM31.9847 66.7273C31.9847 67.1165 32.0387 67.456 32.1467 67.7457C32.2546 68.0355 32.4109 68.2614 32.6154 68.4233C32.82 68.5824 33.0685 68.6619 33.3612 68.6619C33.6566 68.6619 33.9066 68.581 34.1112 68.419C34.3157 68.2543 34.4705 68.027 34.5756 67.7372C34.6836 67.4446 34.7376 67.108 34.7376 66.7273C34.7376 66.3494 34.685 66.017 34.5799 65.7301C34.4748 65.4432 34.32 65.2187 34.1154 65.0568C33.9109 64.8949 33.6594 64.8139 33.3612 64.8139C33.0657 64.8139 32.8157 64.892 32.6112 65.0483C32.4094 65.2045 32.2546 65.4261 32.1467 65.7131C32.0387 66 31.9847 66.3381 31.9847 66.7273ZM40.7855 70.1278C40.1122 70.1278 39.5327 69.9915 39.0469 69.7188C38.5639 69.4432 38.1918 69.054 37.9304 68.5511C37.669 68.0455 37.5384 67.4474 37.5384 66.7571C37.5384 66.0838 37.669 65.4929 37.9304 64.9844C38.1918 64.4759 38.5597 64.0795 39.0341 63.7955C39.5114 63.5114 40.071 63.3693 40.7131 63.3693C41.1449 63.3693 41.5469 63.4389 41.919 63.5781C42.294 63.7145 42.6207 63.9205 42.8991 64.196C43.1804 64.4716 43.3991 64.8182 43.5554 65.2358C43.7116 65.6506 43.7898 66.1364 43.7898 66.6932V67.1918H38.2628V66.0668H42.081C42.081 65.8054 42.0241 65.5739 41.9105 65.3722C41.7969 65.1705 41.6392 65.0128 41.4375 64.8991C41.2386 64.7827 41.0071 64.7244 40.7429 64.7244C40.4673 64.7244 40.223 64.7884 40.0099 64.9162C39.7997 65.0412 39.6349 65.2102 39.5156 65.4233C39.3963 65.6335 39.3352 65.8679 39.3324 66.1264V67.196C39.3324 67.5199 39.392 67.7997 39.5114 68.0355C39.6335 68.2713 39.8054 68.4531 40.027 68.581C40.2486 68.7088 40.5114 68.7727 40.8153 68.7727C41.017 68.7727 41.2017 68.7443 41.3693 68.6875C41.5369 68.6307 41.6804 68.5455 41.7997 68.4318C41.919 68.3182 42.0099 68.179 42.0724 68.0142L43.7514 68.125C43.6662 68.5284 43.4915 68.8807 43.2273 69.1818C42.9659 69.4801 42.6278 69.7131 42.2131 69.8807C41.8011 70.0455 41.3253 70.1278 40.7855 70.1278ZM44.9744 70V63.4545H46.7344V64.5966H46.8026C46.9219 64.1903 47.1222 63.8835 47.4034 63.6761C47.6847 63.4659 48.0085 63.3608 48.375 63.3608C48.4659 63.3608 48.5639 63.3665 48.669 63.3778C48.7741 63.3892 48.8665 63.4048 48.946 63.4247V65.0355C48.8608 65.0099 48.7429 64.9872 48.5923 64.9673C48.4418 64.9474 48.304 64.9375 48.179 64.9375C47.9119 64.9375 47.6733 64.9957 47.4631 65.1122C47.2557 65.2259 47.0909 65.3849 46.9688 65.5895C46.8494 65.794 46.7898 66.0298 46.7898 66.2969V70H44.9744Z" fill="#383838"/>
</svg>
