<svg width="65" height="65" viewBox="0 0 65 65" fill="none" xmlns="http://www.w3.org/2000/svg">
<circle cx="32.5" cy="32.5" r="31.5" fill="white" stroke="#044870" stroke-width="2"/>
<path d="M40 26.999H38.414L37.414 25.9992C36.835 25.4203 35.819 24.9993 35 24.9993H31C30.181 24.9993 29.165 25.4203 28.586 25.9992L27.586 26.999H26C24.346 26.999 23 28.3448 23 29.9985V37.9971C23 39.6509 24.346 40.9966 26 40.9966H40C41.654 40.9966 43 39.6509 43 37.9971V29.9985C43 28.3448 41.654 26.999 40 26.999ZM33 36.9973C32.0716 36.9972 31.1813 36.6283 30.5249 35.9719C29.8685 35.3154 29.4999 34.4251 29.5 33.4969C29.5001 32.5687 29.8691 31.6785 30.5256 31.0222C31.1822 30.366 32.0726 29.9974 33.001 29.9975C33.9294 29.9976 34.8197 30.3665 35.4761 31.0229C36.1325 31.6794 36.5011 32.5697 36.501 33.4979C36.5009 34.4261 36.1319 35.3163 35.4754 35.9726C34.8188 36.6288 33.9284 36.9974 33 36.9973ZM39 32.2971C38.8293 32.2971 38.6602 32.2635 38.5025 32.1982C38.3448 32.1328 38.2015 32.0371 38.0808 31.9164C37.96 31.7957 37.8643 31.6524 37.799 31.4947C37.7336 31.337 37.7 31.168 37.7 30.9973C37.7 30.8266 37.7336 30.6576 37.799 30.4999C37.8643 30.3422 37.96 30.1989 38.0808 30.0782C38.2015 29.9575 38.3448 29.8618 38.5025 29.7965C38.6602 29.7312 38.8293 29.6975 39 29.6975C39.3448 29.6975 39.6754 29.8345 39.9192 30.0782C40.163 30.322 40.3 30.6526 40.3 30.9973C40.3 31.342 40.163 31.6726 39.9192 31.9164C39.6754 32.1602 39.3448 32.2971 39 32.2971Z" fill="#A9A9A9"/>
</svg>
