<svg width="35" height="35" viewBox="0 0 35 35" fill="none" xmlns="http://www.w3.org/2000/svg">
<path d="M17.3538 15.8962C15.5809 17.6788 14.5848 20.0903 14.583 22.6045V17.5003H5.83301V23.3337H14.583V22.6045C14.583 23.8441 14.8309 25.0837 15.3122 26.2503H2.91634V17.5003H1.45801V14.5837L2.91634 7.29199H26.2497L27.5476 13.7962C25.8298 13.108 23.9475 12.9401 22.135 13.3135C20.3225 13.6869 18.6598 14.5851 17.3538 15.8962ZM26.2497 2.91699H2.91634V5.83366H26.2497V2.91699ZM34.1101 30.6253L32.083 32.6524L27.533 28.1753C26.5268 28.8024 25.3309 29.167 24.0622 29.167C20.4163 29.167 17.4997 26.2503 17.4997 22.6045C17.4997 18.9587 20.4163 16.042 24.0622 16.042C27.708 16.042 30.6247 18.9587 30.6247 22.6045C30.6247 23.8878 30.2601 25.0982 29.6184 26.1045L34.1101 30.6253ZM27.708 22.6045C27.708 21.6376 27.3239 20.7102 26.6402 20.0265C25.9564 19.3428 25.0291 18.9587 24.0622 18.9587C23.0952 18.9587 22.1679 19.3428 21.4842 20.0265C20.8005 20.7102 20.4163 21.6376 20.4163 22.6045C20.4163 23.5714 20.8005 24.4988 21.4842 25.1825C22.1679 25.8662 23.0952 26.2503 24.0622 26.2503C25.0291 26.2503 25.9564 25.8662 26.6402 25.1825C27.3239 24.4988 27.708 23.5714 27.708 22.6045Z" fill="#474747"/>
</svg>
