<svg width="63" height="73" viewBox="0 0 63 73" fill="none" xmlns="http://www.w3.org/2000/svg">
<rect x="6.5" width="50" height="50" rx="25" fill="#E8F5E9"/>
<path d="M38.814 28.1402V27.4158L24.1484 22.1911H22.698V18.0497L31.4275 12L40.157 18.0497V28.1389L38.814 28.1402ZM32.2279 19.5546H33.3131V18.5H32.2279V19.5546ZM29.5419 19.5546H30.627V18.5H29.5419V19.5546ZM32.2279 22.165H33.3131V21.1104H32.2279V22.165ZM29.5419 22.165H30.627V21.1104H29.5419V22.165ZM16.5 35.9454V25.3027H20.529V35.9454H16.5ZM32.099 37L21.8707 34.0959V25.3027H25.067L34.9408 28.8424V30.9255H30.9118L27.424 29.7182L27.0063 30.6997L30.8594 31.9293H41.5V33.9876L32.099 37Z" fill="#4CAF50"/>
<text x="31.5" y="63" font-family="Inter" font-size="11" font-weight="700" fill="#383838" text-anchor="middle">Real</text>
<text x="31.5" y="72" font-family="Inter" font-size="11" font-weight="700" fill="#383838" text-anchor="middle">Estate</text>
</svg>
