<svg width="25" height="25" viewBox="0 0 25 25" fill="none" xmlns="http://www.w3.org/2000/svg">
<path d="M22.314 16.1402V15.4158L7.6484 10.1911H6.19796V6.04965L14.9275 0L23.657 6.04965V16.1389L22.314 16.1402ZM15.7279 7.55456H16.8131V6.49995H15.7279V7.55456ZM13.0419 7.55456H14.127V6.49995H13.0419V7.55456ZM15.7279 10.165H16.8131V9.11037H15.7279V10.165ZM13.0419 10.165H14.127V9.11037H13.0419V10.165ZM0 23.9454V13.3027H4.02901V23.9454H0ZM15.599 25L5.37067 22.0959V13.3027H8.56702L18.4408 16.8424V18.9255H14.4118L10.924 17.7182L10.5063 18.6997L14.3594 19.9293H25V21.9876L15.599 25Z" fill="#474747"/>
</svg>
