<svg preserveAspectRatio="none" width="100%" height="100%" overflow="visible" style="display: block;" viewBox="0 0 30 30" fill="none" xmlns="http://www.w3.org/2000/svg">
<g id="material-symbols:restaurant">
<path id="Vector" d="M8.75 27.5V16.0625C7.6875 15.7708 6.79708 15.1875 6.07875 14.3125C5.36042 13.4375 5.00083 12.4167 5 11.25V2.5H7.5V11.25H8.75V2.5H11.25V11.25H12.5V2.5H15V11.25C15 12.4167 14.6408 13.4375 13.9225 14.3125C13.2042 15.1875 12.3133 15.7708 11.25 16.0625V27.5H8.75ZM21.25 27.5V17.5H17.5V8.75C17.5 7.02083 18.1096 5.54708 19.3288 4.32875C20.5479 3.11042 22.0217 2.50083 23.75 2.5V27.5H21.25Z" fill="var(--fill-0, #474747)"/>
</g>
</svg>
