<svg width="30" height="30" viewBox="0 0 30 30" fill="none" xmlns="http://www.w3.org/2000/svg">
<path d="M21.25 27.5V16.0625C22.3125 15.7708 23.2029 15.1875 23.9213 14.3125C24.6396 13.4375 24.9992 12.4167 25 11.25V2.5H22.5V11.25H21.25V2.5H18.75V11.25H17.5V2.5H15V11.25C15 12.4167 15.3592 13.4375 16.0775 14.3125C16.7958 15.1875 17.6867 15.7708 18.75 16.0625V27.5H21.25ZM8.75 27.5V17.5H12.5V8.75C12.5 7.02083 11.8904 5.54708 10.6712 4.32875C9.45208 3.11042 7.97833 2.50083 6.25 2.5V27.5H8.75Z" fill="#474747"/>
</svg>
