<svg width="50" height="73" viewBox="0 0 50 73" fill="none" xmlns="http://www.w3.org/2000/svg">
<rect width="50" height="50" rx="25" fill="#FFBDBD"/>
<path d="M30 37.5V35H35V32.5H30V30H35V27.5H30V25H35V22.5H30V20H35V17.5H30V15H38.75V37.5H30ZM16.25 37.5L11.25 23.75L17.5 20V12.5H22.5V20L28.75 23.75L23.75 37.5H16.25Z" fill="#FF4C4C"/>
<path d="M13.9929 63.7827C13.9588 63.4389 13.8125 63.1719 13.554 62.9815C13.2955 62.7912 12.9446 62.696 12.5014 62.696C12.2003 62.696 11.946 62.7386 11.7386 62.8239C11.5313 62.9062 11.3722 63.0213 11.2614 63.169C11.1534 63.3168 11.0994 63.4844 11.0994 63.6719C11.0938 63.8281 11.1264 63.9645 11.1974 64.081C11.2713 64.1974 11.3722 64.2983 11.5 64.3835C11.6278 64.4659 11.7756 64.5384 11.9432 64.6009C12.1108 64.6605 12.2898 64.7116 12.4801 64.7543L13.2642 64.9418C13.6449 65.027 13.9943 65.1406 14.3125 65.2827C14.6307 65.4247 14.9063 65.5994 15.1392 65.8068C15.3722 66.0142 15.5526 66.2585 15.6804 66.5398C15.8111 66.821 15.8778 67.1435 15.8807 67.5071C15.8778 68.0412 15.7415 68.5043 15.4716 68.8963C15.2045 69.2855 14.8182 69.5881 14.3125 69.804C13.8097 70.017 13.2031 70.1236 12.4929 70.1236C11.7884 70.1236 11.1747 70.0156 10.652 69.7997C10.1321 69.5838 9.72585 69.2642 9.43324 68.8409C9.14347 68.4148 8.99148 67.8878 8.97727 67.2599H10.7628C10.7827 67.5526 10.8665 67.7969 11.0142 67.9929C11.1648 68.1861 11.3651 68.3324 11.6151 68.4318C11.8679 68.5284 12.1534 68.5767 12.4716 68.5767C12.7841 68.5767 13.0554 68.5312 13.2855 68.4403C13.5185 68.3494 13.6989 68.223 13.8267 68.0611C13.9545 67.8991 14.0185 67.7131 14.0185 67.5028C14.0185 67.3068 13.9602 67.142 13.8438 67.0085C13.7301 66.875 13.5625 66.7614 13.3409 66.6676C13.1222 66.5739 12.8537 66.4886 12.5355 66.4119L11.5852 66.1733C10.8494 65.9943 10.2685 65.7145 9.84233 65.3338C9.41619 64.9531 9.20455 64.4403 9.20739 63.7955C9.20455 63.267 9.34517 62.8054 9.62926 62.4105C9.91619 62.0156 10.3097 61.7074 10.8097 61.4858C11.3097 61.2642 11.8778 61.1534 12.5142 61.1534C13.1619 61.1534 13.7273 61.2642 14.2102 61.4858C14.696 61.7074 15.0739 62.0156 15.3438 62.4105C15.6136 62.8054 15.7528 63.2628 15.7614 63.7827H13.9929ZM18.9542 70.1236C18.5366 70.1236 18.1644 70.0511 17.8377 69.9062C17.511 69.7585 17.2525 69.5412 17.0621 69.2543C16.8746 68.9645 16.7809 68.6037 16.7809 68.1719C16.7809 67.8082 16.8477 67.5028 16.9812 67.2557C17.1147 67.0085 17.2965 66.8097 17.5266 66.6591C17.7567 66.5085 18.0181 66.3949 18.3107 66.3182C18.6062 66.2415 18.9158 66.1875 19.2397 66.1562C19.6204 66.1165 19.9272 66.0795 20.1602 66.0455C20.3931 66.0085 20.5621 65.9545 20.6673 65.8835C20.7724 65.8125 20.8249 65.7074 20.8249 65.5682V65.5426C20.8249 65.2727 20.7397 65.0639 20.5692 64.9162C20.4016 64.7685 20.163 64.6946 19.8533 64.6946C19.5266 64.6946 19.2667 64.767 19.0735 64.9119C18.8803 65.054 18.7525 65.233 18.69 65.4489L17.011 65.3125C17.0962 64.9148 17.2638 64.571 17.5138 64.2812C17.7638 63.9886 18.0863 63.7642 18.4812 63.608C18.8789 63.4489 19.3391 63.3693 19.8619 63.3693C20.2255 63.3693 20.5735 63.4119 20.9059 63.4972C21.2411 63.5824 21.538 63.7145 21.7965 63.8935C22.0579 64.0724 22.2638 64.3026 22.4144 64.5838C22.565 64.8622 22.6403 65.196 22.6403 65.5852V70H20.9187V69.0923H20.8675C20.7624 69.2969 20.6218 69.4773 20.4457 69.6335C20.2695 69.7869 20.0579 69.9077 19.8107 69.9957C19.5636 70.081 19.2781 70.1236 18.9542 70.1236ZM19.4741 68.8707C19.7411 68.8707 19.9769 68.8182 20.1815 68.7131C20.386 68.6051 20.5465 68.4602 20.663 68.2784C20.7795 68.0966 20.8377 67.8906 20.8377 67.6605V66.9659C20.7809 67.0028 20.7028 67.0369 20.6033 67.0682C20.5067 67.0966 20.3974 67.1236 20.2752 67.1491C20.1531 67.1719 20.0309 67.1932 19.9087 67.2131C19.7866 67.2301 19.6758 67.2457 19.5763 67.2599C19.3633 67.2912 19.1772 67.3409 19.0181 67.4091C18.859 67.4773 18.7354 67.5696 18.6474 67.6861C18.5593 67.7997 18.5153 67.9418 18.5153 68.1122C18.5153 68.3594 18.6048 68.5483 18.7837 68.679C18.9656 68.8068 19.1957 68.8707 19.4741 68.8707ZM25.864 61.2727V70H24.0487V61.2727H25.864ZM30.2756 70.1278C29.6136 70.1278 29.0412 69.9872 28.5582 69.706C28.0781 69.4219 27.7074 69.027 27.446 68.5213C27.1847 68.0128 27.054 67.4233 27.054 66.7528C27.054 66.0767 27.1847 65.4858 27.446 64.9801C27.7074 64.4716 28.0781 64.0767 28.5582 63.7955C29.0412 63.5114 29.6136 63.3693 30.2756 63.3693C30.9375 63.3693 31.5085 63.5114 31.9886 63.7955C32.4716 64.0767 32.8438 64.4716 33.1051 64.9801C33.3665 65.4858 33.4972 66.0767 33.4972 66.7528C33.4972 67.4233 33.3665 68.0128 33.1051 68.5213C32.8438 69.027 32.4716 69.4219 31.9886 69.706C31.5085 69.9872 30.9375 70.1278 30.2756 70.1278ZM30.2841 68.7216C30.5852 68.7216 30.8366 68.6364 31.0384 68.4659C31.2401 68.2926 31.392 68.0568 31.4943 67.7585C31.5994 67.4602 31.652 67.1207 31.652 66.7401C31.652 66.3594 31.5994 66.0199 31.4943 65.7216C31.392 65.4233 31.2401 65.1875 31.0384 65.0142C30.8366 64.8409 30.5852 64.7543 30.2841 64.7543C29.9801 64.7543 29.7244 64.8409 29.517 65.0142C29.3125 65.1875 29.1577 65.4233 29.0526 65.7216C28.9503 66.0199 28.8991 66.3594 28.8991 66.7401C28.8991 67.1207 28.9503 67.4602 29.0526 67.7585C29.1577 68.0568 29.3125 68.2926 29.517 68.4659C29.7244 68.6364 29.9801 68.7216 30.2841 68.7216ZM36.4929 66.2159V70H34.6776V63.4545H36.4077V64.6094H36.4844C36.6293 64.2287 36.8722 63.9276 37.2131 63.706C37.554 63.4815 37.9673 63.3693 38.4531 63.3693C38.9077 63.3693 39.304 63.4688 39.642 63.6676C39.9801 63.8665 40.2429 64.1506 40.4304 64.5199C40.6179 64.8864 40.7116 65.3239 40.7116 65.8324V70H38.8963V66.1562C38.8991 65.7557 38.7969 65.4432 38.5895 65.2188C38.3821 64.9915 38.0966 64.8778 37.733 64.8778C37.4886 64.8778 37.2727 64.9304 37.0852 65.0355C36.9006 65.1406 36.7557 65.294 36.6506 65.4957C36.5483 65.6946 36.4957 65.9347 36.4929 66.2159Z" fill="#383838"/>
</svg>
