<svg width="306" height="38" viewBox="0 0 306 38" fill="none" xmlns="http://www.w3.org/2000/svg">
<rect x="1" y="1" width="304" height="36" rx="18" fill="white" stroke="#EBEBEB" stroke-width="2"/>
<path d="M281.375 11.2084C281.099 11.2084 280.834 11.3182 280.638 11.5135C280.443 11.7089 280.333 11.9738 280.333 12.2501C280.333 12.5264 280.443 12.7913 280.638 12.9867C280.834 13.182 281.099 13.2918 281.375 13.2918C281.651 13.2918 281.916 13.182 282.111 12.9867C282.307 12.7913 282.417 12.5264 282.417 12.2501C282.417 11.9738 282.307 11.7089 282.111 11.5135C281.916 11.3182 281.651 11.2084 281.375 11.2084ZM278.427 11.2084C278.642 10.5985 279.041 10.0704 279.569 9.69677C280.097 9.32318 280.728 9.12256 281.375 9.12256C282.022 9.12256 282.652 9.32318 283.18 9.69677C283.708 10.0704 284.108 10.5985 284.323 11.2084H291.792C292.068 11.2084 292.333 11.3182 292.528 11.5135C292.723 11.7089 292.833 11.9738 292.833 12.2501C292.833 12.5264 292.723 12.7913 292.528 12.9867C292.333 13.182 292.068 13.2918 291.792 13.2918H284.323C284.108 13.9017 283.708 14.4299 283.18 14.8035C282.652 15.177 282.022 15.3777 281.375 15.3777C280.728 15.3777 280.097 15.177 279.569 14.8035C279.041 14.4299 278.642 13.9017 278.427 13.2918H277.208C276.932 13.2918 276.667 13.182 276.472 12.9867C276.276 12.7913 276.167 12.5264 276.167 12.2501C276.167 11.9738 276.276 11.7089 276.472 11.5135C276.667 11.3182 276.932 11.2084 277.208 11.2084H278.427ZM287.625 17.4584C287.349 17.4584 287.084 17.5682 286.888 17.7635C286.693 17.9589 286.583 18.2238 286.583 18.5001C286.583 18.7764 286.693 19.0413 286.888 19.2367C287.084 19.432 287.349 19.5418 287.625 19.5418C287.901 19.5418 288.166 19.432 288.361 19.2367C288.557 19.0413 288.667 18.7764 288.667 18.5001C288.667 18.2238 288.557 17.9589 288.361 17.7635C288.166 17.5682 287.901 17.4584 287.625 17.4584ZM284.677 17.4584C284.892 16.8485 285.291 16.3204 285.819 15.9468C286.347 15.5732 286.978 15.3726 287.625 15.3726C288.272 15.3726 288.902 15.5732 289.43 15.9468C289.958 16.3204 290.358 16.8485 290.573 17.4584H291.792C292.068 17.4584 292.333 17.5682 292.528 17.7635C292.723 17.9589 292.833 18.2238 292.833 18.5001C292.833 18.7764 292.723 19.0413 292.528 19.2367C292.333 19.432 292.068 19.5418 291.792 19.5418H290.573C290.358 20.1517 289.958 20.6799 289.43 21.0535C288.902 21.427 288.272 21.6277 287.625 21.6277C286.978 21.6277 286.347 21.427 285.819 21.0535C285.291 20.6799 284.892 20.1517 284.677 19.5418H277.208C276.932 19.5418 276.667 19.432 276.472 19.2367C276.276 19.0413 276.167 18.7764 276.167 18.5001C276.167 18.2238 276.276 17.9589 276.472 17.7635C276.667 17.5682 276.932 17.4584 277.208 17.4584H284.677ZM281.375 23.7084C281.099 23.7084 280.834 23.8182 280.638 24.0135C280.443 24.2089 280.333 24.4738 280.333 24.7501C280.333 25.0264 280.443 25.2913 280.638 25.4867C280.834 25.682 281.099 25.7918 281.375 25.7918C281.651 25.7918 281.916 25.682 282.111 25.4867C282.307 25.2913 282.417 25.0264 282.417 24.7501C282.417 24.4738 282.307 24.2089 282.111 24.0135C281.916 23.8182 281.651 23.7084 281.375 23.7084ZM278.427 23.7084C278.642 23.0985 279.041 22.5704 279.569 22.1968C280.097 21.8232 280.728 21.6226 281.375 21.6226C282.022 21.6226 282.652 21.8232 283.18 22.1968C283.708 22.5704 284.108 23.0985 284.323 23.7084H291.792C292.068 23.7084 292.333 23.8182 292.528 24.0135C292.723 24.2089 292.833 24.4738 292.833 24.7501C292.833 25.0264 292.723 25.2913 292.528 25.4867C292.333 25.682 292.068 25.7918 291.792 25.7918H284.323C284.108 26.4017 283.708 26.9299 283.18 27.3035C282.652 27.677 282.022 27.8777 281.375 27.8777C280.728 27.8777 280.097 27.677 279.569 27.3035C279.041 26.9299 278.642 26.4017 278.427 25.7918H277.208C276.932 25.7918 276.667 25.682 276.472 25.4867C276.276 25.2913 276.167 25.0264 276.167 24.7501C276.167 24.4738 276.276 24.2089 276.472 24.0135C276.667 23.8182 276.932 23.7084 277.208 23.7084H278.427Z" fill="#373737"/>
<path d="M265.086 8.34375V28.6562C265.086 28.8117 265.024 28.9607 264.914 29.0706C264.804 29.1805 264.655 29.2422 264.5 29.2422C264.345 29.2422 264.196 29.1805 264.086 29.0706C263.976 28.9607 263.914 28.8117 263.914 28.6562V8.34375C263.914 8.18835 263.976 8.03931 264.086 7.92943C264.196 7.81954 264.345 7.75781 264.5 7.75781C264.655 7.75781 264.804 7.81954 264.914 7.92943C265.024 8.03931 265.086 8.18835 265.086 8.34375Z" fill="black"/>
<path d="M31.8752 28.875L27.3513 24.351M27.3513 24.351C28.1251 23.5772 28.7389 22.6585 29.1577 21.6474C29.5765 20.6363 29.7921 19.5527 29.7921 18.4583C29.7921 17.3639 29.5765 16.2803 29.1577 15.2692C28.7389 14.2581 28.1251 13.3394 27.3513 12.5656C26.5774 11.7918 25.6587 11.1779 24.6477 10.7591C23.6366 10.3403 22.5529 10.1248 21.4585 10.1248C20.3642 10.1248 19.2805 10.3403 18.2694 10.7591C17.2584 11.1779 16.3397 11.7918 15.5658 12.5656C14.003 14.1284 13.125 16.2481 13.125 18.4583C13.125 20.6685 14.003 22.7882 15.5658 24.351C17.1287 25.9139 19.2484 26.7919 21.4585 26.7919C23.6687 26.7919 25.7884 25.9139 27.3513 24.351Z" stroke="#5C5C5C" stroke-width="2" stroke-linecap="round" stroke-linejoin="round"/>
</svg>
