<svg width="326" height="58" viewBox="0 0 326 58" fill="none" xmlns="http://www.w3.org/2000/svg">
<rect x="9" y="9" width="308" height="40" rx="20" fill="white" stroke="#F7F7F7" stroke-width="2"/>
<path d="M38.5969 34.625L41.8052 37.8333M40.7917 28.9792C40.7917 31.0512 39.9686 33.0383 38.5034 34.5034C37.0383 35.9686 35.0512 36.7917 32.9792 36.7917C30.9072 36.7917 28.92 35.9686 27.4549 34.5034C25.9898 33.0383 25.1667 31.0512 25.1667 28.9792C25.1667 26.9072 25.9898 24.92 27.4549 23.4549C28.92 21.9898 30.9072 21.1667 32.9792 21.1667C35.0512 21.1667 37.0383 21.9898 38.5034 23.4549C39.9686 24.92 40.7917 26.9072 40.7917 28.9792Z" stroke="#343434" stroke-width="1.5" stroke-linecap="round" stroke-linejoin="round"/>
</svg>
