<svg width="20" height="20" viewBox="0 0 20 20" fill="none" xmlns="http://www.w3.org/2000/svg">
<path d="M18.05 5.35177L9.99995 0.704224L1.94995 5.35177V14.6452L9.99995 19.2928L18.05 14.6452V5.35177ZM9.99995 13.3313C9.1159 13.3313 8.26805 12.9801 7.64293 12.3551C7.01781 11.7301 6.66662 10.8824 6.66662 9.99849C6.66662 9.11458 7.01781 8.26688 7.64293 7.64187C8.26805 7.01685 9.1159 6.66572 9.99995 6.66572C10.884 6.66572 11.7319 7.01685 12.357 7.64187C12.9821 8.26688 13.3333 9.11458 13.3333 9.99849C13.3333 10.8824 12.9821 11.7301 12.357 12.3551C11.7319 12.9801 10.884 13.3313 9.99995 13.3313Z" fill="white"/>
</svg>
