<svg width="30" height="30" viewBox="0 0 30 30" fill="none" xmlns="http://www.w3.org/2000/svg">
<path d="M12.6316 5H17.3691L17.9941 11.25H12.0066L12.6316 5ZM11.7566 13.75H18.2441L18.8691 20H16.2503V22.5H18.7503C19.0818 22.5 19.3998 22.6317 19.6342 22.8661C19.8686 23.1005 20.0003 23.4185 20.0003 23.75C20.0003 24.0815 19.8686 24.3995 19.6342 24.6339C19.3998 24.8683 19.0818 25 18.7503 25H11.2503C10.9188 25 10.6009 24.8683 10.3664 24.6339C10.132 24.3995 10.0003 24.0815 10.0003 23.75C10.0003 23.4185 10.132 23.1005 10.3664 22.8661C10.6009 22.6317 10.9188 22.5 11.2503 22.5H13.7503V20H11.1316L11.7566 13.75ZM20.7566 13.75L21.3816 20H25.4878C25.7652 20 26.0392 19.9385 26.2899 19.8198C26.5407 19.7012 26.762 19.5284 26.9378 19.3139C27.1137 19.0994 27.2398 18.8485 27.307 18.5794C27.3743 18.3102 27.3809 18.0295 27.3266 17.7575L26.5253 13.75H20.7566ZM19.8816 5L20.5066 11.25H26.0253L25.1766 7.01C25.0633 6.44347 24.7574 5.93365 24.3107 5.56722C23.8641 5.20078 23.3043 5.00035 22.7266 5H19.8816ZM10.1191 5H7.27531C6.69737 5.00006 6.13729 5.20036 5.69039 5.56682C5.24348 5.93328 4.93734 6.44326 4.82406 7.01L3.97531 11.25H9.49406L10.1191 5ZM9.24406 13.75H3.47531L2.67406 17.7575C2.61971 18.0294 2.62635 18.31 2.6935 18.579C2.76065 18.8481 2.88664 19.0989 3.06239 19.3134C3.23814 19.5279 3.45928 19.7007 3.70987 19.8194C3.96046 19.9382 4.23427 19.9998 4.51156 20H8.61906L9.24406 13.75Z" fill="#474747"/>
</svg>
