<svg width="30" height="30" viewBox="0 0 30 30" fill="none" xmlns="http://www.w3.org/2000/svg">
<path d="M12.6311 5H17.3686L17.9936 11.25H12.0061L12.6311 5ZM11.7561 13.75H18.2436L18.8686 20H16.2498V22.5H18.7498C19.0813 22.5 19.3993 22.6317 19.6337 22.8661C19.8681 23.1005 19.9998 23.4185 19.9998 23.75C19.9998 24.0815 19.8681 24.3995 19.6337 24.6339C19.3993 24.8683 19.0813 25 18.7498 25H11.2498C10.9183 25 10.6004 24.8683 10.3659 24.6339C10.1315 24.3995 9.99983 24.0815 9.99983 23.75C9.99983 23.4185 10.1315 23.1005 10.3659 22.8661C10.6004 22.6317 10.9183 22.5 11.2498 22.5H13.7498V20H11.1311L11.7561 13.75ZM20.7561 13.75L21.3811 20H25.4873C25.7647 20 26.0387 19.9385 26.2894 19.8198C26.5402 19.7012 26.7615 19.5284 26.9374 19.3139C27.1132 19.0994 27.2393 18.8485 27.3066 18.5794C27.3738 18.3102 27.3804 18.0295 27.3261 17.7575L26.5248 13.75H20.7561ZM19.8811 5L20.5061 11.25H26.0248L25.1761 7.01C25.0628 6.44347 24.7569 5.93365 24.3102 5.56722C23.8636 5.20078 23.3038 5.00035 22.7261 5H19.8811ZM10.1186 5H7.27483C6.69688 5.00006 6.13681 5.20036 5.6899 5.56682C5.24299 5.93328 4.93685 6.44326 4.82357 7.01L3.97482 11.25H9.49357L10.1186 5ZM9.24358 13.75H3.47482L2.67357 17.7575C2.61922 18.0294 2.62586 18.31 2.69301 18.579C2.76016 18.8481 2.88615 19.0989 3.0619 19.3134C3.23765 19.5279 3.45879 19.7007 3.70938 19.8194C3.95997 19.9382 4.23378 19.9998 4.51107 20H8.61858L9.24358 13.75Z" fill="#474747"/>
</svg>
