<svg preserveAspectRatio="none" width="100%" height="100%" overflow="visible" style="display: block;" viewBox="0 0 25 25" fill="none" xmlns="http://www.w3.org/2000/svg">
<g id="Group">
<g id="Vector">
</g>
<path id="Vector_2" d="M9.99387 0H14.7314L15.3564 6.25H9.36887L9.99387 0ZM9.11887 8.75H15.6064L16.2314 15H13.6126V17.5H16.1126C16.4441 17.5 16.7621 17.6317 16.9965 17.8661C17.2309 18.1005 17.3626 18.4185 17.3626 18.75C17.3626 19.0815 17.2309 19.3995 16.9965 19.6339C16.7621 19.8683 16.4441 20 16.1126 20H8.61262C8.2811 20 7.96316 19.8683 7.72873 19.6339C7.49431 19.3995 7.36262 19.0815 7.36262 18.75C7.36262 18.4185 7.49431 18.1005 7.72873 17.8661C7.96316 17.6317 8.2811 17.5 8.61262 17.5H11.1126V15H8.49387L9.11887 8.75ZM18.1189 8.75L18.7439 15H22.8501C23.1275 15 23.4015 14.9385 23.6522 14.8198C23.903 14.7012 24.1243 14.5284 24.3001 14.3139C24.476 14.0994 24.6021 13.8485 24.6694 13.5794C24.7366 13.3102 24.7432 13.0295 24.6889 12.7575L23.8876 8.75H18.1189ZM17.2439 0L17.8689 6.25H23.3876L22.5389 2.01C22.4256 1.44347 22.1197 0.933653 21.673 0.567217C21.2264 0.20078 20.6666 0.00034891 20.0889 0H17.2439ZM7.48137 0H4.63762C4.05967 6.00466e-05 3.4996 0.20036 3.05269 0.566821C2.60578 0.933282 2.29965 1.44326 2.18637 2.01L1.33762 6.25H6.85637L7.48137 0ZM6.60637 8.75H0.837618L0.0363678 12.7575C-0.0179823 13.0294 -0.0113433 13.31 0.0558063 13.579C0.122956 13.8481 0.248944 14.0989 0.424695 14.3134C0.600445 14.5279 0.821582 14.7007 1.07217 14.8194C1.32277 14.9382 1.59657 14.9998 1.87387 15H5.98137L6.60637 8.75Z" fill="var(--fill-0, #474747)"/>
</g>
</svg>
