<svg width="14" height="13" viewBox="0 0 14 13" fill="none" xmlns="http://www.w3.org/2000/svg">
<path d="M6.8265 10.741L3.19549 12.9336C3.0888 12.9863 2.98977 13.0076 2.89841 12.9976C2.80772 12.9869 2.71936 12.9556 2.63334 12.9036C2.54665 12.8502 2.4813 12.7749 2.43728 12.6775C2.39327 12.5802 2.38927 12.4738 2.42528 12.3584L3.39155 8.24728L0.195664 5.47652C0.105639 5.40316 0.046289 5.31547 0.0176144 5.21344C-0.0110602 5.11142 -0.00472508 5.01372 0.0366197 4.92036C0.0779645 4.827 0.13298 4.75032 0.201665 4.6903C0.271018 4.63228 0.364377 4.59294 0.481743 4.57227L4.69891 4.20416L6.34337 0.311086C6.38871 0.201056 6.45406 0.1217 6.53942 0.0730202C6.62478 0.02434 6.72047 0 6.8265 0C6.93253 0 7.02856 0.02434 7.11458 0.0730202C7.2006 0.1217 7.26562 0.201056 7.30963 0.311086L8.95409 4.20416L13.1703 4.57227C13.2883 4.59227 13.382 4.63195 13.4513 4.6913C13.5207 4.74998 13.576 4.82634 13.6174 4.92036C13.6581 5.01372 13.6641 5.11142 13.6354 5.21344C13.6067 5.31547 13.5474 5.40316 13.4573 5.47652L10.2615 8.24728L11.2277 12.3584C11.2651 12.4725 11.2614 12.5785 11.2167 12.6765C11.172 12.7745 11.1064 12.8499 11.0197 12.9026C10.9343 12.9559 10.8459 12.9876 10.7546 12.9976C10.6639 13.0076 10.5652 12.9863 10.4585 12.9336L6.8265 10.741Z" fill="#FFCD29"/>
</svg>
