<svg width="21" height="19" viewBox="0 0 21 19" fill="none" xmlns="http://www.w3.org/2000/svg">
<path d="M3 15.3333C3 15.7753 3.17559 16.1992 3.48816 16.5118C3.80072 16.8244 4.22464 17 4.66667 17C5.10869 17 5.53262 16.8244 5.84518 16.5118C6.15774 16.1992 6.33333 15.7753 6.33333 15.3333C6.33333 14.8913 6.15774 14.4673 5.84518 14.1548C5.53262 13.8422 5.10869 13.6666 4.66667 13.6666C4.22464 13.6666 3.80072 13.8422 3.48816 14.1548C3.17559 14.4673 3 14.8913 3 15.3333Z" stroke="#575757" stroke-width="2" stroke-linecap="round" stroke-linejoin="round"/>
<path d="M9.25 13.6667H4.66667V2H3" stroke="#575757" stroke-width="2" stroke-linecap="round" stroke-linejoin="round"/>
<path d="M4.66675 3.66663L16.3334 4.49996L15.5001 10.3333H4.66675M12.1667 15.3333L13.8334 17L17.1667 13.6666" stroke="#575757" stroke-width="2" stroke-linecap="round" stroke-linejoin="round"/>
</svg>
