<svg width="15" height="15" viewBox="0 0 15 15" fill="none" xmlns="http://www.w3.org/2000/svg">
<path d="M1.40584 7.08312C1.5219 7.08312 1.63733 7.10592 1.74459 7.15026C1.85201 7.19475 1.95025 7.2603 2.03247 7.34252C2.11469 7.42473 2.18023 7.52297 2.22473 7.6304C2.26906 7.73765 2.29187 7.85308 2.29187 7.96914V13.5935C2.29187 13.8284 2.19852 14.0541 2.03247 14.2202C1.86643 14.3861 1.64062 14.4795 1.40584 14.4795C1.17126 14.4794 0.946164 14.386 0.780231 14.2202C0.614183 14.0541 0.520832 13.8283 0.520832 13.5935V7.96914C0.520832 7.85305 0.543615 7.73768 0.587971 7.6304C0.632467 7.52297 0.698013 7.42473 0.780231 7.34252C0.862402 7.26037 0.95976 7.19473 1.0671 7.15026C1.17439 7.10581 1.2897 7.08317 1.40584 7.08312ZM7.50019 0.520832C7.85926 0.520886 8.20352 0.663653 8.45742 0.91756C8.71133 1.17147 8.8541 1.51572 8.85415 1.87479V6.14623H12.7126C12.9128 6.14627 13.1104 6.19077 13.2914 6.27644C13.4725 6.36214 13.6323 6.48671 13.7593 6.64163C13.8863 6.79646 13.9773 6.97739 14.0259 7.17162C14.0744 7.36598 14.0794 7.56925 14.0401 7.76569L12.915 13.3901C12.8537 13.6971 12.6882 13.9738 12.4461 14.1723C12.2038 14.3709 11.8997 14.4797 11.5865 14.4795H6.50939C6.00875 14.4794 5.51478 14.3625 5.06693 14.1388L5.02013 14.1154C4.79512 14.0029 4.60512 13.8299 4.47285 13.6159C4.34058 13.4018 4.2703 13.1545 4.27042 12.9028V7.81249C4.27042 7.11383 4.49721 6.43356 4.91637 5.87462L6.22863 4.12495H6.22964C6.78387 3.38578 7.08312 2.48638 7.08312 1.5625V0.937905C7.08312 0.827447 7.12711 0.721033 7.20519 0.642903C7.28333 0.564763 7.38968 0.520832 7.50019 0.520832Z" stroke="black"/>
</svg>
