<svg width="15" height="15" viewBox="0 0 15 15" fill="none" xmlns="http://www.w3.org/2000/svg">
<path d="M13.1814 7.91688C13.0654 7.91688 12.95 7.89408 12.8427 7.84974C12.7353 7.80525 12.637 7.7397 12.5548 7.65748C12.4726 7.57527 12.4071 7.47703 12.3626 7.3696C12.3182 7.26235 12.2954 7.14692 12.2954 7.03086L12.2954 1.40648C12.2954 1.17165 12.3888 0.945899 12.5548 0.77985C12.7209 0.613866 12.9467 0.520451 13.1814 0.520451C13.416 0.520559 13.6411 0.614025 13.8071 0.77985C13.9731 0.945899 14.0664 1.17165 14.0664 1.40648L14.0664 7.03086C14.0664 7.14695 14.0437 7.26232 13.9993 7.3696C13.9548 7.47703 13.8893 7.57527 13.8071 7.65748C13.7249 7.73963 13.6275 7.80527 13.5202 7.84974C13.4129 7.89419 13.2976 7.91683 13.1814 7.91688ZM7.08709 14.4792C6.72802 14.4791 6.38377 14.3363 6.12986 14.0824C5.87595 13.8285 5.73318 13.4843 5.73313 13.1252V8.85377L1.8747 8.85377C1.67444 8.85373 1.47689 8.80923 1.29588 8.72356C1.11482 8.63786 0.954952 8.51329 0.827947 8.35837C0.70102 8.20354 0.60998 8.02261 0.561427 7.82838C0.512892 7.63402 0.507922 7.43075 0.547186 7.23431L1.67227 1.60993C1.73363 1.30293 1.89913 1.02616 2.14122 0.827661C2.38343 0.629148 2.68762 0.520327 3.00079 0.520451L8.07789 0.520451C8.57853 0.52061 9.07251 0.637471 9.52036 0.86123L9.56715 0.884627C9.79216 0.997067 9.98216 1.17014 10.1144 1.3841C10.2467 1.59818 10.317 1.84554 10.3169 2.09719L10.3169 7.18751C10.3169 7.88617 10.0901 8.56644 9.67091 9.12538L8.35866 10.875H8.35764C7.80341 11.6142 7.50416 12.5136 7.50416 13.4375V14.0621C7.50416 14.1726 7.46017 14.279 7.38209 14.3571C7.30395 14.4352 7.1976 14.4792 7.08709 14.4792Z" stroke="black"/>
</svg>
