<svg width="50" height="73" viewBox="0 0 50 73" fill="none" xmlns="http://www.w3.org/2000/svg">
<rect width="50" height="50" rx="25" fill="#02A6C3"/>
<path d="M25 12.5732C25 12.5732 16.5625 21.8486 16.5625 28.4111C16.5625 33.5885 19.8227 36.8486 25 36.8486C30.1773 36.8486 33.4375 33.5885 33.4375 28.4111C33.4375 21.8486 25 12.5732 25 12.5732ZM25.9375 33.8018V32.3955C26.8696 32.3944 27.7632 32.0237 28.4222 31.3646C29.0813 30.7055 29.452 29.812 29.4531 28.8799H30.8594C30.858 30.1848 30.339 31.4359 29.4163 32.3586C28.4935 33.2814 27.2424 33.8004 25.9375 33.8018Z" fill="#99F0FF"/>
<path d="M9.72301 70L7.22585 61.2727H9.24148L10.6861 67.3366H10.7585L12.3523 61.2727H14.0781L15.6676 67.3494H15.7443L17.1889 61.2727H19.2045L16.7074 70H14.9091L13.2472 64.294H13.179L11.5213 70H9.72301ZM21.3214 70.1236C20.9038 70.1236 20.5316 70.0511 20.2049 69.9062C19.8782 69.7585 19.6197 69.5412 19.4293 69.2543C19.2418 68.9645 19.1481 68.6037 19.1481 68.1719C19.1481 67.8082 19.2148 67.5028 19.3484 67.2557C19.4819 67.0085 19.6637 66.8097 19.8938 66.6591C20.1239 66.5085 20.3853 66.3949 20.6779 66.3182C20.9734 66.2415 21.283 66.1875 21.6069 66.1562C21.9876 66.1165 22.2944 66.0795 22.5273 66.0455C22.7603 66.0085 22.9293 65.9545 23.0344 65.8835C23.1396 65.8125 23.1921 65.7074 23.1921 65.5682V65.5426C23.1921 65.2727 23.1069 65.0639 22.9364 64.9162C22.7688 64.7685 22.5302 64.6946 22.2205 64.6946C21.8938 64.6946 21.6339 64.767 21.4407 64.9119C21.2475 65.054 21.1197 65.233 21.0572 65.4489L19.3782 65.3125C19.4634 64.9148 19.631 64.571 19.881 64.2812C20.131 63.9886 20.4535 63.7642 20.8484 63.608C21.2461 63.4489 21.7063 63.3693 22.229 63.3693C22.5927 63.3693 22.9407 63.4119 23.2731 63.4972C23.6083 63.5824 23.9052 63.7145 24.1637 63.8935C24.4251 64.0724 24.631 64.3026 24.7816 64.5838C24.9322 64.8622 25.0075 65.196 25.0075 65.5852V70H23.2859V69.0923H23.2347C23.1296 69.2969 22.989 69.4773 22.8129 69.6335C22.6367 69.7869 22.4251 69.9077 22.1779 69.9957C21.9308 70.081 21.6452 70.1236 21.3214 70.1236ZM21.8413 68.8707C22.1083 68.8707 22.3441 68.8182 22.5487 68.7131C22.7532 68.6051 22.9137 68.4602 23.0302 68.2784C23.1467 68.0966 23.2049 67.8906 23.2049 67.6605V66.9659C23.1481 67.0028 23.07 67.0369 22.9705 67.0682C22.8739 67.0966 22.7646 67.1236 22.6424 67.1491C22.5202 67.1719 22.3981 67.1932 22.2759 67.2131C22.1538 67.2301 22.043 67.2457 21.9435 67.2599C21.7305 67.2912 21.5444 67.3409 21.3853 67.4091C21.2262 67.4773 21.1026 67.5696 21.0146 67.6861C20.9265 67.7997 20.8825 67.9418 20.8825 68.1122C20.8825 68.3594 20.9719 68.5483 21.1509 68.679C21.3327 68.8068 21.5629 68.8707 21.8413 68.8707ZM29.8974 63.4545V64.8182H25.9556V63.4545H29.8974ZM26.8505 61.8864H28.6658V67.9886C28.6658 68.1562 28.6914 68.2869 28.7425 68.3807C28.7937 68.4716 28.8647 68.5355 28.9556 68.5724C29.0494 68.6094 29.1573 68.6278 29.2795 68.6278C29.3647 68.6278 29.4499 68.6207 29.5352 68.6065C29.6204 68.5895 29.6857 68.5767 29.7312 68.5682L30.0167 69.919C29.9258 69.9474 29.7979 69.9801 29.6332 70.017C29.4684 70.0568 29.2681 70.081 29.0323 70.0895C28.5948 70.1065 28.2113 70.0483 27.8817 69.9148C27.555 69.7812 27.3008 69.5739 27.119 69.2926C26.9371 69.0114 26.8477 68.6562 26.8505 68.2273V61.8864ZM33.9925 70.1278C33.3192 70.1278 32.7397 69.9915 32.2539 69.7188C31.771 69.4432 31.3988 69.054 31.1374 68.5511C30.8761 68.0455 30.7454 67.4474 30.7454 66.7571C30.7454 66.0838 30.8761 65.4929 31.1374 64.9844C31.3988 64.4759 31.7667 64.0795 32.2411 63.7955C32.7184 63.5114 33.2781 63.3693 33.9201 63.3693C34.3519 63.3693 34.7539 63.4389 35.1261 63.5781C35.5011 63.7145 35.8278 63.9205 36.1062 64.196C36.3874 64.4716 36.6062 64.8182 36.7624 65.2358C36.9187 65.6506 36.9968 66.1364 36.9968 66.6932V67.1918H31.4698V66.0668H35.288C35.288 65.8054 35.2312 65.5739 35.1175 65.3722C35.0039 65.1705 34.8462 65.0128 34.6445 64.8991C34.4457 64.7827 34.2141 64.7244 33.9499 64.7244C33.6744 64.7244 33.43 64.7884 33.217 64.9162C33.0067 65.0412 32.842 65.2102 32.7227 65.4233C32.6033 65.6335 32.5423 65.8679 32.5394 66.1264V67.196C32.5394 67.5199 32.5991 67.7997 32.7184 68.0355C32.8406 68.2713 33.0124 68.4531 33.234 68.581C33.4556 68.7088 33.7184 68.7727 34.0224 68.7727C34.2241 68.7727 34.4087 68.7443 34.5763 68.6875C34.744 68.6307 34.8874 68.5455 35.0067 68.4318C35.1261 68.3182 35.217 68.179 35.2795 68.0142L36.9585 68.125C36.8732 68.5284 36.6985 68.8807 36.4343 69.1818C36.1729 69.4801 35.8349 69.7131 35.4201 69.8807C35.0082 70.0455 34.5323 70.1278 33.9925 70.1278ZM38.1815 70V63.4545H39.9414V64.5966H40.0096C40.1289 64.1903 40.3292 63.8835 40.6104 63.6761C40.8917 63.4659 41.2156 63.3608 41.582 63.3608C41.6729 63.3608 41.771 63.3665 41.8761 63.3778C41.9812 63.3892 42.0735 63.4048 42.1531 63.4247V65.0355C42.0678 65.0099 41.9499 64.9872 41.7994 64.9673C41.6488 64.9474 41.511 64.9375 41.386 64.9375C41.119 64.9375 40.8803 64.9957 40.6701 65.1122C40.4627 65.2259 40.2979 65.3849 40.1758 65.5895C40.0565 65.794 39.9968 66.0298 39.9968 66.2969V70H38.1815Z" fill="#383838"/>
</svg>
