<svg width="63" height="73" viewBox="0 0 63 73" fill="none" xmlns="http://www.w3.org/2000/svg">
<rect x="6.5" width="50" height="50" rx="25" fill="#D4F1F9"/>
<path d="M31.5 14C31.5 14 22 24.5 22 31C22 36.5 26.5 40 31.5 40C36.5 40 41 36.5 41 31C41 24.5 31.5 14 31.5 14ZM31.5 37C28.5 37 26 34.5 26 31.5C26 28 29.5 23.5 31.5 20.5C33.5 23.5 37 28 37 31.5C37 34.5 34.5 37 31.5 37Z" fill="#02A6C3"/>
<text x="31.5" y="70" font-family="Inter" font-size="14" font-weight="700" fill="#383838" text-anchor="middle">Water</text>
</svg>
