<svg width="17" height="18" viewBox="0 0 17 18" fill="none" xmlns="http://www.w3.org/2000/svg">
<path fill-rule="evenodd" clip-rule="evenodd" d="M10.9295 1.45735L8.49934 0L6.06916 1.45735L3.24656 1.70719L2.13619 4.31402L0 6.17514L0.634675 8.93718L0 11.6992L2.13619 13.5603L3.24656 16.1672L6.06916 16.417L8.49934 17.8744L10.9295 16.417L13.7521 16.1672L14.8625 13.5603L16.9999 11.6992L16.3627 8.93718L16.9987 6.17514L14.8612 4.31402L13.7509 1.70719L10.9295 1.45735ZM5.57454 7.04451C5.57454 6.87719 5.64101 6.71672 5.75932 6.5984C5.87763 6.48009 6.0381 6.41362 6.20543 6.41362C6.37275 6.41362 6.53322 6.48009 6.65153 6.5984C6.76985 6.71672 6.83632 6.87719 6.83632 7.04451C6.83632 7.21183 6.76985 7.3723 6.65153 7.49062C6.53322 7.60893 6.37275 7.6754 6.20543 7.6754C6.0381 7.6754 5.87763 7.60893 5.75932 7.49062C5.64101 7.3723 5.57454 7.21183 5.57454 7.04451ZM6.20543 5.15184C5.70346 5.15184 5.22205 5.35125 4.86711 5.70619C4.51216 6.06114 4.31276 6.54254 4.31276 7.04451C4.31276 7.54648 4.51216 8.02788 4.86711 8.38283C5.22205 8.73777 5.70346 8.93718 6.20543 8.93718C6.70739 8.93718 7.1888 8.73777 7.54374 8.38283C7.89869 8.02788 8.09809 7.54648 8.09809 7.04451C8.09809 6.54254 7.89869 6.06114 7.54374 5.70619C7.1888 5.35125 6.70739 5.15184 6.20543 5.15184ZM6.02121 12.5383L12.3301 6.2294L11.4368 5.33606L5.12787 11.645L6.02121 12.5383ZM10.6217 11.4607C10.6217 11.2934 10.6881 11.1329 10.8064 11.0146C10.9247 10.8963 11.0852 10.8298 11.2525 10.8298C11.4199 10.8298 11.5803 10.8963 11.6986 11.0146C11.817 11.1329 11.8834 11.2934 11.8834 11.4607C11.8834 11.6281 11.817 11.7885 11.6986 11.9068C11.5803 12.0252 11.4199 12.0916 11.2525 12.0916C11.0852 12.0916 10.9247 12.0252 10.8064 11.9068C10.6881 11.7885 10.6217 11.6281 10.6217 11.4607ZM11.2525 9.56807C10.7506 9.56807 10.2692 9.76747 9.91422 10.1224C9.55928 10.4774 9.35987 10.9588 9.35987 11.4607C9.35987 11.9627 9.55928 12.4441 9.91422 12.7991C10.2692 13.154 10.7506 13.3534 11.2525 13.3534C11.7545 13.3534 12.2359 13.154 12.5909 12.7991C12.9458 12.4441 13.1452 11.9627 13.1452 11.4607C13.1452 10.9588 12.9458 10.4774 12.5909 10.1224C12.2359 9.76747 11.7545 9.56807 11.2525 9.56807Z" fill="black"/>
</svg>
