<svg width="23" height="29" viewBox="0 0 23 29" fill="none" xmlns="http://www.w3.org/2000/svg">
<path d="M19.209 15.0068C19.2485 19.2813 22.9592 20.704 23.0001 20.7221C22.9687 20.8222 22.4074 22.7494 21.0454 24.7395C19.8681 26.4602 18.646 28.1746 16.7213 28.2105C14.8301 28.2451 14.2219 27.0887 12.0594 27.0887C9.89753 27.0887 9.22202 28.1746 7.43149 28.2451C5.57343 28.3156 4.15852 26.3841 2.97143 24.6699C0.54586 21.163 -1.30788 14.7601 1.18113 10.438C2.41756 8.29168 4.62758 6.9327 7.02609 6.89768C8.8505 6.86289 10.5726 8.12502 11.6878 8.12502C12.8024 8.12502 14.8951 6.6071 17.0951 6.82992C18.0162 6.86835 20.6014 7.2019 22.2614 9.63201C22.1279 9.715 19.1769 11.433 19.209 15.0068ZM15.6545 4.51008C16.6408 3.31617 17.3047 1.65365 17.1238 0C15.7018 0.0570695 13.9824 0.947445 12.9627 2.1409C12.0487 3.19748 11.2483 4.88911 11.4641 6.51002C13.0491 6.6328 14.668 5.70468 15.6545 4.51008Z" fill="black"/>
</svg>
