<svg width="27" height="22" viewBox="0 0 27 22" fill="none" xmlns="http://www.w3.org/2000/svg">
<path d="M24.3001 0H2.70002C1.21501 0 0.0135001 1.21501 0.0135001 2.70002L0 18.9001C0 20.3851 1.21501 21.6001 2.70002 21.6001H24.3001C25.7852 21.6001 27.0002 20.3851 27.0002 18.9001V2.70002C27.0002 1.21501 25.7852 0 24.3001 0ZM23.7601 5.73754L14.2156 11.7046C13.7836 11.9746 13.2166 11.9746 12.7846 11.7046L3.24002 5.73754C3.10465 5.66154 2.98611 5.55888 2.89157 5.43575C2.79703 5.31262 2.72845 5.17158 2.68999 5.02118C2.65154 4.87078 2.64399 4.71414 2.66783 4.56074C2.69166 4.40734 2.74637 4.26037 2.82865 4.12873C2.91092 3.99709 3.01906 3.88351 3.1465 3.79487C3.27394 3.70622 3.41805 3.64436 3.57009 3.61303C3.72213 3.58169 3.87896 3.58153 4.03106 3.61255C4.18317 3.64358 4.3274 3.70514 4.45503 3.79352L13.5001 9.45006L22.5451 3.79352C22.6728 3.70514 22.817 3.64358 22.9691 3.61255C23.1212 3.58153 23.278 3.58169 23.4301 3.61303C23.5821 3.64436 23.7262 3.70622 23.8537 3.79487C23.9811 3.88351 24.0892 3.99709 24.1715 4.12873C24.2538 4.26037 24.3085 4.40734 24.3323 4.56074C24.3562 4.71414 24.3486 4.87078 24.3102 5.02118C24.2717 5.17158 24.2031 5.31262 24.1086 5.43575C24.0141 5.55888 23.8955 5.66154 23.7601 5.73754Z" fill="#0097B2"/>
</svg>
