<svg width="19" height="17" viewBox="0 0 19 17" fill="none" xmlns="http://www.w3.org/2000/svg">
<path fill-rule="evenodd" clip-rule="evenodd" d="M0.849927 0C0.624513 0 0.40833 0.0895456 0.248938 0.248938C0.0895456 0.40833 0 0.624513 0 0.849927V12.7489C0 13.8997 0.762385 14.872 1.8095 15.1899C1.96537 15.7041 2.27971 16.1559 2.70764 16.4809C3.13556 16.8058 3.6552 16.9873 4.19238 16.9993C4.72956 17.0114 5.25682 16.8534 5.69889 16.548C6.14097 16.2426 6.47528 15.8054 6.65408 15.2987H12.0443C12.2231 15.8054 12.5574 16.2426 12.9995 16.548C13.4416 16.8534 13.9688 17.0114 14.506 16.9993C15.0432 16.9873 15.5628 16.8058 15.9908 16.4809C16.4187 16.1559 16.733 15.7041 16.8889 15.1899C17.4125 15.031 17.8711 14.708 18.197 14.2684C18.5228 13.8288 18.6986 13.2961 18.6984 12.7489V9.3492C18.6984 8.79113 18.5885 8.23853 18.3749 7.72294C18.1614 7.20735 17.8483 6.73887 17.4537 6.34425C17.0591 5.94964 16.5906 5.63661 16.075 5.42305C15.5594 5.20948 15.0068 5.09956 14.4488 5.09956H11.0491V0.849927C11.0491 0.624513 10.9595 0.40833 10.8001 0.248938C10.6407 0.0895456 10.4245 0 10.1991 0H0.849927ZM12.0443 13.5988H11.0491V6.79942H14.4488C15.125 6.79942 15.7736 7.06806 16.2517 7.54623C16.7299 8.02441 16.9985 8.67296 16.9985 9.3492V12.7489C16.9985 12.9743 16.9089 13.1905 16.7495 13.3498C16.5322 12.8946 16.1848 12.5141 15.7512 12.2564C15.3177 11.9987 14.8174 11.8754 14.3137 11.902C13.81 11.9287 13.3256 12.1041 12.9216 12.4062C12.5176 12.7082 12.2123 13.1233 12.0443 13.5988ZM3.64874 13.8479C3.72714 13.7667 3.82093 13.7019 3.92462 13.6574C4.02832 13.6129 4.13984 13.5894 4.2527 13.5884C4.36555 13.5874 4.47747 13.609 4.58192 13.6517C4.68637 13.6944 4.78127 13.7575 4.86107 13.8373C4.94087 13.9171 5.00398 14.012 5.04672 14.1165C5.08945 14.2209 5.11096 14.3329 5.10998 14.4457C5.109 14.5586 5.08555 14.6701 5.041 14.7738C4.99646 14.8775 4.93171 14.9713 4.85053 15.0497C4.69024 15.2045 4.47554 15.2902 4.2527 15.2882C4.02985 15.2863 3.81667 15.1969 3.65909 15.0393C3.50151 14.8817 3.41212 14.6686 3.41019 14.4457C3.40825 14.2229 3.49392 14.0082 3.64874 13.8479ZM13.5988 14.4488C13.5988 14.2234 13.6884 14.0072 13.8478 13.8478C14.0072 13.6884 14.2233 13.5988 14.4488 13.5988C14.6742 13.5988 14.8904 13.6884 15.0498 13.8478C15.2091 14.0072 15.2987 14.2234 15.2987 14.4488C15.2987 14.6742 15.2091 14.8904 15.0498 15.0498C14.8904 15.2091 14.6742 15.2987 14.4488 15.2987C14.2233 15.2987 14.0072 15.2091 13.8478 15.0498C13.6884 14.8904 13.5988 14.6742 13.5988 14.4488Z" fill="#575757"/>
</svg>
