<svg width="24" height="23" viewBox="0 0 24 23" fill="none" xmlns="http://www.w3.org/2000/svg">
<path d="M3.58308 0C2.01671 0 0.448375 1.17478 0.448375 3.52434L3.58308 9.78984L6.71583 3.52434C6.71583 1.17478 5.14945 0 3.58308 0ZM17.4014 1.90902C17.0637 1.92321 16.7357 1.98734 16.4616 2.04608L16.6476 2.90758C16.9217 2.8464 17.2056 2.80773 17.4455 2.7901L17.4014 1.90902ZM3.58308 1.95797C4.44948 1.95797 5.14945 2.65941 5.14945 3.52434C5.14945 4.39074 4.44948 5.09072 3.58308 5.09072C2.71815 5.09072 2.01671 4.39074 2.01671 3.52434C2.01671 2.65941 2.71815 1.95797 3.58308 1.95797ZM18.3755 1.96776L18.2287 2.83416C18.4685 2.88458 18.7084 2.94772 18.9189 3.07401L19.3447 2.30061C19.0461 2.14153 18.7133 1.9986 18.3755 1.96776ZM15.5609 2.29572C15.2624 2.41222 14.9638 2.51648 14.7092 2.61878L15.0568 3.42644C15.326 3.3119 15.6099 3.21205 15.8497 3.12785L15.5609 2.29572ZM20.1475 2.95164L19.4769 3.52434C19.6531 3.72601 19.7902 3.97467 19.8978 4.17537L20.6859 3.77888C20.5195 3.45826 20.3727 3.21547 20.1475 2.95164ZM13.8918 2.99569C13.5932 3.14792 13.3484 3.28351 13.0841 3.41665L13.5149 4.19005C13.7694 4.0432 14.0484 3.90125 14.2736 3.78867L13.8918 2.99569ZM12.3107 3.87188C12.0513 4.02362 11.7968 4.17537 11.5471 4.34179L12.0268 5.07603C12.2667 4.91939 12.5163 4.77255 12.7611 4.6257L12.3107 3.87188ZM20.9894 4.74807C20.7006 4.79702 20.4069 4.83129 20.1181 4.86555C20.1377 5.1103 20.123 5.37462 20.0741 5.58021L20.9307 5.7809C20.9796 5.42847 21.0237 5.06624 20.9894 4.74807ZM10.8031 4.83128C10.5583 4.99771 10.3185 5.16903 10.0737 5.33546L10.5828 6.05502C10.8178 5.88369 11.0576 5.72216 11.2975 5.55573L10.8031 4.83128ZM9.35419 5.86411C9.10944 6.04033 8.85491 6.23613 8.64443 6.39766L9.17797 7.09763C9.44719 6.90184 9.6332 6.75499 9.87795 6.57388L9.35419 5.86411ZM19.7804 6.25571C19.6335 6.48087 19.4622 6.70604 19.2909 6.87736L19.9321 7.48923C20.1426 7.23959 20.3678 6.98505 20.5244 6.73051L19.7804 6.25571ZM7.94445 6.94589C7.7046 7.1319 7.46475 7.3228 7.25427 7.49902L7.81229 8.17941C8.04235 7.98851 8.27731 7.79271 8.49268 7.63607L7.94445 6.94589ZM18.6839 7.44028C18.4587 7.62139 18.2238 7.79761 18.0084 7.94445L18.5126 8.6689C18.772 8.49269 19.0265 8.30178 19.2468 8.12557L18.6839 7.44028ZM6.57388 8.07172C6.34381 8.25773 6.12354 8.45353 5.89838 8.64443L6.47108 9.31503C6.69135 9.12413 6.91163 8.93323 7.13679 8.74722L6.57388 8.07172ZM17.2889 8.41437C17.0392 8.56121 16.7798 8.71296 16.5448 8.84022L16.9658 9.61852C17.2301 9.45698 17.5287 9.31503 17.749 9.16818L17.2889 8.41437ZM5.22777 9.22692C5.0075 9.42272 4.79213 9.61852 4.57185 9.81921L5.16414 10.4751C5.37952 10.2793 5.59979 10.0835 5.81516 9.88774L5.22777 9.22692ZM15.7763 9.2465C15.5169 9.37377 15.2575 9.50593 14.998 9.6332L15.3749 10.4262C15.6784 10.2793 15.9036 10.157 16.1777 10.0297L15.7763 9.2465ZM14.21 10.0003C13.9407 10.1227 13.6813 10.2402 13.4072 10.3528L13.7645 11.1604C14.0337 11.0429 14.303 10.9206 14.5722 10.7982L14.21 10.0003ZM3.92572 10.4262C3.67608 10.6464 3.50231 10.8178 3.2747 11.038L3.89636 11.6744C4.12642 11.4541 4.31242 11.2632 4.5278 11.0772L3.92572 10.4262ZM12.6044 10.7101C12.3352 10.8227 12.066 10.9401 11.7968 11.0527L12.1394 11.8702C12.4135 11.7576 12.6827 11.6401 12.952 11.5226L12.6044 10.7101ZM10.9842 11.3954C10.715 11.5129 10.4458 11.6303 10.1716 11.738L10.5143 12.5555C10.7835 12.4429 11.0576 12.3254 11.3268 12.2128L10.9842 11.3954ZM20.03 11.7478C18.4636 11.7478 16.8973 12.9226 16.8973 15.2721L20.03 21.5376L23.1628 15.2721C23.1628 12.9226 21.5964 11.7478 20.03 11.7478ZM9.35909 12.0807C9.08008 12.2079 8.78638 12.3254 8.54653 12.4282L8.89407 13.2408C9.18287 13.1184 9.45698 13.0009 9.70173 12.8932L9.35909 12.0807ZM7.73397 12.7757C7.46965 12.8981 7.16127 13.0352 6.92631 13.1429L7.28853 13.9456C7.57733 13.8184 7.83187 13.6911 8.08641 13.5834L7.73397 12.7757ZM6.11865 13.51C5.84453 13.6421 5.56063 13.7792 5.31588 13.9016L5.71237 14.6897C5.9767 14.5526 6.25081 14.4253 6.49066 14.3078L6.11865 13.51ZM20.03 13.7058C20.8964 13.7058 21.5964 14.4057 21.5964 15.2721C21.5964 16.1385 20.8964 16.8385 20.03 16.8385C19.1636 16.8385 18.4636 16.1385 18.4636 15.2721C18.4636 14.4057 19.1636 13.7058 20.03 13.7058ZM4.52291 14.3078C4.26347 14.4498 4.00404 14.5966 3.73972 14.7484L4.18026 15.512C4.4299 15.3652 4.68444 15.2281 4.93897 15.091L4.52291 14.3078ZM2.97122 15.2232C2.69661 15.3798 2.43131 15.5903 2.20271 15.7421L2.73626 16.4469C2.97954 16.2707 3.24142 16.0896 3.45092 15.9623L2.97122 15.2232ZM1.50764 16.3295C1.27268 16.5448 1.04115 16.7945 0.861506 17.005L1.53211 17.5777C1.72056 17.3476 1.88454 17.1763 2.10482 16.9805L1.50764 16.3295ZM12.1688 16.3931L12.2471 17.2693C12.5016 17.2252 12.7562 17.2546 13.0107 17.2937L13.1624 16.4273C12.8394 16.3784 12.4967 16.3441 12.1688 16.3931ZM10.3479 16.8826L10.6807 17.7C10.9352 17.5874 11.1996 17.4993 11.4688 17.4161C11.3758 17.1371 11.3073 16.8532 11.2338 16.5693C10.9255 16.6574 10.6171 16.7749 10.3479 16.8826ZM14.1414 16.8385L13.6421 17.563C13.8477 17.7147 14.0484 17.8762 14.21 18.0769L14.8757 17.4993C14.626 17.2448 14.4351 17.005 14.1414 16.8385ZM9.51572 17.2791C9.2465 17.4161 8.98707 17.5728 8.72764 17.7245L9.17308 18.4832C9.42761 18.3462 9.67725 18.1846 9.9269 18.0525L9.51572 17.2791ZM0.323554 17.8175C0.175728 18.1357 0.0558021 18.4783 0 18.7818L0.866401 18.9335C0.919266 18.6545 0.995137 18.4538 1.10625 18.214C0.837521 18.0965 0.581027 17.9546 0.323554 17.8175ZM7.96403 18.1993C7.71439 18.3608 7.46965 18.5224 7.2249 18.6888L7.71439 19.423C7.95914 19.2615 8.19899 19.0951 8.44374 18.9335L7.96403 18.1993ZM15.4386 18.258L14.6994 18.7377C14.8561 18.9727 15.0078 19.2175 15.1498 19.4671L15.9134 19.0266C15.7421 18.7524 15.6197 18.5077 15.4386 18.258ZM6.49556 19.1881C6.25081 19.3496 6.00607 19.5063 5.76621 19.6776L6.25571 20.4118C6.49066 20.2405 6.7403 20.079 6.98994 19.9125L6.49556 19.1881ZM0.87619 19.6531C0.592775 19.7118 0.306911 19.7608 0.0220272 19.8146C0.0734238 20.1573 0.210971 20.4901 0.335302 20.7545L1.13073 20.3727C1.02451 20.1279 0.923671 19.8734 0.87619 19.6531ZM16.349 19.7902L15.5854 20.2307C15.7372 20.495 15.9134 20.7789 16.0553 21.0041L16.7945 20.5293C16.628 20.2699 16.4861 20.0251 16.349 19.7902ZM5.04177 20.1573C4.79702 20.309 4.55717 20.4559 4.30263 20.5978L4.73828 21.3663C4.99771 21.2146 5.25714 21.0628 5.50678 20.9013L5.04177 20.1573ZM1.55169 20.9551L0.949614 21.6013C1.22177 21.8607 1.55756 22.032 1.9237 22.1104L2.1195 21.2537C1.90217 21.2097 1.69903 21.102 1.55169 20.9551ZM3.55861 20.9698C3.31337 21.0824 3.05883 21.1705 2.795 21.2244L2.99569 22.0859C3.30994 22.0222 3.6056 21.9048 3.90125 21.7824L3.55861 20.9698ZM17.2791 21.2048L16.5987 21.7579C16.8092 22.0173 17.0686 22.267 17.2937 22.4432L17.8371 21.7481C17.6217 21.5817 17.4357 21.381 17.2791 21.2048ZM18.4587 22.0614L18.2385 22.918C18.6252 22.9963 18.914 23.0208 19.2762 22.9816L19.1685 22.1055C18.9287 22.1446 18.6937 22.1201 18.4587 22.0614Z" fill="#1B6F8E"/>
</svg>
