<svg width="17" height="19" viewBox="0 0 17 19" fill="none" xmlns="http://www.w3.org/2000/svg">
<path d="M6.69412 17.7999C7.26427 18.2276 7.85888 18.6185 8.46761 18.9999C9.07765 18.6235 9.66937 18.2232 10.2411 17.7999C11.1942 17.0885 12.0911 16.3171 12.9253 15.4914C14.8484 13.5798 16.9352 10.8086 16.9352 7.69783C16.9352 6.68693 16.7162 5.68594 16.2907 4.752C15.8651 3.81805 15.2414 2.96945 14.4551 2.25464C13.6688 1.53983 12.7354 0.972814 11.708 0.585962C10.6807 0.19911 9.57959 0 8.46761 0C7.35563 0 6.25453 0.19911 5.2272 0.585962C4.19986 0.972814 3.2664 1.53983 2.48011 2.25464C1.69381 2.96945 1.0701 3.81805 0.644558 4.752C0.219021 5.68594 -1.65698e-08 6.68693 0 7.69783C0 10.8086 2.0868 13.579 4.00988 15.4914C4.84406 16.3174 5.74101 17.0882 6.69412 17.7999ZM8.46761 10.4776C7.65664 10.4776 6.87889 10.1847 6.30546 9.66342C5.73202 9.14211 5.40986 8.43507 5.40986 7.69783C5.40986 6.96059 5.73202 6.25354 6.30546 5.73223C6.87889 5.21092 7.65664 4.91806 8.46761 4.91806C9.27857 4.91806 10.0563 5.21092 10.6298 5.73223C11.2032 6.25354 11.5254 6.96059 11.5254 7.69783C11.5254 8.43507 11.2032 9.14211 10.6298 9.66342C10.0563 10.1847 9.27857 10.4776 8.46761 10.4776Z" fill="#FF5C5C"/>
</svg>
