<svg width="17" height="14" viewBox="0 0 17 14" fill="none" xmlns="http://www.w3.org/2000/svg">
<path d="M15.2999 0H1.69999C0.756496 0 0.00849995 0.756496 0.00849995 1.69999L0 11.8999C0 12.8434 0.756496 13.5999 1.69999 13.5999H15.2999C16.2434 13.5999 16.9999 12.8434 16.9999 11.8999V1.69999C16.9999 0.756496 16.2434 0 15.2999 0ZM14.4499 11.8999H2.54999C2.08249 11.8999 1.69999 11.5174 1.69999 11.0499V6.79997H15.2999V11.0499C15.2999 11.5174 14.9174 11.8999 14.4499 11.8999ZM15.2999 3.39998H1.69999V2.54999C1.69999 2.08249 2.08249 1.69999 2.54999 1.69999H14.4499C14.9174 1.69999 15.2999 2.08249 15.2999 2.54999V3.39998Z" fill="#575757"/>
</svg>
