<svg width="25" height="25" viewBox="0 0 25 25" fill="none" xmlns="http://www.w3.org/2000/svg">
<path d="M11.7636 2.38854C11.959 2.19326 12.2239 2.08356 12.5001 2.08356C12.7763 2.08356 13.0412 2.19326 13.2365 2.38854L16.3615 5.51354C16.5513 5.71 16.6563 5.97313 16.6539 6.24625C16.6515 6.51937 16.542 6.78064 16.3489 6.97377C16.1557 7.1669 15.8945 7.27645 15.6213 7.27883C15.3482 7.2812 15.0851 7.17621 14.8886 6.98646L13.5417 5.63958V15.625C13.5417 15.9013 13.432 16.1662 13.2367 16.3616C13.0413 16.5569 12.7763 16.6667 12.5001 16.6667C12.2238 16.6667 11.9589 16.5569 11.7635 16.3616C11.5682 16.1662 11.4584 15.9013 11.4584 15.625V5.63958L10.1115 6.98646C9.91508 7.17621 9.65195 7.2812 9.37883 7.27883C9.10571 7.27645 8.84445 7.1669 8.65131 6.97377C8.45818 6.78064 8.34863 6.51937 8.34625 6.24625C8.34388 5.97313 8.44887 5.71 8.63862 5.51354L11.7636 2.38854ZM4.16675 11.4583C4.16675 10.9058 4.38624 10.3759 4.77694 9.9852C5.16764 9.59449 5.69755 9.375 6.25008 9.375H8.33341C8.60968 9.375 8.87463 9.48475 9.06998 9.6801C9.26533 9.87545 9.37508 10.1404 9.37508 10.4167C9.37508 10.6929 9.26533 10.9579 9.06998 11.1532C8.87463 11.3486 8.60968 11.4583 8.33341 11.4583H6.25008V20.8333H18.7501V11.4583H16.6667C16.3905 11.4583 16.1255 11.3486 15.9302 11.1532C15.7348 10.9579 15.6251 10.6929 15.6251 10.4167C15.6251 10.1404 15.7348 9.87545 15.9302 9.6801C16.1255 9.48475 16.3905 9.375 16.6667 9.375H18.7501C19.3026 9.375 19.8325 9.59449 20.2232 9.9852C20.6139 10.3759 20.8334 10.9058 20.8334 11.4583V20.8333C20.8334 21.3859 20.6139 21.9158 20.2232 22.3065C19.8325 22.6972 19.3026 22.9167 18.7501 22.9167H6.25008C5.69755 22.9167 5.16764 22.6972 4.77694 22.3065C4.38624 21.9158 4.16675 21.3859 4.16675 20.8333V11.4583Z" fill="#565759"/>
</svg>
