<svg width="18" height="17" viewBox="0 0 18 17" fill="none" xmlns="http://www.w3.org/2000/svg">
<path d="M4.05876 17C3.60543 17 3.22632 16.83 2.92146 16.49C2.61659 16.15 2.49277 15.7534 2.55001 15.3H6.01376L6.86377 11.9H8.56377L9.83877 6.80002H3.61251L3.84626 4.88751C3.90293 4.46251 4.09418 4.10834 4.42001 3.82501C4.74584 3.54168 5.12126 3.40001 5.54626 3.40001H7.22502C7.33835 2.33751 7.70329 1.50535 8.31982 0.903552C8.93636 0.301751 9.77559 0.000566668 10.8375 0C11.7442 0 12.4987 0.336601 13.1011 1.0098C13.7034 1.683 13.9973 2.47974 13.9825 3.40001H16.15C16.66 3.40001 17.085 3.59126 17.425 3.97376C17.765 4.35626 17.8996 4.80251 17.8288 5.31251L16.5538 15.5125C16.4971 15.9375 16.3093 16.2917 15.9902 16.575C15.6712 16.8584 15.2995 17 14.875 17H4.05876ZM0 13.6L0.425001 11.9H5.10001L4.67501 13.6H0ZM1.7 10.2L2.12501 8.50002H7.65002L7.22502 10.2H1.7ZM8.92502 3.40001H12.3038C12.3179 2.93251 12.1587 2.53244 11.8261 2.19981C11.4934 1.86717 11.0931 1.70057 10.625 1.7C10.1292 1.7 9.73592 1.85244 9.44522 2.15731C9.15452 2.46217 8.98112 2.87641 8.92502 3.40001Z" fill="#575757"/>
</svg>
