<svg width="24" height="24" viewBox="0 0 24 24" fill="none" xmlns="http://www.w3.org/2000/svg">
<path d="M3.30736e-05 0H9.80573L11.5052 7.6457L9.37945 9.77142C10.6293 11.7166 12.2831 13.37 14.2286 14.6194L16.3543 12.4948L24 14.1943V24H22.8571C18.4575 24.0075 14.1502 22.7387 10.4572 20.3474C7.73399 18.5851 5.41493 16.266 3.6526 13.5428C1.26131 9.84982 -0.00746859 5.54247 3.30736e-05 1.14286V0ZM2.3166 2.28571C2.50918 5.85132 3.63172 9.30442 5.5726 12.3017C7.15925 14.7531 9.24693 16.8408 11.6983 18.4274C14.6956 20.3683 18.1487 21.4908 21.7143 21.6834V16.0274L17.0823 14.9988L14.5977 17.4845L13.84 17.0537C10.963 15.4188 8.58121 13.037 6.94631 10.16L6.51545 9.40227L9.00116 6.91771L7.97259 2.28571H2.3166Z" fill="#53575D"/>
</svg>
