<svg width="10" height="10" viewBox="0 0 10 10" fill="none" xmlns="http://www.w3.org/2000/svg">
<path fill-rule="evenodd" clip-rule="evenodd" d="M4.98861 6.34604L1.62479 9.70985C1.4463 9.88835 1.2042 9.98863 0.951775 9.98863C0.699344 9.98863 0.457254 9.88835 0.278759 9.70985C0.100264 9.53136 -1.45185e-05 9.28927 -1.45185e-05 9.03684C-1.45185e-05 8.78441 0.100264 8.54232 0.278759 8.36382L3.64384 5.00001L0.279393 1.63619C0.191053 1.54781 0.120987 1.4429 0.0731926 1.32744C0.0253996 1.21198 0.000814972 1.08823 0.000844977 0.963271C0.000874014 0.838309 0.0255158 0.714577 0.0733629 0.599139C0.121211 0.483701 0.191328 0.378818 0.279709 0.290478C0.368091 0.202138 0.473008 0.132071 0.588469 0.0842777C0.703929 0.0364843 0.827672 0.0119005 0.952634 0.0119299C1.07759 0.0119594 1.20133 0.0366014 1.31676 0.0844492C1.4322 0.132297 1.53709 0.202414 1.62543 0.290795L4.98861 3.65461L8.35242 0.290795C8.44015 0.199879 8.54511 0.127344 8.66117 0.0774235C8.77723 0.0275032 8.90207 0.0011969 9.0284 3.99013e-05C9.15474 -0.00111709 9.28004 0.0228982 9.397 0.0706845C9.51395 0.118471 9.62022 0.189071 9.7096 0.278366C9.79898 0.367661 9.86968 0.473863 9.91758 0.590773C9.96547 0.707684 9.98961 0.832963 9.98857 0.959301C9.98753 1.08564 9.96134 1.2105 9.91153 1.32661C9.86172 1.44272 9.78929 1.54775 9.69845 1.63556L6.33337 5.00001L9.69782 8.36446C9.78865 8.45227 9.86109 8.5573 9.9109 8.6734C9.96071 8.78951 9.9869 8.91438 9.98794 9.04071C9.98897 9.16705 9.96484 9.29233 9.91694 9.40924C9.86905 9.52615 9.79835 9.63235 9.70897 9.72165C9.61959 9.81094 9.51332 9.88154 9.39636 9.92933C9.27941 9.97712 9.15411 10.0011 9.02777 9.99998C8.90143 9.99882 8.77659 9.97251 8.66053 9.92259C8.54447 9.87267 8.43951 9.80014 8.35178 9.70922L4.98861 6.34604Z" fill="#3195AB"/>
</svg>
