<svg width="12" height="15" viewBox="0 0 12 15" fill="none" xmlns="http://www.w3.org/2000/svg">
<path d="M5.99996 0C7.59125 0 9.11737 0.632138 10.2426 1.75735C11.3678 2.88256 11.9999 4.40868 11.9999 5.99996C11.9999 8.53533 10.2184 11.2984 6.7015 14.3187C6.50594 14.4867 6.25662 14.5789 5.99881 14.5787C5.74101 14.5785 5.49184 14.4858 5.29658 14.3175L5.06397 14.1156C1.70276 11.1741 0 8.47872 0 5.99996C0 4.40868 0.632138 2.88256 1.75735 1.75735C2.88256 0.632138 4.40868 0 5.99996 0ZM5.99996 0.923071C4.65349 0.923072 3.36216 1.45796 2.41006 2.41006C1.45796 3.36216 0.923072 4.65349 0.923071 5.99996C0.923072 8.15503 2.49106 10.6381 5.67012 13.4196L5.89966 13.6184C5.92757 13.6424 5.96316 13.6556 5.99996 13.6556C6.03677 13.6556 6.07236 13.6424 6.10027 13.6184C9.43318 10.7556 11.0769 8.20611 11.0769 5.99996C11.0769 5.33326 10.9455 4.67308 10.6904 4.05712C10.4353 3.44116 10.0613 2.88149 9.58987 2.41006C9.11844 1.93863 8.55876 1.56466 7.94281 1.30953C7.32685 1.05439 6.66667 0.923071 5.99996 0.923071ZM5.99996 3.69229C6.612 3.69229 7.19897 3.93542 7.63174 4.36819C8.06451 4.80096 8.30764 5.38793 8.30764 5.99996C8.30764 6.612 8.06451 7.19897 7.63174 7.63174C7.19897 8.06451 6.612 8.30764 5.99996 8.30764C5.38793 8.30764 4.80096 8.06451 4.36819 7.63174C3.93542 7.19897 3.69229 6.612 3.69229 5.99996C3.69229 5.38793 3.93542 4.80096 4.36819 4.36819C4.80096 3.93542 5.38793 3.69229 5.99996 3.69229ZM5.99996 4.61536C5.63274 4.61536 5.28056 4.76124 5.0209 5.0209C4.76124 5.28056 4.61536 5.63274 4.61536 5.99996C4.61536 6.36719 4.76124 6.71937 5.0209 6.97903C5.28056 7.23869 5.63274 7.38457 5.99996 7.38457C6.36719 7.38457 6.71937 7.23869 6.97903 6.97903C7.23869 6.71937 7.38457 6.36719 7.38457 5.99996C7.38457 5.63274 7.23869 5.28056 6.97903 5.0209C6.71937 4.76124 6.36719 4.61536 5.99996 4.61536Z" fill="#FF0000"/>
</svg>
