<svg width="18" height="8" viewBox="0 0 18 8" fill="none" xmlns="http://www.w3.org/2000/svg">
<path fill-rule="evenodd" clip-rule="evenodd" d="M1.46447 1.46447C2.40215 0.526785 3.67392 0 5 0H13C14.3261 0 15.5979 0.526785 16.5355 1.46447C17.4732 2.40215 18 3.67392 18 5V7C18 7.55228 17.5523 8 17 8C16.4477 8 16 7.55228 16 7V5C16 4.20435 15.6839 3.44129 15.1213 2.87868C14.5587 2.31607 13.7956 2 13 2H5C4.20435 2 3.44129 2.31607 2.87868 2.87868C2.31607 3.44129 2 4.20435 2 5V7C2 7.55228 1.55228 8 1 8C0.447715 8 0 7.55228 0 7V5C0 3.67392 0.526784 2.40215 1.46447 1.46447Z" fill="#484C52"/>
</svg>
