<svg width="10" height="16" viewBox="0 0 10 16" fill="none" xmlns="http://www.w3.org/2000/svg">
<path d="M6.27115 14.2274C6.27115 14.5599 6.13907 14.8787 5.90397 15.1138C5.66886 15.3489 5.34999 15.481 5.01751 15.481C4.68502 15.481 4.36615 15.3489 4.13105 15.1138C3.89594 14.8787 3.76386 14.5599 3.76386 14.2274C3.76386 13.8949 3.89594 13.576 4.13105 13.3409C4.36615 13.1058 4.68502 12.9737 5.01751 12.9737C5.34999 12.9737 5.66886 13.1058 5.90397 13.3409C6.13907 13.576 6.27115 13.8949 6.27115 14.2274Z" fill="#3E7290" stroke="#3E7290"/>
<path fill-rule="evenodd" clip-rule="evenodd" d="M4.97742 2.00683C4.16807 2.00683 3.44898 2.24753 2.91843 2.62262C2.40695 2.98367 2.09103 3.45103 1.99375 3.93443C1.97589 4.03286 1.93858 4.12674 1.884 4.21058C1.82941 4.29441 1.75866 4.36652 1.67587 4.42267C1.59308 4.47883 1.49992 4.5179 1.40184 4.53761C1.30376 4.55732 1.20274 4.55727 1.10468 4.53746C1.00662 4.51765 0.913503 4.47847 0.830771 4.42223C0.748039 4.36599 0.677356 4.29381 0.622861 4.20992C0.568365 4.12603 0.531151 4.03211 0.513397 3.93366C0.495643 3.83521 0.497706 3.73421 0.519465 3.63657C0.706007 2.71188 1.28369 1.93562 2.04991 1.39405C2.84823 0.830413 3.87521 0.501457 4.97742 0.501457C7.30919 0.501457 9.49855 2.04093 9.49855 4.2694C9.49855 5.56517 8.72831 6.65233 7.65921 7.30723C7.48897 7.4115 7.28429 7.44387 7.09019 7.39723C6.89609 7.35058 6.72847 7.22874 6.6242 7.05851C6.51993 6.88827 6.48756 6.68359 6.53421 6.48949C6.58085 6.29539 6.70269 6.12777 6.87292 6.0235C7.60405 5.5762 7.99418 4.92732 7.99418 4.2694C7.99418 3.1672 6.80874 2.00683 4.97742 2.00683ZM4.97742 7.28717C5.17691 7.28717 5.36823 7.36642 5.50929 7.50748C5.65035 7.64854 5.7296 7.83986 5.7296 8.03936V9.54573C5.7296 9.74522 5.65035 9.93655 5.50929 10.0776C5.36823 10.2187 5.17691 10.2979 4.97742 10.2979C4.77792 10.2979 4.5866 10.2187 4.44554 10.0776C4.30448 9.93655 4.22523 9.74522 4.22523 9.54573V8.03936C4.22523 7.83986 4.30448 7.64854 4.44554 7.50748C4.5866 7.36642 4.77792 7.28717 4.97742 7.28717Z" fill="#3E7290" stroke="#3E7290"/>
<path fill-rule="evenodd" clip-rule="evenodd" d="M7.91395 6.2802C7.96474 6.36494 7.99833 6.45887 8.01282 6.5566C8.0273 6.65434 8.02239 6.75397 7.99836 6.8498C7.97433 6.94563 7.93166 7.0358 7.87278 7.11514C7.8139 7.19447 7.73996 7.26144 7.6552 7.3122L5.36354 8.68418C5.27873 8.73702 5.18425 8.77243 5.0856 8.78835C4.98696 8.80427 4.88614 8.80037 4.78901 8.77689C4.69189 8.75341 4.60042 8.71081 4.51995 8.65159C4.43947 8.59236 4.3716 8.5177 4.3203 8.43195C4.269 8.34621 4.2353 8.2511 4.22116 8.15219C4.20703 8.05327 4.21274 7.95253 4.23797 7.85585C4.2632 7.75917 4.30743 7.66848 4.3681 7.58909C4.42876 7.50969 4.50464 7.44318 4.59129 7.39343L6.88295 6.02145C7.05402 5.91919 7.25868 5.889 7.45198 5.93752C7.64529 5.98603 7.81144 6.10928 7.91395 6.2802Z" fill="#3E7290" stroke="#3E7290"/>
</svg>
