<svg width="21" height="20" viewBox="0 0 21 20" fill="none" xmlns="http://www.w3.org/2000/svg">
<path d="M8.92079 18.9928H11.7985M1.00719 8.01445C1.00796 6.64488 1.33457 5.29515 1.96004 4.07674C2.5855 2.85834 3.49187 1.80622 4.60428 1.00731M19.7121 8.01445C19.7113 6.64488 19.3847 5.29515 18.7592 4.07674C18.1338 2.85834 17.2274 1.80622 16.115 1.00731M16.115 8.2015C16.115 6.67508 15.5086 5.21119 14.4293 4.13185C13.3499 3.05251 11.886 2.44615 10.3596 2.44615C8.83322 2.44615 7.36932 3.05251 6.28998 4.13185C5.21065 5.21119 4.60428 6.67508 4.60428 8.2015V13.2374C4.60428 13.8098 4.37689 14.3588 3.97214 14.7635C3.56739 15.1683 3.01843 15.3957 2.44602 15.3957H18.2732C17.7008 15.3957 17.1519 15.1683 16.7471 14.7635C16.3424 14.3588 16.115 13.8098 16.115 13.2374V8.2015Z" stroke="#3E7290" stroke-width="2" stroke-linecap="round" stroke-linejoin="round"/>
</svg>
