<svg width="18" height="20" viewBox="0 0 18 20" fill="none" xmlns="http://www.w3.org/2000/svg">
<path d="M14.8734 0.253165C15.6396 0.253165 16.298 0.524501 16.8335 1.06309C17.3687 1.6014 17.6382 2.26133 17.6375 3.0271C17.6366 3.79264 17.3657 4.45073 16.8295 4.98616C16.2933 5.52155 15.6346 5.78979 14.8685 5.78916H14.8675C14.4509 5.78907 14.0611 5.70385 13.7025 5.53006C13.4163 5.39126 13.1648 5.21115 12.946 4.99308L5.69719 9.29589C5.72001 9.37959 5.73999 9.46305 5.75356 9.54707H5.75257C5.77732 9.69525 5.79015 9.84623 5.79015 10C5.79015 10.1541 5.77743 10.3054 5.75257 10.4539C5.73867 10.5369 5.71956 10.62 5.69719 10.7031L12.947 15.0069C13.166 14.7891 13.4169 14.6087 13.7025 14.4699C14.0612 14.2961 14.4516 14.2098 14.8685 14.2098C15.6336 14.2099 16.2922 14.4807 16.8295 15.0178L16.8305 15.0188C17.3668 15.5575 17.6374 16.2171 17.6375 16.9828C17.6375 17.7488 17.3659 18.4074 16.8275 18.9428C16.3563 19.4113 15.7913 19.6767 15.1444 19.735L14.8625 19.7468C14.0974 19.7468 13.4399 19.4759 12.9045 18.9389H12.9035C12.3692 18.4014 12.1005 17.7427 12.1005 16.9778C12.1005 16.9005 12.116 16.7875 12.139 16.6555C12.156 16.558 12.1799 16.4414 12.2083 16.3054L4.94462 11.9927C4.72202 12.2109 4.46369 12.388 4.1693 12.5218C3.80522 12.6871 3.41509 12.769 3.00237 12.769C2.24121 12.769 1.58612 12.4953 1.0532 11.9531C0.521636 11.4123 0.253165 10.7565 0.253165 10C0.253165 9.2435 0.521636 8.5877 1.0532 8.04687C1.58612 7.50469 2.24121 7.23101 3.00237 7.23101C3.41446 7.23105 3.80469 7.313 4.1693 7.47824C4.46421 7.61194 4.72333 7.78862 4.94561 8.00732L12.1924 3.7233C12.17 3.64084 12.1505 3.55867 12.1371 3.47607C12.1122 3.32701 12.1005 3.17528 12.1005 3.02116C12.1005 2.25629 12.3713 1.59749 12.9094 1.06013C13.4476 0.523483 14.1075 0.253165 14.8734 0.253165ZM14.8695 15.7714C14.5195 15.772 14.237 15.8877 14.0061 16.1175C13.7761 16.3466 13.6604 16.6278 13.661 16.9778C13.6617 17.3285 13.7778 17.6102 14.0071 17.8402C14.2364 18.07 14.5173 18.1853 14.8685 18.1853C15.2187 18.1853 15.5 18.0699 15.7298 17.8402C15.9599 17.6101 16.0759 17.3285 16.0759 16.9788C16.0759 16.6292 15.9601 16.3474 15.7298 16.1165C15.4998 15.886 15.2188 15.7708 14.8695 15.7714ZM3.00237 8.79351C2.65857 8.79351 2.38185 8.9082 2.15585 9.13766C1.92958 9.36748 1.81537 9.64925 1.81468 10C1.81408 10.3504 1.92815 10.6327 2.15585 10.8633C2.38343 11.0938 2.65974 11.2077 3.00138 11.2065H3.00237C3.31408 11.2064 3.57205 11.1172 3.78857 10.9405L3.87955 10.8594C4.11242 10.6291 4.22864 10.3484 4.22864 10C4.22864 9.65132 4.11275 9.36996 3.87955 9.13964C3.64635 8.90933 3.35948 8.79357 3.00237 8.79351ZM14.8685 1.81468C14.5193 1.81415 14.2379 1.92914 14.0071 2.15981C13.7763 2.39063 13.6604 2.67278 13.661 3.02215C13.6617 3.37196 13.7777 3.65345 14.0071 3.8835C14.2363 4.11321 14.5181 4.22864 14.8695 4.22864C15.2189 4.22858 15.4999 4.1133 15.7298 3.8835C15.9598 3.65351 16.0759 3.37167 16.0759 3.02116C16.0759 2.67063 15.9606 2.38903 15.7308 2.15981C15.5007 1.93026 15.2185 1.81527 14.8685 1.81468Z" fill="#235E81" stroke="#235E81" stroke-width="0.5"/>
</svg>
