<svg width="25" height="25" viewBox="0 0 25 25" fill="none" xmlns="http://www.w3.org/2000/svg">
<g clip-path="url(#clip0_3413_12260)">
<path d="M12.3438 23.9583L2.05737 13.6719L9.92196 5.80729L13.724 9.60938L14.4532 8.88021L8.88029 3.30729L1.77091 10.4167L2.78654 11.4323L1.30216 12.9167L-1.14575 10.4688L8.93237 0.390625L12.1615 3.61979L15.3907 0.390625L25.6511 10.651L12.3438 23.9583ZM12.3699 21.0417L22.7084 10.651L15.3647 3.30729L13.6199 5.05208L17.422 8.85417L13.724 12.5521L9.92196 8.75L5.00008 13.6719L5.75529 14.4271L9.6355 10.5469L11.0938 12.0052L7.21362 15.8854L7.94279 16.6146L11.823 12.7344L13.3074 14.2187L9.42717 18.099L10.1563 18.8281L14.0365 14.9479L15.4949 16.4062L11.6147 20.2865L12.3699 21.0417Z" fill="black"/>
</g>
<defs>
<clipPath id="clip0_3413_12260">
<rect width="25" height="25" fill="white"/>
</clipPath>
</defs>
</svg>
