<svg width="25" height="25" viewBox="0 0 25 25" fill="none" xmlns="http://www.w3.org/2000/svg">
<path d="M17.7083 4.16667C17.4321 4.16667 17.1671 4.05692 16.9718 3.86157C16.7764 3.66622 16.6667 3.40127 16.6667 3.125C16.6667 2.84874 16.7764 2.58378 16.9718 2.38843C17.1671 2.19308 17.4321 2.08334 17.7083 2.08334H21.875C22.1513 2.08334 22.4162 2.19308 22.6116 2.38843C22.8069 2.58378 22.9167 2.84874 22.9167 3.125V7.29167C22.9167 7.56794 22.8069 7.83289 22.6116 8.02824C22.4162 8.22359 22.1513 8.33334 21.875 8.33334C21.5987 8.33334 21.3338 8.22359 21.1384 8.02824C20.9431 7.83289 20.8333 7.56794 20.8333 7.29167V5.63959L14.799 11.674C14.6036 11.8692 14.3387 11.9789 14.0625 11.9789C13.7863 11.9789 13.5214 11.8692 13.326 11.674L10.4167 8.76459L4.90312 14.2781C4.70666 14.4679 4.44354 14.5729 4.17042 14.5705C3.89729 14.5681 3.63603 14.4586 3.4429 14.2654C3.24976 14.0723 3.14021 13.811 3.13784 13.5379C3.13547 13.2648 3.24046 13.0017 3.43021 12.8052L9.68021 6.55521C9.87555 6.35993 10.1405 6.25023 10.4167 6.25023C10.6929 6.25023 10.9578 6.35993 11.1531 6.55521L14.0625 9.46459L19.3604 4.16667H17.7083ZM5.20833 18.75V21.875C5.20833 22.1513 5.09859 22.4162 4.90324 22.6116C4.70789 22.8069 4.44293 22.9167 4.16667 22.9167C3.8904 22.9167 3.62545 22.8069 3.4301 22.6116C3.23475 22.4162 3.125 22.1513 3.125 21.875V18.75C3.125 18.4737 3.23475 18.2088 3.4301 18.0134C3.62545 17.8181 3.8904 17.7083 4.16667 17.7083C4.44293 17.7083 4.70789 17.8181 4.90324 18.0134C5.09859 18.2088 5.20833 18.4737 5.20833 18.75ZM10.4167 14.5833C10.4167 14.3071 10.3069 14.0421 10.1116 13.8468C9.91622 13.6514 9.65127 13.5417 9.375 13.5417C9.09873 13.5417 8.83378 13.6514 8.63843 13.8468C8.44308 14.0421 8.33333 14.3071 8.33333 14.5833V21.875C8.33333 22.1513 8.44308 22.4162 8.63843 22.6116C8.83378 22.8069 9.09873 22.9167 9.375 22.9167C9.65127 22.9167 9.91622 22.8069 10.1116 22.6116C10.3069 22.4162 10.4167 22.1513 10.4167 21.875V14.5833ZM14.5833 15.625C14.8596 15.625 15.1246 15.7347 15.3199 15.9301C15.5153 16.1255 15.625 16.3904 15.625 16.6667V21.875C15.625 22.1513 15.5153 22.4162 15.3199 22.6116C15.1246 22.8069 14.8596 22.9167 14.5833 22.9167C14.3071 22.9167 14.0421 22.8069 13.8468 22.6116C13.6514 22.4162 13.5417 22.1513 13.5417 21.875V16.6667C13.5417 16.3904 13.6514 16.1255 13.8468 15.9301C14.0421 15.7347 14.3071 15.625 14.5833 15.625ZM20.8333 11.4583C20.8333 11.1821 20.7236 10.9171 20.5282 10.7218C20.3329 10.5264 20.0679 10.4167 19.7917 10.4167C19.5154 10.4167 19.2504 10.5264 19.0551 10.7218C18.8597 10.9171 18.75 11.1821 18.75 11.4583V21.875C18.75 22.1513 18.8597 22.4162 19.0551 22.6116C19.2504 22.8069 19.5154 22.9167 19.7917 22.9167C20.0679 22.9167 20.3329 22.8069 20.5282 22.6116C20.7236 22.4162 20.8333 22.1513 20.8333 21.875V11.4583Z" fill="black"/>
</svg>
