<svg width="25" height="25" viewBox="0 0 25 25" fill="none" xmlns="http://www.w3.org/2000/svg">
<path fill-rule="evenodd" clip-rule="evenodd" d="M4.6875 10.4167C4.6875 10.1404 4.79725 9.87545 4.9926 9.6801C5.18795 9.48475 5.4529 9.375 5.72917 9.375H7.29167V8.33333C7.29167 5.45677 9.62344 3.125 12.5 3.125C15.3766 3.125 17.7083 5.45677 17.7083 8.33333V9.375H19.2708C19.5471 9.375 19.8121 9.48475 20.0074 9.6801C20.2028 9.87545 20.3125 10.1404 20.3125 10.4167V20.8333C20.3125 21.1096 20.2028 21.3746 20.0074 21.5699C19.8121 21.7653 19.5471 21.875 19.2708 21.875H5.72917C5.4529 21.875 5.18795 21.7653 4.9926 21.5699C4.79725 21.3746 4.6875 21.1096 4.6875 20.8333V10.4167ZM12.5 5.20833C13.3288 5.20833 14.1237 5.53757 14.7097 6.12362C15.2958 6.70968 15.625 7.50453 15.625 8.33333V9.375H9.375V8.33333C9.375 7.50453 9.70424 6.70968 10.2903 6.12362C10.8763 5.53757 11.6712 5.20833 12.5 5.20833ZM17.1875 13.5417H7.8125V12.5H17.1875V13.5417ZM7.8125 16.1458H17.1875V15.1042H7.8125V16.1458ZM17.1875 18.75H7.8125V17.7083H17.1875V18.75Z" fill="black"/>
</svg>
