<svg width="70" height="73" viewBox="0 0 70 73" fill="none" xmlns="http://www.w3.org/2000/svg">
<path d="M40.8685 13.9984H36.6979C35.9443 14.0008 35.9725 15.124 36.6979 15.1174H40.8685V15.6916H36.6979C35.9485 15.685 35.9761 16.8076 36.6979 16.8106H40.8685V17.3974H36.6979C35.9485 17.3974 35.9761 18.5194 36.6979 18.5164H40.8685V19.0756H36.6979C35.9641 19.081 35.9761 20.2042 36.6979 20.2078H40.8685V20.7682H36.6979C35.9641 20.7658 35.9611 21.8872 36.6979 21.8872H40.8685V22.4464H36.6979C35.9641 22.4488 35.9611 23.5714 36.6979 23.566H40.8685V24.139H36.6979C35.9641 24.1324 35.9611 25.2538 36.6979 25.258H40.8685V25.816H36.6979C35.9641 25.8154 35.9761 26.9392 36.6979 26.9356H40.8685V37.831C40.8709 39.4912 43.3927 39.4612 43.3999 37.831V12.334C43.3927 11.5756 42.7699 10.6168 41.7451 10.6138H36.6979C35.9443 10.6144 35.9725 11.7376 36.6979 11.7328L40.8685 11.7466V12.3046H36.6979C35.9455 12.301 35.9737 13.4236 36.6979 13.4242H40.8685V13.9984ZM36.4111 33.3148C36.4087 31.3768 34.3999 29.2924 31.9999 30.6424V23.23L30.4477 11.005C30.4153 10.6816 30.1411 10.6054 29.9569 10.6C29.7667 10.6054 29.3857 10.6816 29.3443 11.005L27.7999 23.23V30.6424C25.3999 29.2924 23.4559 31.39 23.4553 33.2998C23.4559 34.999 24.7639 36.3946 26.5339 36.3904C28.3171 36.3946 29.5999 34.8304 29.5999 33.2998V25.6H30.1999V33.2998C30.1999 35.0134 31.5271 36.2818 33.0019 36.3622C32.9773 37.3018 33.2839 38.6422 33.8611 39.1738C34.5379 39.7978 35.3437 38.9998 35.0131 38.35C34.6939 37.7452 34.3807 37.387 34.6351 36.0664C35.6983 35.5744 36.4087 34.5388 36.4111 33.3148ZM26.6023 34.8394C26.1977 34.8394 25.8097 34.6787 25.5236 34.3926C25.2375 34.1065 25.0768 33.7185 25.0768 33.3139C25.0768 32.9093 25.2375 32.5213 25.5236 32.2352C25.8097 31.9491 26.1977 31.7884 26.6023 31.7884C27.4339 31.7932 28.1113 32.4754 28.1173 33.3148C28.1159 33.717 27.9562 34.1026 27.6726 34.3879C27.3891 34.6732 27.0046 34.8354 26.6023 34.8394ZM31.7449 33.3148C31.7463 32.9122 31.9061 32.5264 32.1897 32.2408C32.4734 31.9552 32.858 31.7926 33.2605 31.7884C33.6631 31.7923 34.0479 31.9548 34.3314 32.2405C34.615 32.5262 34.7746 32.9122 34.7755 33.3148C34.7749 33.7173 34.6154 34.1033 34.3317 34.3888C34.048 34.6743 33.663 34.8362 33.2605 34.8394C32.8582 34.8356 32.4735 34.6735 32.1898 34.3881C31.9062 34.1028 31.7463 33.7171 31.7449 33.3148Z" fill="#4B4B4B"/>
</svg>
