<svg width="25" height="25" viewBox="0 0 25 25" fill="none" xmlns="http://www.w3.org/2000/svg">
<path d="M6.69684 2.51352C6.82817 2.35678 6.89281 2.15479 6.87688 1.95093C6.86095 1.74706 6.76572 1.55756 6.61165 1.42312C6.45757 1.28868 6.25692 1.22 6.05277 1.23184C5.84863 1.24368 5.65726 1.33509 5.51975 1.48644L4.17392 3.02811C3.41078 3.90266 2.97938 5.01766 2.95517 6.17811L2.8958 9.0104C2.89368 9.11299 2.91178 9.215 2.94909 9.3106C2.98639 9.4062 3.04216 9.49351 3.1132 9.56755C3.18425 9.6416 3.26918 9.70093 3.36316 9.74215C3.45713 9.78337 3.55831 9.80567 3.6609 9.80779C3.7635 9.80991 3.8655 9.79181 3.9611 9.7545C4.0567 9.7172 4.14401 9.66143 4.21806 9.59039C4.2921 9.51934 4.35143 9.43441 4.39265 9.34043C4.43387 9.24646 4.45618 9.14528 4.4583 9.04269L4.51663 6.21144C4.53334 5.41741 4.82869 4.65452 5.35101 4.05623L6.69684 2.51352Z" fill="#235E81"/>
<path fill-rule="evenodd" clip-rule="evenodd" d="M6.4969 8.02081C6.56686 6.90637 7.0589 5.86048 7.87287 5.09606C8.68683 4.33164 9.76152 3.90616 10.8782 3.90623H11.4584V3.12498C11.4584 2.84871 11.5681 2.58376 11.7635 2.38841C11.9588 2.19306 12.2238 2.08331 12.5 2.08331C12.7763 2.08331 13.0412 2.19306 13.2366 2.38841C13.4319 2.58376 13.5417 2.84871 13.5417 3.12498V3.90623H14.1219C15.2385 3.90616 16.3132 4.33164 17.1272 5.09606C17.9412 5.86048 18.4332 6.90637 18.5032 8.02081L18.7334 11.7021C18.8224 13.1054 19.2935 14.4577 20.0959 15.6125C20.2619 15.8511 20.3633 16.1286 20.3903 16.418C20.4173 16.7074 20.3689 16.9989 20.2499 17.2641C20.1309 17.5293 19.9453 17.7592 19.7111 17.9314C19.4769 18.1036 19.2022 18.2123 18.9136 18.2469L15.3646 18.6719V19.7916C15.3646 20.5514 15.0628 21.28 14.5256 21.8172C13.9884 22.3544 13.2598 22.6562 12.5 22.6562C11.7403 22.6562 11.0117 22.3544 10.4745 21.8172C9.93725 21.28 9.63545 20.5514 9.63545 19.7916V18.6719L6.08649 18.2458C5.79804 18.2111 5.52347 18.1024 5.28945 17.9303C5.05543 17.7582 4.86991 17.5284 4.75092 17.2634C4.63192 16.9983 4.58351 16.707 4.61036 16.4178C4.63722 16.1285 4.73844 15.8511 4.9042 15.6125C5.70653 14.4577 6.1777 13.1054 6.2667 11.7021L6.4969 8.02081ZM10.8782 5.46873C10.159 5.46864 9.46677 5.74266 8.94251 6.23499C8.41824 6.72732 8.10133 7.40095 8.05628 8.11873L7.82711 11.8C7.72001 13.4883 7.15301 15.115 6.18753 16.5041C6.17552 16.5214 6.16817 16.5415 6.16621 16.5624C6.16425 16.5833 6.16774 16.6044 6.17634 16.6236C6.18493 16.6428 6.19835 16.6594 6.21528 16.6719C6.23221 16.6844 6.25207 16.6923 6.27295 16.6948L10.1657 17.1625C11.7167 17.3479 13.2834 17.3479 14.8344 17.1625L18.7271 16.6948C18.748 16.6923 18.7679 16.6844 18.7848 16.6719C18.8017 16.6594 18.8151 16.6428 18.8237 16.6236C18.8323 16.6044 18.8358 16.5833 18.8338 16.5624C18.8319 16.5415 18.8245 16.5214 18.8125 16.5041C17.8474 15.1149 17.2808 13.4882 17.174 11.8L16.9438 8.11873C16.8987 7.40095 16.5818 6.72732 16.0576 6.23499C15.5333 5.74266 14.8411 5.46864 14.1219 5.46873H10.8782ZM12.5 21.0937C11.7813 21.0937 11.1979 20.5104 11.1979 19.7916V19.0104H13.8021V19.7916C13.8021 20.5104 13.2188 21.0937 12.5 21.0937Z" fill="#235E81"/>
<path d="M18.3781 1.41148C18.222 1.54771 18.1265 1.74033 18.1124 1.947C18.0983 2.15366 18.1669 2.35746 18.3031 2.51357L19.6489 4.05523C20.1711 4.65394 20.4661 5.41722 20.4823 6.21148L20.5416 9.04169C20.5459 9.24889 20.6323 9.4459 20.7819 9.58939C20.9314 9.73287 21.1318 9.81108 21.339 9.8068C21.5462 9.80251 21.7432 9.7161 21.8867 9.56656C22.0302 9.41702 22.1084 9.2166 22.1041 9.0094L22.0448 6.17815C22.0205 5.0177 21.5891 3.9027 20.826 3.02815L19.4802 1.48648C19.3439 1.33043 19.1513 1.23486 18.9447 1.2208C18.738 1.20673 18.5342 1.27532 18.3781 1.41148Z" fill="#235E81"/>
</svg>
