<svg width="324" height="48" viewBox="0 0 324 48" fill="none" xmlns="http://www.w3.org/2000/svg">
<rect width="324" height="48" rx="8" fill="#3499AF"/>
<path d="M139.403 30L143.595 18.08H145.931L150.123 30H148.107L147.195 27.328H142.347L141.419 30H139.403ZM142.891 25.648H146.619L144.507 19.408H145.035L142.891 25.648ZM151.361 33.2V21.344H153.089V23.136L152.881 22.72C153.201 22.2293 153.627 21.8453 154.161 21.568C154.694 21.2907 155.302 21.152 155.985 21.152C156.806 21.152 157.542 21.3493 158.193 21.744C158.854 22.1387 159.371 22.6773 159.745 23.36C160.129 24.0427 160.321 24.8107 160.321 25.664C160.321 26.5173 160.129 27.2853 159.745 27.968C159.371 28.6507 158.859 29.1947 158.209 29.6C157.558 29.9947 156.817 30.192 155.985 30.192C155.313 30.192 154.699 30.0533 154.145 29.776C153.601 29.4987 153.179 29.0987 152.881 28.576L153.169 28.24V33.2H151.361ZM155.809 28.512C156.321 28.512 156.774 28.3893 157.169 28.144C157.563 27.8987 157.873 27.5627 158.097 27.136C158.331 26.6987 158.449 26.208 158.449 25.664C158.449 25.12 158.331 24.6347 158.097 24.208C157.873 23.7813 157.563 23.4453 157.169 23.2C156.774 22.9547 156.321 22.832 155.809 22.832C155.307 22.832 154.854 22.9547 154.449 23.2C154.054 23.4453 153.739 23.7813 153.505 24.208C153.281 24.6347 153.169 25.12 153.169 25.664C153.169 26.208 153.281 26.6987 153.505 27.136C153.739 27.5627 154.054 27.8987 154.449 28.144C154.854 28.3893 155.307 28.512 155.809 28.512ZM162.08 33.2V21.344H163.808V23.136L163.6 22.72C163.92 22.2293 164.346 21.8453 164.88 21.568C165.413 21.2907 166.021 21.152 166.704 21.152C167.525 21.152 168.261 21.3493 168.912 21.744C169.573 22.1387 170.09 22.6773 170.464 23.36C170.848 24.0427 171.04 24.8107 171.04 25.664C171.04 26.5173 170.848 27.2853 170.464 27.968C170.09 28.6507 169.578 29.1947 168.928 29.6C168.277 29.9947 167.536 30.192 166.704 30.192C166.032 30.192 165.418 30.0533 164.864 29.776C164.32 29.4987 163.898 29.0987 163.6 28.576L163.888 28.24V33.2H162.08ZM166.528 28.512C167.04 28.512 167.493 28.3893 167.888 28.144C168.282 27.8987 168.592 27.5627 168.816 27.136C169.05 26.6987 169.168 26.208 169.168 25.664C169.168 25.12 169.05 24.6347 168.816 24.208C168.592 23.7813 168.282 23.4453 167.888 23.2C167.493 22.9547 167.04 22.832 166.528 22.832C166.026 22.832 165.573 22.9547 165.168 23.2C164.773 23.4453 164.458 23.7813 164.224 24.208C164 24.6347 163.888 25.12 163.888 25.664C163.888 26.208 164 26.6987 164.224 27.136C164.458 27.5627 164.773 27.8987 165.168 28.144C165.573 28.3893 166.026 28.512 166.528 28.512ZM172.798 30V17.888H174.606V30H172.798ZM177.488 33.52C177.275 33.52 177.061 33.4987 176.848 33.456C176.645 33.424 176.459 33.3707 176.288 33.296V31.744C176.416 31.776 176.571 31.8027 176.752 31.824C176.933 31.856 177.109 31.872 177.28 31.872C177.781 31.872 178.149 31.76 178.384 31.536C178.629 31.3227 178.848 30.992 179.04 30.544L179.616 29.232L179.584 30.752L175.84 21.344H177.776L180.544 28.56H179.888L182.64 21.344H184.592L180.768 30.944C180.565 31.456 180.309 31.904 180 32.288C179.701 32.6827 179.344 32.9867 178.928 33.2C178.523 33.4133 178.043 33.52 177.488 33.52Z" fill="white"/>
</svg>
