<svg width="25" height="25" viewBox="0 0 25 25" fill="none" xmlns="http://www.w3.org/2000/svg">
<path d="M10.4167 3.125H4.16667C3.8904 3.125 3.62545 3.23475 3.4301 3.4301C3.23475 3.62545 3.125 3.8904 3.125 4.16667V10.4167C3.125 10.6929 3.23475 10.9579 3.4301 11.1532C3.62545 11.3486 3.8904 11.4583 4.16667 11.4583H10.4167C10.6929 11.4583 10.9579 11.3486 11.1532 11.1532C11.3486 10.9579 11.4583 10.6929 11.4583 10.4167V4.16667C11.4583 3.8904 11.3486 3.62545 11.1532 3.4301C10.9579 3.23475 10.6929 3.125 10.4167 3.125ZM20.8333 13.5417H14.5833C14.3071 13.5417 14.0421 13.6514 13.8468 13.8468C13.6514 14.0421 13.5417 14.3071 13.5417 14.5833V20.8333C13.5417 21.1096 13.6514 21.3746 13.8468 21.5699C14.0421 21.7653 14.3071 21.875 14.5833 21.875H20.8333C21.1096 21.875 21.3746 21.7653 21.5699 21.5699C21.7653 21.3746 21.875 21.1096 21.875 20.8333V14.5833C21.875 14.3071 21.7653 14.0421 21.5699 13.8468C21.3746 13.6514 21.1096 13.5417 20.8333 13.5417ZM17.7083 3.125C15.4104 3.125 13.5417 4.99375 13.5417 7.29167C13.5417 9.58958 15.4104 11.4583 17.7083 11.4583C20.0063 11.4583 21.875 9.58958 21.875 7.29167C21.875 4.99375 20.0063 3.125 17.7083 3.125ZM7.29167 13.5417C4.99375 13.5417 3.125 15.4104 3.125 17.7083C3.125 20.0063 4.99375 21.875 7.29167 21.875C9.58958 21.875 11.4583 20.0063 11.4583 17.7083C11.4583 15.4104 9.58958 13.5417 7.29167 13.5417Z" fill="#235E81"/>
</svg>
