<svg width="19" height="19" viewBox="0 0 19 19" fill="none" xmlns="http://www.w3.org/2000/svg">
<path d="M3.82111 8.22278C5.34111 11.21 7.79 13.6589 10.7772 15.1789L13.0994 12.8567C13.395 12.5611 13.8067 12.4767 14.1761 12.5928C15.3583 12.9833 16.625 13.1944 17.9444 13.1944C18.2244 13.1944 18.4929 13.3057 18.6908 13.5036C18.8888 13.7016 19 13.97 19 14.25V17.9444C19 18.2244 18.8888 18.4929 18.6908 18.6908C18.4929 18.8888 18.2244 19 17.9444 19C13.1853 19 8.62104 17.1094 5.25581 13.7442C1.89057 10.379 0 5.81472 0 1.05556C0 0.775605 0.11121 0.50712 0.309165 0.309165C0.50712 0.11121 0.775605 0 1.05556 0H4.75C5.02995 0 5.29844 0.11121 5.49639 0.309165C5.69434 0.50712 5.80556 0.775605 5.80556 1.05556C5.80556 2.375 6.01667 3.64167 6.40722 4.82389C6.52333 5.19333 6.43889 5.605 6.14333 5.90056L3.82111 8.22278Z" fill="#227A97"/>
</svg>
