<svg width="25" height="25" viewBox="0 0 25 25" fill="none" xmlns="http://www.w3.org/2000/svg">
<path d="M19.8436 5.1148C18.8884 4.15033 17.7509 3.3856 16.4972 2.86518C15.2436 2.34476 13.8989 2.07906 12.5415 2.08355C6.854 2.08355 2.21859 6.71897 2.21859 12.4065C2.21859 14.2294 2.69775 16.0002 3.59359 17.5627L2.13525 22.9169L7.604 21.4794C9.11442 22.3023 10.8123 22.7398 12.5415 22.7398C18.229 22.7398 22.8644 18.1044 22.8644 12.4169C22.8644 9.65647 21.7915 7.06272 19.8436 5.1148ZM12.5415 20.9898C10.9998 20.9898 9.48942 20.5731 8.1665 19.7919L7.854 19.6044L4.604 20.4585L5.46859 17.2919L5.26025 16.969C4.40353 15.6013 3.94872 14.0203 3.94775 12.4065C3.94775 7.6773 7.80192 3.82314 12.5311 3.82314C14.8228 3.82314 16.979 4.71897 18.5936 6.34397C19.3932 7.13966 20.0268 8.0862 20.4578 9.12869C20.8887 10.1712 21.1084 11.2888 21.104 12.4169C21.1248 17.1461 17.2707 20.9898 12.5415 20.9898ZM17.2498 14.5731C16.9894 14.4481 15.7186 13.8231 15.4894 13.7294C15.2498 13.6461 15.0832 13.6044 14.9061 13.8544C14.729 14.1148 14.2394 14.6981 14.0936 14.8648C13.9478 15.0419 13.7915 15.0627 13.5311 14.9273C13.2707 14.8023 12.4373 14.5211 11.4582 13.6461C10.6873 12.9586 10.1769 12.1148 10.0207 11.8544C9.87484 11.594 9.99984 11.4586 10.1353 11.3231C10.2498 11.2086 10.3957 11.0211 10.5207 10.8752C10.6457 10.7294 10.6978 10.6148 10.7811 10.4481C10.8644 10.2711 10.8228 10.1252 10.7603 10.0002C10.6978 9.87522 10.1769 8.60439 9.96859 8.08355C9.76025 7.58355 9.5415 7.64605 9.38525 7.63564H8.88525C8.70817 7.63564 8.43734 7.69814 8.19775 7.95855C7.96859 8.21897 7.30192 8.84397 7.30192 10.1148C7.30192 11.3856 8.229 12.6148 8.354 12.7815C8.479 12.9586 10.1769 15.5627 12.7603 16.6773C13.3748 16.9481 13.854 17.1044 14.229 17.219C14.8436 17.4169 15.4061 17.3856 15.854 17.3231C16.354 17.2502 17.3853 16.6981 17.5936 16.094C17.8123 15.4898 17.8123 14.9794 17.7394 14.8648C17.6665 14.7502 17.5103 14.6981 17.2498 14.5731Z" fill="#2D8E10"/>
</svg>
