<svg width="22" height="28" viewBox="0 0 22 28" fill="none" xmlns="http://www.w3.org/2000/svg">
<path d="M14.905 19.964C19.0575 20.762 22 22.806 22 25.2V28H0V25.2C0 22.806 2.9425 20.762 7.095 19.964L11 26.6L14.905 19.964ZM5.5 8.40001H16.5V11.2C16.5 12.6852 15.9205 14.1096 14.8891 15.1598C13.8576 16.21 12.4587 16.8 11 16.8C9.54131 16.8 8.14236 16.21 7.11091 15.1598C6.07946 14.1096 5.5 12.6852 5.5 11.2V8.40001ZM5.5 7.00001L6.06375 1.26002C6.09795 0.913484 6.25778 0.592374 6.51203 0.359388C6.76628 0.126403 7.0967 -0.00172773 7.43875 1.75984e-05H14.575C15.2763 1.75984e-05 15.8675 0.546017 15.9363 1.26002L16.5 7.00001H5.5ZM11 1.40002H9.625V2.80002H8.25V4.20001H9.625V5.60001H11V4.20001H12.375V2.80002H11V1.40002Z" fill="#3195AB"/>
</svg>
