<svg width="24" height="30" viewBox="0 0 24 30" fill="none" xmlns="http://www.w3.org/2000/svg">
<path fill-rule="evenodd" clip-rule="evenodd" d="M12.0009 1.46994e-07C14.4868 -6.29874e-07 16.9115 0.772144 18.9396 2.20973C20.9678 3.64731 22.4993 5.67935 23.3227 8.02503C24.146 10.3707 24.2205 12.9142 23.5357 15.304C22.851 17.6938 21.4409 19.812 19.5002 21.3657V28.2801C19.5002 28.5467 19.4356 28.8092 19.312 29.0454C19.1883 29.2815 19.0093 29.4842 18.7902 29.636C18.5712 29.7879 18.3186 29.8844 18.0541 29.9173C17.7896 29.9502 17.521 29.9185 17.2714 29.825L12.0009 27.8512L6.73031 29.828C6.48059 29.9216 6.21191 29.9532 5.94729 29.9202C5.68266 29.8872 5.42997 29.7906 5.21087 29.6386C4.99176 29.4866 4.81277 29.2837 4.68923 29.0474C4.56568 28.811 4.50127 28.5483 4.5015 28.2816V21.3672C2.56029 19.8136 1.14963 17.6954 0.464517 15.3053C-0.220592 12.9152 -0.146311 10.3713 0.677093 8.02528C1.5005 5.67924 3.03235 3.64692 5.06091 2.20926C7.08946 0.771604 9.51453 -0.000388928 12.0009 1.46994e-07ZM16.5005 23.1266C15.0705 23.7034 13.5428 23.9993 12.0009 23.998C10.4589 23.9993 8.9312 23.7034 7.50125 23.1266V26.3333L10.948 25.0404C11.6268 24.7859 12.3749 24.7859 13.0538 25.0404L16.5005 26.3333V23.1266ZM12.0009 2.99975C9.61412 2.99975 7.32513 3.94788 5.63744 5.63556C3.94976 7.32325 3.00163 9.61224 3.00163 11.999C3.00163 14.3857 3.94976 16.6747 5.63744 18.3624C7.32513 20.0501 9.61412 20.9982 12.0009 20.9982C14.3876 20.9982 16.6766 20.0501 18.3643 18.3624C20.052 16.6747 21.0001 14.3857 21.0001 11.999C21.0001 9.61224 20.052 7.32325 18.3643 5.63556C16.6766 3.94788 14.3876 2.99975 12.0009 2.99975ZM12.0009 5.99949C13.592 5.99949 15.118 6.63158 16.2432 7.7567C17.3683 8.88183 18.0004 10.4078 18.0004 11.999C18.0004 13.5902 17.3683 15.1161 16.2432 16.2413C15.118 17.3664 13.592 17.9985 12.0009 17.9985C10.4097 17.9985 8.88371 17.3664 7.75858 16.2413C6.63346 15.1161 6.00137 13.5902 6.00137 11.999C6.00137 10.4078 6.63346 8.88183 7.75858 7.7567C8.88371 6.63158 10.4097 5.99949 12.0009 5.99949ZM12.0009 8.99924C11.2053 8.99924 10.4423 9.31529 9.87973 9.87785C9.31717 10.4404 9.00112 11.2034 9.00112 11.999C9.00112 12.7946 9.31717 13.5576 9.87973 14.1201C10.4423 14.6827 11.2053 14.9987 12.0009 14.9987C12.7964 14.9987 13.5594 14.6827 14.122 14.1201C14.6846 13.5576 15.0006 12.7946 15.0006 11.999C15.0006 11.2034 14.6846 10.4404 14.122 9.87785C13.5594 9.31529 12.7964 8.99924 12.0009 8.99924Z" fill="#3195AB"/>
</svg>
