<svg width="24" height="23" viewBox="0 0 24 23" fill="none" xmlns="http://www.w3.org/2000/svg">
<path d="M3.58304 0C2.01668 0 0.44837 1.17477 0.44837 3.5243L3.58304 9.78973L6.71576 3.5243C6.71576 1.17477 5.1494 0 3.58304 0ZM17.4013 1.909C17.0635 1.92319 16.7355 1.98732 16.4614 2.04605L16.6474 2.90755C16.9216 2.84637 17.2055 2.8077 17.4453 2.79007L17.4013 1.909ZM3.58304 1.95795C4.44943 1.95795 5.1494 2.65938 5.1494 3.5243C5.1494 4.3907 4.44943 5.09066 3.58304 5.09066C2.71812 5.09066 2.01668 4.3907 2.01668 3.5243C2.01668 2.65938 2.71812 1.95795 3.58304 1.95795ZM18.3753 1.96774L18.2285 2.83413C18.4683 2.88455 18.7082 2.94769 18.9187 3.07398L19.3445 2.30059C19.0459 2.1415 18.7131 1.99857 18.3753 1.96774ZM15.5608 2.29569C15.2622 2.41219 14.9636 2.51645 14.7091 2.61875L15.0566 3.42641C15.3258 3.31187 15.6097 3.21201 15.8496 3.12782L15.5608 2.29569ZM20.1473 2.95161L19.4767 3.5243C19.6529 3.72597 19.7899 3.97463 19.8976 4.17532L20.6857 3.77884C20.5193 3.45822 20.3724 3.21544 20.1473 2.95161ZM13.8916 2.99566C13.593 3.14789 13.3483 3.28348 13.084 3.41662L13.5147 4.19001C13.7693 4.04316 14.0483 3.90121 14.2734 3.78863L13.8916 2.99566ZM12.3106 3.87184C12.0512 4.02358 11.7966 4.17532 11.547 4.34175L12.0267 5.07598C12.2665 4.91934 12.5162 4.7725 12.7609 4.62565L12.3106 3.87184ZM20.9892 4.74802C20.7004 4.79697 20.4067 4.83123 20.1179 4.8655C20.1375 5.11024 20.1228 5.37456 20.0738 5.58015L20.9305 5.78084C20.9794 5.42841 21.0235 5.06619 20.9892 4.74802ZM10.803 4.83123C10.5582 4.99766 10.3184 5.16898 10.0736 5.33541L10.5827 6.05495C10.8177 5.88363 11.0575 5.7221 11.2974 5.55567L10.803 4.83123ZM9.35409 5.86405C9.10935 6.04027 8.85481 6.23606 8.64433 6.39759L9.17788 7.09756C9.44709 6.90176 9.6331 6.75492 9.87784 6.57381L9.35409 5.86405ZM19.7802 6.25564C19.6333 6.4808 19.462 6.70597 19.2907 6.87729L19.9319 7.48915C20.1424 7.23951 20.3675 6.98498 20.5242 6.73044L19.7802 6.25564ZM7.94437 6.94582C7.70452 7.13182 7.46467 7.32272 7.25419 7.49894L7.81221 8.17932C8.04227 7.98842 8.27722 7.79263 8.49259 7.63599L7.94437 6.94582ZM18.6837 7.4402C18.4585 7.62131 18.2236 7.79752 18.0082 7.94437L18.5124 8.66881C18.7718 8.49259 19.0263 8.3017 19.2466 8.12548L18.6837 7.4402ZM6.57381 8.07164C6.34375 8.25764 6.12348 8.45344 5.89831 8.64434L6.47101 9.31493C6.69128 9.12403 6.91155 8.93313 7.13672 8.74713L6.57381 8.07164ZM17.2887 8.41428C17.039 8.56112 16.7796 8.71286 16.5446 8.84013L16.9656 9.61841C17.2299 9.45688 17.5285 9.31493 17.7488 9.16809L17.2887 8.41428ZM5.22772 9.22682C5.00745 9.42262 4.79207 9.61841 4.57181 9.8191L5.16408 10.475C5.37946 10.2792 5.59973 10.0834 5.8151 9.88763L5.22772 9.22682ZM15.7762 9.2464C15.5167 9.37367 15.2573 9.50583 14.9979 9.6331L15.3748 10.4261C15.6783 10.2792 15.9034 10.1568 16.1775 10.0296L15.7762 9.2464ZM14.2098 10.0002C13.9406 10.1226 13.6812 10.2401 13.407 10.3526L13.7644 11.1603C14.0336 11.0428 14.3028 10.9204 14.572 10.7981L14.2098 10.0002ZM3.92568 10.4261C3.67604 10.6463 3.50228 10.8177 3.27467 11.0379L3.89631 11.6743C4.12637 11.454 4.31238 11.2631 4.52775 11.0771L3.92568 10.4261ZM12.6043 10.71C12.3351 10.8226 12.0658 10.94 11.7966 11.0526L12.1393 11.8701C12.4134 11.7575 12.6826 11.64 12.9518 11.5225L12.6043 10.71ZM10.9841 11.3953C10.7149 11.5127 10.4456 11.6302 10.1715 11.7379L10.5142 12.5553C10.7834 12.4428 11.0575 12.3253 11.3267 12.2127L10.9841 11.3953ZM20.0298 11.7477C18.4634 11.7477 16.8971 12.9224 16.8971 15.272L20.0298 21.5374L23.1625 15.272C23.1625 12.9224 21.5962 11.7477 20.0298 11.7477ZM9.35899 12.0805C9.07998 12.2078 8.78629 12.3253 8.54644 12.4281L8.89397 13.2406C9.18277 13.1182 9.45688 13.0008 9.70163 12.8931L9.35899 12.0805ZM7.73389 12.7756C7.46957 12.898 7.16119 13.035 6.92624 13.1427L7.28846 13.9455C7.57725 13.8182 7.83179 13.6909 8.08632 13.5833L7.73389 12.7756ZM6.11858 13.5098C5.84447 13.642 5.56057 13.7791 5.31583 13.9014L5.71231 14.6895C5.97663 14.5524 6.25075 14.4252 6.49059 14.3077L6.11858 13.5098ZM20.0298 13.7056C20.8962 13.7056 21.5962 14.4056 21.5962 15.272C21.5962 16.1384 20.8962 16.8383 20.0298 16.8383C19.1634 16.8383 18.4634 16.1384 18.4634 15.272C18.4634 14.4056 19.1634 13.7056 20.0298 13.7056ZM4.52286 14.3077C4.26343 14.4496 4.004 14.5965 3.73968 14.7482L4.18022 15.5118C4.42985 15.365 4.68439 15.2279 4.93892 15.0909L4.52286 14.3077ZM2.97118 15.223C2.69658 15.3797 2.43128 15.5902 2.20269 15.7419L2.73623 16.4468C2.97951 16.2705 3.24138 16.0894 3.45088 15.9622L2.97118 15.223ZM1.50762 16.3293C1.27267 16.5447 1.04114 16.7943 0.861497 17.0048L1.53209 17.5775C1.72055 17.3474 1.88452 17.1761 2.10479 16.9803L1.50762 16.3293ZM12.1686 16.3929L12.247 17.2691C12.5015 17.225 12.756 17.2544 13.0106 17.2936L13.1623 16.4272C12.8392 16.3782 12.4966 16.344 12.1686 16.3929ZM10.3477 16.8824L10.6806 17.6998C10.9351 17.5873 11.1995 17.4991 11.4687 17.4159C11.3757 17.1369 11.3071 16.853 11.2337 16.5691C10.9253 16.6572 10.617 16.7747 10.3477 16.8824ZM14.1413 16.8383L13.642 17.5628C13.8476 17.7145 14.0483 17.8761 14.2098 18.0767L14.8755 17.4992C14.6259 17.2446 14.435 17.0048 14.1413 16.8383ZM9.51562 17.2789C9.2464 17.4159 8.98698 17.5726 8.72755 17.7243L9.17298 18.483C9.42751 18.346 9.67715 18.1844 9.92679 18.0523L9.51562 17.2789ZM0.323551 17.8173C0.175726 18.1355 0.0558015 18.4781 0 18.7816L0.866391 18.9333C0.919256 18.6543 0.995126 18.4536 1.10624 18.2138C0.837512 18.0963 0.581021 17.9544 0.323551 17.8173ZM7.96395 18.1991C7.71431 18.3606 7.46957 18.5222 7.22482 18.6886L7.71431 19.4228C7.95905 19.2613 8.1989 19.0949 8.44365 18.9333L7.96395 18.1991ZM15.4384 18.2579L14.6993 18.7376C14.8559 18.9725 15.0077 19.2172 15.1496 19.4669L15.9132 19.0263C15.7419 18.7522 15.6195 18.5075 15.4384 18.2579ZM6.49549 19.1879C6.25075 19.3494 6.006 19.506 5.76615 19.6774L6.25564 20.4116C6.49059 20.2403 6.74023 20.0787 6.98987 19.9123L6.49549 19.1879ZM0.876181 19.6529C0.592768 19.7116 0.306908 19.7606 0.0220269 19.8144C0.073423 20.1571 0.210969 20.4899 0.335298 20.7542L1.13071 20.3724C1.0245 20.1277 0.923661 19.8732 0.876181 19.6529ZM16.3489 19.7899L15.5853 20.2305C15.737 20.4948 15.9132 20.7787 16.0552 21.0039L16.7943 20.5291C16.6279 20.2696 16.4859 20.0249 16.3489 19.7899ZM5.04171 20.1571C4.79697 20.3088 4.55712 20.4557 4.30259 20.5976L4.73823 21.3661C4.99766 21.2144 5.25709 21.0626 5.50672 20.9011L5.04171 20.1571ZM1.55167 20.9549L0.949604 21.601C1.22176 21.8605 1.55755 22.0318 1.92368 22.1101L2.11948 21.2535C1.90215 21.2095 1.69901 21.1018 1.55167 20.9549ZM3.55857 20.9696C3.31334 21.0822 3.0588 21.1703 2.79497 21.2241L2.99566 22.0856C3.30991 22.022 3.60556 21.9045 3.90121 21.7822L3.55857 20.9696ZM17.2789 21.2046L16.5985 21.7577C16.809 22.0171 17.0684 22.2668 17.2936 22.443L17.8369 21.7479C17.6215 21.5815 17.4355 21.3808 17.2789 21.2046ZM18.4585 22.0612L18.2383 22.9178C18.625 22.9961 18.9138 23.0206 19.276 22.9814L19.1683 22.1052C18.9284 22.1444 18.6935 22.1199 18.4585 22.0612Z" fill="#1B6F8E"/>
</svg>
