<svg width="33" height="32" viewBox="0 0 33 32" fill="none" xmlns="http://www.w3.org/2000/svg">
<path d="M21.6536 2.5605L23.6471 5.9419L27.4157 6.78552L28.5023 7.02853L28.3986 8.13788L28.0301 12.0537L30.6045 15.0182L31.3246 15.847L30.6045 16.6758L28.0301 19.6394L28.3986 23.5562L28.5023 24.6655L27.4157 24.9085L23.6471 25.7512L21.6536 29.1336L21.0885 30.0928L20.0651 29.6532L16.5 28.121L12.9349 29.6532L11.9115 30.0928L11.3464 29.1336L9.35194 25.7512L5.5843 24.9085L4.49767 24.6655L4.60139 23.5562L4.96887 19.6394L2.39553 16.6758L1.67539 15.847L2.39553 15.0182L4.96887 12.0537L4.60139 8.13788L4.49767 7.02853L5.5843 6.78552L9.35194 5.9419L11.3464 2.5605L11.9115 1.6013L12.9349 2.04089L16.5 3.57205L20.0651 2.04089L21.0885 1.6013L21.6536 2.5605Z" stroke="#3195AB" stroke-width="2.5"/>
</svg>
