<svg width="1" height="1" viewBox="0 0 1 1" fill="none" xmlns="http://www.w3.org/2000/svg">
<path d="M0.618468 0.136248L0.605308 0.138642L0.520373 0.180511L0.496449 0.185296L0.479701 0.180511L0.394766 0.138642C0.382006 0.134654 0.372436 0.136647 0.366056 0.144622L0.361271 0.156585L0.340934 0.668584L0.346916 0.69251L0.358879 0.708062L0.483289 0.796585L0.501233 0.80137L0.515588 0.796585L0.64 0.708062L0.654355 0.688921L0.65914 0.668584L0.638803 0.157781C0.635613 0.145021 0.628835 0.137843 0.618468 0.136248ZM0.935476 0.00107203L0.919925 0.00346324L0.698616 0.114716L0.686653 0.126679L0.683066 0.139837L0.704598 0.65423L0.710579 0.668584L0.72015 0.676958L0.960598 0.788211C0.97575 0.792199 0.987314 0.789009 0.995289 0.778642L1.00007 0.761894L0.959402 0.027389C0.955414 0.0130339 0.947439 0.00426206 0.935476 0.00107203ZM0.0801489 0.00346324C0.0748772 0.000268441 0.0685767 -0.000767131 0.0625593 0.00057006C0.056542 0.00190725 0.0512728 0.00551463 0.0478504 0.0106414L0.0406722 0.027389L0 0.761894C0.000797508 0.776249 0.00757656 0.78582 0.0203367 0.790605L0.0382799 0.788211L0.278729 0.676958L0.290692 0.667389L0.295476 0.65423L0.315813 0.139837L0.312224 0.125483L0.300261 0.11352L0.0801489 0.00346324Z" fill="#474747"/>
</svg>
