<svg width="16" height="20" viewBox="0 0 16 20" fill="none" xmlns="http://www.w3.org/2000/svg">
<path d="M10.253 0.020364C10.4564 -0.0134996 10.6646 -0.00505851 10.8646 0.0451598C11.0646 0.0953781 11.2521 0.186295 11.4154 0.312232C11.5787 0.43817 11.7143 0.596422 11.8136 0.777106C11.913 0.95779 11.9741 1.15702 11.993 1.36236L12 1.50036V2.72936H14C14.5046 2.7292 14.9906 2.91977 15.3605 3.26286C15.7305 3.60595 15.9572 4.07621 15.995 4.57936L16 4.72936V14.7294C15.9999 15.2338 15.8092 15.7195 15.4662 16.0893C15.1231 16.459 14.653 16.6855 14.15 16.7234L14 16.7294H12V17.9594C11.9999 18.1655 11.9572 18.3695 11.8748 18.5584C11.7923 18.7474 11.6718 18.9173 11.5207 19.0576C11.3696 19.1979 11.1912 19.3055 10.9967 19.3738C10.8021 19.4421 10.5956 19.4695 10.39 19.4544L10.253 19.4384L1.671 18.0084C1.23121 17.9351 0.828498 17.717 0.526835 17.3887C0.225171 17.0604 0.0418537 16.6408 0.00600005 16.1964L9.82842e-09 16.0354V3.42336C-4.41622e-05 2.97764 0.148805 2.54467 0.422916 2.1932C0.697028 1.84173 1.08069 1.5919 1.513 1.48336L1.671 1.45036L10.253 0.020364ZM10 2.09036L2 3.42336V16.0354L10 17.3684V2.09036ZM14 4.72936H12V14.7294H14V4.72936ZM7.5 8.22936C7.89782 8.22936 8.27936 8.3874 8.56066 8.6687C8.84196 8.95001 9 9.33154 9 9.72936C9 10.1272 8.84196 10.5087 8.56066 10.79C8.27936 11.0713 7.89782 11.2294 7.5 11.2294C7.10218 11.2294 6.72064 11.0713 6.43934 10.79C6.15804 10.5087 6 10.1272 6 9.72936C6 9.33154 6.15804 8.95001 6.43934 8.6687C6.72064 8.3874 7.10218 8.22936 7.5 8.22936Z" fill="#474747"/>
</svg>
