<svg width="70" height="73" viewBox="0 0 70 73" fill="none" xmlns="http://www.w3.org/2000/svg">
<path d="M45.1001 18.4H42.1001V11.7514C42.1001 11.1154 41.5631 10.6 40.9001 10.6C40.2371 10.6 39.7001 11.1154 39.7001 11.7514V18.4H30.1001V11.7514C30.1001 11.1154 29.5631 10.6 28.8995 10.6C28.2359 10.6 27.7001 11.1154 27.7001 11.7514V18.4H24.7001C24.3683 18.4 24.1001 18.9214 24.1001 19.2394V22.12C24.1001 25.5754 30.1001 29.5876 30.1001 35.1376V37H32.5001V39.4H37.3001V37H39.7001V35.1376C39.7001 29.5876 45.7001 25.5748 45.7001 22.12V19.2394C45.7001 18.9214 45.4319 18.4 45.1001 18.4ZM34.2443 28.2328C34.2833 28.1068 34.2041 28 34.0667 28H31.7357C31.5977 28 31.5587 27.922 31.6463 27.8206C31.6463 27.8206 36.4493 21.7252 36.5429 21.6076C36.6137 21.496 36.6917 21.535 36.6671 21.6634C36.6299 21.826 35.6045 25.9846 35.6045 25.9846C35.5547 26.107 35.6267 26.2 35.7629 26.2H38.0951C38.2325 26.2 38.2763 26.2924 38.1923 26.3968C38.1923 26.3968 33.3821 32.638 33.2957 32.7424C33.2093 32.8468 33.1283 32.815 33.1721 32.6374L34.2443 28.2328Z" fill="#4B4B4B"/>
</svg>
