<svg width="40" height="40" viewBox="0 0 40 40" fill="none" xmlns="http://www.w3.org/2000/svg">
<path d="M30.4762 24.7619H7.61905L0 32.381V1.90476C0 1.39959 0.20068 0.915104 0.557892 0.557892C0.915104 0.20068 1.39959 0 1.90476 0H30.4762C30.9814 0 31.4659 0.20068 31.8231 0.557892C32.1803 0.915104 32.381 1.39959 32.381 1.90476V22.8571C32.381 23.3623 32.1803 23.8468 31.8231 24.204C31.4659 24.5612 30.9814 24.7619 30.4762 24.7619ZM40 13.3333V40L32.381 32.381H11.4286C10.9234 32.381 10.4389 32.1803 10.0817 31.8231C9.72449 31.4659 9.52381 30.9814 9.52381 30.4762V28.5714H36.1905V11.4286H38.0952C38.6004 11.4286 39.0849 11.6293 39.4421 11.9865C39.7993 12.3437 40 12.8282 40 13.3333ZM11.7905 3.80952C10.1333 3.80952 8.8 4.19048 7.77143 4.93333C6.78095 5.71429 6.28571 6.8 6.30476 8.30476L6.32381 8.3619H10C10.019 7.79048 10.1905 7.35238 10.5333 7.04762C10.886 6.75513 11.3324 6.59959 11.7905 6.60952C12.381 6.60952 12.8762 6.8 13.219 7.14286C13.5619 7.50476 13.7143 8 13.7143 8.57143C13.7143 9.18095 13.581 9.69524 13.2762 10.1333C13.0095 10.5714 12.6095 10.9524 12.1143 11.2571C11.1429 11.9048 10.4762 12.4762 10.1143 12.9905C9.73333 13.4857 9.52381 14.2857 9.52381 15.2381H13.3333C13.3333 14.6476 13.4095 14.1714 13.581 13.8286C13.7524 13.4857 14.0762 13.1429 14.5524 12.8381C15.4095 12.381 16.1143 11.8286 16.6667 11.0667C17.219 10.3048 17.5048 9.52381 17.5048 8.57143C17.5048 7.12381 16.9905 5.9619 15.9619 5.10476C14.9524 4.24762 13.5619 3.80952 11.7905 3.80952ZM9.52381 17.1429V20.9524H13.3333V17.1429H9.52381ZM20.9524 20.9524H24.7619V17.1429H20.9524V20.9524ZM20.9524 3.80952V15.2381H24.7619V3.80952H20.9524Z" fill="#FFCD29"/>
</svg>
