<svg width="25" height="25" viewBox="0 0 25 25" fill="none" xmlns="http://www.w3.org/2000/svg">
<path fill-rule="evenodd" clip-rule="evenodd" d="M11.5585 5.11447C11.9272 5.42905 12.2512 5.80197 12.5001 6.21968C12.7491 5.80197 13.073 5.42905 13.4418 5.11447C14.2918 4.38947 15.422 3.9353 16.5512 3.9353C17.3408 3.9353 18.1866 4.15822 18.9158 4.5353C19.6428 4.91134 20.3053 5.46759 20.6678 6.1728L20.6918 6.22593L22.9105 12.0593C23.3324 12.754 23.5924 13.5348 23.6711 14.3437C23.7497 15.1526 23.6452 15.9689 23.3651 16.7319C23.0851 17.4949 22.6367 18.185 22.0534 18.7509C21.47 19.3168 20.7667 19.744 19.9955 20.0008C19.2244 20.2576 18.4053 20.3374 17.5992 20.2342C16.793 20.131 16.0204 19.8476 15.3388 19.4048C14.6572 18.9621 14.0842 18.3715 13.6622 17.6769C13.2401 16.9823 12.98 16.2015 12.9012 15.3926H12.0991C12.0209 16.2021 11.7612 16.9836 11.3393 17.6789C10.9174 18.3743 10.3443 18.9656 9.66243 19.4089C8.98058 19.8522 8.20757 20.1361 7.40088 20.2395C6.59418 20.343 5.77455 20.2632 5.00292 20.0063C4.23128 19.7493 3.5275 19.3217 2.94388 18.7553C2.36026 18.1888 1.91182 17.4982 1.63189 16.7345C1.35197 15.9709 1.24777 15.1541 1.32703 14.3446C1.40629 13.5352 1.66698 12.7541 2.08971 12.0593L4.30846 6.22593L4.33242 6.17384C4.69596 5.46759 5.35742 4.91134 6.08346 4.5353C6.81367 4.15822 7.65951 3.9353 8.44909 3.9353C9.57826 3.9353 10.7085 4.38947 11.5585 5.11447ZM2.86471 14.8728C2.86471 13.8521 3.27017 12.8733 3.9919 12.1515C4.71362 11.4298 5.69248 11.0244 6.71315 11.0244C7.73382 11.0244 8.71269 11.4298 9.43441 12.1515C10.1561 12.8733 10.5616 13.8521 10.5616 14.8728C10.5616 15.8935 10.1561 16.8723 9.43441 17.5941C8.71269 18.3158 7.73382 18.7212 6.71315 18.7212C5.69248 18.7212 4.71362 18.3158 3.9919 17.5941C3.27017 16.8723 2.86471 15.8935 2.86471 14.8728ZM14.4387 14.8728C14.4387 13.8521 14.8441 12.8733 15.5659 12.1515C16.2876 11.4298 17.2664 11.0244 18.2871 11.0244C19.3078 11.0244 20.2866 11.4298 21.0084 12.1515C21.7301 12.8733 22.1355 13.8521 22.1355 14.8728C22.1355 15.8935 21.7301 16.8723 21.0084 17.5941C20.2866 18.3158 19.3078 18.7212 18.2871 18.7212C17.2664 18.7212 16.2876 18.3158 15.5659 17.5941C14.8441 16.8723 14.4387 15.8935 14.4387 14.8728Z" fill="#474747"/>
</svg>
