<svg width="25" height="25" viewBox="0 0 25 25" fill="none" xmlns="http://www.w3.org/2000/svg">
<path fill-rule="evenodd" clip-rule="evenodd" d="M11.7311 23.0562C11.7311 23.0562 4.1665 16.6853 4.1665 10.4166C4.1665 8.20645 5.04448 6.08683 6.60728 4.52403C8.17008 2.96123 10.2897 2.08325 12.4998 2.08325C14.71 2.08325 16.8296 2.96123 18.3924 4.52403C19.9552 6.08683 20.8332 8.20645 20.8332 10.4166C20.8332 16.6853 13.2686 23.0562 13.2686 23.0562C12.8478 23.4437 12.155 23.4395 11.7311 23.0562ZM12.4998 14.0624C12.9786 14.0624 13.4527 13.9681 13.895 13.7849C14.3374 13.6017 14.7393 13.3331 15.0778 12.9946C15.4164 12.656 15.6849 12.2541 15.8681 11.8118C16.0514 11.3695 16.1457 10.8954 16.1457 10.4166C16.1457 9.93781 16.0514 9.46372 15.8681 9.02139C15.6849 8.57905 15.4164 8.17714 15.0778 7.83859C14.7393 7.50004 14.3374 7.23149 13.895 7.04827C13.4527 6.86505 12.9786 6.77075 12.4998 6.77075C11.5329 6.77075 10.6056 7.15487 9.92184 7.83859C9.23812 8.52232 8.854 9.44965 8.854 10.4166C8.854 11.3835 9.23812 12.3109 9.92184 12.9946C10.6056 13.6783 11.5329 14.0624 12.4998 14.0624Z" fill="#474747"/>
</svg>
