<svg width="25" height="25" viewBox="0 0 25 25" fill="none" xmlns="http://www.w3.org/2000/svg">
<path d="M17.7082 15.8802V23.0386C17.7082 23.1307 17.6838 23.2212 17.6374 23.3008C17.591 23.3805 17.5243 23.4464 17.4441 23.4918C17.364 23.5372 17.2732 23.5606 17.181 23.5595C17.0889 23.5583 16.9987 23.5328 16.9196 23.4854L12.4998 20.8333L8.08005 23.4854C8.00092 23.5328 7.91063 23.5584 7.81839 23.5595C7.72616 23.5605 7.63529 23.5371 7.55509 23.4915C7.47489 23.446 7.40822 23.3799 7.36191 23.3002C7.3156 23.2204 7.2913 23.1298 7.2915 23.0375V15.8813C5.94374 14.8022 4.96441 13.3311 4.48886 11.6714C4.0133 10.0117 4.065 8.24521 4.63681 6.61613C5.20861 4.98705 6.2723 3.57579 7.68086 2.57739C9.08942 1.57898 10.7733 1.04272 12.4998 1.04272C14.2264 1.04272 15.9102 1.57898 17.3188 2.57739C18.7274 3.57579 19.7911 4.98705 20.3629 6.61613C20.9347 8.24521 20.9864 10.0117 20.5108 11.6714C20.0353 13.3311 19.0559 14.8022 17.7082 15.8813M12.4998 15.625C14.1574 15.625 15.7472 14.9665 16.9193 13.7944C18.0914 12.6223 18.7498 11.0326 18.7498 9.37501C18.7498 7.71741 18.0914 6.1277 16.9193 4.9556C15.7472 3.78349 14.1574 3.12501 12.4998 3.12501C10.8422 3.12501 9.25252 3.78349 8.08042 4.9556C6.90832 6.1277 6.24984 7.71741 6.24984 9.37501C6.24984 11.0326 6.90832 12.6223 8.08042 13.7944C9.25252 14.9665 10.8422 15.625 12.4998 15.625ZM12.4998 13.5417C11.3948 13.5417 10.335 13.1027 9.55356 12.3213C8.77216 11.5399 8.33317 10.4801 8.33317 9.37501C8.33317 8.26995 8.77216 7.21014 9.55356 6.42874C10.335 5.64733 11.3948 5.20835 12.4998 5.20835C13.6049 5.20835 14.6647 5.64733 15.4461 6.42874C16.2275 7.21014 16.6665 8.26995 16.6665 9.37501C16.6665 10.4801 16.2275 11.5399 15.4461 12.3213C14.6647 13.1027 13.6049 13.5417 12.4998 13.5417Z" fill="#0097B2"/>
</svg>
