<svg width="46" height="46" viewBox="0 0 46 46" fill="none" xmlns="http://www.w3.org/2000/svg">
<path d="M0 44.4179V2.27784C0 1.67372 0.239986 1.09434 0.667164 0.667164C1.09434 0.239986 1.67372 0 2.27784 0C2.88196 0 3.46134 0.239986 3.88852 0.667164C4.3157 1.09434 4.55568 1.67372 4.55568 2.27784V4.45318H43.2289C43.834 4.47211 44.408 4.72579 44.8293 5.16051C45.2507 5.59523 45.4863 6.17687 45.4863 6.78227C45.4863 7.38768 45.2507 7.96931 44.8293 8.40404C44.408 8.83876 43.834 9.09244 43.2289 9.11137H4.55568V44.4179C4.55568 44.72 4.43569 45.0097 4.2221 45.2233C4.00851 45.4368 3.71882 45.5568 3.41676 45.5568H1.13892C0.83686 45.5568 0.547172 45.4368 0.333582 45.2233C0.119993 45.0097 0 44.72 0 44.4179ZM6.83353 12.5281C6.83353 12.2261 6.95352 11.9364 7.16711 11.7228C7.3807 11.5092 7.67039 11.3892 7.97245 11.3892H39.8622C40.1643 11.3892 40.454 11.5092 40.6676 11.7228C40.8812 11.9364 41.0012 12.2261 41.0012 12.5281V30.1814C41.0012 32.4469 40.1012 34.6195 38.4993 36.2214C36.8974 37.8234 34.7247 38.7233 32.4592 38.7233H15.3754C13.11 38.7233 10.9373 37.8234 9.33539 36.2214C7.73347 34.6195 6.83353 32.4469 6.83353 30.1814V12.5281ZM16.7421 22.0951C16.4921 22.3089 16.2914 22.5744 16.1537 22.8733C16.0161 23.1721 15.9449 23.4972 15.9449 23.8262V30.7509C15.9449 31.0529 16.0649 31.3426 16.2785 31.5562C16.4921 31.7698 16.7818 31.8898 17.0838 31.8898H21.07C21.2211 31.8898 21.3659 31.8298 21.4727 31.723C21.5795 31.6162 21.6395 31.4714 21.6395 31.3203V28.473C21.6395 28.171 21.7595 27.8813 21.9731 27.6677C22.1867 27.4541 22.4764 27.3341 22.7784 27.3341H25.0563C25.3583 27.3341 25.648 27.4541 25.8616 27.6677C26.0752 27.8813 26.1952 28.171 26.1952 28.473V31.3203C26.1952 31.6347 26.4503 31.8898 26.7646 31.8898H30.7509C31.0529 31.8898 31.3426 31.7698 31.5562 31.5562C31.7698 31.3426 31.8898 31.0529 31.8898 30.7509V23.8262C31.8898 23.4972 31.8186 23.1721 31.6809 22.8733C31.5433 22.5744 31.3426 22.3089 31.0925 22.0951L24.6576 16.5827C24.4513 16.4062 24.1888 16.3093 23.9173 16.3093C23.6459 16.3093 23.3833 16.4062 23.177 16.5827L16.7421 22.0951Z" fill="#4B4B4B"/>
</svg>
