<svg width="49" height="56" viewBox="0 0 49 56" fill="none" xmlns="http://www.w3.org/2000/svg">
<path d="M14.9131 25.5653C12.0879 25.5653 9.37851 24.443 7.38084 22.4453C5.38316 20.4477 4.26088 17.7382 4.26088 14.9131V6.39132C4.26088 5.82629 4.48534 5.28441 4.88487 4.88487C5.28441 4.48534 5.82629 4.26088 6.39132 4.26088H8.52176C9.08679 4.26088 9.62868 4.03642 10.0282 3.63689C10.4277 3.23735 10.6522 2.69547 10.6522 2.13044C10.6522 1.56541 10.4277 1.02353 10.0282 0.623991C9.62868 0.224456 9.08679 0 8.52176 0H6.39132C4.69624 0 3.07058 0.67337 1.87197 1.87197C0.67337 3.07058 0 4.69624 0 6.39132V14.9131C0.00273851 17.3199 0.589646 19.6901 1.71032 21.8201C2.83099 23.9502 4.45193 25.7763 6.43393 27.1418C8.34009 28.8191 9.88571 30.866 10.977 33.1585C12.0684 35.451 12.6826 37.9413 12.7826 40.4784C12.7826 44.4336 14.3538 48.2268 17.1506 51.0235C19.9473 53.8203 23.7405 55.3914 27.6957 55.3914C31.6509 55.3914 35.4441 53.8203 38.2409 51.0235C41.0376 48.2268 42.6088 44.4336 42.6088 40.4784V38.0497C44.6171 37.5311 46.3673 36.298 47.5314 34.5813C48.6955 32.8646 49.1936 30.7823 48.9322 28.7247C48.6709 26.6671 47.668 24.7755 46.1117 23.4043C44.5554 22.0332 42.5525 21.2767 40.4784 21.2767C38.4042 21.2767 36.4013 22.0332 34.845 23.4043C33.2887 24.7755 32.2859 26.6671 32.0245 28.7247C31.7632 30.7823 32.2612 32.8646 33.4253 34.5813C34.5894 36.298 36.3396 37.5311 38.3479 38.0497V40.4784C38.3479 43.3035 37.2256 46.0129 35.228 48.0106C33.2303 50.0083 30.5209 51.1306 27.6957 51.1306C24.8706 51.1306 22.1612 50.0083 20.1635 48.0106C18.1658 46.0129 17.0435 43.3035 17.0435 40.4784C17.1489 37.9382 17.7699 35.446 18.8686 33.1533C19.9673 30.8606 21.5209 28.8153 23.4348 27.1418C25.409 25.7716 27.0216 23.9433 28.1347 21.8136C29.2478 19.6839 29.8282 17.3161 29.8262 14.9131V6.39132C29.8262 4.69624 29.1528 3.07058 27.9542 1.87197C26.7556 0.67337 25.1299 0 23.4348 0H21.3044C20.7394 0 20.1975 0.224456 19.798 0.623991C19.3984 1.02353 19.174 1.56541 19.174 2.13044C19.174 2.69547 19.3984 3.23735 19.798 3.63689C20.1975 4.03642 20.7394 4.26088 21.3044 4.26088H23.4348C23.9999 4.26088 24.5418 4.48534 24.9413 4.88487C25.3408 5.28441 25.5653 5.82629 25.5653 6.39132V14.9131C25.5653 16.3119 25.2898 17.6971 24.7544 18.9895C24.2191 20.2819 23.4345 21.4562 22.4453 22.4453C21.4562 23.4345 20.2819 24.2191 18.9895 24.7544C17.6971 25.2898 16.3119 25.5653 14.9131 25.5653ZM40.4784 34.087C39.3483 34.087 38.2645 33.6381 37.4655 32.8391C36.6664 32.04 36.2175 30.9562 36.2175 29.8262C36.2175 28.6961 36.6664 27.6123 37.4655 26.8133C38.2645 26.0142 39.3483 25.5653 40.4784 25.5653C41.6084 25.5653 42.6922 26.0142 43.4913 26.8133C44.2903 27.6123 44.7392 28.6961 44.7392 29.8262C44.7392 30.9562 44.2903 32.04 43.4913 32.8391C42.6922 33.6381 41.6084 34.087 40.4784 34.087Z" fill="#515151"/>
</svg>
