<svg width="19" height="21" viewBox="0 0 19 21" fill="none" xmlns="http://www.w3.org/2000/svg">
<path d="M15.7501 21.0001C14.8751 21.0001 14.1313 20.6938 13.5188 20.0813C12.9063 19.4688 12.6 18.7251 12.6 17.8501C12.6 17.7451 12.6263 17.5001 12.6788 17.1151L5.30252 12.81C5.02252 13.0726 4.69877 13.2784 4.33127 13.4275C3.96377 13.5766 3.57001 13.6508 3.15001 13.6501C2.27501 13.6501 1.53126 13.3438 0.918754 12.7313C0.306251 12.1188 0 11.375 0 10.5C0 9.62504 0.306251 8.88128 0.918754 8.26878C1.53126 7.65628 2.27501 7.35003 3.15001 7.35003C3.57001 7.35003 3.96377 7.42458 4.33127 7.57368C4.69877 7.72278 5.02252 7.92823 5.30252 8.19003L12.6788 3.88501C12.6438 3.76251 12.6221 3.64456 12.6137 3.53116C12.6053 3.41776 12.6007 3.29071 12.6 3.15001C12.6 2.27501 12.9063 1.53126 13.5188 0.918754C14.1313 0.306251 14.8751 0 15.7501 0C16.6251 0 17.3688 0.306251 17.9813 0.918754C18.5938 1.53126 18.9001 2.27501 18.9001 3.15001C18.9001 4.02502 18.5938 4.76877 17.9813 5.38127C17.3688 5.99377 16.6251 6.30002 15.7501 6.30002C15.3301 6.30002 14.9363 6.22547 14.5688 6.07637C14.2013 5.92727 13.8776 5.72182 13.5976 5.46002L6.22127 9.76504C6.25627 9.88754 6.27832 10.0058 6.28742 10.1199C6.29652 10.234 6.30072 10.3607 6.30002 10.5C6.29932 10.6393 6.29512 10.7664 6.28742 10.8812C6.27972 10.996 6.25767 11.1139 6.22127 11.235L13.5976 15.5401C13.8776 15.2776 14.2013 15.0721 14.5688 14.9237C14.9363 14.7753 15.3301 14.7008 15.7501 14.7001C16.6251 14.7001 17.3688 15.0063 17.9813 15.6188C18.5938 16.2313 18.9001 16.9751 18.9001 17.8501C18.9001 18.7251 18.5938 19.4688 17.9813 20.0813C17.3688 20.6938 16.6251 21.0001 15.7501 21.0001ZM15.7501 18.9001C16.0476 18.9001 16.2971 18.7996 16.4987 18.5987C16.7003 18.3978 16.8008 18.1483 16.8001 17.8501C16.7994 17.5519 16.6986 17.3027 16.4977 17.1025C16.2968 16.9023 16.0476 16.8015 15.7501 16.8001C15.4526 16.7987 15.2034 16.8995 15.0025 17.1025C14.8016 17.3055 14.7008 17.5547 14.7001 17.8501C14.6994 18.1455 14.8002 18.395 15.0025 18.5987C15.2048 18.8024 15.454 18.9029 15.7501 18.9001ZM3.15001 11.55C3.44751 11.55 3.69706 11.4492 3.89866 11.2476C4.10027 11.046 4.20072 10.7968 4.20002 10.5C4.19932 10.2032 4.09852 9.95404 3.89761 9.75244C3.69671 9.55084 3.44751 9.45004 3.15001 9.45004C2.85251 9.45004 2.60331 9.55084 2.40241 9.75244C2.20151 9.95404 2.10071 10.2032 2.10001 10.5C2.09931 10.7968 2.20011 11.0464 2.40241 11.2487C2.60471 11.451 2.85391 11.5514 3.15001 11.55ZM15.7501 4.20002C16.0476 4.20002 16.2971 4.09922 16.4987 3.89761C16.7003 3.69601 16.8008 3.44681 16.8001 3.15001C16.7994 2.85321 16.6986 2.60401 16.4977 2.40241C16.2968 2.20081 16.0476 2.10001 15.7501 2.10001C15.4526 2.10001 15.2034 2.20081 15.0025 2.40241C14.8016 2.60401 14.7008 2.85321 14.7001 3.15001C14.6994 3.44681 14.8002 3.69636 15.0025 3.89866C15.2048 4.10097 15.454 4.20142 15.7501 4.20002Z" fill="#156385"/>
</svg>
