<svg width="21" height="20" viewBox="0 0 21 20" fill="none" xmlns="http://www.w3.org/2000/svg">
<path d="M14.0856 1.00018C17.2038 1.00018 19.6704 3.45532 19.6706 6.58421C19.6706 8.48409 18.8051 10.1342 17.4915 11.7414C16.1888 13.3352 14.3426 15.0074 12.2161 16.9357L12.2151 16.9347L11.0089 18.0346L10.3349 18.647L9.66193 18.0346L8.45467 16.9347C6.32832 15.0066 4.48193 13.3351 3.17929 11.7414C1.86556 10.1342 1.00018 8.48415 1.00018 6.58421C1.00035 3.45543 3.46614 1.00035 6.58421 1.00018C7.96926 1.00018 9.29896 1.50806 10.3349 2.34809C11.3708 1.50793 12.7005 1.00026 14.0856 1.00018Z" fill="white" stroke="#8C8C8C" stroke-width="2"/>
</svg>
