<svg width="21" height="21" viewBox="0 0 21 21" fill="none" xmlns="http://www.w3.org/2000/svg">
<path d="M14.3103 1.52421C17.4782 1.52421 19.9842 4.0185 19.9844 7.19731C19.9844 9.12749 19.1051 10.8039 17.7705 12.4368C16.447 14.0559 14.5714 15.7549 12.411 17.7139L12.41 17.7129L11.1845 18.8303L10.4998 19.4525L9.81604 18.8303L8.58953 17.7129C6.42926 15.754 4.55342 14.0559 3.23001 12.4368C1.89532 10.8039 1.01614 9.12755 1.01614 7.19731C1.01631 4.01862 3.52143 1.52438 6.68924 1.52421C8.09638 1.52421 9.44729 2.04018 10.4998 2.89361C11.5522 2.04005 12.9031 1.52429 14.3103 1.52421Z" fill="#FF5050"/>
</svg>
