<svg width="40" height="42" viewBox="0 0 40 42" fill="none" xmlns="http://www.w3.org/2000/svg">
<path d="M20.8179 19.8841H25.2821M20.8179 26.0788H25.2821M29.6429 30.8216C29.6429 31.2952 29.4547 31.7494 29.1198 32.0843C28.7849 32.4192 28.3307 32.6074 27.8571 32.6074H11.7857C11.3121 32.6074 10.8579 32.4192 10.523 32.0843C10.1881 31.7494 10 31.2952 10 30.8216V11.1788C10 10.7052 10.1881 10.251 10.523 9.91609C10.8579 9.5812 11.3121 9.39307 11.7857 9.39307H21.7607C22.2343 9.39317 22.6884 9.58137 23.0232 9.91628L29.1196 16.0127C29.4546 16.3475 29.6428 16.8016 29.6429 17.2752V30.8216Z" stroke="#3195AB" stroke-width="2.5" stroke-linecap="round" stroke-linejoin="round"/>
<path d="M13.9126 25.9768L15.409 27.4732L17.9037 23.9821M13.9126 19.6714L15.409 21.1678L17.9037 17.6768" stroke="#3195AB" stroke-width="2.5" stroke-linecap="round" stroke-linejoin="round"/>
</svg>
