<svg width="70" height="73" viewBox="0 0 70 73" fill="none" xmlns="http://www.w3.org/2000/svg">
<path d="M46.025 24.0667L36.4583 19.8084V17.7084C36.4583 16.9063 35.8021 16.25 35 16.25C34.1979 16.25 33.5417 15.5938 33.5417 14.7917C33.5417 13.9896 34.1979 13.3334 35 13.3334C35.5542 13.3334 36.05 13.6542 36.2833 14.1063C36.5167 14.5584 37.0271 14.7917 37.5229 14.7917C38.6021 14.7917 39.3604 13.6396 38.85 12.6917C37.975 11.0875 36.1375 10.0959 34.125 10.4896C32.4187 10.825 31.0333 12.2396 30.7125 13.9459C30.2896 16.2209 31.6021 18.2188 33.5417 18.9042V19.8229L23.975 24.0813C22.6917 24.6354 21.875 25.9042 21.875 27.2896V27.3042C21.875 29.2584 23.45 30.8334 25.4042 30.8334H27.7083V36.6667C27.7083 38.2709 29.0208 39.5834 30.625 39.5834H39.375C40.9792 39.5834 42.2917 38.2709 42.2917 36.6667V30.8334H44.5958C46.55 30.8334 48.125 29.2584 48.125 27.3042V27.2896C48.125 25.9042 47.3083 24.6354 46.025 24.0667ZM44.5958 27.9167H41.8833C41.3729 27.0417 40.4542 26.4584 39.375 26.4584H30.625C29.5458 26.4584 28.6125 27.0417 28.1167 27.9167H25.4042C24.7333 27.9167 24.5583 26.9688 25.1562 26.7354L35 22.3604L44.8438 26.7354C45.4563 27.0125 45.2521 27.9167 44.5958 27.9167Z" fill="#4B4B4B"/>
</svg>
