<svg width="25" height="25" viewBox="0 0 25 25" fill="none" xmlns="http://www.w3.org/2000/svg">
<path d="M14.5804 4.1665C14.9562 4.1665 15.325 4.26816 15.6478 4.46071C15.9705 4.65326 16.2352 4.92953 16.4137 5.26025L16.92 6.19775C17.0985 6.52848 17.3631 6.80475 17.6859 6.9973C18.0086 7.18985 18.3775 7.29151 18.7533 7.2915H20.8335C21.386 7.2915 21.9159 7.511 22.3066 7.9017C22.6973 8.2924 22.9168 8.8223 22.9168 9.37484V18.7498C22.9168 19.3024 22.6973 19.8323 22.3066 20.223C21.9159 20.6137 21.386 20.8332 20.8335 20.8332H4.16683C3.61429 20.8332 3.08439 20.6137 2.69369 20.223C2.30299 19.8323 2.0835 19.3024 2.0835 18.7498V9.37484C2.0835 8.8223 2.30299 8.2924 2.69369 7.9017C3.08439 7.511 3.61429 7.2915 4.16683 7.2915H6.24704C6.62248 7.29152 6.99094 7.19009 7.31348 6.99793C7.63601 6.80576 7.90062 6.53001 8.07933 6.19984L8.5887 5.25817C8.76741 4.92799 9.03202 4.65224 9.35456 4.46008C9.67709 4.26792 10.0456 4.16648 10.421 4.1665H14.5804Z" stroke="#BCBCBC" stroke-width="2.08333" stroke-linecap="round" stroke-linejoin="round"/>
<path d="M12.5 16.6665C14.2259 16.6665 15.625 15.2674 15.625 13.5415C15.625 11.8156 14.2259 10.4165 12.5 10.4165C10.7741 10.4165 9.375 11.8156 9.375 13.5415C9.375 15.2674 10.7741 16.6665 12.5 16.6665Z" stroke="#BCBCBC" stroke-width="2.08333" stroke-linecap="round" stroke-linejoin="round"/>
</svg>
