<svg width="25" height="25" viewBox="0 0 25 25" fill="none" xmlns="http://www.w3.org/2000/svg">
<path d="M8.33337 11.4584C8.62851 11.4584 8.87608 11.3584 9.07608 11.1584C9.27608 10.9584 9.37573 10.7112 9.37504 10.4167C9.37435 10.1223 9.27435 9.87504 9.07504 9.67504C8.87573 9.47504 8.62851 9.37504 8.33337 9.37504C8.03823 9.37504 7.79101 9.47504 7.59171 9.67504C7.3924 9.87504 7.2924 10.1223 7.29171 10.4167C7.29101 10.7112 7.39101 10.9587 7.59171 11.1594C7.7924 11.3601 8.03962 11.4598 8.33337 11.4584ZM12.5 11.4584C12.7952 11.4584 13.0427 11.3584 13.2427 11.1584C13.4427 10.9584 13.5424 10.7112 13.5417 10.4167C13.541 10.1223 13.441 9.87504 13.2417 9.67504C13.0424 9.47504 12.7952 9.37504 12.5 9.37504C12.2049 9.37504 11.9577 9.47504 11.7584 9.67504C11.5591 9.87504 11.4591 10.1223 11.4584 10.4167C11.4577 10.7112 11.5577 10.9587 11.7584 11.1594C11.9591 11.3601 12.2063 11.4598 12.5 11.4584ZM16.6667 11.4584C16.9618 11.4584 17.2094 11.3584 17.4094 11.1584C17.6094 10.9584 17.7091 10.7112 17.7084 10.4167C17.7077 10.1223 17.6077 9.87504 17.4084 9.67504C17.2091 9.47504 16.9618 9.37504 16.6667 9.37504C16.3716 9.37504 16.1243 9.47504 15.925 9.67504C15.7257 9.87504 15.6257 10.1223 15.625 10.4167C15.6243 10.7112 15.7243 10.9587 15.925 11.1594C16.1257 11.3601 16.373 11.4598 16.6667 11.4584ZM2.08337 22.9167V2.08337H22.9167V18.75H6.25004L2.08337 22.9167ZM5.36462 16.6667H20.8334V4.16671H4.16671V17.8386L5.36462 16.6667Z" fill="#235E81"/>
</svg>
