<svg width="50" height="50" viewBox="0 0 50 50" fill="none" xmlns="http://www.w3.org/2000/svg">
<path d="M18.75 41.4141C18.6666 42.0391 18.875 42.7058 19.3541 43.1433C19.5469 43.3364 19.7758 43.4897 20.0278 43.5942C20.2799 43.6987 20.55 43.7526 20.8229 43.7526C21.0957 43.7526 21.3659 43.6987 21.6179 43.5942C21.87 43.4897 22.0989 43.3364 22.2916 43.1433L30.6458 34.7891C30.8729 34.5669 31.0456 34.2952 31.1504 33.9953C31.2552 33.6954 31.2893 33.3753 31.25 33.06L31.25 22.3933L41.2291 9.62247C41.5675 9.18816 41.7201 8.63759 41.6538 8.09107C41.5874 7.54455 41.3074 7.04652 40.875 6.7058C40.4791 6.41413 40.0416 6.24747 39.5833 6.24747L10.4166 6.24747C9.95831 6.24747 9.52081 6.41413 9.12498 6.7058C8.69255 7.04652 8.41256 7.54455 8.3462 8.09107C8.27984 8.63759 8.43249 9.18816 8.77081 9.62247L18.75 22.3933L18.75 41.4141ZM35.3333 10.4141L27.0833 20.9558L27.0833 32.4558L22.9166 36.6225L22.9166 20.935L14.6666 10.4141L35.3333 10.4141Z" fill="#FFCD29"/>
</svg>
