<svg width="25" height="25" viewBox="0 0 25 25" fill="none" xmlns="http://www.w3.org/2000/svg">
<path d="M23.9582 10.4167C23.9582 9.86415 23.7387 9.33425 23.348 8.94355C22.9573 8.55285 22.4274 8.33335 21.8748 8.33335H15.2915L16.2915 3.57294C16.3123 3.46877 16.3228 3.35419 16.3228 3.2396C16.3228 2.81252 16.1457 2.41669 15.8644 2.13544L14.7603 1.04169L7.90609 7.89585C7.52067 8.28127 7.2915 8.8021 7.2915 9.37502V19.7917C7.2915 20.3442 7.511 20.8741 7.9017 21.2648C8.2924 21.6555 8.8223 21.875 9.37484 21.875H18.7498C19.6144 21.875 20.354 21.3542 20.6665 20.6042L23.8123 13.2604C23.9061 13.0209 23.9582 12.7709 23.9582 12.5V10.4167ZM1.0415 21.875H5.20817V9.37502H1.0415V21.875Z" fill="#235E81"/>
</svg>
