<svg width="24" height="24" viewBox="0 0 24 24" fill="none" xmlns="http://www.w3.org/2000/svg">
<path d="M12.5932 23.2579L12.5822 23.2599L12.5112 23.2949L12.4912 23.2989L12.4772 23.2949L12.4062 23.2599C12.3955 23.2566 12.3875 23.2583 12.3822 23.2649L12.3782 23.2749L12.3612 23.7029L12.3662 23.7229L12.3762 23.7359L12.4802 23.8099L12.4952 23.8139L12.5072 23.8099L12.6112 23.7359L12.6232 23.7199L12.6272 23.7029L12.6102 23.2759C12.6075 23.2653 12.6018 23.2593 12.5932 23.2579ZM12.8582 23.1449L12.8452 23.1469L12.6602 23.2399L12.6502 23.2499L12.6472 23.2609L12.6652 23.6909L12.6702 23.7029L12.6782 23.7099L12.8792 23.8029C12.8918 23.8063 12.9015 23.8036 12.9082 23.7949L12.9122 23.7809L12.8782 23.1669C12.8748 23.1549 12.8682 23.1476 12.8582 23.1449ZM12.1432 23.1469C12.1388 23.1443 12.1335 23.1434 12.1285 23.1445C12.1234 23.1456 12.119 23.1487 12.1162 23.1529L12.1102 23.1669L12.0762 23.7809C12.0768 23.7929 12.0825 23.8009 12.0932 23.8049L12.1082 23.8029L12.3092 23.7099L12.3192 23.7019L12.3232 23.6909L12.3402 23.2609L12.3372 23.2489L12.3272 23.2389L12.1432 23.1469Z" fill="#474747"/>
<path d="M14.253 2.29099C14.4564 2.25713 14.6646 2.26557 14.8646 2.31579C15.0646 2.36601 15.2521 2.45693 15.4154 2.58286C15.5787 2.7088 15.7143 2.86705 15.8136 3.04774C15.913 3.22842 15.9741 3.42765 15.993 3.63299L16 3.77099V4.99999H18C18.5046 4.99983 18.9906 5.1904 19.3605 5.53349C19.7305 5.87658 19.9572 6.34684 19.995 6.84999L20 6.99999V17C19.9999 17.5044 19.8092 17.9901 19.4662 18.3599C19.1231 18.7297 18.653 18.9562 18.15 18.994L18 19H16V20.23C15.9999 20.4362 15.9572 20.6401 15.8748 20.8291C15.7923 21.018 15.6718 21.1879 15.5207 21.3282C15.3696 21.4685 15.1912 21.5762 14.9967 21.6444C14.8021 21.7127 14.5956 21.7401 14.39 21.725L14.253 21.709L5.671 20.279C5.23121 20.2058 4.8285 19.9877 4.52683 19.6594C4.22517 19.3311 4.04185 18.9114 4.006 18.467L4 18.306V5.69399C3.99996 5.24827 4.1488 4.8153 4.42292 4.46383C4.69703 4.11236 5.08069 3.86253 5.513 3.75399L5.671 3.72099L14.253 2.29099ZM14 4.36099L6 5.69399V18.306L14 19.639V4.36099ZM18 6.99999H16V17H18V6.99999ZM11.5 10.5C11.8978 10.5 12.2794 10.658 12.5607 10.9393C12.842 11.2206 13 11.6022 13 12C13 12.3978 12.842 12.7794 12.5607 13.0607C12.2794 13.342 11.8978 13.5 11.5 13.5C11.1022 13.5 10.7206 13.342 10.4393 13.0607C10.158 12.7794 10 12.3978 10 12C10 11.6022 10.158 11.2206 10.4393 10.9393C10.7206 10.658 11.1022 10.5 11.5 10.5Z" fill="#474747"/>
</svg>
