<svg width="80" height="68" viewBox="0 0 80 68" fill="none" xmlns="http://www.w3.org/2000/svg">
<path d="M60.483 13.0029H56.9859V8.50662C56.9859 7.67606 56.3177 7.00787 55.4871 7.00787H18.5179C17.6873 7.00787 17.0191 7.67606 17.0191 8.50662V25.4925C17.0191 26.3231 17.6873 26.9912 18.5179 26.9912H55.4871C56.3177 26.9912 56.9859 26.3231 56.9859 25.4925V16.9996H58.9842V29.4892H37.0649C35.6848 29.4892 34.567 30.607 34.567 31.9871V40.48H31.8193C31.5445 40.48 31.3197 40.7048 31.3197 40.9796V55.2178C31.3197 55.2865 31.3322 55.3552 31.3572 55.4114C31.3322 55.5113 31.3197 55.6112 31.3197 55.7174C31.3197 58.6149 33.6678 60.963 36.5654 60.963C39.4629 60.963 41.811 58.6149 41.811 55.7174C41.811 55.6112 41.7985 55.5113 41.7735 55.4114C41.7985 55.3489 41.811 55.2865 41.811 55.2178V40.9796C41.811 40.7048 41.5862 40.48 41.3114 40.48H38.5637V33.4858H60.483C61.8631 33.4858 62.9809 32.368 62.9809 30.9879V15.5008C62.9809 14.1207 61.8631 13.0029 60.483 13.0029Z" fill="#4B4B4B"/>
</svg>
