<svg width="22" height="27" viewBox="0 0 22 27" fill="none" xmlns="http://www.w3.org/2000/svg">
<path d="M11 10.8C14.0388 10.8 16.5 8.3835 16.5 5.4C16.5 2.4165 14.0388 0 11 0C7.96131 0 5.50007 2.4165 5.50007 5.4C5.50007 8.3835 7.96131 10.8 11 10.8ZM11 2.7C12.5125 2.7 13.75 3.915 13.75 5.4C13.75 6.885 12.5125 8.1 11 8.1C9.48755 8.1 8.25006 6.885 8.25006 5.4C8.25006 3.915 9.48755 2.7 11 2.7ZM19.7863 14.256C17.4763 13.095 14.4788 12.15 11 12.15C7.52131 12.15 4.52382 13.095 2.21383 14.256C1.54291 14.5953 0.980874 15.1105 0.590099 15.7444C0.199323 16.3782 -0.00490235 17.1061 8.93613e-05 17.847V27H2.75008V17.847C2.75008 17.334 3.02508 16.875 3.43758 16.659C5.10132 15.8355 7.74131 14.85 11 14.85C12.045 14.85 13.0213 14.9445 13.9288 15.12L11.7975 19.575H7.90631C5.81632 19.575 4.12507 21.2355 4.12507 23.2875C4.12507 25.3395 5.81632 27 7.90631 27H19.25C20.7625 27 22 25.785 22 24.3V17.847C22 16.335 21.1613 14.9445 19.7863 14.256ZM9.54255 24.3H7.90631C7.34256 24.3 6.87506 23.841 6.87506 23.2875C6.87506 22.734 7.34256 22.275 7.90631 22.275H10.505L9.54255 24.3ZM19.25 24.3H12.5813L16.6238 15.8355C17.3663 16.1055 18.0125 16.389 18.5625 16.659C18.975 16.875 19.25 17.334 19.25 17.847V24.3Z" fill="#3195AB"/>
</svg>
