<svg width="25" height="25" viewBox="0 0 25 25" fill="none" xmlns="http://www.w3.org/2000/svg">
<path d="M15.625 3.125H9.375C8.7534 3.125 8.15726 3.37193 7.71772 3.81147C7.27818 4.25101 7.03125 4.84715 7.03125 5.46875V19.5312C7.03125 20.1529 7.27818 20.749 7.71772 21.1885C8.15726 21.6281 8.7534 21.875 9.375 21.875H15.625C16.2466 21.875 16.8427 21.6281 17.2823 21.1885C17.7218 20.749 17.9688 20.1529 17.9688 19.5312V5.46875C17.9688 4.84715 17.7218 4.25101 17.2823 3.81147C16.8427 3.37193 16.2466 3.125 15.625 3.125ZM16.4062 19.5312C16.4062 19.7385 16.3239 19.9372 16.1774 20.0837C16.0309 20.2302 15.8322 20.3125 15.625 20.3125H9.375C9.1678 20.3125 8.96909 20.2302 8.82257 20.0837C8.67606 19.9372 8.59375 19.7385 8.59375 19.5312V5.46875C8.59375 5.26155 8.67606 5.06284 8.82257 4.91632C8.96909 4.76981 9.1678 4.6875 9.375 4.6875H15.625C15.8322 4.6875 16.0309 4.76981 16.1774 4.91632C16.3239 5.06284 16.4062 5.26155 16.4062 5.46875V19.5312ZM21.0938 8.59375V16.4062C21.0938 16.6135 21.0114 16.8122 20.8649 16.9587C20.7184 17.1052 20.5197 17.1875 20.3125 17.1875C20.1053 17.1875 19.9066 17.1052 19.7601 16.9587C19.6136 16.8122 19.5312 16.6135 19.5312 16.4062V8.59375C19.5312 8.38655 19.6136 8.18784 19.7601 8.04132C19.9066 7.89481 20.1053 7.8125 20.3125 7.8125C20.5197 7.8125 20.7184 7.89481 20.8649 8.04132C21.0114 8.18784 21.0938 8.38655 21.0938 8.59375ZM24.2188 10.1562V14.8438C24.2188 15.051 24.1364 15.2497 23.9899 15.3962C23.8434 15.5427 23.6447 15.625 23.4375 15.625C23.2303 15.625 23.0316 15.5427 22.8851 15.3962C22.7386 15.2497 22.6562 15.051 22.6562 14.8438V10.1562C22.6562 9.94905 22.7386 9.75034 22.8851 9.60382C23.0316 9.45731 23.2303 9.375 23.4375 9.375C23.6447 9.375 23.8434 9.45731 23.9899 9.60382C24.1364 9.75034 24.2188 9.94905 24.2188 10.1562ZM5.46875 8.59375V16.4062C5.46875 16.6135 5.38644 16.8122 5.23993 16.9587C5.09341 17.1052 4.8947 17.1875 4.6875 17.1875C4.4803 17.1875 4.28159 17.1052 4.13507 16.9587C3.98856 16.8122 3.90625 16.6135 3.90625 16.4062V8.59375C3.90625 8.38655 3.98856 8.18784 4.13507 8.04132C4.28159 7.89481 4.4803 7.8125 4.6875 7.8125C4.8947 7.8125 5.09341 7.89481 5.23993 8.04132C5.38644 8.18784 5.46875 8.38655 5.46875 8.59375ZM2.34375 10.1562V14.8438C2.34375 15.051 2.26144 15.2497 2.11493 15.3962C1.96841 15.5427 1.7697 15.625 1.5625 15.625C1.3553 15.625 1.15659 15.5427 1.01007 15.3962C0.86356 15.2497 0.78125 15.051 0.78125 14.8438V10.1562C0.78125 9.94905 0.86356 9.75034 1.01007 9.60382C1.15659 9.45731 1.3553 9.375 1.5625 9.375C1.7697 9.375 1.96841 9.45731 2.11493 9.60382C2.26144 9.75034 2.34375 9.94905 2.34375 10.1562Z" fill="#235E81"/>
</svg>
