<svg width="96" height="73" viewBox="0 0 96 73" fill="none" xmlns="http://www.w3.org/2000/svg">
<path d="M74.691 61.3585C74.691 58.8029 70.0284 51.6604 70.0284 51.6604C70.0284 51.6604 65.2954 58.8029 65.2954 61.3585C65.2954 63.9089 67.3998 65.9775 69.9938 65.9775C72.5879 65.9775 74.691 63.9089 74.691 61.3585ZM40.9778 21.3397H31.5822V12.0774H34.1442V7.02262H17.0549V12.0774H19.6182V26.3931C19.6182 30.115 22.6787 33.1307 26.4531 33.1307H40.9778V35.658H46.1056V18.8149H40.9778V21.3397ZM76.0072 42.3943V28.0785C76.0072 24.3579 72.948 21.341 69.1774 21.341H54.6502V18.8162H49.5224V35.6606H54.6502V33.1319H64.0471V42.3943H61.4877V47.449H78.5731V42.3943H76.0072Z" fill="#4B4B4B"/>
</svg>
