<svg width="34" height="42" viewBox="0 0 34 42" fill="none" xmlns="http://www.w3.org/2000/svg">
<path d="M17 31.5798C17.6021 31.5798 18.1071 31.3756 18.5151 30.9673C18.9231 30.559 19.1264 30.0543 19.125 29.4532V20.9468C19.125 20.3443 18.921 19.8396 18.513 19.4327C18.105 19.0258 17.6007 18.8217 17 18.8203C16.3993 18.8188 15.895 19.023 15.487 19.4327C15.079 19.8424 14.875 20.3471 14.875 20.9468V29.4532C14.875 30.0557 15.079 30.5611 15.487 30.9694C15.895 31.3777 16.3993 31.5812 17 31.5798ZM17 14.5671C17.6021 14.5671 18.1071 14.3629 18.5151 13.9546C18.9231 13.5463 19.1264 13.0416 19.125 12.4405C19.1236 11.8394 18.9196 11.3347 18.513 10.9264C18.1064 10.5181 17.6021 10.3139 17 10.3139C16.3979 10.3139 15.8936 10.5181 15.487 10.9264C15.0804 11.3347 14.8764 11.8394 14.875 12.4405C14.8736 13.0416 15.0776 13.547 15.487 13.9568C15.8964 14.3665 16.4007 14.5699 17 14.5671ZM17 42C16.7521 42 16.5219 41.9823 16.3094 41.9468C16.0969 41.9114 15.8844 41.8582 15.6719 41.7873C10.8906 40.1924 7.08333 37.2414 4.25 32.9344C1.41667 28.6273 0 23.9935 0 19.0329V8.98481C0 8.09873 0.257125 7.30127 0.771375 6.59241C1.28562 5.88354 1.94933 5.36962 2.7625 5.05063L15.5125 0.265823C16.0083 0.0886076 16.5042 0 17 0C17.4958 0 17.9917 0.0886076 18.4875 0.265823L31.2375 5.05063C32.0521 5.36962 32.7165 5.88354 33.2307 6.59241C33.745 7.30127 34.0014 8.09873 34 8.98481V19.0329C34 23.9949 32.5833 28.6295 29.75 32.9365C26.9167 37.2435 23.1094 40.1938 18.3281 41.7873C18.1156 41.8582 17.9031 41.9114 17.6906 41.9468C17.4781 41.9823 17.2479 42 17 42Z" fill="#FFCD29"/>
</svg>
