<svg width="25" height="25" viewBox="0 0 25 25" fill="none" xmlns="http://www.w3.org/2000/svg">
<path d="M17.7085 22.9168C16.8404 22.9168 16.1026 22.613 15.495 22.0054C14.8873 21.3977 14.5835 20.6599 14.5835 19.7918C14.5835 19.6877 14.6095 19.4446 14.6616 19.0627L7.34391 14.7918C7.06613 15.0522 6.74495 15.2564 6.38037 15.4043C6.01579 15.5522 5.62516 15.6259 5.2085 15.6252C4.34044 15.6252 3.60259 15.3213 2.99495 14.7137C2.38732 14.1061 2.0835 13.3682 2.0835 12.5002C2.0835 11.6321 2.38732 10.8943 2.99495 10.2866C3.60259 9.67898 4.34044 9.37516 5.2085 9.37516C5.62516 9.37516 6.01579 9.44912 6.38037 9.59704C6.74495 9.74495 7.06613 9.94877 7.34391 10.2085L14.6616 5.93766C14.6269 5.81613 14.6054 5.69912 14.597 5.58662C14.5887 5.47412 14.5842 5.34808 14.5835 5.2085C14.5835 4.34044 14.8873 3.60259 15.495 2.99495C16.1026 2.38732 16.8404 2.0835 17.7085 2.0835C18.5766 2.0835 19.3144 2.38732 19.922 2.99495C20.5297 3.60259 20.8335 4.34044 20.8335 5.2085C20.8335 6.07655 20.5297 6.8144 19.922 7.42204C19.3144 8.02968 18.5766 8.3335 17.7085 8.3335C17.2918 8.3335 16.9012 8.25954 16.5366 8.11162C16.172 7.9637 15.8509 7.75988 15.5731 7.50016L8.25537 11.771C8.29009 11.8925 8.31197 12.0099 8.321 12.1231C8.33002 12.2363 8.33419 12.362 8.3335 12.5002C8.3328 12.6384 8.32863 12.7644 8.321 12.8783C8.31336 12.9922 8.29148 13.1092 8.25537 13.2293L15.5731 17.5002C15.8509 17.2397 16.172 17.0359 16.5366 16.8887C16.9012 16.7415 17.2918 16.6675 17.7085 16.6668C18.5766 16.6668 19.3144 16.9706 19.922 17.5783C20.5297 18.1859 20.8335 18.9238 20.8335 19.7918C20.8335 20.6599 20.5297 21.3977 19.922 22.0054C19.3144 22.613 18.5766 22.9168 17.7085 22.9168ZM17.7085 20.8335C18.0036 20.8335 18.2512 20.7338 18.4512 20.5345C18.6512 20.3352 18.7509 20.0877 18.7502 19.7918C18.7495 19.496 18.6495 19.2488 18.4502 19.0502C18.2509 18.8516 18.0036 18.7516 17.7085 18.7502C17.4134 18.7488 17.1661 18.8488 16.9668 19.0502C16.7675 19.2516 16.6675 19.4988 16.6668 19.7918C16.6661 20.0849 16.7661 20.3325 16.9668 20.5345C17.1675 20.7366 17.4147 20.8363 17.7085 20.8335ZM5.2085 13.5418C5.50363 13.5418 5.7512 13.4418 5.9512 13.2418C6.1512 13.0418 6.25086 12.7946 6.25016 12.5002C6.24947 12.2057 6.14947 11.9585 5.95016 11.7585C5.75086 11.5585 5.50363 11.4585 5.2085 11.4585C4.91336 11.4585 4.66614 11.5585 4.46683 11.7585C4.26752 11.9585 4.16752 12.2057 4.16683 12.5002C4.16613 12.7946 4.26613 13.0422 4.46683 13.2429C4.66752 13.4436 4.91475 13.5432 5.2085 13.5418ZM17.7085 6.25016C18.0036 6.25016 18.2512 6.15016 18.4512 5.95016C18.6512 5.75016 18.7509 5.50294 18.7502 5.2085C18.7495 4.91405 18.6495 4.66683 18.4502 4.46683C18.2509 4.26683 18.0036 4.16683 17.7085 4.16683C17.4134 4.16683 17.1661 4.26683 16.9668 4.46683C16.7675 4.66683 16.6675 4.91405 16.6668 5.2085C16.6661 5.50294 16.7661 5.75051 16.9668 5.9512C17.1675 6.1519 17.4147 6.25155 17.7085 6.25016Z" fill="#156385"/>
</svg>
