<svg width="25" height="25" viewBox="0 0 25 25" fill="none" xmlns="http://www.w3.org/2000/svg">
<path d="M15.625 1.34375V23.6562L5.976 18.2292H1.04163V6.77083H5.976L15.625 1.34375ZM5.20725 8.85417H3.12496V16.1458H5.20725V8.85417ZM7.29058 16.5781L13.5416 20.0938V4.90625L7.29058 8.42083V16.5781ZM21.8531 7.27292L22.4812 8.10417C23.4373 9.37039 23.9542 10.9139 23.9537 12.5005C23.9531 14.0871 23.435 15.6303 22.4781 16.8958L21.85 17.7271L20.1885 16.4708L20.8166 15.6396C21.5005 14.7355 21.8707 13.6329 21.8711 12.4993C21.8715 11.3657 21.502 10.2629 20.8187 9.35833L20.1906 8.52813L21.8531 7.27292ZM18.9437 9.46875L19.5718 10.3C20.0499 10.9331 20.3085 11.7048 20.3083 12.4981C20.3081 13.2914 20.0492 14.063 19.5708 14.6958L18.9416 15.5271L17.2812 14.2708L17.9093 13.4406C18.1146 13.1694 18.2257 12.8387 18.2259 12.4986C18.2261 12.1585 18.1153 11.8277 17.9104 11.5562L17.2822 10.725L18.9437 9.46875Z" fill="#3E7290"/>
</svg>
