<svg width="44" height="42" viewBox="0 0 44 42" fill="none" xmlns="http://www.w3.org/2000/svg">
<path d="M22 30.8182C23.2893 30.8182 24.5661 30.5642 25.7573 30.0708C26.9485 29.5774 28.0308 28.8542 28.9425 27.9425C29.8542 27.0308 30.5774 25.9485 31.0708 24.7573C31.5642 23.5661 31.8182 22.2893 31.8182 21C31.8182 19.7107 31.5642 18.4339 31.0708 17.2427C30.5774 16.0515 29.8542 14.9692 28.9425 14.0575C28.0308 13.1458 26.9485 12.4226 25.7573 11.9292C24.5661 11.4358 23.2893 11.1818 22 11.1818C19.3961 11.1818 16.8988 12.2162 15.0575 14.0575C13.2162 15.8988 12.1818 18.3961 12.1818 21C12.1818 23.6039 13.2162 26.1012 15.0575 27.9425C16.8988 29.7838 19.3961 30.8182 22 30.8182ZM34 21C34 27.6273 28.6273 33 22 33C15.3727 33 10 27.6273 10 21C10 14.3727 15.3727 9 22 9C28.6273 9 34 14.3727 34 21ZM25.2727 25.8153L20.9091 21.4516V13.9091H23.0909V20.5484L26.8153 24.2727L25.2727 25.8153Z" fill="#3195AB"/>
</svg>
