<svg width="60" height="60" viewBox="0 0 60 60" fill="none" xmlns="http://www.w3.org/2000/svg">
<path d="M29.5723 13C30.9748 13 32.3698 13.885 33.4323 15.655L48.2123 40.29C50.3398 43.8275 48.6973 46.7225 44.5723 46.7225H14.5723C10.4473 46.7225 8.80477 43.825 10.9323 40.29L25.7123 15.655C26.7748 13.885 28.1698 13 29.5723 13ZM29.5723 8C26.3323 8 23.3673 9.85 21.4248 13.0775L6.64477 37.7175C4.67977 40.99 4.46477 44.48 6.05727 47.2925C7.64977 50.105 10.7548 51.7225 14.5723 51.7225H44.5723C48.3898 51.7225 51.4973 50.1075 53.0873 47.295C54.6773 44.4825 54.4648 40.9925 52.4998 37.72L37.7198 13.085C35.7773 9.85 32.8123 8 29.5723 8Z" fill="black"/>
<path d="M30 43.05C31.7949 43.05 33.25 41.6016 33.25 39.815C33.25 38.0284 31.7949 36.58 30 36.58C28.2051 36.58 26.75 38.0284 26.75 39.815C26.75 41.6016 28.2051 43.05 30 43.05Z" fill="black"/>
<path d="M33.75 24.8844C33.75 22.819 32.0725 21.1517 30 21.1517C29.3865 21.1524 28.7824 21.303 28.2409 21.5902C27.6994 21.8774 27.237 22.2925 26.8942 22.799C26.5514 23.3055 26.3387 23.8881 26.2748 24.4955C26.2109 25.1029 26.2977 25.7166 26.5275 26.2829C27.9125 29.707 30 34.8381 30 34.8381L33.4775 26.2829C33.6475 25.8524 33.75 25.3796 33.75 24.8844Z" fill="black"/>
</svg>
