<svg width="25" height="25" viewBox="0 0 25 25" fill="none" xmlns="http://www.w3.org/2000/svg">
<g opacity="0.25">
<path d="M21.8752 12.5C21.5989 12.5 21.3339 12.6097 21.1386 12.8051C20.9432 13.0004 20.8335 13.2654 20.8335 13.5416V19.7916C20.8335 20.0679 20.7237 20.3329 20.5284 20.5282C20.333 20.7236 20.0681 20.8333 19.7918 20.8333H5.2085C4.93223 20.8333 4.66728 20.7236 4.47193 20.5282C4.27658 20.3329 4.16683 20.0679 4.16683 19.7916V5.20831C4.16683 4.93204 4.27658 4.66709 4.47193 4.47174C4.66728 4.27639 4.93223 4.16664 5.2085 4.16664H11.4585C11.7348 4.16664 11.9997 4.0569 12.1951 3.86155C12.3904 3.6662 12.5002 3.40124 12.5002 3.12498C12.5002 2.84871 12.3904 2.58376 12.1951 2.38841C11.9997 2.19306 11.7348 2.08331 11.4585 2.08331H5.2085C4.37969 2.08331 3.58484 2.41255 2.99879 2.9986C2.41274 3.58465 2.0835 4.37951 2.0835 5.20831V19.7916C2.0835 20.6204 2.41274 21.4153 2.99879 22.0014C3.58484 22.5874 4.37969 22.9166 5.2085 22.9166H19.7918C20.6206 22.9166 21.4155 22.5874 22.0015 22.0014C22.5876 21.4153 22.9168 20.6204 22.9168 19.7916V13.5416C22.9168 13.2654 22.8071 13.0004 22.6117 12.8051C22.4164 12.6097 22.1514 12.5 21.8752 12.5ZM6.25016 13.2916V17.7083C6.25016 17.9846 6.35991 18.2495 6.55526 18.4449C6.75061 18.6402 7.01556 18.75 7.29183 18.75H11.7085C11.8456 18.7508 11.9815 18.7245 12.1084 18.6727C12.2353 18.6208 12.3507 18.5444 12.4481 18.4479L19.6564 11.2291L22.6147 8.33331C22.7124 8.23647 22.7899 8.12126 22.8428 7.99433C22.8956 7.86739 22.9229 7.73124 22.9229 7.59373C22.9229 7.45621 22.8956 7.32006 22.8428 7.19313C22.7899 7.06619 22.7124 6.95098 22.6147 6.85414L18.1981 2.38539C18.1012 2.28776 17.986 2.21027 17.8591 2.15738C17.7322 2.1045 17.596 2.07727 17.4585 2.07727C17.321 2.07727 17.1848 2.1045 17.0579 2.15738C16.931 2.21027 16.8157 2.28776 16.7189 2.38539L13.7814 5.33331L6.55225 12.5521C6.4557 12.6494 6.37932 12.7648 6.32748 12.8917C6.27565 13.0187 6.24937 13.1546 6.25016 13.2916ZM17.4585 4.59373L20.4064 7.54164L18.9272 9.02081L15.9793 6.07289L17.4585 4.59373ZM8.3335 13.7187L14.5106 7.54164L17.4585 10.4896L11.2814 16.6666H8.3335V13.7187Z" fill="#898989"/>
</g>
</svg>
