<svg width="33" height="32" viewBox="0 0 33 32" fill="none" xmlns="http://www.w3.org/2000/svg">
<path d="M21.4062 2.53125L23.377 5.87402L27.1025 6.70801L28.1768 6.94824L28.0742 8.04492L27.71 11.916L30.2549 14.8467L30.9668 15.666L30.2549 16.4854L27.71 19.415L28.0742 23.2871L28.1768 24.3838L27.1025 24.624L23.377 25.457L21.4062 28.8008L20.8477 29.749L19.8359 29.3145L16.3115 27.7998L12.7871 29.3145L11.7754 29.749L11.2168 28.8008L9.24512 25.457L5.52051 24.624L4.44629 24.3838L4.54883 23.2871L4.91211 19.415L2.36816 16.4854L1.65625 15.666L2.36816 14.8467L4.91211 11.916L4.54883 8.04492L4.44629 6.94824L5.52051 6.70801L9.24512 5.87402L11.2168 2.53125L11.7754 1.58301L12.7871 2.01758L16.3115 3.53125L19.8359 2.01758L20.8477 1.58301L21.4062 2.53125Z" stroke="#3195AB" stroke-width="2.5"/>
</svg>
