<svg width="21" height="21" viewBox="0 0 21 21" fill="none" xmlns="http://www.w3.org/2000/svg">
<path d="M17.8499 3.05553C16.8871 2.08335 15.7405 1.31251 14.4768 0.787931C13.2131 0.263351 11.8576 -0.00447629 10.4894 5.65894e-05C4.75646 5.65894e-05 0.0839995 4.67252 0.0839995 10.4055C0.0839995 12.243 0.566996 14.0279 1.46999 15.6029L0 20.9999L5.51246 19.5509C7.03494 20.3804 8.74643 20.8214 10.4894 20.8214C16.2224 20.8214 20.8948 16.1489 20.8948 10.416C20.8948 7.6335 19.8133 5.01902 17.8499 3.05553ZM10.4894 19.0574C8.93543 19.0574 7.41294 18.6374 6.07945 17.8499L5.76445 17.6609L2.48848 18.5219L3.35997 15.3299L3.14998 15.0044C2.28641 13.6259 1.82796 12.0322 1.82699 10.4055C1.82699 5.63851 5.71195 1.75354 10.4789 1.75354C12.7889 1.75354 14.9624 2.65654 16.5899 4.29452C17.3959 5.09657 18.0346 6.05068 18.469 7.1015C18.9033 8.15231 19.1248 9.27892 19.1204 10.416C19.1414 15.1829 15.2564 19.0574 10.4894 19.0574ZM15.2354 12.5895C14.9729 12.4635 13.6919 11.8335 13.4609 11.739C13.2194 11.655 13.0514 11.613 12.8729 11.865C12.6944 12.1275 12.2009 12.7155 12.0539 12.8835C11.9069 13.062 11.7494 13.083 11.4869 12.9465C11.2244 12.8205 10.3844 12.537 9.39743 11.655C8.62043 10.962 8.10594 10.1115 7.94844 9.84898C7.80144 9.58648 7.92744 9.44998 8.06394 9.31348C8.17943 9.19798 8.32644 9.00899 8.45243 8.86199C8.57843 8.71499 8.63093 8.59949 8.71493 8.43149C8.79893 8.25299 8.75693 8.10599 8.69393 7.97999C8.63093 7.854 8.10594 6.57301 7.89594 6.04801C7.68594 5.54401 7.46544 5.60701 7.30794 5.59651H6.80395C6.62545 5.59651 6.35245 5.65951 6.11095 5.92201C5.87995 6.18451 5.20796 6.8145 5.20796 8.09549C5.20796 9.37648 6.14245 10.6155 6.26845 10.7835C6.39445 10.962 8.10594 13.587 10.7099 14.7104C11.3294 14.9834 11.8124 15.1409 12.1904 15.2564C12.8099 15.4559 13.3769 15.4244 13.8284 15.3614C14.3324 15.2879 15.3719 14.7314 15.5819 14.1224C15.8024 13.5135 15.8024 12.999 15.7289 12.8835C15.6554 12.768 15.4979 12.7155 15.2354 12.5895Z" fill="#2D8E10"/>
</svg>
