<svg width="24" height="24" viewBox="0 0 24 24" fill="none" xmlns="http://www.w3.org/2000/svg">
<path fill-rule="evenodd" clip-rule="evenodd" d="M6.06 4.69705C6.23409 3.56267 6.77298 2.50517 7.60466 1.66584C8.43635 0.826514 9.52121 0.245348 10.7143 0V2.68633C10.7143 3.00629 10.8497 3.31315 11.0909 3.53941C11.332 3.76566 11.659 3.89276 12 3.89276C12.341 3.89276 12.668 3.76566 12.9091 3.53941C13.1503 3.31315 13.2857 3.00629 13.2857 2.68633V0C14.4785 0.245637 15.563 0.826931 16.3943 1.66623C17.2257 2.50554 17.7643 3.56289 17.9383 4.69705H18.4286C18.7696 4.69705 19.0966 4.82416 19.3377 5.05041C19.5788 5.27666 19.7143 5.58352 19.7143 5.90349C19.7143 6.22345 19.5788 6.53031 19.3377 6.75656C19.0966 6.98281 18.7696 7.10992 18.4286 7.10992H18C18 8.6031 17.3679 10.0351 16.2426 11.0909C15.1174 12.1468 13.5913 12.7399 12 12.7399C10.4087 12.7399 8.88258 12.1468 7.75736 11.0909C6.63214 10.0351 6 8.6031 6 7.10992H5.57143C5.23044 7.10992 4.90341 6.98281 4.66229 6.75656C4.42117 6.53031 4.28571 6.22345 4.28571 5.90349C4.28571 5.58352 4.42117 5.27666 4.66229 5.05041C4.90341 4.82416 5.23044 4.69705 5.57143 4.69705H6.06ZM12 10.3271C11.0907 10.3271 10.2186 9.98813 9.57563 9.38479C8.93265 8.78146 8.57143 7.96316 8.57143 7.10992H15.4286C15.4286 7.96316 15.0673 8.78146 14.4244 9.38479C13.7814 9.98813 12.9093 10.3271 12 10.3271ZM2.57143 19.9786C2.57143 19.6504 2.94857 18.6772 4.83429 17.6316C4.96018 17.5621 5.08764 17.495 5.21657 17.4306L6.87429 21.5871H4.28571C3.83106 21.5871 3.39502 21.4177 3.07353 21.116C2.75204 20.8143 2.57143 20.4052 2.57143 19.9786ZM9.624 21.5871L7.60286 16.533C9.0323 16.1474 10.5127 15.9535 12 15.9571C13.5943 15.9571 15.0857 16.1743 16.3971 16.5314L14.3777 21.5871H9.624ZM17.124 21.5871H19.7143C20.1689 21.5871 20.605 21.4177 20.9265 21.116C21.248 20.8143 21.4286 20.4052 21.4286 19.9786C21.4286 19.6504 21.0514 18.6772 19.1657 17.6316C19.0398 17.5621 18.9124 17.495 18.7834 17.4306L17.124 21.5871ZM12 13.5442C5.4 13.5442 0 16.7614 0 19.9786C0 21.0451 0.451529 22.068 1.25526 22.8221C2.05898 23.5763 3.14907 24 4.28571 24H19.7143C20.8509 24 21.941 23.5763 22.7447 22.8221C23.5485 22.068 24 21.0451 24 19.9786C24 16.7614 18.6 13.5442 12 13.5442Z" fill="#3195AB"/>
</svg>
